<?xml version="1.0" standalone="no"?>
<!DOCTYPE svg PUBLIC "-//W3C//DTD SVG 1.1//EN" "http://www.w3.org/Graphics/SVG/1.1/DTD/svg11.dtd" >
<svg>
<metadata>
Created by FontForge 20090914 at Sun Dec 18 15:28:42 2011
 By www-data
Copyright 1987, 1991, 1995, 1998 , 2002Adobe Systems Incorporated. All Rights Reserved. 
</metadata>
<defs>
<font id="CooperBlackStd" horiz-adv-x="630" >
  <font-face 
    font-family="Cooper Std"
    font-weight="900"
    font-stretch="normal"
    units-per-em="1000"
    panose-1="2 8 9 3 4 3 11 2 4 4"
    ascent="701"
    descent="-299"
    x-height="508"
    cap-height="712"
    bbox="-173 -250 1299 953"
    underline-thickness="50"
    underline-position="-50"
    stemh="109"
    stemv="225"
    unicode-range="U+0020-U+FB02"
  />
<missing-glyph horiz-adv-x="500" 
d="M0 0v700h500v-700h-500zM250 395l170 255h-340zM280 350l170 -255v510zM80 50h340l-170 255zM50 605v-510l170 255z" />
    <glyph glyph-name="fi" unicode="fi" horiz-adv-x="773" 
d="M478 142v174c0 61 -54 39 -54 90c0 75 222 102 249 102c28 0 31 -17 31 -41v-295c0 -102 59 -58 59 -116c0 -30 -17 -67 -177 -67c-135 0 -161 29 -161 59c0 51 53 28 53 94zM699 641c0 -70 -108 -87 -160 -87c-36 0 -84 14 -84 59c0 67 113 88 163 88
c36 0 81 -18 81 -60zM312 211v-71c0 -54 60 -32 60 -82c0 -69 -132 -69 -186 -69c-48 0 -177 1 -177 71c0 56 70 30 74 91l8 108c2 31 -8 47 -40 47c-29 0 -35 -1 -40 4c-4 6 -3 15 -3 42c0 53 0 55 24 57c12 1 28 2 28 19c0 19 -38 56 -38 119c0 119 123 159 223 159
c61 0 166 -38 166 -122c0 -37 -30 -73 -68 -73c-53 0 -88 78 -131 78c-18 0 -31 -18 -31 -35c0 -63 108 -91 120 -126c4 -13 6 -13 19 -13c23 0 60 7 59 -19l-4 -64c-3 -26 -5 -26 -26 -26c-44 0 -37 -67 -37 -95z" />
    <glyph glyph-name="fl" unicode="fl" horiz-adv-x="749" 
d="M469 140l-5 395c0 31 -3 61 -3 92c0 39 19 41 55 50c34 9 102 22 138 22c37 0 49 -14 49 -41c0 -84 -12 -169 -12 -262c0 -75 -2 -160 -2 -244c0 -93 61 -48 61 -101c0 -68 -128 -62 -171 -62c-40 0 -163 -2 -163 59c0 48 54 34 53 92zM305 211v-71c0 -54 60 -32 60 -82
c0 -69 -132 -69 -186 -69c-48 0 -177 1 -177 71c0 56 70 30 74 91l8 108c2 31 -8 47 -40 47c-29 0 -35 -1 -40 4c-4 6 -3 15 -3 42c0 53 0 55 24 57c12 1 28 2 28 19c0 19 -38 56 -38 119c0 119 123 159 223 159c61 0 166 -38 166 -122c0 -37 -30 -73 -68 -73
c-53 0 -88 78 -131 78c-18 0 -31 -18 -31 -35c0 -63 108 -91 120 -126c3 -10 5 -13 18 -13c40 0 96 10 95 -21l-4 -64c-2 -26 -5 -24 -26 -24h-35c-44 0 -37 -67 -37 -95z" />
    <glyph glyph-name=".notdef" horiz-adv-x="500" 
d="M0 0v700h500v-700h-500zM250 395l170 255h-340zM280 350l170 -255v510zM80 50h340l-170 255zM50 605v-510l170 255z" />
    <glyph glyph-name="space" unicode=" " horiz-adv-x="315" 
 />
    <glyph glyph-name="exclam" unicode="!" horiz-adv-x="324" 
d="M273 97c0 -61 -50 -111 -111 -111s-111 50 -111 111s50 111 111 111s111 -50 111 -111zM282 562c0 -62 -23 -137 -51 -192c-9 -19 -44 -84 -69 -84s-60 65 -69 84c-28 55 -51 130 -51 192c0 74 35 153 120 153s120 -79 120 -153z" />
    <glyph glyph-name="quotedbl" unicode="&#x22;" horiz-adv-x="587" 
d="M157 715c77 0 108 -71 108 -138c0 -56 -18 -125 -45 -174c-9 -15 -41 -74 -63 -74s-54 59 -62 74c-27 49 -46 118 -46 174c0 67 32 138 108 138zM430 715c77 0 108 -71 108 -138c0 -56 -18 -125 -45 -174c-9 -15 -41 -74 -63 -74s-54 59 -62 74c-27 49 -46 118 -46 174
c0 67 32 138 108 138z" />
    <glyph glyph-name="numbersign" unicode="#" 
d="M406 164l-19 -145c-2 -12 -10 -19 -22 -19h-38c-10 0 -18 9 -16 19l20 145c1 11 -6 19 -15 19h-36c-10 0 -19 -9 -20 -19l-20 -145c-2 -12 -10 -19 -22 -19h-38c-10 0 -18 9 -16 19l21 145c1 11 -6 19 -15 19h-45c-11 0 -19 8 -19 19v38c0 11 8 19 19 19h56
c10 0 19 9 21 19l5 37c1 11 -6 19 -15 19h-45c-11 0 -19 8 -19 19v38c0 11 8 19 19 19h56c10 0 19 9 21 19l18 134c2 12 10 19 22 19h38c10 0 18 -9 16 -19l-20 -135c-2 -10 5 -18 15 -18h35c10 0 19 9 21 19l19 134c2 12 10 19 22 19h38c10 0 18 -9 16 -19l-19 -135
c-2 -10 5 -18 15 -18h45c11 0 19 -8 19 -19v-38c0 -11 -8 -19 -19 -19h-56c-10 0 -19 -9 -20 -19l-5 -38c-2 -10 5 -18 15 -18h45c11 0 19 -8 19 -19v-38c0 -11 -8 -19 -19 -19h-58c-10 0 -19 -9 -20 -19zM293 259h34c10 0 19 9 21 19l5 37c1 11 -6 19 -15 19h-35
c-10 0 -19 -9 -20 -19l-5 -38c-2 -10 5 -18 15 -18z" />
    <glyph glyph-name="dollar" unicode="$" 
d="M486 594c37 0 96 -77 96 -139c0 -33 -19 -60 -53 -60c-54 0 -93 101 -185 101c-29 0 -54 -14 -54 -46c0 -96 305 -39 305 -269c0 -131 -142 -201 -215 -207c-24 -2 -21 -10 -21 -34c0 -49 -3 -48 -52 -48c-46 0 -58 -7 -58 44c0 16 5 35 -15 37c-38 5 -116 22 -145 43
c-35 26 -55 115 -55 155c0 23 10 47 36 47c69 0 55 -140 210 -140c22 0 73 10 73 43c0 30 -9 36 -117 75c-91 32 -186 95 -186 203c0 100 81 180 176 199c26 5 23 8 23 35c0 50 3 48 52 48c47 0 58 7 58 -44c0 -14 -5 -34 13 -38c13 -2 63 -15 69 -15c12 0 27 10 45 10z" />
    <glyph glyph-name="percent" unicode="%" horiz-adv-x="852" 
d="M838 183c0 -114 -111 -187 -217 -187c-99 0 -188 58 -188 165c0 125 108 191 223 191c89 0 182 -77 182 -169zM679 125c0 35 -15 147 -63 147c-20 0 -30 -21 -30 -38c0 -16 14 -149 64 -149c23 0 29 22 29 40zM419 542c0 -114 -111 -187 -217 -187
c-98 0 -188 59 -188 165c0 126 108 191 223 191c89 0 182 -76 182 -169zM260 484c0 35 -15 147 -63 147c-20 0 -30 -21 -30 -38c0 -16 14 -149 64 -149c23 0 29 22 29 40zM541 469l-190 -324c-71 -121 -63 -150 -108 -150c-15 0 -59 5 -59 26c0 31 22 29 146 245l233 405
c15 31 26 44 61 44c15 0 47 -2 47 -23c0 -30 -30 -52 -130 -223z" />
    <glyph glyph-name="ampersand" unicode="&#x26;" horiz-adv-x="913" 
d="M471 215c-31 0 -45 46 -45 71c0 202 274 184 274 267c0 14 -10 27 -24 27c-9 0 -14 -7 -26 -7c-11 0 -21 10 -21 22c0 55 90 81 133 81c76 0 151 -46 151 -129c0 -127 -149 -161 -149 -191c0 -29 75 -33 75 -120c0 -107 -144 -250 -416 -250c-263 0 -409 140 -409 282
c0 126 110 146 110 166c0 12 -36 60 -36 106c0 110 124 188 249 188c56 0 176 -23 176 -97c0 -28 -28 -58 -57 -58c-30 0 -53 42 -101 42c-38 0 -61 -33 -61 -69c0 -98 109 -32 109 -101c0 -119 -116 -39 -116 -130c0 -101 94 -207 198 -207c67 0 152 44 152 121
c0 36 -31 61 -67 61c-63 0 -67 -75 -99 -75z" />
    <glyph glyph-name="quoteright" unicode="&#x2019;" horiz-adv-x="315" 
d="M45 344c0 21 69 57 69 120c0 37 -77 43 -77 134c0 67 48 117 115 117c72 0 119 -64 119 -132c0 -117 -110 -272 -178 -272c-17 0 -48 12 -48 33z" />
    <glyph glyph-name="parenleft" unicode="(" horiz-adv-x="524" 
d="M70 350c0 206 99 454 332 454c100 0 112 -27 112 -52s-11 -50 -38 -50c-36 0 -46 5 -56 5c-119 0 -133 -272 -133 -357s14 -357 133 -357c10 0 20 5 56 5c27 0 38 -25 38 -50s-12 -52 -112 -52c-233 0 -332 248 -332 454z" />
    <glyph glyph-name="parenright" unicode=")" horiz-adv-x="524" 
d="M454 350c0 -206 -99 -454 -332 -454c-100 0 -112 27 -112 52s11 50 38 50c36 0 46 -5 56 -5c119 0 133 272 133 357s-14 357 -133 357c-10 0 -20 -5 -56 -5c-27 0 -38 25 -38 50s12 52 112 52c233 0 332 -248 332 -454z" />
    <glyph glyph-name="asterisk" unicode="*" horiz-adv-x="758" 
d="M455 593l40 14c11 3 28 10 39 10c35 0 41 -78 41 -80c0 -47 -111 -29 -111 -56c0 -8 62 -73 62 -99c0 -18 -60 -59 -76 -59c-26 0 -59 101 -78 101c-14 0 -68 -91 -94 -91c-16 0 -67 41 -67 62c0 37 73 81 73 98c0 23 -101 17 -101 62c0 15 17 76 40 76
c31 0 82 -36 96 -36c9 0 10 14 10 26c0 8 -1 15 -1 18v42c1 27 18 34 42 34c26 0 60 1 60 -33c0 -22 -7 -57 -7 -85c0 -5 4 -10 9 -10c4 0 19 5 23 6z" />
    <glyph glyph-name="plus" unicode="+" 
d="M492 198h-68c-28 0 -41 1 -46 -4c-6 -6 -5 -19 -5 -47v-68c0 -45 5 -65 -58 -65s-58 20 -58 65v68c0 28 2 42 -4 47s-19 4 -47 4h-68c-45 0 -65 -5 -65 58s20 58 65 58h68c28 0 41 -1 47 5c5 5 4 18 4 46v68c0 45 -5 65 58 65s58 -20 58 -65v-68c0 -28 0 -40 5 -46
s18 -5 46 -5h68c45 0 65 5 65 -58s-20 -58 -65 -58z" />
    <glyph glyph-name="comma" unicode="," horiz-adv-x="315" 
d="M142 -185c-21 0 -50 16 -50 39c0 17 50 77 50 117c0 43 -110 22 -110 143c0 64 52 121 117 121c91 0 133 -88 133 -168c0 -89 -61 -252 -140 -252z" />
    <glyph glyph-name="hyphen" unicode="-" horiz-adv-x="299" 
d="M259 204c-13 -25 -25 -36 -54 -36c-24 0 -49 8 -73 8c-87 0 -93 -4 -102 -4c-16 0 -30 12 -30 30c0 25 31 106 40 124c13 25 25 36 54 36c24 0 49 -8 73 -8c87 0 93 4 102 4c16 0 30 -12 30 -30c0 -25 -31 -106 -40 -124z" />
    <glyph glyph-name="period" unicode="." horiz-adv-x="315" 
d="M278 107c0 -67 -54 -121 -121 -121s-121 54 -121 121s54 121 121 121s121 -54 121 -121z" />
    <glyph glyph-name="slash" unicode="/" horiz-adv-x="496" 
d="M390 455l-249 -511c-35 -71 -31 -92 -76 -92c-25 0 -86 4 -86 37c0 23 51 97 106 209l249 511c35 71 31 92 76 92c25 0 86 -4 86 -37c0 -23 -51 -97 -106 -209z" />
    <glyph glyph-name="zero" unicode="0" 
d="M26 293c0 169 103 296 279 296c169 0 299 -142 299 -308c0 -197 -160 -295 -291 -295c-173 0 -287 141 -287 307zM380 217c0 48 -16 223 -82 223c-42 0 -48 -48 -48 -80c0 -45 18 -225 83 -225c40 0 47 52 47 82z" />
    <glyph glyph-name="one" unicode="1" 
d="M193 235v136c0 45 -4 63 -53 63c-13 0 -25 -2 -37 -2c-21 0 -40 11 -40 33c0 69 225 124 373 124c31 0 83 -2 83 -45c0 -50 -73 -14 -75 -108c-1 -53 -2 -87 -2 -120c0 -44 1 -129 9 -171c18 -89 131 -19 131 -90c0 -35 -31 -44 -60 -51c-52 -11 -148 -18 -202 -18
c-35 0 -279 5 -279 74c0 24 22 40 45 40c17 0 35 -6 52 -6c38 0 55 26 55 141z" />
    <glyph glyph-name="two" unicode="2" 
d="M562 206c37 0 45 -46 45 -75c0 -112 -72 -179 -112 -179c-55 0 -7 48 -98 48h-330c-18 0 -58 -2 -58 26c0 16 -2 16 73 87c51 48 172 173 172 244c0 35 -21 57 -56 57c-61 0 -73 -58 -119 -58c-29 0 -65 28 -65 58c0 88 188 175 311 175c169 0 239 -78 239 -157
c0 -128 -168 -210 -168 -251c0 -23 24 -35 44 -35c71 0 89 60 122 60z" />
    <glyph glyph-name="three" unicode="3" 
d="M206 192c-37 0 -64 -10 -72 -10c-24 0 -42 60 -42 79c0 41 134 36 134 130c0 36 -39 67 -78 67c-49 0 -83 -35 -101 -35c-21 0 -36 37 -36 56c0 53 139 110 257 110c80 0 244 -25 244 -131c0 -86 -75 -104 -75 -127c0 -36 168 -3 168 -177c0 -127 -117 -260 -381 -260
c-50 0 -226 10 -226 82c0 32 25 54 56 54c28 0 61 -18 124 -18s134 34 134 96c0 58 -54 84 -106 84z" />
    <glyph glyph-name="four" unicode="4" 
d="M219 176h31c69 0 70 -2 70 63c0 43 15 142 -24 139c-20 -2 -34 -15 -45 -31c-18 -25 -106 -117 -105 -149c1 -25 58 -22 73 -22zM537 561v-331c0 -29 -3 -40 29 -40c35 0 38 -3 38 -41v-80c0 -23 1 -40 -27 -43c-31 -3 -28 -6 -28 -59c0 -45 9 -64 -42 -64h-151
c-48 0 -42 8 -42 60c0 51 5 65 -49 65h-175c-53 0 -78 8 -78 66c0 74 13 96 102 204l231 266c41 39 87 64 145 64c46 0 47 -31 47 -67z" />
    <glyph glyph-name="five" unicode="5" 
d="M496 402h-210c-23 0 -51 1 -51 -31c0 -25 30 -24 51 -26c259 -29 311 -143 311 -212c0 -129 -149 -242 -364 -242c-160 0 -192 45 -192 81c0 14 7 57 28 57c6 0 63 -20 113 -20c42 0 97 17 97 68c0 65 -94 90 -145 99c-27 4 -101 6 -101 49c0 50 48 188 67 239
c46 125 54 118 104 118h341c37 0 47 -2 47 -44c0 -46 -22 -136 -96 -136z" />
    <glyph glyph-name="six" unicode="6" 
d="M620 261c0 -138 -112 -275 -294 -275c-184 0 -308 129 -308 299c0 163 169 383 231 383c21 3 142 -29 142 -59c0 -13 -18 -31 -26 -40c-37 -41 -70 -88 -70 -120c0 -9 6 -19 16 -19c17 0 63 27 118 27c107 0 191 -91 191 -196zM400 171c0 46 -31 141 -90 141
c-35 0 -48 -31 -48 -62c0 -43 43 -125 91 -125c28 0 47 18 47 46z" />
    <glyph glyph-name="seven" unicode="7" 
d="M238 582h306c26 0 61 -1 61 -38c0 -12 -4 -23 -8 -35l-201 -608c-8 -26 -9 -34 -58 -34c-109 0 -156 40 -156 56c0 7 7 19 10 24l180 344c8 16 27 50 27 68c0 39 -88 33 -118 33c-199 0 -105 -62 -187 -62c-60 0 -75 63 -75 111c0 95 43 169 90 169c41 0 31 -28 129 -28z
" />
    <glyph glyph-name="eight" unicode="8" 
d="M609 487c0 -85 -87 -104 -87 -124c0 -9 17 -19 24 -24c44 -30 73 -83 73 -137c0 -81 -72 -216 -285 -216c-122 0 -323 47 -323 202c0 93 84 113 84 134c0 17 -68 50 -68 136c0 124 135 192 276 192c100 0 306 -29 306 -163zM330 555c-24 0 -53 -13 -53 -39
c0 -37 72 -85 105 -85c24 0 35 39 35 58c0 47 -47 66 -87 66zM307 90c33 0 70 12 70 51c0 42 -38 56 -69 72c-23 12 -75 37 -100 37c-20 0 -26 -23 -26 -40c0 -65 61 -120 125 -120z" />
    <glyph glyph-name="nine" unicode="9" 
d="M494 38c-30 -41 -138 -170 -191 -170c-28 0 -130 41 -130 70c0 10 14 21 22 25c47 25 99 97 99 137c0 13 -9 19 -21 19c-16 0 -32 -3 -48 -3c-145 0 -212 126 -212 240c0 160 155 233 296 233c150 0 302 -74 302 -243c0 -115 -50 -217 -117 -308zM387 304
c0 42 -25 138 -83 138c-33 0 -51 -35 -51 -65c0 -50 28 -129 87 -129c31 0 47 28 47 56z" />
    <glyph glyph-name="colon" unicode=":" horiz-adv-x="315" 
d="M278 404c0 -67 -54 -121 -121 -121s-121 54 -121 121s54 121 121 121s121 -54 121 -121zM278 107c0 -67 -54 -121 -121 -121s-121 54 -121 121s54 121 121 121s121 -54 121 -121z" />
    <glyph glyph-name="semicolon" unicode=";" horiz-adv-x="315" 
d="M282 67c0 -89 -61 -252 -140 -252c-21 0 -50 16 -50 39c0 17 50 77 50 117c0 43 -110 22 -110 143c0 64 52 121 117 121c91 0 133 -88 133 -168zM274 404c0 -67 -54 -121 -121 -121s-121 54 -121 121s54 121 121 121s121 -54 121 -121z" />
    <glyph glyph-name="less" unicode="&#x3c;" 
d="M257 256l262 -114c32 -13 38 -24 38 -47v-32c0 -16 -5 -49 -20 -49c-14 0 -25 6 -38 11l-409 178c-17 7 -16 35 -17 53c1 18 0 46 17 53l409 178c13 5 24 11 38 11c15 0 20 -33 20 -49v-31c0 -24 -6 -35 -38 -48z" />
    <glyph glyph-name="equal" unicode="=" 
d="M492 296h-354c-45 0 -65 -5 -65 58s20 58 65 58h354c45 0 65 5 65 -58s-20 -58 -65 -58zM492 100h-354c-45 0 -65 -5 -65 58s20 58 65 58h354c45 0 65 5 65 -58s-20 -58 -65 -58z" />
    <glyph glyph-name="greater" unicode="&#x3e;" 
d="M111 142l262 114l-262 114c-32 13 -38 24 -38 47v32c0 16 5 49 20 49c14 0 25 -6 38 -11l409 -178c17 -7 16 -35 17 -53c-1 -18 0 -46 -17 -53l-409 -178c-13 -5 -24 -11 -38 -11c-15 0 -20 33 -20 49v31c0 24 6 35 38 48z" />
    <glyph glyph-name="question" unicode="?" horiz-adv-x="506" 
d="M195 559c-7 -65 -46 -107 -113 -107c-42 0 -75 30 -75 73c0 86 86 190 242 190c104 0 247 -69 247 -188c0 -61 -38 -109 -112 -137c-103 -39 -44 -116 -141 -116c-41 0 -67 25 -67 66c0 85 86 130 86 216c0 21 -9 51 -35 51c-28 0 -30 -27 -32 -48zM346 97
c0 -61 -50 -111 -111 -111s-111 50 -111 111s50 111 111 111s111 -50 111 -111z" />
    <glyph glyph-name="at" unicode="@" horiz-adv-x="758" 
d="M475 496c14 0 49 30 91 30c21 0 27 -7 27 -27c0 -11 -9 -55 -19 -94c-5 -20 -40 -147 -10 -147c11 0 76 33 91 154c11 88 -48 232 -246 232c-155 0 -298 -120 -310 -294c-13 -183 120 -293 290 -293c132 0 213 106 229 106s39 -28 38 -41c-1 -10 -130 -136 -292 -136
c-205 0 -362 146 -338 357c24 207 189 372 399 372c153 0 325 -104 309 -291c-15 -174 -150 -271 -303 -271c-64 0 -27 61 -50 61c-18 0 -59 -65 -133 -65c-58 0 -90 46 -84 117c13 142 139 260 228 260c46 0 62 -30 83 -30zM345 263c26 0 92 103 97 161c1 10 -1 24 -12 24
c-24 0 -93 -80 -100 -157c-1 -10 0 -28 15 -28z" />
    <glyph glyph-name="A" unicode="A" horiz-adv-x="869" 
d="M339 289h75c10 0 40 -2 40 13s-29 67 -37 81c-9 16 -26 53 -48 53c-24 0 -41 -60 -45 -71s-21 -50 -21 -62c0 -17 25 -14 36 -14zM141 224l63 137c31 69 72 157 72 236c0 69 32 121 121 121c87 0 142 -89 181 -155c17 -29 168 -335 204 -417c33 -76 87 -30 87 -87
c0 -73 -142 -70 -192 -70c-143 0 -229 1 -229 63c0 48 61 30 61 65c0 45 -25 49 -186 49c-52 0 -83 -2 -83 -51c0 -39 64 -13 64 -65c0 -60 -108 -61 -148 -61c-143 0 -156 27 -156 59c0 47 54 33 83 69c22 27 43 75 58 107z" />
    <glyph glyph-name="B" unicode="B" horiz-adv-x="754" 
d="M680 544c0 -46 -19 -95 -55 -124c-9 -8 -18 -14 -18 -27s11 -17 21 -22c41 -16 112 -69 112 -153c0 -100 -67 -223 -268 -223c-34 0 -65 1 -95 3c-30 1 -60 2 -91 2c-34 0 -69 -1 -103 -2c-34 -2 -68 -3 -103 -3c-31 0 -66 18 -66 53c0 62 65 -1 71 165l11 288
c6 151 -80 82 -80 151c0 38 41 56 72 56c37 0 74 -2 111 -3c37 -2 74 -4 111 -4c24 0 47 2 70 4c23 1 47 3 70 3c183 0 230 -87 230 -164zM334 545v-81c0 -39 -2 -58 29 -58c60 0 74 42 74 97c0 45 -15 101 -70 101c-37 0 -33 -30 -33 -59zM334 270v-50
c0 -116 19 -119 50 -119c57 0 77 39 77 91c0 61 -18 115 -88 115c-31 0 -38 -16 -39 -37z" />
    <glyph glyph-name="C" unicode="C" horiz-adv-x="756" 
d="M24 353c0 205 193 362 390 362c98 0 161 -49 187 -49c22 0 28 7 45 7c42 0 96 -63 96 -174c0 -57 -34 -105 -93 -105c-103 0 -77 177 -255 177c-77 0 -109 -72 -109 -127c0 -148 79 -274 219 -274c127 0 146 69 177 69c29 0 43 -34 43 -59c0 -44 -46 -136 -96 -136
c-34 0 -104 -58 -222 -58c-210 0 -382 166 -382 367z" />
    <glyph glyph-name="D" unicode="D" horiz-adv-x="843" 
d="M96 190l8 347c2 103 -73 53 -73 118c0 46 58 53 93 53h326c278 0 369 -172 369 -352c0 -186 -109 -361 -362 -361c-43 0 -79 1 -110 3c-31 1 -58 2 -86 2s-57 -1 -85 -2c-28 -2 -56 -3 -85 -3c-34 0 -77 17 -77 57c0 72 79 -8 82 138zM344 544v-373c0 -51 8 -72 62 -72
c126 0 148 129 148 229c0 234 -88 271 -165 271c-42 0 -45 -17 -45 -55z" />
    <glyph glyph-name="E" unicode="E" horiz-adv-x="726" 
d="M139 701h288c134 0 153 20 169 20c57 0 81 -98 81 -142c0 -33 -13 -72 -52 -72c-79 0 -15 96 -205 96c-111 0 -100 -20 -100 -135c0 -58 3 -60 64 -60c76 0 19 111 90 111c58 0 62 -113 62 -152c0 -41 -7 -161 -67 -161c-62 0 0 105 -101 105c-42 0 -41 -38 -41 -70
c0 -146 10 -139 115 -139c205 0 147 141 229 141c32 0 48 -36 48 -64c0 -68 -54 -190 -94 -190c-7 0 -23 3 -44 6c-22 2 -50 5 -84 5h-411c-66 0 -67 30 -67 43c0 55 68 11 75 117c12 182 13 164 3 345c-7 153 -83 74 -83 145c0 61 84 51 125 51z" />
    <glyph glyph-name="F" unicode="F" horiz-adv-x="695" 
d="M102 270v139c1 41 2 105 -3 144c-12 86 -77 46 -77 101c0 38 44 54 76 54c26 0 206 -10 289 -10c20 0 221 10 235 10c39 0 80 -79 80 -147c0 -34 -16 -69 -54 -69c-69 0 -33 103 -225 103c-61 0 -87 5 -87 -140c0 -18 1 -35 59 -35c77 0 28 92 98 92
c57 0 61 -109 61 -148c0 -47 -5 -168 -73 -168c-64 0 2 113 -105 113c-44 0 -38 -8 -39 -111c-4 -148 97 -66 97 -142c0 -23 9 -67 -234 -67c-160 0 -186 23 -186 66c0 56 54 30 75 83c10 28 13 99 13 132z" />
    <glyph glyph-name="G" unicode="G" horiz-adv-x="834" 
d="M283 412c0 -206 120 -280 184 -280c35 0 61 26 61 62c0 83 -105 2 -105 94c0 73 151 78 202 78c188 0 199 -53 199 -82c0 -26 -22 -44 -46 -48c-26 -3 -28 -8 -35 -34c-39 -146 -180 -216 -322 -216c-212 0 -397 147 -397 368c0 211 179 361 393 361
c88 0 136 -27 162 -27c18 0 44 15 62 15c62 0 99 -102 99 -153c0 -49 -25 -99 -79 -99c-99 0 -99 139 -235 139c-87 0 -143 -72 -143 -178z" />
    <glyph glyph-name="H" unicode="H" horiz-adv-x="842" 
d="M756 425v-260c0 -30 4 -45 31 -60c20 -11 34 -17 34 -42c0 -24 -2 -74 -199 -74c-44 0 -172 1 -172 68c-4 77 70 -8 70 195c0 54 -12 52 -62 52c-140 0 -127 -4 -127 -94c0 -137 62 -82 62 -147c0 -70 -146 -74 -194 -74c-46 0 -185 4 -185 72c0 21 15 34 32 42
c36 17 49 14 49 223c0 266 -4 244 -41 264c-15 8 -33 17 -33 37c0 77 167 85 223 85c42 0 158 -5 158 -65c0 -31 -17 -42 -40 -56c-25 -14 -31 -26 -31 -115c0 -56 26 -49 74 -49h51c66 0 64 10 64 41c0 109 -17 116 -30 123c-19 11 -37 20 -37 46c0 19 -4 75 195 75
c47 0 180 -1 180 -71c0 -22 -11 -37 -31 -47c-30 -13 -41 -10 -41 -169z" />
    <glyph glyph-name="I" unicode="I" horiz-adv-x="435" 
d="M97 301v99c0 127 -10 156 -21 170c-23 29 -62 32 -62 70c0 72 204 72 224 72c60 0 183 -2 183 -70c0 -36 -38 -34 -61 -60c-19 -22 -20 -112 -20 -182v-99c0 -178 12 -174 32 -186c25 -15 49 -20 49 -51c0 -30 -9 -75 -228 -75c-42 0 -168 1 -168 65c0 32 34 37 50 56
c12 14 22 51 22 191z" />
    <glyph glyph-name="J" unicode="J" horiz-adv-x="659" 
d="M572 526l-8 -308c-6 -212 -226 -232 -282 -232c-116 0 -289 48 -289 191c0 65 45 120 112 120c58 0 116 -36 116 -99c0 -17 -7 -34 -7 -47c0 -25 20 -39 44 -37c118 12 62 216 70 396c5 111 -90 52 -90 119c0 19 8 83 203 83c189 0 211 -46 211 -74
c0 -52 -78 -28 -80 -112z" />
    <glyph glyph-name="K" unicode="K" horiz-adv-x="869" 
d="M529 52l-68 83c-17 20 -76 93 -99 93c-26 0 -30 -26 -30 -55v-21c0 -48 63 -52 63 -101c0 -32 -23 -62 -199 -62c-158 0 -178 27 -178 61c0 52 50 25 62 108c9 56 10 120 10 177c0 62 1 134 -10 195c-13 86 -66 49 -66 110c0 16 -9 72 210 72c47 0 151 1 151 -68
c0 -53 -55 -21 -55 -139c0 -13 1 -42 19 -42c27 0 106 103 106 126c0 21 -16 31 -16 53c0 74 132 70 180 70s164 5 164 -66c0 -82 -104 -33 -139 -68c-20 -20 -105 -81 -105 -123c0 -27 24 -51 40 -70l209 -239c30 -34 91 -30 91 -91c0 -50 -51 -55 -90 -55h-170
c-39 0 -40 3 -80 52z" />
    <glyph glyph-name="L" unicode="L" horiz-adv-x="665" 
d="M445 0h-334c-32 0 -83 -2 -83 44c0 62 78 10 81 126c2 73 2 137 2 196c0 60 -5 116 -7 172c-2 84 -90 40 -90 97c0 73 157 77 206 77c200 -5 210 -34 210 -68c0 -58 -79 -14 -79 -108v-318c0 -72 12 -107 83 -107c170 0 112 139 176 139c45 0 62 -48 62 -86
c0 -78 -56 -178 -102 -178c-18 0 -32 4 -50 7c-19 4 -41 7 -75 7z" />
    <glyph glyph-name="M" unicode="M" horiz-adv-x="929" 
d="M336 151l-58 130c-6 13 -17 43 -35 43c-31 0 -21 -132 -21 -165c0 -107 64 -57 64 -111c0 -57 -107 -59 -146 -59c-35 0 -126 3 -126 55c0 57 60 10 68 92c8 84 17 177 17 322c0 60 -4 91 -15 114c-10 21 -67 28 -67 69c0 57 93 71 173 71c117 0 115 -20 145 -71
c35 -59 97 -223 141 -233c31 -7 72 114 108 180c51 94 52 124 184 124c44 0 144 -3 144 -66c0 -40 -45 -48 -55 -82c-8 -28 -15 -146 -15 -191c0 -15 6 -125 10 -218c3 -73 63 -57 63 -102c0 -67 -137 -64 -181 -64c-41 0 -178 -4 -178 60c0 35 45 41 52 73
c4 17 24 189 -11 189c-31 0 -63 -88 -87 -139c-22 -46 -58 -160 -90 -156c-16 2 -24 0 -84 135z" />
    <glyph glyph-name="N" unicode="N" horiz-adv-x="873" 
d="M312 668l237 -208c12 -10 44 -39 62 -39c25 0 26 41 26 58c0 25 -1 68 -9 91c-14 42 -67 27 -67 81c0 64 102 61 144 61c44 0 153 5 153 -64c0 -57 -53 -36 -70 -82c-13 -36 -13 -98 -13 -136v-259c0 -45 6 -182 -61 -182c-20 0 -37 12 -52 25l-309 277
c-14 13 -40 37 -61 37c-31 0 -32 -65 -32 -86c0 -28 1 -65 7 -91c15 -64 68 -40 68 -89c0 -67 -103 -73 -150 -73c-46 0 -149 6 -149 71c0 53 58 32 68 96c7 43 9 106 9 151c0 72 0 145 -11 217c-16 100 -88 61 -88 121c0 71 135 67 180 67c62 0 73 -4 118 -44z" />
    <glyph glyph-name="O" unicode="O" horiz-adv-x="818" 
d="M399 -14c-211 0 -375 154 -375 367c0 212 169 362 387 362c276 0 382 -243 382 -372c0 -215 -190 -357 -394 -357zM536 242c0 91 -54 324 -171 324c-56 0 -84 -58 -84 -107c0 -85 60 -324 168 -324c61 0 87 53 87 107z" />
    <glyph glyph-name="P" unicode="P" horiz-adv-x="719" 
d="M474 482c0 63 -32 115 -99 115c-39 0 -38 -12 -38 -32v-150c0 -21 -9 -44 45 -44c66 0 92 50 92 111zM107 158v391c0 75 -93 35 -93 98c0 40 44 48 75 48c25 0 49 -2 74 -2c145 0 253 15 275 15c136 0 267 -72 267 -222c0 -149 -126 -229 -265 -229c-30 0 -60 5 -87 5
c-12 0 -16 -5 -16 -16v-58c3 -125 76 -73 76 -131c0 -65 -144 -68 -189 -68c-42 0 -190 1 -190 66c0 55 73 21 73 103z" />
    <glyph glyph-name="Q" unicode="Q" horiz-adv-x="821" 
d="M536 242c0 91 -54 324 -171 324c-56 0 -84 -58 -84 -107c0 -85 60 -324 168 -324c61 0 87 53 87 107zM404 -154l-154 63c-86 35 -121 54 -166 54c-8 0 -16 -2 -25 -2c-16 0 -23 15 -23 29c0 42 41 65 79 65c7 0 14 -1 21 -1c6 0 15 2 15 10c0 22 -127 88 -127 289
c0 212 169 362 387 362c276 0 382 -243 382 -372c0 -157 -92 -270 -238 -329c-5 -2 -13 -8 -13 -14c0 -16 34 -46 150 -46c40 0 71 18 79 18c15 0 26 -26 26 -39c0 -31 -65 -120 -229 -120c-62 0 -106 12 -164 33z" />
    <glyph glyph-name="R" unicode="R" horiz-adv-x="816" 
d="M326 544l-4 -95c-2 -26 -7 -48 26 -48c65 0 86 36 86 98c0 49 -12 99 -70 99c-37 0 -36 -23 -38 -54zM90 208v285c0 155 -76 91 -76 153c0 55 78 62 118 62c21 0 41 -2 62 -3c20 -2 41 -4 61 -4c32 0 64 2 97 4c32 1 65 3 97 3c113 0 244 -50 244 -183
c0 -60 -29 -118 -85 -145c-9 -5 -16 -8 -16 -20c0 -15 13 -19 25 -24c70 -26 101 -72 115 -180c12 -93 77 -37 77 -98c0 -38 -46 -78 -159 -78c-160 0 -180 92 -211 224c-11 46 -28 91 -83 91c-22 0 -30 -3 -30 -66c0 -29 2 -69 7 -97c8 -46 59 -32 59 -80
c0 -36 -25 -63 -187 -63c-48 0 -190 0 -190 73c0 52 75 16 75 146z" />
    <glyph glyph-name="S" unicode="S" horiz-adv-x="678" 
d="M135 305c-55 44 -95 105 -95 177c0 104 100 233 294 233c64 0 136 -29 151 -29c14 0 28 12 49 12c34 0 110 -74 110 -158c0 -34 -22 -68 -59 -68c-67 0 -106 114 -210 114c-31 0 -64 -14 -64 -50c0 -79 137 -58 253 -135c62 -41 93 -91 93 -166
c0 -117 -96 -249 -329 -249c-66 0 -179 17 -236 48c-48 27 -71 133 -71 184c0 27 12 54 42 54c71 0 59 -159 243 -159c22 0 77 11 77 49c0 72 -137 54 -248 143z" />
    <glyph glyph-name="T" unicode="T" horiz-adv-x="737" 
d="M252 701h246c43 0 63 4 78 7c14 4 22 7 41 7c39 0 120 -77 120 -185c0 -50 -26 -83 -77 -83c-87 0 -86 118 -137 118c-39 0 -35 -54 -35 -62v-307c0 -119 92 -62 92 -132c0 -31 -19 -75 -206 -75c-51 0 -238 -2 -238 75c0 53 62 32 82 70c10 21 14 81 15 106l8 221
c4 105 -17 104 -31 104c-45 0 -67 -118 -148 -118c-39 0 -62 36 -62 72c0 85 72 196 129 196c7 0 18 -3 37 -7c19 -3 46 -7 86 -7z" />
    <glyph glyph-name="U" unicode="U" horiz-adv-x="862" 
d="M629 279v249c0 107 -86 66 -86 124c0 62 116 60 157 60c38 0 148 0 148 -58c0 -56 -75 -22 -75 -113v-270c0 -45 1 -285 -345 -285c-394 0 -350 304 -350 316v231c4 63 -64 63 -64 109c0 14 -11 70 195 70c163 0 196 -30 196 -69c0 -72 -73 -5 -78 -127v-184
c0 -119 45 -195 151 -195c158 0 151 131 151 142z" />
    <glyph glyph-name="V" unicode="V" horiz-adv-x="844" 
d="M722 532l-225 -456c-21 -41 -41 -87 -95 -87c-58 0 -73 33 -95 80l-199 440c-30 65 -39 77 -78 83c-20 3 -30 18 -30 39c0 77 159 81 210 81c210 0 202 -50 202 -65c0 -38 -48 -40 -48 -67c0 -21 39 -99 63 -151c9 -17 20 -56 42 -57c33 -2 50 54 62 75
c12 24 58 114 58 138c0 36 -51 26 -51 66c0 62 126 61 166 61c126 0 147 -23 147 -58c0 -27 -20 -40 -44 -43c-43 -5 -47 -2 -85 -79z" />
    <glyph glyph-name="W" unicode="W" horiz-adv-x="1093" 
d="M673 58l-92 219c-5 11 -13 42 -29 42c-19 0 -26 -26 -52 -90l-61 -151c-21 -52 -31 -89 -96 -89c-56 0 -71 35 -89 81l-186 475c-28 72 -68 35 -68 96c0 69 135 71 181 71c146 0 171 -23 171 -64c0 -30 -23 -34 -23 -65c0 -29 31 -102 35 -114c5 -16 27 -86 50 -86
c26 0 47 72 52 87c3 6 13 32 13 39c0 9 -21 71 -51 88c-20 10 -37 24 -37 49c0 6 -14 66 195 66c194 0 190 -45 190 -62c0 -33 -45 -42 -45 -67c0 -27 34 -89 44 -111c7 -16 29 -78 53 -78c34 0 77 170 77 184c0 43 -65 21 -65 76c0 61 102 58 143 58s116 -5 116 -61
c0 -49 -42 -36 -69 -106l-172 -450c-21 -54 -44 -106 -101 -106c-50 0 -66 27 -84 69z" />
    <glyph glyph-name="X" unicode="X" horiz-adv-x="835" 
d="M610 532l-69 -88c-3 -3 -14 -16 -14 -21c0 -7 10 -17 14 -22l187 -235c51 -64 107 -37 107 -96c0 -30 -3 -81 -248 -81c-42 0 -189 -5 -189 61c0 38 41 38 41 59c0 26 -41 80 -56 100c-5 5 -9 14 -17 14c-13 0 -74 -91 -74 -105c0 -23 42 -21 42 -66
c0 -28 -25 -63 -167 -63c-143 0 -167 34 -167 68c0 26 17 49 58 49c39 0 65 19 120 88l92 115c3 4 14 16 14 21c0 7 -10 18 -14 22l-142 184c-51 66 -111 35 -111 93c0 23 2 83 247 83c142 0 174 -20 174 -63c0 -44 -36 -40 -36 -59c0 -15 35 -61 47 -61c13 0 52 51 52 61
c0 23 -38 20 -38 61c0 34 25 61 172 61c42 0 146 0 146 -63c0 -46 -37 -47 -72 -50c-39 -3 -76 -38 -99 -67z" />
    <glyph glyph-name="Y" unicode="Y" horiz-adv-x="819" 
d="M697 572l-123 -135c-44 -55 -47 -85 -47 -155c0 -92 5 -132 14 -151c14 -29 67 -23 67 -70c0 -72 -158 -72 -207 -72c-196 0 -222 45 -222 72c0 54 57 34 75 75c10 23 16 69 16 166c0 57 -9 76 -44 121l-113 131c-49 57 -114 41 -114 90c0 23 -7 68 226 68
c208 0 206 -39 206 -61c0 -26 -28 -36 -28 -57c0 -22 40 -85 65 -85c26 0 68 53 68 76c0 28 -29 30 -29 68c0 59 116 59 154 59c125 0 158 -15 158 -59c0 -64 -72 -27 -122 -81z" />
    <glyph glyph-name="Z" unicode="Z" horiz-adv-x="721" 
d="M638 609l-215 -370c-9 -15 -44 -74 -44 -91c0 -24 54 -23 69 -23c175 0 118 132 194 132c50 0 72 -30 72 -77c0 -108 -66 -189 -101 -189c-5 0 -24 2 -45 5c-21 2 -44 4 -58 4h-422c-34 0 -71 -9 -71 38c0 19 12 35 21 50l252 428c5 8 18 27 18 38c0 26 -41 29 -66 29
c-126 0 -95 -135 -166 -135c-41 0 -69 45 -69 83c0 76 69 177 93 177c5 0 12 -3 32 -7c21 -3 57 -7 119 -7c43 0 120 5 194 9c73 5 142 9 166 9c29 0 51 -15 51 -46c0 -18 -16 -42 -24 -57z" />
    <glyph glyph-name="bracketleft" unicode="[" horiz-adv-x="524" 
d="M321 628v-555c0 -65 -4 -85 66 -85c21 0 41 4 61 4c22 0 49 -9 49 -35c0 -61 -77 -58 -193 -58c-142 0 -175 -13 -175 174v555c0 187 33 174 175 174c116 0 193 3 193 -58c0 -26 -27 -35 -49 -35c-20 0 -40 4 -61 4c-70 0 -66 -20 -66 -85z" />
    <glyph glyph-name="backslash" unicode="\" horiz-adv-x="496" 
d="M393 -56l-276 511c-60 112 -115 186 -117 209c-1 33 60 37 85 37c53 0 50 -21 88 -92l276 -511c61 -112 119 -186 119 -209c0 -33 -69 -37 -94 -37c-45 0 -42 21 -81 92z" />
    <glyph glyph-name="bracketright" unicode="]" horiz-adv-x="524" 
d="M203 73v555c0 65 4 85 -66 85c-21 0 -41 -4 -61 -4c-22 0 -49 9 -49 35c0 61 77 58 193 58c142 0 175 13 175 -174v-555c0 -187 -33 -174 -175 -174c-116 0 -193 -3 -193 58c0 26 27 35 49 35c20 0 40 -4 61 -4c70 0 66 20 66 85z" />
    <glyph glyph-name="asciicircum" unicode="^" 
d="M429 204l-114 262l-114 -262c-13 -32 -24 -38 -47 -38h-32c-16 0 -49 5 -49 20c0 14 6 25 11 38l178 409c7 17 35 16 53 17c18 -1 46 0 53 -17l178 -409c5 -13 11 -24 11 -38c0 -15 -33 -20 -49 -20h-31c-24 0 -35 6 -48 38z" />
    <glyph glyph-name="underscore" unicode="_" horiz-adv-x="500" 
d="M0 -75h500v-50h-500v50z" />
    <glyph glyph-name="quoteleft" unicode="&#x2018;" horiz-adv-x="315" 
d="M270 682c0 -21 -69 -57 -69 -120c0 -37 77 -43 77 -134c0 -67 -48 -117 -115 -117c-72 0 -119 64 -119 132c0 117 110 272 178 272c17 0 48 -12 48 -33z" />
    <glyph glyph-name="a" unicode="a" horiz-adv-x="596" 
d="M279 215c-34 0 -57 -32 -57 -64c0 -26 14 -54 43 -54c38 0 41 41 41 71c0 22 1 47 -27 47zM522 339v-100c0 -176 60 -80 60 -134c0 -57 -78 -119 -151 -119c-79 0 -81 51 -106 51c-12 0 -25 -13 -47 -25c-22 -13 -52 -26 -98 -26c-83 0 -166 44 -166 143
c0 71 68 159 244 159c31 0 45 -2 45 34c0 33 -1 102 -47 102c-60 0 -66 -108 -155 -108c-32 0 -56 23 -56 55c0 85 169 140 264 140c57 0 213 -22 213 -172z" />
    <glyph glyph-name="b" unicode="b" horiz-adv-x="665" 
d="M298 658l-6 -193c0 -5 -1 -16 7 -16c5 0 21 16 47 31c26 16 61 31 105 31c106 0 196 -89 196 -221c0 -171 -128 -304 -300 -304c-126 0 -185 65 -201 65s-32 -15 -65 -15c-14 0 -30 4 -30 20s20 48 20 178v266c0 58 -75 32 -75 89c0 67 194 112 277 112
c27 0 26 -21 25 -43zM422 203c0 47 -13 154 -79 154c-44 0 -49 -36 -49 -70c0 -194 11 -210 51 -210c66 0 77 75 77 126z" />
    <glyph glyph-name="c" unicode="c" horiz-adv-x="553" 
d="M17 250c0 144 125 261 293 261c150 0 229 -83 229 -153c0 -56 -42 -99 -98 -99c-108 0 -58 124 -137 124c-44 0 -68 -45 -68 -85c0 -74 55 -149 134 -149c63 0 84 26 105 26c27 0 45 -30 45 -54c0 -59 -90 -135 -230 -135c-151 0 -273 111 -273 264z" />
    <glyph glyph-name="d" unicode="d" horiz-adv-x="683" 
d="M399 278c0 39 0 124 -58 124c-67 0 -79 -115 -79 -162s12 -129 74 -129c67 0 63 123 63 167zM620 647v-478c0 -70 53 -47 53 -99c0 -76 -219 -81 -230 -81c-51 0 -15 55 -48 55c-9 0 -24 -14 -47 -29c-23 -14 -54 -29 -98 -29c-131 0 -233 139 -233 262
c0 133 108 263 246 263c69 0 108 -30 119 -30c15 0 16 33 16 44c0 62 -73 29 -73 83c0 74 255 93 258 93c30 0 37 -21 37 -54z" />
    <glyph glyph-name="e" unicode="e" horiz-adv-x="557" 
d="M481 230h-217c-11 0 -27 3 -27 -14c0 -50 65 -92 112 -92c75 0 112 45 133 45s39 -31 39 -50c0 -77 -141 -133 -231 -133c-180 0 -273 130 -273 259c0 154 131 266 281 266c170 0 245 -131 245 -206c0 -66 -30 -75 -62 -75zM292 326c27 0 59 -6 59 30s-22 64 -59 64
c-33 0 -60 -34 -60 -66c0 -36 34 -28 60 -28z" />
    <glyph glyph-name="f" unicode="f" horiz-adv-x="446" 
d="M83 151l8 108c2 31 -8 47 -40 47c-12 0 -43 -5 -43 13c0 79 -6 88 24 90c12 1 28 2 28 19c0 19 -38 56 -38 119c0 119 123 159 223 159c163 0 201 -86 201 -129c0 -42 -34 -77 -76 -77c-87 0 -98 90 -155 90c-20 0 -34 -16 -34 -36c0 -63 104 -84 122 -128
c3 -8 4 -11 14 -11c42 0 99 11 97 -19l-5 -73c-1 -15 -12 -17 -26 -17c-59 0 -69 1 -69 -65c0 -28 3 -63 10 -89c18 -60 89 -28 89 -90c0 -24 -2 -73 -227 -73c-48 0 -177 1 -177 71c0 56 70 30 74 91z" />
    <glyph glyph-name="g" unicode="g" horiz-adv-x="607" 
d="M350 317c0 41 -9 115 -65 115c-39 0 -56 -37 -56 -72c0 -38 10 -121 61 -121c45 0 60 39 60 78zM162 -50c0 -53 78 -67 117 -67c33 0 108 5 108 51c0 21 -20 30 -39 30c-15 0 -54 -6 -86 -6c-23 0 -77 8 -88 8c-9 0 -12 -9 -12 -16zM600 8c0 -90 -86 -211 -331 -211
c-185 0 -255 70 -255 134c0 58 55 59 55 74c0 13 -54 41 -54 85c0 71 81 92 81 106c0 12 -68 58 -68 132c0 121 151 177 252 177c51 0 120 -19 155 -19c76 0 114 53 129 53c23 0 33 -30 33 -49c0 -56 -56 -96 -56 -107c0 -10 3 -21 3 -31c0 -135 -157 -181 -267 -181
c-17 0 -34 3 -52 3c-17 0 -27 -11 -27 -27c0 -31 44 -37 67 -37c31 0 147 17 187 17c104 0 148 -59 148 -119z" />
    <glyph glyph-name="h" unicode="h" horiz-adv-x="713" 
d="M650 310l4 -161c0 -85 49 -64 49 -103c0 -58 -128 -57 -165 -57c-31 0 -152 0 -152 51c0 29 28 28 36 79c6 32 7 67 7 100c0 50 -1 144 -72 144c-61 0 -59 -52 -59 -97v-116c0 -83 40 -66 40 -102c0 -58 -114 -59 -152 -59c-143 0 -176 30 -176 61c0 40 39 22 56 87
c12 47 12 179 12 234c0 45 -3 91 -4 136c-2 71 -62 46 -62 93c0 80 260 101 261 101c30 0 32 -9 32 -38l-6 -190c-1 -19 -2 -51 24 -51c30 0 43 89 155 89c184 0 171 -173 172 -201z" />
    <glyph glyph-name="i" unicode="i" horiz-adv-x="375" 
d="M305 464v-279c0 -118 59 -75 59 -128c0 -68 -127 -68 -172 -68c-172 0 -179 39 -179 63c0 36 41 38 53 69c13 35 15 180 4 217c-9 35 -60 24 -60 69c0 71 254 101 264 101c30 0 31 -23 31 -44zM300 638c0 -78 -136 -98 -193 -98c-42 0 -87 19 -87 68c0 66 132 93 183 93
c40 0 97 -13 97 -63z" />
    <glyph glyph-name="j" unicode="j" horiz-adv-x="388" 
d="M318 455v-430c0 -50 0 -123 -32 -164c-37 -44 -117 -64 -172 -64c-42 0 -118 17 -118 70c0 17 15 32 32 32c10 0 20 -3 29 -3c16 0 25 15 25 29c0 23 -5 18 -5 52v313c0 96 -65 49 -65 103c0 95 271 115 272 115c36 0 34 -24 34 -53zM306 638c0 -78 -136 -98 -193 -98
c-42 0 -87 19 -87 68c0 66 132 93 183 93c40 0 97 -13 97 -63z" />
    <glyph glyph-name="k" unicode="k" horiz-adv-x="771" 
d="M461 33l-93 119c-4 6 -28 40 -38 40c-11 0 -10 -22 -10 -28c-3 -89 41 -59 41 -106c0 -28 -7 -69 -163 -69c-82 0 -175 -3 -175 63c0 48 53 13 56 97c3 70 8 165 8 209v143c0 81 -77 27 -77 84c0 67 226 116 279 116c27 0 29 -16 28 -38l-5 -212c-2 -64 -2 -89 22 -89
c16 0 80 34 80 49c0 14 -20 22 -20 42c0 52 102 55 137 55c41 0 150 -1 150 -63c0 -45 -37 -24 -97 -61c-10 -5 -49 -25 -49 -37c0 -25 117 -169 136 -192c45 -56 100 -55 100 -97c0 -31 -23 -58 -100 -58h-141c-40 0 -45 2 -69 33z" />
    <glyph glyph-name="l" unicode="l" horiz-adv-x="384" 
d="M313 373v-194c0 -18 -1 -51 4 -67c11 -36 56 -19 56 -61c0 -67 -122 -62 -165 -62c-45 0 -185 -5 -185 66c0 35 43 22 55 59c13 41 13 166 13 215c0 39 2 114 -7 159c-15 74 -74 48 -74 105c0 87 260 108 274 108c34 0 42 -22 42 -52c0 -23 -13 -133 -13 -276z" />
    <glyph glyph-name="m" unicode="m" horiz-adv-x="1014" 
d="M70 187v92c0 64 -13 82 -23 91c-13 11 -27 10 -27 36c0 74 248 102 250 102c25 0 27 -22 27 -43c0 -12 -4 -46 17 -46c10 0 26 22 54 45c28 22 68 44 127 44c119 0 120 -89 141 -89c8 0 26 22 55 45c30 22 70 44 121 44c95 0 154 -52 154 -150v-211c0 -58 37 -63 37 -92
c0 -63 -114 -66 -153 -66c-33 0 -149 7 -149 59c0 37 35 36 35 94v90c0 42 5 126 -52 126c-56 0 -51 -68 -51 -105v-62c0 -123 36 -102 36 -139c0 -62 -120 -63 -156 -63c-151 0 -159 28 -158 56c1 53 51 11 48 130v57c0 36 5 126 -52 126c-56 0 -51 -68 -51 -105v-81
c0 -92 27 -86 27 -122c0 -26 -23 -61 -160 -61c-39 0 -157 -1 -157 52c0 45 60 21 60 146z" />
    <glyph glyph-name="n" unicode="n" horiz-adv-x="705" 
d="M298 244v-77c0 -97 34 -80 34 -118c0 -62 -133 -60 -174 -60c-40 0 -142 0 -142 60c0 48 46 5 49 103l4 150c2 74 -59 50 -59 103s230 103 250 103c22 0 36 -19 36 -39c0 -6 -1 -12 -1 -18c0 -12 5 -26 20 -26c16 0 25 21 45 42c20 20 50 41 107 41
c207 0 172 -203 182 -355c5 -79 46 -61 46 -104c0 -18 4 -60 -184 -60c-36 0 -132 -2 -132 54c0 36 33 19 38 84c5 71 33 231 -61 231c-64 0 -58 -69 -58 -114z" />
    <glyph glyph-name="o" unicode="o" horiz-adv-x="633" 
d="M292 -14c-148 0 -274 87 -274 245c0 179 157 280 322 280c175 0 275 -137 275 -261c0 -164 -176 -264 -323 -264zM385 174c0 45 -20 219 -88 219c-33 0 -51 -31 -49 -60c4 -63 22 -217 91 -221c38 -2 46 30 46 62z" />
    <glyph glyph-name="p" unicode="p" horiz-adv-x="699" 
d="M435 236c0 48 -10 127 -73 127c-36 0 -48 -15 -48 -197c0 -33 16 -45 51 -45c62 0 70 67 70 115zM88 143v55c0 105 -6 128 -11 133c-13 13 -67 0 -67 57c0 68 206 120 280 120c24 0 28 -8 28 -30c0 -7 1 -21 11 -21c14 0 70 54 152 54c131 0 201 -131 201 -248
c0 -134 -95 -277 -241 -277c-47 0 -94 25 -103 25c-14 0 -16 -21 -16 -32c0 -76 62 -52 62 -101c0 -56 -91 -63 -130 -63c-134 0 -239 49 -239 100c0 45 41 28 59 67c10 21 14 50 14 161z" />
    <glyph glyph-name="q" unicode="q" horiz-adv-x="681" 
d="M391 241c0 43 10 158 -58 158c-18 0 -65 -18 -65 -123c0 -106 40 -161 80 -161c51 0 43 94 43 126zM17 250c0 173 139 261 300 261c72 0 140 -24 166 -24c41 0 69 24 108 24c25 0 45 -8 45 -36c0 -45 -20 -135 -20 -379c0 -35 2 -69 3 -104c3 -114 52 -66 52 -122
c0 -63 -92 -67 -137 -67c-52 0 -222 12 -222 89c0 50 70 20 70 101c0 10 0 27 -14 27c-20 0 -54 -34 -123 -34c-148 0 -228 128 -228 264z" />
    <glyph glyph-name="r" unicode="r" horiz-adv-x="562" 
d="M78 243v60c0 98 -62 43 -62 104c0 79 234 101 243 101c38 0 39 -10 43 -44c1 -12 0 -35 17 -35c24 0 39 79 125 79c67 0 111 -50 111 -116c0 -67 -57 -120 -123 -120c-65 0 -83 57 -109 57c-28 0 -23 -67 -23 -85c0 -30 3 -72 8 -110c6 -44 82 -17 82 -77
c0 -63 -88 -68 -198 -68c-46 0 -182 -2 -182 67c0 42 46 42 57 77c8 25 11 82 11 110z" />
    <glyph glyph-name="s" unicode="s" horiz-adv-x="501" 
d="M229 511c20 0 41 -3 60 -6c18 -4 34 -7 41 -7c10 0 18 3 27 7c9 3 18 6 27 6c46 0 92 -92 92 -133c0 -27 -23 -47 -49 -47c-57 0 -89 79 -133 79c-18 0 -36 -15 -36 -34c0 -64 220 -76 220 -231c0 -94 -91 -159 -195 -159c-20 0 -49 3 -74 7c-25 3 -47 6 -53 6
c-7 0 -13 -1 -20 -2c-6 -1 -12 -2 -19 -2c-20 0 -30 3 -44 19c-25 28 -50 85 -50 123c0 26 9 47 38 47c44 0 84 -99 140 -99c20 0 39 10 39 32c0 59 -196 66 -196 231c0 100 82 163 185 163z" />
    <glyph glyph-name="t" unicode="t" horiz-adv-x="487" 
d="M324 365v-149c0 -67 28 -83 55 -83c31 0 49 23 67 23c20 0 34 -28 34 -46c0 -66 -114 -124 -215 -124c-51 0 -179 22 -179 181v206c0 18 0 25 -5 28s-16 1 -39 1c-26 0 -39 -1 -44 4c-7 7 -5 17 -5 40c0 14 -3 25 9 33l228 145c23 14 22 11 52 11c40 0 42 4 42 -42
c0 -31 -2 -62 3 -74c3 -8 10 -8 36 -8h70c43 0 43 -3 43 -48c0 -57 -7 -61 -46 -61h-69c-35 0 -37 -1 -37 -37z" />
    <glyph glyph-name="u" unicode="u" horiz-adv-x="712" 
d="M301 470v-254c0 -40 3 -102 57 -102c72 0 62 94 62 142c0 33 1 76 -4 108c-8 50 -57 33 -57 75c0 59 201 69 239 69c36 0 51 -21 51 -56c0 -32 -2 -63 -2 -95v-201c0 -60 55 -32 55 -80c0 -68 -177 -87 -232 -87c-77 0 -26 60 -66 60c-11 0 -27 -15 -51 -30
s-56 -30 -100 -30c-190 0 -174 150 -174 300c0 153 -69 86 -69 152c0 64 252 67 260 67c28 0 31 -13 31 -38z" />
    <glyph glyph-name="v" unicode="v" horiz-adv-x="659" 
d="M245 59l-167 311c-29 55 -85 24 -85 78c0 25 13 60 201 60c35 0 169 2 169 -51c0 -33 -38 -40 -38 -66c0 -23 37 -98 62 -98c34 0 69 85 69 105c0 25 -34 35 -34 64c0 50 110 46 140 46c29 0 104 0 104 -44c0 -48 -65 -26 -94 -82l-164 -319c-33 -63 -60 -77 -83 -77
c-39 0 -64 43 -80 73z" />
    <glyph glyph-name="w" unicode="w" horiz-adv-x="1039" 
d="M603 99l-51 82c-7 11 -18 33 -33 33c-21 0 -35 -29 -44 -45l-73 -127c-14 -23 -31 -53 -62 -53c-37 0 -59 40 -76 68l-190 309c-32 53 -81 22 -81 73c0 64 153 69 199 69c39 0 160 -1 160 -60c0 -23 -19 -32 -19 -45c0 -17 46 -106 71 -106c18 0 46 52 46 66
c0 48 -62 48 -62 85c0 20 5 60 201 60c38 0 145 2 145 -53c0 -36 -32 -39 -32 -62c0 -20 38 -98 60 -98c30 0 68 91 68 98c0 25 -28 31 -28 64c0 50 89 51 122 51c34 0 122 0 122 -50c0 -56 -61 -16 -106 -100l-128 -251c-17 -32 -61 -118 -105 -118c-39 0 -86 81 -104 110z
" />
    <glyph glyph-name="x" unicode="x" horiz-adv-x="632" 
d="M482 231l68 -98c48 -62 82 -41 82 -82c0 -26 -1 -62 -201 -62c-43 0 -168 -9 -168 57c0 36 41 25 41 56c0 19 -35 76 -54 76c-18 0 -60 -72 -60 -92c0 -21 23 -22 23 -53c0 -43 -77 -44 -107 -44c-35 0 -106 0 -106 49c0 52 48 9 94 83l81 132c2 2 12 17 12 22
c0 7 -12 18 -15 22l-64 79c-36 45 -96 22 -96 71c0 64 172 61 215 61c34 0 158 5 158 -50c0 -21 -20 -34 -20 -49c0 -12 28 -53 40 -53c14 0 45 45 45 58c0 15 -21 30 -21 47c0 47 75 47 106 47c78 0 94 -22 94 -48c0 -36 -57 -35 -85 -76l-57 -83c-4 -5 -24 -31 -24 -38
c0 -6 17 -28 19 -32z" />
    <glyph glyph-name="y" unicode="y" horiz-adv-x="651" 
d="M504 247l-59 -163c-49 -133 -113 -263 -276 -263c-72 0 -157 37 -157 120c0 50 38 92 89 92c93 0 67 -106 108 -106c27 0 39 26 39 49c0 28 -20 66 -32 91l-140 293c-19 40 -76 28 -76 74c0 30 18 74 229 74c38 0 128 -4 128 -61c0 -27 -23 -35 -23 -59
c0 -38 44 -108 61 -108c30 0 51 69 51 93c0 45 -32 42 -32 76c0 53 94 59 130 59c33 0 107 -5 107 -51c0 -59 -60 -33 -95 -92c-22 -35 -38 -79 -52 -118z" />
    <glyph glyph-name="z" unicode="z" horiz-adv-x="540" 
d="M483 405l-124 -220c-6 -12 -22 -39 -22 -52c0 -21 19 -25 36 -25c82 0 66 86 110 86c36 0 50 -34 50 -66c0 -78 -68 -144 -100 -144c-20 0 -20 16 -91 16h-244c-25 0 -81 0 -81 38c0 22 21 47 32 65l121 195c8 13 39 60 39 76c0 21 -29 21 -44 21c-72 0 -60 -84 -113 -84
c-31 0 -45 30 -45 57c0 69 57 148 88 148c27 0 33 -19 199 -19h111c15 1 74 3 85 -3s17 -17 17 -29c0 -19 -15 -44 -24 -60z" />
    <glyph glyph-name="braceleft" unicode="{" horiz-adv-x="524" 
d="M341 222v-201c0 -31 8 -48 43 -48s41 -27 41 -37c0 -11 -6 -37 -41 -37h-93c-90 0 -142 40 -142 141v229c0 31 -8 48 -43 48s-41 27 -41 39s6 38 41 38s43 17 43 49v218c0 101 52 141 142 141h93c35 0 41 -26 41 -37c0 -10 -6 -37 -41 -37s-43 -17 -43 -48v-191
c0 -74 -15 -121 -95 -132v-3c80 -10 95 -58 95 -132z" />
    <glyph glyph-name="bar" unicode="|" horiz-adv-x="496" 
d="M190 -250v1000h116v-1000h-116z" />
    <glyph glyph-name="braceright" unicode="}" horiz-adv-x="524" 
d="M183 21v201c0 74 15 122 95 132v3c-80 11 -95 58 -95 132v191c0 31 -8 48 -43 48s-41 27 -41 37c0 11 6 37 41 37h93c90 0 142 -40 142 -141v-218c0 -32 8 -49 43 -49s41 -26 41 -38s-6 -39 -41 -39s-43 -17 -43 -48v-229c0 -101 -52 -141 -142 -141h-93
c-35 0 -41 26 -41 37c0 10 6 37 41 37s43 17 43 48z" />
    <glyph glyph-name="asciitilde" unicode="~" 
d="M469 349c47 0 88 -7 88 -65c0 -64 -52 -119 -113 -119c-79 0 -182 67 -221 67c-12 0 -12 -6 -12 -17c0 -37 -25 -50 -50 -50c-47 0 -88 7 -88 65c0 64 52 119 113 119c79 0 182 -67 221 -67c12 0 12 6 12 17c0 37 25 50 50 50z" />
    <glyph glyph-name="exclamdown" unicode="&#xa1;" horiz-adv-x="324" 
d="M273 406c0 -61 -50 -111 -111 -111s-111 50 -111 111s50 111 111 111s111 -50 111 -111zM42 -59c0 62 23 137 51 192c9 19 44 84 69 84s60 -65 69 -84c28 -55 51 -130 51 -192c0 -74 -35 -153 -120 -153s-120 79 -120 153z" />
    <glyph glyph-name="cent" unicode="&#xa2;" 
d="M268 548c0 43 6 43 47 43c29 0 53 6 53 -32c0 -19 -2 -26 18 -28c71 -8 164 -58 164 -139c0 -53 -42 -88 -92 -88c-91 0 -49 112 -121 112c-44 0 -60 -47 -60 -84c0 -65 55 -127 121 -127c46 0 80 24 95 24c24 0 39 -29 39 -51c0 -41 -57 -99 -150 -116
c-17 -3 -14 -14 -14 -30c0 -43 -5 -45 -47 -45c-43 0 -53 -2 -53 43c0 12 4 31 -11 35c-100 27 -177 118 -177 224c0 165 145 222 171 229c19 5 17 10 17 30z" />
    <glyph glyph-name="sterling" unicode="&#xa3;" 
d="M57 376h17c12 0 39 1 39 21c0 12 -15 33 -15 66c0 131 167 190 264 190c154 0 225 -94 225 -141c0 -41 -35 -75 -71 -75c-37 0 -18 49 -96 49c-35 0 -77 -16 -77 -63c0 -37 42 -39 65 -39c18 0 35 5 52 5c20 0 17 -25 17 -41c0 -20 3 -52 -22 -52c-19 0 -38 5 -56 5
c-32 0 -42 -12 -42 -47c0 -55 80 -76 119 -76c58 0 75 51 118 51c28 0 36 -28 36 -54c0 -118 -123 -187 -216 -187c-102 0 -141 61 -150 61c-8 0 -49 -63 -138 -63c-65 0 -110 51 -110 123c0 79 50 105 112 105c12 0 25 -2 37 -2c10 0 15 3 15 20c0 70 -76 44 -123 44
c-29 0 -34 24 -34 52c0 26 7 48 34 48z" />
    <glyph glyph-name="fraction" unicode="&#x2044;" horiz-adv-x="140" 
d="M183 404l-189 -323c-74 -127 -74 -150 -108 -150c-16 0 -59 4 -59 25c0 28 23 35 145 245l234 405c17 30 25 44 61 44c15 0 47 -2 47 -23c0 -35 -23 -39 -131 -223z" />
    <glyph glyph-name="yen" unicode="&#xa5;" 
d="M544 519l-70 -89c-4 -5 -41 -50 -41 -59s18 -8 23 -8c38 0 74 1 112 1c29 0 37 -9 37 -59c0 -51 -17 -51 -58 -50h-81c-60 0 -62 4 -62 -28v-51c0 -59 71 -45 71 -108c0 -76 -100 -79 -148 -79c-196 0 -191 59 -191 79c0 56 53 53 65 78c5 14 6 44 6 59
c0 53 -6 51 -33 51c-29 1 -72 2 -101 2c-38 0 -56 -4 -56 44c0 62 11 64 47 64c49 0 62 -2 78 -2c11 0 22 3 22 12c0 8 -12 23 -16 28l-76 97c-33 43 -85 27 -85 90c0 42 28 74 160 74c45 0 155 2 155 -73c0 -32 -20 -40 -20 -51c0 -18 32 -71 41 -71c13 0 49 54 49 67
c0 10 -24 26 -24 58c0 69 121 70 160 70c41 0 135 3 135 -66c0 -61 -78 -54 -99 -80z" />
    <glyph glyph-name="florin" unicode="&#x192;" 
d="M161 42l35 177c4 21 16 75 16 95c0 21 -10 24 -27 25c-20 1 -31 2 -31 26c0 58 20 67 29 67c46 0 46 -2 56 38c33 130 109 187 243 187c72 0 204 -15 204 -113c0 -38 -32 -66 -69 -66c-64 0 -94 65 -128 65c-38 0 -56 -72 -56 -101c0 -13 12 -10 22 -10h70
c18 0 14 -2 14 -15c0 -72 -19 -80 -53 -80c-56 0 -67 8 -85 -82l-41 -207c-29 -145 -102 -223 -256 -223c-72 0 -202 18 -202 113c0 43 34 71 76 71c60 0 91 -63 127 -63c41 0 50 66 56 96z" />
    <glyph glyph-name="section" unicode="&#xa7;" horiz-adv-x="758" 
d="M340 319l72 -22c6 -2 16 -5 23 -5c16 0 29 41 29 54c0 33 -31 40 -55 49c-37 13 -82 25 -93 25c-19 0 -33 -37 -33 -52c0 -33 31 -41 57 -49zM170 469c0 14 -81 44 -81 148c0 90 73 187 302 187c185 0 285 -63 285 -114c0 -39 -72 -64 -103 -64c-62 0 -67 76 -167 76
c-25 0 -65 -11 -65 -42c0 -100 348 -24 348 -257c0 -105 -96 -142 -96 -157c0 -18 92 -38 92 -149c0 -133 -123 -200 -290 -200c-279 0 -326 117 -326 143c0 41 83 51 112 51c71 0 67 -89 185 -89c27 0 76 7 76 43c0 89 -364 41 -364 266c0 109 92 147 92 158z" />
    <glyph glyph-name="currency" unicode="&#xa4;" 
d="M187 516c35 21 82 36 126 36c47 0 94 -13 129 -36c18 18 30 32 42 32c27 0 72 -49 72 -72c-1 -13 -14 -24 -32 -42c25 -39 38 -81 38 -129c0 -45 -12 -92 -38 -128c18 -18 31 -29 32 -42c0 -25 -47 -72 -72 -72c-13 1 -25 14 -42 32c-35 -22 -78 -37 -124 -37
c-48 0 -94 13 -131 37c-18 -18 -30 -32 -42 -32c-27 0 -72 49 -72 72c1 13 14 24 32 42c-24 42 -37 76 -37 127c0 49 12 90 37 130c-18 18 -31 29 -32 42c0 25 47 72 72 72c13 -1 25 -14 42 -32zM315 182c70 0 123 58 123 123s-53 123 -123 123s-123 -58 -123 -123
s53 -123 123 -123z" />
    <glyph glyph-name="quotesingle" unicode="'" horiz-adv-x="315" 
d="M157 715c77 0 108 -71 108 -138c0 -56 -18 -125 -45 -174c-9 -15 -41 -74 -63 -74s-54 59 -62 74c-27 49 -46 118 -46 174c0 67 32 138 108 138z" />
    <glyph glyph-name="quotedblleft" unicode="&#x201c;" horiz-adv-x="587" 
d="M270 682c0 -21 -69 -57 -69 -120c0 -37 77 -43 77 -134c0 -67 -48 -117 -115 -117c-72 0 -119 64 -119 132c0 117 110 272 178 272c17 0 48 -12 48 -33zM542 682c0 -21 -69 -57 -69 -120c0 -37 77 -43 77 -134c0 -67 -48 -117 -115 -117c-72 0 -119 64 -119 132
c0 117 110 272 178 272c17 0 48 -12 48 -33z" />
    <glyph glyph-name="guillemotleft" unicode="&#xab;" horiz-adv-x="561" 
d="M100 375c25 27 91 96 130 96c24 0 49 -20 49 -44c0 -42 -95 -132 -95 -183s95 -141 95 -183c0 -24 -25 -44 -49 -44c-39 0 -105 69 -130 96c-30 31 -86 85 -86 131s56 100 86 131zM368 375c25 27 91 96 130 96c24 0 49 -20 49 -44c0 -42 -95 -132 -95 -183
s95 -141 95 -183c0 -24 -25 -44 -49 -44c-39 0 -105 69 -130 96c-30 31 -86 85 -86 131s56 100 86 131z" />
    <glyph glyph-name="guilsinglleft" unicode="&#x2039;" horiz-adv-x="293" 
d="M100 375c25 27 91 96 130 96c24 0 49 -20 49 -44c0 -42 -95 -132 -95 -183s95 -141 95 -183c0 -24 -25 -44 -49 -44c-39 0 -105 69 -130 96c-30 31 -86 85 -86 131s56 100 86 131z" />
    <glyph glyph-name="guilsinglright" unicode="&#x203a;" horiz-adv-x="293" 
d="M193 113c-25 -27 -91 -96 -130 -96c-24 0 -49 20 -49 44c0 42 95 132 95 183s-95 141 -95 183c0 24 25 44 49 44c39 0 105 -69 130 -96c30 -31 86 -85 86 -131s-56 -100 -86 -131z" />
    <glyph glyph-name="endash" unicode="&#x2013;" horiz-adv-x="500" 
d="M203 354h187c87 0 93 4 102 4c16 0 30 -12 30 -30c0 -25 -31 -106 -40 -124c-13 -25 -25 -36 -54 -36c-16 0 -52 8 -131 8h-187c-87 0 -93 -4 -102 -4c-16 0 -30 12 -30 30c0 25 31 106 40 124c13 25 25 36 54 36c16 0 52 -8 131 -8z" />
    <glyph glyph-name="dagger" unicode="&#x2020;" horiz-adv-x="758" 
d="M283 154v172c0 43 0 49 -13 49c-10 0 -80 0 -93 -12c-26 -24 -13 -68 -65 -68c-34 0 -74 27 -74 172c0 45 8 159 72 159c46 0 35 -58 74 -71c13 -4 61 -7 84 -7c14 0 10 22 10 30v58c0 72 -71 40 -71 86c0 70 124 82 172 82s172 -12 172 -82c0 -46 -71 -14 -71 -86v-58
c0 -8 -4 -30 10 -30c23 0 71 3 84 7c39 13 28 71 74 71c64 0 72 -114 72 -159c0 -145 -40 -172 -74 -172c-52 0 -39 44 -65 68c-13 12 -86 12 -95 12s-11 -3 -11 -49v-172c-1 -190 82 -130 82 -195c0 -13 -6 -62 -178 -62s-178 49 -178 62c0 65 83 5 82 195z" />
    <glyph glyph-name="daggerdbl" unicode="&#x2021;" horiz-adv-x="758" 
d="M571 427h-45c-44 0 -47 -3 -50 -5c-4 -3 -3 -10 -3 -15v-116c0 -16 2 -17 58 -17h40c49 0 42 47 84 47c56 0 68 -75 68 -116c0 -39 -11 -121 -63 -121c-38 0 -49 59 -80 73c-16 8 -56 6 -80 6c-23 0 -23 -1 -23 -17v-68c0 -79 69 -55 69 -104c0 -58 -126 -77 -167 -77
s-167 19 -167 77c0 49 69 25 69 104v61c0 23 0 24 -19 24c-28 0 -68 2 -84 -6c-31 -14 -42 -73 -80 -73c-52 0 -63 82 -63 121c0 41 12 116 68 116c42 0 35 -47 84 -47h51c45 0 47 4 47 15v120c0 15 0 18 -51 18h-47c-49 0 -42 -47 -84 -47c-56 0 -68 75 -68 116
c0 39 11 121 63 121c38 0 49 -59 80 -73c16 -8 56 -6 83 -6c19 0 20 2 20 18v67c0 79 -69 55 -69 104c0 58 126 77 167 77s167 -19 167 -77c0 -49 -69 -25 -69 -104v-66c0 -19 1 -19 22 -19c25 0 65 -2 81 6c31 14 42 73 80 73c52 0 63 -82 63 -121c0 -41 -12 -116 -68 -116
c-42 0 -35 47 -84 47z" />
    <glyph glyph-name="periodcentered" unicode="&#xb7;" horiz-adv-x="315" 
d="M278 259c0 -67 -54 -121 -121 -121s-121 54 -121 121s54 121 121 121s121 -54 121 -121z" />
    <glyph glyph-name="paragraph" unicode="&#xb6;" 
d="M285 384c21 0 21 13 21 29v149c0 30 1 48 -19 48c-56 0 -93 -57 -93 -109c0 -65 46 -117 91 -117zM381 560v-700c0 -35 0 -45 -38 -45c-37 0 -37 10 -37 45v380c-1 49 9 61 -38 61c-16 0 -33 -1 -49 -1c-151 0 -220 93 -220 191c0 125 96 211 218 211
c73 0 145 -15 218 -15c49 0 97 7 146 7c25 0 49 -9 49 -38c0 -62 -103 -34 -103 -101v-695c0 -35 0 -45 -38 -45c-37 0 -37 10 -37 45v700c0 35 0 45 -36 45c-35 0 -35 -10 -35 -45z" />
    <glyph glyph-name="bullet" unicode="&#x2022;" horiz-adv-x="758" 
d="M379 525c97 0 175 -78 175 -175s-78 -175 -175 -175s-175 78 -175 175s78 175 175 175z" />
    <glyph glyph-name="quotesinglbase" unicode="&#x201a;" horiz-adv-x="315" 
d="M45 -152c0 21 69 57 69 120c0 37 -77 43 -77 134c0 67 48 117 115 117c72 0 119 -64 119 -132c0 -117 -110 -272 -178 -272c-17 0 -48 12 -48 33z" />
    <glyph glyph-name="quotedblbase" unicode="&#x201e;" horiz-adv-x="587" 
d="M317 -152c0 21 69 57 69 120c0 37 -77 43 -77 134c0 67 48 117 115 117c72 0 119 -64 119 -132c0 -117 -110 -272 -178 -272c-17 0 -48 12 -48 33zM45 -152c0 21 69 57 69 120c0 37 -77 43 -77 134c0 67 48 117 115 117c72 0 119 -64 119 -132
c0 -117 -110 -272 -178 -272c-17 0 -48 12 -48 33z" />
    <glyph glyph-name="quotedblright" unicode="&#x201d;" horiz-adv-x="587" 
d="M317 344c0 21 69 57 69 120c0 37 -77 43 -77 134c0 67 48 117 115 117c72 0 119 -64 119 -132c0 -117 -110 -272 -178 -272c-17 0 -48 12 -48 33zM45 344c0 21 69 57 69 120c0 37 -77 43 -77 134c0 67 48 117 115 117c72 0 119 -64 119 -132c0 -117 -110 -272 -178 -272
c-17 0 -48 12 -48 33z" />
    <glyph glyph-name="guillemotright" unicode="&#xbb;" horiz-adv-x="561" 
d="M461 113c-25 -27 -91 -96 -130 -96c-24 0 -49 20 -49 44c0 42 95 132 95 183s-95 141 -95 183c0 24 25 44 49 44c39 0 105 -69 130 -96c30 -31 86 -85 86 -131s-56 -100 -86 -131zM193 113c-25 -27 -91 -96 -130 -96c-24 0 -49 20 -49 44c0 42 95 132 95 183
s-95 141 -95 183c0 24 25 44 49 44c39 0 105 -69 130 -96c30 -31 86 -85 86 -131s-56 -100 -86 -131z" />
    <glyph glyph-name="ellipsis" unicode="&#x2026;" horiz-adv-x="1000" 
d="M288 107c0 -67 -54 -121 -121 -121s-121 54 -121 121s54 121 121 121s121 -54 121 -121zM621 107c0 -67 -54 -121 -121 -121s-121 54 -121 121s54 121 121 121s121 -54 121 -121zM954 107c0 -67 -54 -121 -121 -121s-121 54 -121 121s54 121 121 121s121 -54 121 -121z
" />
    <glyph glyph-name="perthousand" unicode="&#x2030;" horiz-adv-x="1313" 
d="M1299 183c0 -114 -111 -187 -217 -187c-98 0 -188 59 -188 165c0 126 108 191 223 191c89 0 182 -76 182 -169zM1140 125c0 35 -15 147 -63 147c-20 0 -30 -21 -30 -38c0 -16 14 -149 64 -149c23 0 29 22 29 40zM419 542c0 -114 -111 -187 -217 -187
c-98 0 -188 59 -188 165c0 126 108 191 223 191c89 0 182 -76 182 -169zM260 484c0 35 -15 147 -63 147c-20 0 -30 -21 -30 -38c0 -16 14 -149 64 -149c23 0 29 22 29 40zM866 183c0 -114 -111 -187 -217 -187c-98 0 -188 59 -188 165c0 126 108 191 223 191
c89 0 182 -76 182 -169zM707 125c0 35 -15 147 -63 147c-20 0 -30 -21 -30 -38c0 -16 14 -149 64 -149c23 0 29 22 29 40zM553 469l-190 -324c-71 -121 -63 -150 -108 -150c-15 0 -59 5 -59 26c0 31 22 29 146 245l233 405c15 31 26 44 61 44c15 0 47 -2 47 -23
c0 -30 -30 -52 -130 -223z" />
    <glyph glyph-name="questiondown" unicode="&#xbf;" horiz-adv-x="506" 
d="M311 -56c7 65 46 107 113 107c42 0 75 -30 75 -73c0 -86 -86 -190 -242 -190c-104 0 -247 69 -247 188c0 61 38 109 112 137c103 39 44 116 141 116c41 0 67 -25 67 -66c0 -85 -86 -130 -86 -216c0 -21 9 -51 35 -51c28 0 30 27 32 48zM382 406c0 -61 -50 -111 -111 -111
s-111 50 -111 111s50 111 111 111s111 -50 111 -111z" />
    <glyph glyph-name="grave" unicode="`" horiz-adv-x="408" 
d="M284 561c-136 0 -214 92 -214 117c0 46 91 56 122 56c16 0 84 -5 84 -30c0 -11 -8 -14 -8 -23c0 -27 70 -41 70 -83c0 -32 -28 -37 -54 -37z" />
    <glyph glyph-name="acute" unicode="&#xb4;" horiz-adv-x="408" 
d="M124 561c-26 0 -54 5 -54 37c0 42 70 56 70 83c0 9 -8 12 -8 23c0 25 68 30 84 30c31 0 122 -10 122 -56c0 -25 -78 -117 -214 -117z" />
    <glyph glyph-name="circumflex" unicode="&#x2c6;" horiz-adv-x="527" 
d="M263 750c37 0 193 -100 193 -148c0 -23 -15 -42 -39 -42c-41 1 -110 57 -154 57s-113 -56 -154 -57c-24 0 -39 19 -39 42c0 48 156 148 193 148z" />
    <glyph glyph-name="tilde" unicode="&#x2dc;" horiz-adv-x="609" 
d="M454 728c46 0 85 -6 85 -55c0 -55 -50 -102 -109 -102c-77 0 -177 57 -214 57c-12 0 -12 -5 -12 -14c0 -32 -24 -43 -48 -43c-46 0 -86 6 -86 55c0 55 51 102 110 102c76 0 176 -57 214 -57c12 0 12 5 12 14c0 32 24 43 48 43z" />
    <glyph glyph-name="macron" unicode="&#xaf;" horiz-adv-x="614" 
d="M266 704h163c38 0 58 1 70 2c12 0 15 1 19 1c14 0 26 -9 26 -22c0 -18 -27 -76 -35 -89c-11 -18 -22 -26 -47 -26c-14 0 -45 6 -114 6h-163c-76 0 -81 -3 -89 -3c-14 0 -26 8 -26 21c0 18 27 77 35 90c11 18 22 26 47 26c14 0 45 -6 114 -6z" />
    <glyph glyph-name="breve" unicode="&#x2d8;" horiz-adv-x="589" 
d="M499 764c11 0 20 -7 20 -18c0 -36 -93 -168 -225 -168s-225 132 -225 168c0 11 9 18 20 18c27 0 95 -83 205 -83s178 83 205 83z" />
    <glyph glyph-name="dotaccent" unicode="&#x2d9;" horiz-adv-x="401" 
d="M331 656c0 -67 -116 -85 -166 -85c-40 0 -95 17 -95 66c0 71 103 83 154 83c40 0 107 -11 107 -64z" />
    <glyph glyph-name="dieresis" unicode="&#xa8;" horiz-adv-x="706" 
d="M331 656c0 -67 -116 -85 -166 -85c-40 0 -95 17 -95 66c0 71 103 83 154 83c40 0 107 -11 107 -64zM636 656c0 -67 -116 -85 -166 -85c-40 0 -95 17 -95 66c0 71 103 83 154 83c40 0 107 -11 107 -64z" />
    <glyph glyph-name="ring" unicode="&#x2da;" horiz-adv-x="447" 
d="M376 664c0 -84 -88 -105 -153 -105c-73 0 -153 21 -153 105s80 105 153 105c65 0 153 -21 153 -105zM273 664c0 30 -16 58 -50 58s-50 -28 -50 -58s16 -58 50 -58s50 28 50 58z" />
    <glyph glyph-name="cedilla" unicode="&#xb8;" horiz-adv-x="338" 
d="M165 0l63 -61c17 -17 40 -34 40 -60c0 -46 -72 -61 -106 -61c-73 0 -92 35 -92 51c0 43 67 31 67 51c0 6 -4 12 -7 17l-43 63h78z" />
    <glyph glyph-name="hungarumlaut" unicode="&#x2dd;" horiz-adv-x="689" 
d="M124 561c-26 0 -54 5 -54 37c0 42 70 56 70 83c0 9 -8 12 -8 23c0 25 68 30 84 30c31 0 122 -10 122 -56c0 -25 -78 -117 -214 -117zM404 561c-26 0 -54 5 -54 37c0 42 70 56 70 83c0 9 -8 12 -8 23c0 25 68 30 84 30c31 0 122 -10 122 -56c0 -25 -78 -117 -214 -117z
" />
    <glyph glyph-name="ogonek" unicode="&#x2db;" horiz-adv-x="413" 
d="M164 1h101v-2c-28 -9 -59 -38 -59 -70c0 -25 27 -41 50 -41c32 0 46 20 67 20c15 0 20 -17 20 -29c0 -35 -19 -70 -127 -70c-137 0 -147 79 -147 88c0 29 8 45 95 104z" />
    <glyph glyph-name="caron" unicode="&#x2c7;" horiz-adv-x="527" 
d="M263 561c-37 0 -193 100 -193 148c0 23 15 42 39 42c41 -1 110 -57 154 -57s113 56 154 57c24 0 39 -19 39 -42c0 -48 -156 -148 -193 -148z" />
    <glyph glyph-name="emdash" unicode="&#x2014;" horiz-adv-x="1000" 
d="M203 354h687c87 0 93 4 102 4c16 0 30 -12 30 -30c0 -25 -31 -106 -40 -124c-13 -25 -25 -36 -54 -36c-16 0 -52 8 -131 8h-687c-87 0 -93 -4 -102 -4c-16 0 -30 12 -30 30c0 25 31 106 40 124c13 25 25 36 54 36c16 0 52 -8 131 -8z" />
    <glyph glyph-name="AE" unicode="&#xc6;" horiz-adv-x="1087" 
d="M460 366v45c0 15 5 62 -21 62c-21 0 -36 -35 -44 -50l-37 -66c-8 -15 -21 -35 -21 -53c0 -35 49 -30 73 -30c38 0 50 7 50 92zM359 151h-44c-23 0 -69 3 -69 -31c0 -32 61 -29 61 -74c0 -56 -114 -57 -151 -57c-40 0 -156 0 -156 63c0 50 59 36 80 70
c109 177 164 264 251 430c14 27 25 43 25 74c0 70 25 75 148 75h283c134 0 153 20 169 20c57 0 81 -98 81 -142c0 -33 -13 -72 -52 -72c-79 0 -15 96 -205 96c-80 0 -99 -6 -100 -74v-61c0 -58 3 -60 64 -60c76 0 19 111 90 111c58 0 62 -113 62 -152
c0 -41 -7 -161 -67 -161c-62 0 0 105 -101 105c-42 0 -41 -38 -41 -70c0 -146 10 -139 115 -139c205 0 147 141 229 141c32 0 48 -36 48 -64c0 -68 -54 -190 -94 -190c-7 0 -23 3 -44 6c-22 2 -50 5 -84 5h-263c-31 0 -59 -1 -83 -1c-24 -1 -45 -2 -63 -2
c-32 0 -71 1 -71 43c0 54 68 40 68 78s-62 33 -86 33z" />
    <glyph glyph-name="ordfeminine" unicode="&#xaa;" horiz-adv-x="410" 
d="M205 604v15c0 15 -5 40 -25 40c-33 0 -37 -61 -90 -61c-20 0 -35 13 -35 34c0 57 114 83 157 83c75 0 125 -40 125 -99v-64c0 -88 35 -38 35 -72c0 -40 -54 -71 -90 -71c-47 0 -50 29 -62 29s-32 -29 -84 -29s-100 27 -100 84c0 68 83 94 138 94c19 0 31 -5 31 17z
M193 540c-18 0 -30 -17 -30 -34c0 -15 7 -28 23 -28c20 0 20 22 20 36c0 11 2 26 -13 26z" />
    <glyph glyph-name="Lslash" unicode="&#x141;" horiz-adv-x="665" 
d="M109 170l2 78l-20 -10c-6 -3 -54 -28 -63 -28c-8 0 -8 8 -8 14v17c0 40 8 39 41 55l50 24v41c0 59 -6 118 -7 177c-2 84 -90 40 -90 97c0 73 157 77 206 77c200 -5 210 -34 210 -68c0 -58 -79 -14 -79 -108v-131l112 53c8 3 46 22 54 22c15 0 13 -32 13 -42
c0 -21 -8 -26 -26 -34l-153 -72v-114c0 -72 12 -107 83 -107c170 0 112 139 176 139c45 0 62 -48 62 -86c0 -78 -56 -178 -102 -178c-18 0 -32 4 -50 7c-19 4 -41 7 -75 7h-334c-32 0 -83 -2 -83 44c0 62 81 10 81 126z" />
    <glyph glyph-name="Oslash" unicode="&#xd8;" horiz-adv-x="818" 
d="M508 396l-176 -152c22 -47 56 -109 117 -109s87 53 87 107c0 53 -14 105 -28 154zM763 617l-53 -46c52 -68 83 -154 83 -228c0 -215 -190 -357 -394 -357c-89 0 -198 34 -258 96l-50 -44c-6 -5 -16 -16 -26 -16c-9 0 -16 7 -22 13c-6 7 -13 13 -13 23c0 13 12 21 21 28
l49 42c-57 68 -77 143 -76 225c0 212 169 362 387 362c102 0 187 -33 256 -96l56 50c8 7 13 12 24 12c7 0 15 -6 23 -17c7 -9 13 -18 13 -22c0 -10 -14 -19 -20 -25zM306 308l176 153c-20 48 -63 105 -117 105c-56 0 -84 -58 -84 -107c-1 -49 11 -101 25 -151z" />
    <glyph glyph-name="OE" unicode="&#x152;" horiz-adv-x="1138" 
d="M936 0h-346c-33 0 -72 -3 -107 -5c-36 -3 -69 -6 -93 -6c-244 0 -366 205 -366 370c0 205 168 353 368 353c29 0 58 -3 87 -5c29 -3 58 -6 87 -6h295c134 0 153 20 169 20c57 0 81 -98 81 -142c0 -33 -13 -72 -52 -72c-79 0 -15 96 -196 96c-80 0 -99 -6 -100 -74v-61
c0 -58 3 -60 61 -60c76 0 19 111 90 111c58 0 62 -113 62 -152c0 -41 -7 -161 -67 -161c-62 0 0 105 -101 105c-42 0 -41 -38 -41 -70c0 -146 10 -139 115 -139c160 0 116 134 202 134c34 0 47 -31 47 -60c0 -86 -68 -190 -107 -190c-11 0 -19 4 -31 7c-12 4 -28 7 -57 7z
M356 567c-62 0 -85 -57 -85 -110c0 -90 57 -323 169 -323c58 0 86 55 86 106c0 90 -54 327 -170 327z" />
    <glyph glyph-name="ordmasculine" unicode="&#xba;" horiz-adv-x="410" 
d="M186 409c-89 0 -158 54 -158 146c0 101 95 160 187 160c110 0 166 -87 166 -149c0 -102 -104 -157 -195 -157zM241 516c0 26 -11 123 -48 123c-18 0 -25 -15 -25 -30c0 -27 12 -75 22 -101c5 -13 13 -23 27 -23c19 0 24 15 24 31z" />
    <glyph glyph-name="ae" unicode="&#xe6;" horiz-adv-x="840" 
d="M575 326c27 0 59 -6 59 30s-22 64 -59 64c-33 0 -60 -34 -60 -66c0 -36 34 -28 60 -28zM279 215c-34 0 -57 -32 -57 -64c0 -26 14 -54 43 -54c38 0 41 41 41 71c0 22 1 47 -27 47zM764 230h-217c-11 0 -27 3 -27 -14c0 -50 65 -92 112 -92c75 0 112 45 133 45
s39 -31 39 -50c0 -77 -141 -133 -231 -133c-114 0 -172 61 -180 61c-3 0 -131 -61 -213 -61c-83 0 -166 44 -166 143c0 71 68 159 244 159c31 0 45 -2 45 34c0 33 -1 102 -47 102c-60 0 -66 -108 -155 -108c-32 0 -56 23 -56 55c0 85 169 140 264 140c71 0 127 -27 129 -27
c6 0 62 27 143 27c170 0 245 -131 245 -206c0 -66 -30 -75 -62 -75z" />
    <glyph glyph-name="dotlessi" unicode="&#x131;" horiz-adv-x="375" 
d="M305 464v-279c0 -118 59 -75 59 -128c0 -68 -127 -68 -172 -68c-172 0 -179 39 -179 63c0 36 41 38 53 69c13 35 15 180 4 217c-9 35 -60 24 -60 69c0 71 254 101 264 101c30 0 31 -23 31 -44z" />
    <glyph glyph-name="lslash" unicode="&#x142;" horiz-adv-x="384" 
d="M313 347v-168c0 -18 -1 -51 4 -67c11 -36 56 -19 56 -61c0 -67 -122 -62 -165 -62c-45 0 -185 -5 -185 66c0 35 43 22 55 59c12 36 13 114 13 156l-18 -8c-8 -4 -48 -25 -57 -25c-10 0 -11 9 -11 17v14c0 33 3 35 33 49l53 25v52c0 36 -2 77 -6 94c-15 74 -74 48 -74 105
c0 87 260 108 274 108c34 0 41 -22 41 -52c0 -39 -11 -121 -11 -229l39 19c7 3 27 14 36 14c13 0 11 -18 11 -27c0 -32 3 -37 -25 -50z" />
    <glyph glyph-name="oslash" unicode="&#xf8;" horiz-adv-x="633" 
d="M525 443l22 16c7 5 30 26 42 26c16 0 32 -21 32 -36c0 -16 -24 -28 -33 -36l-21 -15c30 -43 48 -92 48 -148c0 -164 -176 -264 -323 -264c-71 0 -144 20 -198 66l-21 -15c-9 -7 -29 -25 -41 -25c-16 0 -32 21 -32 35c0 16 20 26 30 33l25 19c-26 38 -37 90 -37 132
c0 179 157 280 322 280c63 0 137 -19 185 -68zM374 257l-98 -73c12 -38 28 -72 63 -72c38 0 46 30 46 62c0 26 -5 55 -11 83zM260 248l98 72c-11 32 -23 73 -61 73c-33 0 -49 -31 -49 -60c0 -16 4 -52 12 -85z" />
    <glyph glyph-name="oe" unicode="&#x153;" horiz-adv-x="929" 
d="M663 326c27 0 59 -6 59 30s-22 64 -59 64c-33 0 -60 -34 -60 -66c0 -36 34 -28 60 -28zM385 174c0 47 -14 114 -30 158c-10 28 -23 61 -58 61c-33 0 -49 -31 -49 -60c0 -39 16 -110 28 -148c11 -32 22 -73 63 -73c38 0 46 30 46 62zM852 230h-217c-11 0 -27 3 -27 -14
c0 -50 65 -92 112 -92c75 0 112 45 133 45s39 -31 39 -50c0 -77 -141 -133 -231 -133c-117 0 -165 53 -177 53c-15 0 -65 -53 -192 -53c-148 0 -274 87 -274 245c0 179 157 280 322 280c107 0 153 -46 162 -46c4 0 67 46 167 46c170 0 245 -131 245 -206
c0 -66 -30 -75 -62 -75z" />
    <glyph glyph-name="germandbls" unicode="&#xdf;" horiz-adv-x="678" 
d="M73 164v227c0 217 151 297 309 297c142 0 167 -94 167 -128c0 -51 -31 -65 -31 -84c0 -54 146 -178 146 -327c0 -100 -73 -160 -169 -160c-74 0 -125 54 -125 89c0 25 60 15 60 76c0 77 -105 167 -105 240c0 99 98 113 98 155c0 26 -21 36 -44 36
c-37 0 -102 -35 -97 -215c1 -48 1 -80 7 -178c7 -124 55 -85 55 -131c0 -68 -142 -72 -189 -72c-42 0 -145 3 -145 63c0 44 63 36 63 112z" />
    <glyph glyph-name="onesuperior" unicode="&#xb9;" horiz-adv-x="378" 
d="M112 386v72c0 27 -3 38 -34 38s-50 -3 -50 19c0 49 168 74 242 74c20 0 54 -1 54 -27c0 -35 -50 -2 -50 -73v-64c0 -26 1 -77 6 -102c11 -54 85 -12 85 -54c0 -18 -12 -42 -170 -42c-121 0 -182 21 -182 45c0 14 15 24 30 24c11 0 22 -4 33 -4c22 0 36 7 36 94z" />
    <glyph glyph-name="logicalnot" unicode="&#xac;" 
d="M441 165v100c0 30 -1 31 -34 31h-269c-45 0 -65 -5 -65 58s20 58 65 58h354c45 0 65 -20 65 -65v-182c0 -45 5 -65 -58 -65s-58 20 -58 65z" />
    <glyph glyph-name="mu" unicode="&#xb5;" horiz-adv-x="712" 
d="M647 357v-201c0 -60 55 -32 55 -80c0 -68 -177 -87 -232 -87c-77 0 -26 60 -66 60c-16 0 -69 -48 -96 -50c2 -11 2 -20 2 -35c0 -74 -34 -149 -119 -149s-121 81 -121 156c0 50 9 80 9 118v200c0 153 -69 86 -69 152c0 64 252 67 260 67c28 0 31 -13 31 -38v-254
c0 -40 3 -102 57 -102c72 0 62 94 62 142c0 33 1 76 -4 108c-8 50 -57 33 -57 75c0 59 201 69 239 69c36 0 51 -21 51 -56c0 -32 -2 -63 -2 -95z" />
    <glyph glyph-name="trademark" unicode="&#x2122;" horiz-adv-x="1000" 
d="M303 575v-151c0 -94 53 -46 53 -91c0 -41 -78 -42 -119 -42c-29 0 -137 -1 -137 44c0 37 49 11 52 61l9 167c3 57 -9 60 -18 60c-26 0 -39 -69 -86 -69c-22 0 -35 21 -35 42c0 46 39 112 74 112c2 0 8 -2 19 -3c12 -2 29 -4 52 -4h142c24 0 36 2 45 5c9 2 14 4 23 4
c36 0 70 -67 70 -108c0 -28 -15 -47 -45 -47c-50 0 -49 67 -79 67c-22 0 -20 -31 -20 -47zM748 560l35 69c32 61 33 78 109 78c25 0 83 -1 83 -37s-32 -10 -36 -69c-2 -30 -5 -59 -5 -89c0 -35 5 -69 5 -104c0 -75 37 -48 37 -80c0 -39 -79 -37 -104 -37
c-24 0 -103 -2 -103 35c0 22 26 16 33 51c2 11 2 42 2 63c0 8 3 37 -11 37c-18 0 -37 -51 -42 -64l-30 -66c-5 -10 -15 -40 -30 -40c-19 0 -20 16 -48 77l-34 75c-3 8 -10 25 -20 25c-15 0 -12 -26 -12 -83c0 -86 37 -41 37 -76c0 -33 -62 -34 -84 -34c-21 0 -73 2 -73 32
c0 28 31 9 40 50c3 12 9 107 9 194c0 111 -47 56 -47 100c0 16 13 40 99 40c64 0 64 -6 83 -41l55 -101c5 -9 13 -33 27 -33s20 18 25 28z" />
    <glyph glyph-name="Eth" unicode="&#xd0;" horiz-adv-x="843" 
d="M344 544v-82c0 -16 4 -32 14 -32h60c22 0 23 -12 23 -46c0 -27 0 -47 -22 -47h-61c-14 -1 -14 -14 -14 -37v-129c0 -51 8 -72 62 -72c126 0 148 129 148 229c0 234 -88 271 -165 271c-42 0 -45 -17 -45 -55zM124 708h326c278 0 369 -172 369 -352
c0 -186 -109 -361 -362 -361c-43 0 -79 1 -110 3c-31 1 -58 2 -86 2s-57 -1 -85 -2c-28 -2 -56 -3 -85 -3c-34 0 -77 17 -77 57c0 70 83 -4 82 148v106c0 17 -2 30 -16 30h-64c-18 0 -18 14 -18 50c0 33 0 43 20 45h64c19 0 22 17 22 21v105c-1 73 -73 35 -73 98
c0 46 58 53 93 53z" />
    <glyph glyph-name="onehalf" unicode="&#xbd;" horiz-adv-x="946" 
d="M112 383v72c0 27 -3 38 -34 38s-50 -3 -50 19c0 49 168 74 242 74c20 0 54 -1 54 -27c0 -35 -50 -2 -50 -73v-64c0 -26 1 -77 6 -102c11 -54 85 -12 85 -54c0 -18 -12 -42 -170 -42c-121 0 -182 21 -182 45c0 14 15 24 30 24c11 0 22 -4 33 -4c22 0 36 7 36 94zM794 0
h-214c-12 0 -38 -1 -38 16c0 9 -1 9 47 52c33 29 112 104 112 146c0 21 -14 34 -36 34c-40 0 -48 -34 -78 -34c-19 0 -42 16 -42 34c0 53 122 105 202 105c110 0 156 -46 156 -94c0 -77 -110 -126 -110 -150c0 -14 16 -21 29 -21c46 0 58 36 79 36c24 0 30 -28 30 -45
c0 -68 -47 -108 -73 -108c-36 0 -5 29 -64 29zM585 404l-189 -323c-74 -127 -74 -150 -108 -150c-16 0 -59 4 -59 25c0 28 23 35 145 245l234 405c17 30 25 44 61 44c15 0 47 -2 47 -23c0 -35 -23 -39 -131 -223z" />
    <glyph glyph-name="plusminus" unicode="&#xb1;" 
d="M492 266h-68c-28 0 -41 1 -46 -4c-6 -6 -5 -19 -5 -47c0 -45 5 -65 -58 -65s-58 20 -58 65c0 28 2 42 -4 47s-19 4 -47 4h-68c-45 0 -65 -5 -65 58s20 58 65 58h68c28 0 41 -1 47 5c5 5 4 18 4 46c0 45 -5 65 58 65s58 -20 58 -65c0 -28 0 -40 5 -46s18 -5 46 -5h68
c45 0 65 5 65 -58s-20 -58 -65 -58zM492 0h-354c-45 0 -65 -5 -65 58s20 58 65 58h354c45 0 65 5 65 -58s-20 -58 -65 -58z" />
    <glyph glyph-name="Thorn" unicode="&#xde;" horiz-adv-x="719" 
d="M107 156v383c0 87 -73 52 -73 107c0 65 148 66 190 66c45 0 189 -2 189 -67c0 -46 -77 -37 -77 -94c0 -9 5 -21 28 -21c18 0 48 4 78 4c134 0 265 -49 265 -169c0 -119 -126 -176 -265 -176c-30 0 -60 4 -90 4c-16 0 -16 -17 -16 -33c0 -76 77 -54 77 -103
c0 -65 -144 -68 -189 -68c-42 0 -190 1 -190 66c0 55 73 21 73 101zM491 360c0 44 -29 88 -87 88c-46 0 -66 -8 -66 -36v-106c0 -22 20 -31 62 -31c62 0 91 47 91 85z" />
    <glyph glyph-name="onequarter" unicode="&#xbc;" horiz-adv-x="946" 
d="M889 337v-199c0 -17 -2 -24 19 -24c23 0 25 -1 25 -24v-48c0 -14 0 -24 -18 -26c-20 -2 -18 -4 -18 -35c0 -27 6 -39 -27 -39h-99c-15 0 -27 -1 -27 16v20c0 31 3 39 -32 39h-114c-34 0 -50 5 -50 40c0 44 8 57 66 122l150 160c27 23 57 38 94 38c30 0 31 -18 31 -40z
M683 106h20c45 0 46 -1 46 38c0 17 1 33 1 50c0 10 1 33 -17 33c-13 0 -21 -9 -29 -18l-41 -47c-8 -9 -27 -30 -27 -43c0 -15 37 -13 47 -13zM112 383v72c0 27 -3 38 -34 38s-50 -3 -50 19c0 49 168 74 242 74c20 0 54 -1 54 -27c0 -35 -50 -2 -50 -73v-64
c0 -26 1 -77 6 -102c11 -54 85 -12 85 -54c0 -18 -12 -42 -170 -42c-121 0 -182 21 -182 45c0 14 15 24 30 24c11 0 22 -4 33 -4c22 0 36 7 36 94zM625 404l-189 -323c-74 -127 -74 -150 -108 -150c-16 0 -59 4 -59 25c0 28 23 35 145 245l234 405c17 30 25 44 61 44
c15 0 47 -2 47 -23c0 -35 -23 -39 -131 -223z" />
    <glyph glyph-name="divide" unicode="&#xf7;" 
d="M492 198h-354c-45 0 -65 -5 -65 58s20 58 65 58h354c45 0 65 5 65 -58s-20 -58 -65 -58zM315 164c41 0 75 -34 75 -75s-34 -75 -75 -75s-75 34 -75 75s34 75 75 75zM315 498c41 0 75 -34 75 -75s-34 -75 -75 -75s-75 34 -75 75s34 75 75 75z" />
    <glyph glyph-name="brokenbar" unicode="&#xa6;" horiz-adv-x="496" 
d="M190 378v238c0 39 0 59 57 59c59 0 59 -20 59 -58v-242c0 -30 0 -50 -59 -50c-57 0 -57 20 -57 53zM190 -122v238c0 39 0 59 57 59c59 0 59 -20 59 -58v-242c0 -30 0 -50 -59 -50c-57 0 -57 20 -57 53z" />
    <glyph glyph-name="degree" unicode="&#xb0;" horiz-adv-x="378" 
d="M339 500c0 -83 -68 -150 -150 -150c-83 0 -150 67 -150 150c-1 82 67 150 150 150c82 0 150 -68 150 -150zM268 501c0 44 -35 78 -79 78s-80 -34 -79 -78c0 -44 35 -80 79 -80s79 36 79 80z" />
    <glyph glyph-name="thorn" unicode="&#xfe;" horiz-adv-x="699" 
d="M86 143v358c0 58 -76 32 -76 89c0 67 195 111 278 111c27 0 26 -20 25 -42l-6 -193c0 -5 -1 -16 7 -16c5 0 21 15 47 31c26 15 61 30 105 30c148 0 211 -123 212 -248c1 -137 -92 -277 -237 -277c-47 0 -94 25 -103 25c-14 0 -16 -21 -16 -32c0 -76 62 -52 62 -101
c0 -56 -91 -63 -130 -63c-134 0 -239 49 -239 100c0 45 41 28 59 67c10 21 12 50 12 161zM315 302v-132c0 -40 33 -49 50 -49c59 0 70 67 70 115s-10 127 -73 127c-38 0 -47 -32 -47 -61z" />
    <glyph glyph-name="threequarters" unicode="&#xbe;" horiz-adv-x="946" 
d="M897 337v-199c0 -17 -2 -24 19 -24c23 0 25 -1 25 -24v-48c0 -14 0 -24 -18 -26c-20 -2 -18 -4 -18 -35c0 -27 6 -39 -27 -39h-99c-15 0 -27 -1 -27 16v20c0 31 3 39 -32 39h-114c-34 0 -50 5 -50 40c0 44 8 57 66 122l150 160c27 23 57 38 94 38c30 0 31 -18 31 -40z
M691 106h20c45 0 46 -1 46 38c0 17 1 33 1 50c0 10 1 33 -17 33c-13 0 -21 -9 -29 -18l-41 -47c-8 -9 -27 -30 -27 -43c0 -15 37 -13 47 -13zM181 586c52 0 158 -15 158 -79c0 -51 -49 -62 -49 -76c0 -21 110 -2 110 -106c0 -76 -76 -156 -248 -156c-33 0 -147 6 -147 49
c0 19 16 33 36 33c19 0 40 -11 81 -11s87 20 87 57c0 35 -35 51 -69 51c-24 0 -41 -6 -47 -6c-15 0 -27 36 -27 47c0 25 87 22 87 78c0 22 -25 40 -50 40c-32 0 -54 -21 -66 -21c-14 0 -24 23 -24 34c0 32 91 66 168 66zM650 404l-189 -323c-74 -127 -74 -150 -108 -150
c-16 0 -59 4 -59 25c0 28 23 35 145 245l234 405c17 30 25 44 61 44c15 0 47 -2 47 -23c0 -35 -23 -39 -131 -223z" />
    <glyph glyph-name="twosuperior" unicode="&#xb2;" horiz-adv-x="378" 
d="M359 359c24 0 29 -27 29 -45c0 -49 -33 -107 -72 -107c-36 0 -7 29 -67 29h-212c-11 0 -37 -2 -37 15c0 9 2 14 47 52c33 29 112 104 112 147c0 21 -14 34 -37 34c-38 0 -48 -35 -77 -35c-19 0 -42 17 -42 35c0 38 91 105 202 105c140 0 155 -71 155 -94
c0 -77 -109 -126 -109 -151c0 -14 16 -21 29 -21c46 0 58 36 79 36z" />
    <glyph glyph-name="registered" unicode="&#xae;" horiz-adv-x="758" 
d="M379 -14c-201 0 -365 163 -365 365c0 201 164 364 365 364s365 -163 365 -364c0 -202 -164 -365 -365 -365zM379 55c164 0 296 132 296 296c0 163 -132 295 -296 295s-296 -132 -296 -295c0 -164 132 -296 296 -296zM215 303v124c0 97 -41 49 -41 88c0 30 42 34 64 34
s45 -4 67 -4c35 0 71 4 106 4c61 0 133 -27 133 -100c0 -75 -55 -73 -55 -90s75 -15 76 -111c3 -48 42 -21 42 -53c0 -29 -47 -43 -87 -43c-150 0 -79 172 -160 172c-12 0 -16 -3 -16 -36c0 -16 1 -38 4 -53c4 -24 32 -18 32 -43c0 -30 -46 -35 -102 -35
c-26 0 -104 0 -104 40c0 34 41 -7 41 106zM343 460v-52c0 -14 -5 -26 13 -26c35 0 47 20 47 53c0 27 -7 54 -38 54c-20 0 -22 -12 -22 -29z" />
    <glyph glyph-name="minus" unicode="&#x2212;" 
d="M492 198h-354c-45 0 -65 -5 -65 58s20 58 65 58h354c45 0 65 5 65 -58s-20 -58 -65 -58z" />
    <glyph glyph-name="eth" unicode="&#xf0;" horiz-adv-x="633" 
d="M393 210c-1 82 -41 184 -96 183c-37 0 -56 -45 -56 -107c0 -82 53 -174 98 -174c43 0 55 36 54 98zM162 658c0 29 114 66 134 66c17 0 38 -17 54 -27c8 -5 14 -8 22 -8c8 1 17 4 38 15c27 12 57 34 68 34c13 0 24 -4 34 -14c6 -6 12 -12 12 -23c0 -14 -83 -35 -83 -57
c0 -12 17 -32 31 -44c111 -93 151 -216 151 -289c0 -251 -182 -325 -332 -325c-148 0 -273 102 -273 245c0 123 28 177 91 220c42 28 93 36 125 36c18 0 46 -12 54 -12c9 0 11 13 11 24c0 27 -40 59 -56 59c-14 0 -62 -27 -79 -35c-8 -3 -25 -12 -32 -12c-10 0 -22 4 -30 13
s-16 16 -16 25c0 10 65 37 85 47c11 5 24 9 24 18c0 15 -33 25 -33 44z" />
    <glyph glyph-name="multiply" unicode="&#xd7;" 
d="M351 374l78 78c18 18 30 32 42 32c27 0 72 -49 72 -72c-1 -13 -14 -24 -32 -42l-78 -78c-19 -19 -29 -27 -29 -36c0 -8 10 -17 29 -36l78 -78c18 -18 31 -29 32 -42c0 -23 -45 -72 -72 -72c-12 0 -24 14 -42 32l-78 78c-19 19 -27 29 -36 29c-8 0 -16 -9 -36 -29l-78 -78
c-18 -18 -30 -32 -42 -32c-27 0 -72 49 -72 72c1 13 14 24 32 42l78 78c20 20 29 28 29 36c0 9 -9 16 -29 36l-78 78c-18 18 -31 29 -32 42c0 23 45 72 72 72c12 0 24 -14 42 -32l78 -78c20 -20 28 -29 36 -29c9 0 17 10 36 29z" />
    <glyph glyph-name="threesuperior" unicode="&#xb3;" horiz-adv-x="378" 
d="M386 325c0 -57 -55 -153 -248 -153c-32 0 -147 6 -147 49c0 19 17 33 37 33c16 0 41 -11 81 -11c69 0 87 35 87 57c0 35 -35 51 -69 51c-33 0 -35 -6 -47 -6c-16 0 -27 36 -27 47c0 25 87 23 87 75c0 25 -26 43 -51 43c-32 0 -54 -21 -66 -21c-13 0 -23 23 -23 34
c0 26 65 66 167 66c52 0 159 -15 159 -79c0 -51 -49 -62 -49 -76c0 -22 109 -1 109 -109z" />
    <glyph glyph-name="copyright" unicode="&#xa9;" horiz-adv-x="758" 
d="M379 -14c-201 0 -365 163 -365 365c0 201 164 364 365 364s365 -163 365 -364c0 -202 -164 -365 -365 -365zM379 55c164 0 296 132 296 296c0 163 -132 295 -296 295s-296 -132 -296 -295c0 -164 132 -296 296 -296zM489 520c9 0 17 4 25 4c23 0 53 -34 53 -96
c0 -31 -19 -57 -51 -57c-58 0 -42 97 -139 97c-44 0 -61 -40 -61 -78c0 -71 42 -143 120 -143c64 0 83 38 97 38c16 0 24 -18 24 -32c0 -27 -18 -68 -53 -75c-38 -7 -56 -32 -122 -32c-115 0 -210 91 -210 202c0 113 106 199 215 199c54 0 89 -27 102 -27z" />
    <glyph glyph-name="Aacute" unicode="&#xc1;" horiz-adv-x="869" 
d="M339 289h75c10 0 40 -2 40 13s-29 67 -37 81c-9 16 -26 53 -48 53c-24 0 -41 -60 -45 -71s-21 -50 -21 -62c0 -17 25 -14 36 -14zM141 224l63 137c31 69 72 157 72 236c0 69 32 121 121 121c87 0 142 -89 181 -155c17 -29 168 -335 204 -417c33 -76 87 -30 87 -87
c0 -73 -142 -70 -192 -70c-143 0 -229 1 -229 63c0 48 61 30 61 65c0 45 -25 49 -186 49c-52 0 -83 -2 -83 -51c0 -39 64 -13 64 -65c0 -60 -108 -61 -148 -61c-143 0 -156 27 -156 59c0 47 54 33 83 69c22 27 43 75 58 107zM355 745c-26 0 -54 5 -54 37c0 42 70 56 70 83
c0 9 -8 12 -8 23c0 25 68 30 84 30c31 0 122 -10 122 -56c0 -25 -78 -117 -214 -117z" />
    <glyph glyph-name="Acircumflex" unicode="&#xc2;" horiz-adv-x="869" 
d="M339 289h75c10 0 40 -2 40 13s-29 67 -37 81c-9 16 -26 53 -48 53c-24 0 -41 -60 -45 -71s-21 -50 -21 -62c0 -17 25 -14 36 -14zM141 224l63 137c31 69 72 157 72 236c0 69 32 121 121 121c87 0 142 -89 181 -155c17 -29 168 -335 204 -417c33 -76 87 -30 87 -87
c0 -73 -142 -70 -192 -70c-143 0 -229 1 -229 63c0 48 61 30 61 65c0 45 -25 49 -186 49c-52 0 -83 -2 -83 -51c0 -39 64 -13 64 -65c0 -60 -108 -61 -148 -61c-143 0 -156 27 -156 59c0 47 54 33 83 69c22 27 43 75 58 107zM422 934c37 0 193 -100 193 -148
c0 -23 -15 -42 -39 -42c-41 1 -110 57 -154 57s-113 -56 -154 -57c-24 0 -39 19 -39 42c0 48 156 148 193 148z" />
    <glyph glyph-name="Adieresis" unicode="&#xc4;" horiz-adv-x="869" 
d="M339 289h75c10 0 40 -2 40 13s-29 67 -37 81c-9 16 -26 53 -48 53c-24 0 -41 -60 -45 -71s-21 -50 -21 -62c0 -17 25 -14 36 -14zM141 224l63 137c31 69 72 157 72 236c0 69 32 121 121 121c87 0 142 -89 181 -155c17 -29 168 -335 204 -417c33 -76 87 -30 87 -87
c0 -73 -142 -70 -192 -70c-143 0 -229 1 -229 63c0 48 61 30 61 65c0 45 -25 49 -186 49c-52 0 -83 -2 -83 -51c0 -39 64 -13 64 -65c0 -60 -108 -61 -148 -61c-143 0 -156 27 -156 59c0 47 54 33 83 69c22 27 43 75 58 107zM413 840c0 -67 -116 -85 -166 -85
c-40 0 -95 17 -95 66c0 71 103 83 154 83c40 0 107 -11 107 -64zM718 840c0 -67 -116 -85 -166 -85c-40 0 -95 17 -95 66c0 71 103 83 154 83c40 0 107 -11 107 -64z" />
    <glyph glyph-name="Agrave" unicode="&#xc0;" horiz-adv-x="869" 
d="M339 289h75c10 0 40 -2 40 13s-29 67 -37 81c-9 16 -26 53 -48 53c-24 0 -41 -60 -45 -71s-21 -50 -21 -62c0 -17 25 -14 36 -14zM141 224l63 137c31 69 72 157 72 236c0 69 32 121 121 121c87 0 142 -89 181 -155c17 -29 168 -335 204 -417c33 -76 87 -30 87 -87
c0 -73 -142 -70 -192 -70c-143 0 -229 1 -229 63c0 48 61 30 61 65c0 45 -25 49 -186 49c-52 0 -83 -2 -83 -51c0 -39 64 -13 64 -65c0 -60 -108 -61 -148 -61c-143 0 -156 27 -156 59c0 47 54 33 83 69c22 27 43 75 58 107zM503 745c-136 0 -214 92 -214 117
c0 46 91 56 122 56c16 0 84 -5 84 -30c0 -11 -8 -14 -8 -23c0 -27 70 -41 70 -83c0 -32 -28 -37 -54 -37z" />
    <glyph glyph-name="Aring" unicode="&#xc5;" horiz-adv-x="869" 
d="M339 289h75c10 0 40 -2 40 13s-29 67 -37 81c-9 16 -26 53 -48 53c-24 0 -41 -60 -45 -71s-21 -50 -21 -62c0 -17 25 -14 36 -14zM141 224l63 137c31 69 72 157 72 236c0 69 32 121 121 121c87 0 142 -89 181 -155c17 -29 168 -335 204 -417c33 -76 87 -30 87 -87
c0 -73 -142 -70 -192 -70c-143 0 -229 1 -229 63c0 48 61 30 61 65c0 45 -25 49 -186 49c-52 0 -83 -2 -83 -51c0 -39 64 -13 64 -65c0 -60 -108 -61 -148 -61c-143 0 -156 27 -156 59c0 47 54 33 83 69c22 27 43 75 58 107zM575 848c0 -84 -88 -105 -153 -105
c-73 0 -153 21 -153 105s80 105 153 105c65 0 153 -21 153 -105zM472 848c0 30 -16 58 -50 58s-50 -28 -50 -58s16 -58 50 -58s50 28 50 58z" />
    <glyph glyph-name="Atilde" unicode="&#xc3;" horiz-adv-x="869" 
d="M339 289h75c10 0 40 -2 40 13s-29 67 -37 81c-9 16 -26 53 -48 53c-24 0 -41 -60 -45 -71s-21 -50 -21 -62c0 -17 25 -14 36 -14zM141 224l63 137c31 69 72 157 72 236c0 69 32 121 121 121c87 0 142 -89 181 -155c17 -29 168 -335 204 -417c33 -76 87 -30 87 -87
c0 -73 -142 -70 -192 -70c-143 0 -229 1 -229 63c0 48 61 30 61 65c0 45 -25 49 -186 49c-52 0 -83 -2 -83 -51c0 -39 64 -13 64 -65c0 -60 -108 -61 -148 -61c-143 0 -156 27 -156 59c0 47 54 33 83 69c22 27 43 75 58 107zM572 912c46 0 85 -6 85 -55
c0 -55 -50 -102 -109 -102c-77 0 -177 57 -214 57c-12 0 -12 -5 -12 -14c0 -32 -24 -43 -48 -43c-46 0 -86 6 -86 55c0 55 51 102 110 102c76 0 176 -57 214 -57c12 0 12 5 12 14c0 32 24 43 48 43z" />
    <glyph glyph-name="Ccedilla" unicode="&#xc7;" horiz-adv-x="756" 
d="M24 353c0 205 193 362 390 362c98 0 161 -49 187 -49c22 0 28 7 45 7c42 0 96 -63 96 -174c0 -57 -34 -105 -93 -105c-103 0 -77 177 -255 177c-77 0 -109 -72 -109 -127c0 -148 79 -274 219 -274c127 0 146 69 177 69c29 0 43 -34 43 -59c0 -44 -46 -136 -96 -136
c-34 0 -103 -57 -219 -58l49 -47c17 -17 40 -34 40 -60c0 -46 -72 -61 -106 -61c-73 0 -92 35 -92 51c0 43 67 31 67 51c0 6 -4 12 -7 17l-40 59c-169 38 -296 184 -296 357z" />
    <glyph glyph-name="Eacute" unicode="&#xc9;" horiz-adv-x="726" 
d="M139 701h288c134 0 153 20 169 20c57 0 81 -98 81 -142c0 -33 -13 -72 -52 -72c-79 0 -15 96 -205 96c-111 0 -100 -20 -100 -135c0 -58 3 -60 64 -60c76 0 19 111 90 111c58 0 62 -113 62 -152c0 -41 -7 -161 -67 -161c-62 0 0 105 -101 105c-42 0 -41 -38 -41 -70
c0 -146 10 -139 115 -139c205 0 147 141 229 141c32 0 48 -36 48 -64c0 -68 -54 -190 -94 -190c-7 0 -23 3 -44 6c-22 2 -50 5 -84 5h-411c-66 0 -67 30 -67 43c0 55 68 11 75 117c12 182 13 164 3 345c-7 153 -83 74 -83 145c0 61 84 51 125 51zM283 745
c-26 0 -54 5 -54 37c0 42 70 56 70 83c0 9 -8 12 -8 23c0 25 68 30 84 30c31 0 122 -10 122 -56c0 -25 -78 -117 -214 -117z" />
    <glyph glyph-name="Ecircumflex" unicode="&#xca;" horiz-adv-x="726" 
d="M139 701h288c134 0 153 20 169 20c57 0 81 -98 81 -142c0 -33 -13 -72 -52 -72c-79 0 -15 96 -205 96c-111 0 -100 -20 -100 -135c0 -58 3 -60 64 -60c76 0 19 111 90 111c58 0 62 -113 62 -152c0 -41 -7 -161 -67 -161c-62 0 0 105 -101 105c-42 0 -41 -38 -41 -70
c0 -146 10 -139 115 -139c205 0 147 141 229 141c32 0 48 -36 48 -64c0 -68 -54 -190 -94 -190c-7 0 -23 3 -44 6c-22 2 -50 5 -84 5h-411c-66 0 -67 30 -67 43c0 55 68 11 75 117c12 182 13 164 3 345c-7 153 -83 74 -83 145c0 61 84 51 125 51zM363 934
c37 0 193 -100 193 -148c0 -23 -15 -42 -39 -42c-41 1 -110 57 -154 57s-113 -56 -154 -57c-24 0 -39 19 -39 42c0 48 156 148 193 148z" />
    <glyph glyph-name="Edieresis" unicode="&#xcb;" horiz-adv-x="726" 
d="M139 701h288c134 0 153 20 169 20c57 0 81 -98 81 -142c0 -33 -13 -72 -52 -72c-79 0 -15 96 -205 96c-111 0 -100 -20 -100 -135c0 -58 3 -60 64 -60c76 0 19 111 90 111c58 0 62 -113 62 -152c0 -41 -7 -161 -67 -161c-62 0 0 105 -101 105c-42 0 -41 -38 -41 -70
c0 -146 10 -139 115 -139c205 0 147 141 229 141c32 0 48 -36 48 -64c0 -68 -54 -190 -94 -190c-7 0 -23 3 -44 6c-22 2 -50 5 -84 5h-411c-66 0 -67 30 -67 43c0 55 68 11 75 117c12 182 13 164 3 345c-7 153 -83 74 -83 145c0 61 84 51 125 51zM341 840
c0 -67 -116 -85 -166 -85c-40 0 -95 17 -95 66c0 71 103 83 154 83c40 0 107 -11 107 -64zM646 840c0 -67 -116 -85 -166 -85c-40 0 -95 17 -95 66c0 71 103 83 154 83c40 0 107 -11 107 -64z" />
    <glyph glyph-name="Egrave" unicode="&#xc8;" horiz-adv-x="726" 
d="M139 701h288c134 0 153 20 169 20c57 0 81 -98 81 -142c0 -33 -13 -72 -52 -72c-79 0 -15 96 -205 96c-111 0 -100 -20 -100 -135c0 -58 3 -60 64 -60c76 0 19 111 90 111c58 0 62 -113 62 -152c0 -41 -7 -161 -67 -161c-62 0 0 105 -101 105c-42 0 -41 -38 -41 -70
c0 -146 10 -139 115 -139c205 0 147 141 229 141c32 0 48 -36 48 -64c0 -68 -54 -190 -94 -190c-7 0 -23 3 -44 6c-22 2 -50 5 -84 5h-411c-66 0 -67 30 -67 43c0 55 68 11 75 117c12 182 13 164 3 345c-7 153 -83 74 -83 145c0 61 84 51 125 51zM443 745
c-136 0 -214 92 -214 117c0 46 91 56 122 56c16 0 84 -5 84 -30c0 -11 -8 -14 -8 -23c0 -27 70 -41 70 -83c0 -32 -28 -37 -54 -37z" />
    <glyph glyph-name="Iacute" unicode="&#xcd;" horiz-adv-x="435" 
d="M97 301v99c0 127 -10 156 -21 170c-23 29 -62 32 -62 70c0 72 204 72 224 72c60 0 183 -2 183 -70c0 -36 -38 -34 -61 -60c-19 -22 -20 -112 -20 -182v-99c0 -178 12 -174 32 -186c25 -15 49 -20 49 -51c0 -30 -9 -75 -228 -75c-42 0 -168 1 -168 65c0 32 34 37 50 56
c12 14 22 51 22 191zM138 745c-26 0 -54 5 -54 37c0 42 70 56 70 83c0 9 -8 12 -8 23c0 25 68 30 84 30c31 0 122 -10 122 -56c0 -25 -78 -117 -214 -117z" />
    <glyph glyph-name="Icircumflex" unicode="&#xce;" horiz-adv-x="435" 
d="M97 301v99c0 127 -10 156 -21 170c-23 29 -62 32 -62 70c0 72 204 72 224 72c60 0 183 -2 183 -70c0 -36 -38 -34 -61 -60c-19 -22 -20 -112 -20 -182v-99c0 -178 12 -174 32 -186c25 -15 49 -20 49 -51c0 -30 -9 -75 -228 -75c-42 0 -168 1 -168 65c0 32 34 37 50 56
c12 14 22 51 22 191zM217 934c37 0 193 -100 193 -148c0 -23 -15 -42 -39 -42c-41 1 -110 57 -154 57s-113 -56 -154 -57c-24 0 -39 19 -39 42c0 48 156 148 193 148z" />
    <glyph glyph-name="Idieresis" unicode="&#xcf;" horiz-adv-x="435" 
d="M97 301v99c0 127 -10 156 -21 170c-23 29 -62 32 -62 70c0 72 204 72 224 72c60 0 183 -2 183 -70c0 -36 -38 -34 -61 -60c-19 -22 -20 -112 -20 -182v-99c0 -178 12 -174 32 -186c25 -15 49 -20 49 -51c0 -30 -9 -75 -228 -75c-42 0 -168 1 -168 65c0 32 34 37 50 56
c12 14 22 51 22 191zM196 840c0 -67 -116 -85 -166 -85c-40 0 -95 17 -95 66c0 71 103 83 154 83c40 0 107 -11 107 -64zM501 840c0 -67 -116 -85 -166 -85c-40 0 -95 17 -95 66c0 71 103 83 154 83c40 0 107 -11 107 -64z" />
    <glyph glyph-name="Igrave" unicode="&#xcc;" horiz-adv-x="435" 
d="M97 301v99c0 127 -10 156 -21 170c-23 29 -62 32 -62 70c0 72 204 72 224 72c60 0 183 -2 183 -70c0 -36 -38 -34 -61 -60c-19 -22 -20 -112 -20 -182v-99c0 -178 12 -174 32 -186c25 -15 49 -20 49 -51c0 -30 -9 -75 -228 -75c-42 0 -168 1 -168 65c0 32 34 37 50 56
c12 14 22 51 22 191zM298 745c-136 0 -214 92 -214 117c0 46 91 56 122 56c16 0 84 -5 84 -30c0 -11 -8 -14 -8 -23c0 -27 70 -41 70 -83c0 -32 -28 -37 -54 -37z" />
    <glyph glyph-name="Ntilde" unicode="&#xd1;" horiz-adv-x="873" 
d="M312 668l237 -208c12 -10 44 -39 62 -39c25 0 26 41 26 58c0 25 -1 68 -9 91c-14 42 -67 27 -67 81c0 64 102 61 144 61c44 0 153 5 153 -64c0 -57 -53 -36 -70 -82c-13 -36 -13 -98 -13 -136v-259c0 -45 6 -182 -61 -182c-20 0 -37 12 -52 25l-309 277
c-14 13 -40 37 -61 37c-31 0 -32 -65 -32 -86c0 -28 1 -65 7 -91c15 -64 68 -40 68 -89c0 -67 -103 -73 -150 -73c-46 0 -149 6 -149 71c0 53 58 32 68 96c7 43 9 106 9 151c0 72 0 145 -11 217c-16 100 -88 61 -88 121c0 71 135 67 180 67c62 0 73 -4 118 -44zM586 912
c46 0 85 -6 85 -55c0 -55 -50 -102 -109 -102c-77 0 -177 57 -214 57c-12 0 -12 -5 -12 -14c0 -32 -24 -43 -48 -43c-46 0 -86 6 -86 55c0 55 51 102 110 102c76 0 176 -57 214 -57c12 0 12 5 12 14c0 32 24 43 48 43z" />
    <glyph glyph-name="Oacute" unicode="&#xd3;" horiz-adv-x="818" 
d="M399 -14c-211 0 -375 154 -375 367c0 212 169 362 387 362c276 0 382 -243 382 -372c0 -215 -190 -357 -394 -357zM536 242c0 91 -54 324 -171 324c-56 0 -84 -58 -84 -107c0 -85 60 -324 168 -324c61 0 87 53 87 107zM329 745c-26 0 -54 5 -54 37c0 42 70 56 70 83
c0 9 -8 12 -8 23c0 25 68 30 84 30c31 0 122 -10 122 -56c0 -25 -78 -117 -214 -117z" />
    <glyph glyph-name="Ocircumflex" unicode="&#xd4;" horiz-adv-x="818" 
d="M399 -14c-211 0 -375 154 -375 367c0 212 169 362 387 362c276 0 382 -243 382 -372c0 -215 -190 -357 -394 -357zM536 242c0 91 -54 324 -171 324c-56 0 -84 -58 -84 -107c0 -85 60 -324 168 -324c61 0 87 53 87 107zM409 934c37 0 193 -100 193 -148
c0 -23 -15 -42 -39 -42c-41 1 -110 57 -154 57s-113 -56 -154 -57c-24 0 -39 19 -39 42c0 48 156 148 193 148z" />
    <glyph glyph-name="Odieresis" unicode="&#xd6;" horiz-adv-x="818" 
d="M399 -14c-211 0 -375 154 -375 367c0 212 169 362 387 362c276 0 382 -243 382 -372c0 -215 -190 -357 -394 -357zM536 242c0 91 -54 324 -171 324c-56 0 -84 -58 -84 -107c0 -85 60 -324 168 -324c61 0 87 53 87 107zM387 840c0 -67 -116 -85 -166 -85
c-40 0 -95 17 -95 66c0 71 103 83 154 83c40 0 107 -11 107 -64zM692 840c0 -67 -116 -85 -166 -85c-40 0 -95 17 -95 66c0 71 103 83 154 83c40 0 107 -11 107 -64z" />
    <glyph glyph-name="Ograve" unicode="&#xd2;" horiz-adv-x="818" 
d="M399 -14c-211 0 -375 154 -375 367c0 212 169 362 387 362c276 0 382 -243 382 -372c0 -215 -190 -357 -394 -357zM536 242c0 91 -54 324 -171 324c-56 0 -84 -58 -84 -107c0 -85 60 -324 168 -324c61 0 87 53 87 107zM489 745c-136 0 -214 92 -214 117
c0 46 91 56 122 56c16 0 84 -5 84 -30c0 -11 -8 -14 -8 -23c0 -27 70 -41 70 -83c0 -32 -28 -37 -54 -37z" />
    <glyph glyph-name="Otilde" unicode="&#xd5;" horiz-adv-x="818" 
d="M399 -14c-211 0 -375 154 -375 367c0 212 169 362 387 362c276 0 382 -243 382 -372c0 -215 -190 -357 -394 -357zM536 242c0 91 -54 324 -171 324c-56 0 -84 -58 -84 -107c0 -85 60 -324 168 -324c61 0 87 53 87 107zM559 912c46 0 85 -6 85 -55
c0 -55 -50 -102 -109 -102c-77 0 -177 57 -214 57c-12 0 -12 -5 -12 -14c0 -32 -24 -43 -48 -43c-46 0 -86 6 -86 55c0 55 51 102 110 102c76 0 176 -57 214 -57c12 0 12 5 12 14c0 32 24 43 48 43z" />
    <glyph glyph-name="Scaron" unicode="&#x160;" horiz-adv-x="678" 
d="M135 305c-55 44 -95 105 -95 177c0 104 100 233 294 233c64 0 136 -29 151 -29c14 0 28 12 49 12c34 0 110 -74 110 -158c0 -34 -22 -68 -59 -68c-67 0 -106 114 -210 114c-31 0 -64 -14 -64 -50c0 -79 137 -58 253 -135c62 -41 93 -91 93 -166
c0 -117 -96 -249 -329 -249c-66 0 -179 17 -236 48c-48 27 -71 133 -71 184c0 27 12 54 42 54c71 0 59 -159 243 -159c22 0 77 11 77 49c0 72 -137 54 -248 143zM339 745c-37 0 -193 100 -193 148c0 23 15 42 39 42c41 -1 110 -57 154 -57s113 56 154 57c24 0 39 -19 39 -42
c0 -48 -156 -148 -193 -148z" />
    <glyph glyph-name="Uacute" unicode="&#xda;" horiz-adv-x="862" 
d="M629 279v249c0 107 -86 66 -86 124c0 62 116 60 157 60c38 0 148 0 148 -58c0 -56 -75 -22 -75 -113v-270c0 -45 1 -285 -345 -285c-394 0 -350 304 -350 316v231c4 63 -64 63 -64 109c0 14 -11 70 195 70c163 0 196 -30 196 -69c0 -72 -73 -5 -78 -127v-184
c0 -119 45 -195 151 -195c158 0 151 131 151 142zM351 745c-26 0 -54 5 -54 37c0 42 70 56 70 83c0 9 -8 12 -8 23c0 25 68 30 84 30c31 0 122 -10 122 -56c0 -25 -78 -117 -214 -117z" />
    <glyph glyph-name="Ucircumflex" unicode="&#xdb;" horiz-adv-x="862" 
d="M629 279v249c0 107 -86 66 -86 124c0 62 116 60 157 60c38 0 148 0 148 -58c0 -56 -75 -22 -75 -113v-270c0 -45 1 -285 -345 -285c-394 0 -350 304 -350 316v231c4 63 -64 63 -64 109c0 14 -11 70 195 70c163 0 196 -30 196 -69c0 -72 -73 -5 -78 -127v-184
c0 -119 45 -195 151 -195c158 0 151 131 151 142zM431 934c37 0 193 -100 193 -148c0 -23 -15 -42 -39 -42c-41 1 -110 57 -154 57s-113 -56 -154 -57c-24 0 -39 19 -39 42c0 48 156 148 193 148z" />
    <glyph glyph-name="Udieresis" unicode="&#xdc;" horiz-adv-x="862" 
d="M629 279v249c0 107 -86 66 -86 124c0 62 116 60 157 60c38 0 148 0 148 -58c0 -56 -75 -22 -75 -113v-270c0 -45 1 -285 -345 -285c-394 0 -350 304 -350 316v231c4 63 -64 63 -64 109c0 14 -11 70 195 70c163 0 196 -30 196 -69c0 -72 -73 -5 -78 -127v-184
c0 -119 45 -195 151 -195c158 0 151 131 151 142zM409 840c0 -67 -116 -85 -166 -85c-40 0 -95 17 -95 66c0 71 103 83 154 83c40 0 107 -11 107 -64zM714 840c0 -67 -116 -85 -166 -85c-40 0 -95 17 -95 66c0 71 103 83 154 83c40 0 107 -11 107 -64z" />
    <glyph glyph-name="Ugrave" unicode="&#xd9;" horiz-adv-x="862" 
d="M629 279v249c0 107 -86 66 -86 124c0 62 116 60 157 60c38 0 148 0 148 -58c0 -56 -75 -22 -75 -113v-270c0 -45 1 -285 -345 -285c-394 0 -350 304 -350 316v231c4 63 -64 63 -64 109c0 14 -11 70 195 70c163 0 196 -30 196 -69c0 -72 -73 -5 -78 -127v-184
c0 -119 45 -195 151 -195c158 0 151 131 151 142zM511 745c-136 0 -214 92 -214 117c0 46 91 56 122 56c16 0 84 -5 84 -30c0 -11 -8 -14 -8 -23c0 -27 70 -41 70 -83c0 -32 -28 -37 -54 -37z" />
    <glyph glyph-name="Yacute" unicode="&#xdd;" horiz-adv-x="819" 
d="M697 572l-123 -135c-44 -55 -47 -85 -47 -155c0 -92 5 -132 14 -151c14 -29 67 -23 67 -70c0 -72 -158 -72 -207 -72c-196 0 -222 45 -222 72c0 54 57 34 75 75c10 23 16 69 16 166c0 57 -9 76 -44 121l-113 131c-49 57 -114 41 -114 90c0 23 -7 68 226 68
c208 0 206 -39 206 -61c0 -26 -28 -36 -28 -57c0 -22 40 -85 65 -85c26 0 68 53 68 76c0 28 -29 30 -29 68c0 59 116 59 154 59c125 0 158 -15 158 -59c0 -64 -72 -27 -122 -81zM330 745c-26 0 -54 5 -54 37c0 42 70 56 70 83c0 9 -8 12 -8 23c0 25 68 30 84 30
c31 0 122 -10 122 -56c0 -25 -78 -117 -214 -117z" />
    <glyph glyph-name="Ydieresis" unicode="&#x178;" horiz-adv-x="819" 
d="M697 572l-123 -135c-44 -55 -47 -85 -47 -155c0 -92 5 -132 14 -151c14 -29 67 -23 67 -70c0 -72 -158 -72 -207 -72c-196 0 -222 45 -222 72c0 54 57 34 75 75c10 23 16 69 16 166c0 57 -9 76 -44 121l-113 131c-49 57 -114 41 -114 90c0 23 -7 68 226 68
c208 0 206 -39 206 -61c0 -26 -28 -36 -28 -57c0 -22 40 -85 65 -85c26 0 68 53 68 76c0 28 -29 30 -29 68c0 59 116 59 154 59c125 0 158 -15 158 -59c0 -64 -72 -27 -122 -81zM388 840c0 -67 -116 -85 -166 -85c-40 0 -95 17 -95 66c0 71 103 83 154 83
c40 0 107 -11 107 -64zM693 840c0 -67 -116 -85 -166 -85c-40 0 -95 17 -95 66c0 71 103 83 154 83c40 0 107 -11 107 -64z" />
    <glyph glyph-name="Zcaron" unicode="&#x17d;" horiz-adv-x="721" 
d="M638 609l-215 -370c-9 -15 -44 -74 -44 -91c0 -24 54 -23 69 -23c175 0 118 132 194 132c50 0 72 -30 72 -77c0 -108 -66 -189 -101 -189c-5 0 -24 2 -45 5c-21 2 -44 4 -58 4h-422c-34 0 -71 -9 -71 38c0 19 12 35 21 50l252 428c5 8 18 27 18 38c0 26 -41 29 -66 29
c-126 0 -95 -135 -166 -135c-41 0 -69 45 -69 83c0 76 69 177 93 177c5 0 12 -3 32 -7c21 -3 57 -7 119 -7c43 0 120 5 194 9c73 5 142 9 166 9c29 0 51 -15 51 -46c0 -18 -16 -42 -24 -57zM360 745c-37 0 -193 100 -193 148c0 23 15 42 39 42c41 -1 110 -57 154 -57
s113 56 154 57c24 0 39 -19 39 -42c0 -48 -156 -148 -193 -148z" />
    <glyph glyph-name="aacute" unicode="&#xe1;" horiz-adv-x="596" 
d="M279 215c-34 0 -57 -32 -57 -64c0 -26 14 -54 43 -54c38 0 41 41 41 71c0 22 1 47 -27 47zM522 339v-100c0 -176 60 -80 60 -134c0 -57 -78 -119 -151 -119c-79 0 -81 51 -106 51c-12 0 -25 -13 -47 -25c-22 -13 -52 -26 -98 -26c-83 0 -166 44 -166 143
c0 71 68 159 244 159c31 0 45 -2 45 34c0 33 -1 102 -47 102c-60 0 -66 -108 -155 -108c-32 0 -56 23 -56 55c0 85 169 140 264 140c57 0 213 -22 213 -172zM218 561c-26 0 -54 5 -54 37c0 42 70 56 70 83c0 9 -8 12 -8 23c0 25 68 30 84 30c31 0 122 -10 122 -56
c0 -25 -78 -117 -214 -117z" />
    <glyph glyph-name="acircumflex" unicode="&#xe2;" horiz-adv-x="596" 
d="M279 215c-34 0 -57 -32 -57 -64c0 -26 14 -54 43 -54c38 0 41 41 41 71c0 22 1 47 -27 47zM522 339v-100c0 -176 60 -80 60 -134c0 -57 -78 -119 -151 -119c-79 0 -81 51 -106 51c-12 0 -25 -13 -47 -25c-22 -13 -52 -26 -98 -26c-83 0 -166 44 -166 143
c0 71 68 159 244 159c31 0 45 -2 45 34c0 33 -1 102 -47 102c-60 0 -66 -108 -155 -108c-32 0 -56 23 -56 55c0 85 169 140 264 140c57 0 213 -22 213 -172zM298 750c37 0 193 -100 193 -148c0 -23 -15 -42 -39 -42c-41 1 -110 57 -154 57s-113 -56 -154 -57
c-24 0 -39 19 -39 42c0 48 156 148 193 148z" />
    <glyph glyph-name="adieresis" unicode="&#xe4;" horiz-adv-x="596" 
d="M279 215c-34 0 -57 -32 -57 -64c0 -26 14 -54 43 -54c38 0 41 41 41 71c0 22 1 47 -27 47zM522 339v-100c0 -176 60 -80 60 -134c0 -57 -78 -119 -151 -119c-79 0 -81 51 -106 51c-12 0 -25 -13 -47 -25c-22 -13 -52 -26 -98 -26c-83 0 -166 44 -166 143
c0 71 68 159 244 159c31 0 45 -2 45 34c0 33 -1 102 -47 102c-60 0 -66 -108 -155 -108c-32 0 -56 23 -56 55c0 85 169 140 264 140c57 0 213 -22 213 -172zM276 656c0 -67 -116 -85 -166 -85c-40 0 -95 17 -95 66c0 71 103 83 154 83c40 0 107 -11 107 -64zM581 656
c0 -67 -116 -85 -166 -85c-40 0 -95 17 -95 66c0 71 103 83 154 83c40 0 107 -11 107 -64z" />
    <glyph glyph-name="agrave" unicode="&#xe0;" horiz-adv-x="596" 
d="M279 215c-34 0 -57 -32 -57 -64c0 -26 14 -54 43 -54c38 0 41 41 41 71c0 22 1 47 -27 47zM522 339v-100c0 -176 60 -80 60 -134c0 -57 -78 -119 -151 -119c-79 0 -81 51 -106 51c-12 0 -25 -13 -47 -25c-22 -13 -52 -26 -98 -26c-83 0 -166 44 -166 143
c0 71 68 159 244 159c31 0 45 -2 45 34c0 33 -1 102 -47 102c-60 0 -66 -108 -155 -108c-32 0 -56 23 -56 55c0 85 169 140 264 140c57 0 213 -22 213 -172zM378 561c-136 0 -214 92 -214 117c0 46 91 56 122 56c16 0 84 -5 84 -30c0 -11 -8 -14 -8 -23c0 -27 70 -41 70 -83
c0 -32 -28 -37 -54 -37z" />
    <glyph glyph-name="aring" unicode="&#xe5;" horiz-adv-x="596" 
d="M279 215c-34 0 -57 -32 -57 -64c0 -26 14 -54 43 -54c38 0 41 41 41 71c0 22 1 47 -27 47zM522 339v-100c0 -176 60 -80 60 -134c0 -57 -78 -119 -151 -119c-79 0 -81 51 -106 51c-12 0 -25 -13 -47 -25c-22 -13 -52 -26 -98 -26c-83 0 -166 44 -166 143
c0 71 68 159 244 159c31 0 45 -2 45 34c0 33 -1 102 -47 102c-60 0 -66 -108 -155 -108c-32 0 -56 23 -56 55c0 85 169 140 264 140c57 0 213 -22 213 -172zM439 664c0 -84 -88 -105 -153 -105c-73 0 -153 21 -153 105s80 105 153 105c65 0 153 -21 153 -105zM336 664
c0 30 -16 58 -50 58s-50 -28 -50 -58s16 -58 50 -58s50 28 50 58z" />
    <glyph glyph-name="atilde" unicode="&#xe3;" horiz-adv-x="596" 
d="M279 215c-34 0 -57 -32 -57 -64c0 -26 14 -54 43 -54c38 0 41 41 41 71c0 22 1 47 -27 47zM522 339v-100c0 -176 60 -80 60 -134c0 -57 -78 -119 -151 -119c-79 0 -81 51 -106 51c-12 0 -25 -13 -47 -25c-22 -13 -52 -26 -98 -26c-83 0 -166 44 -166 143
c0 71 68 159 244 159c31 0 45 -2 45 34c0 33 -1 102 -47 102c-60 0 -66 -108 -155 -108c-32 0 -56 23 -56 55c0 85 169 140 264 140c57 0 213 -22 213 -172zM448 728c46 0 85 -6 85 -55c0 -55 -50 -102 -109 -102c-77 0 -177 57 -214 57c-12 0 -12 -5 -12 -14
c0 -32 -24 -43 -48 -43c-46 0 -86 6 -86 55c0 55 51 102 110 102c76 0 176 -57 214 -57c12 0 12 5 12 14c0 32 24 43 48 43z" />
    <glyph glyph-name="ccedilla" unicode="&#xe7;" horiz-adv-x="553" 
d="M17 250c0 144 125 261 293 261c150 0 229 -83 229 -153c0 -56 -42 -99 -98 -99c-108 0 -58 124 -137 124c-44 0 -68 -45 -68 -85c0 -74 55 -149 134 -149c63 0 84 26 105 26c27 0 45 -30 45 -54c0 -58 -86 -132 -221 -134l49 -48c17 -17 40 -34 40 -60
c0 -46 -72 -61 -106 -61c-73 0 -92 35 -92 51c0 43 67 31 67 51c0 6 -4 12 -7 17l-42 62c-111 31 -191 127 -191 251z" />
    <glyph glyph-name="eacute" unicode="&#xe9;" horiz-adv-x="557" 
d="M481 230h-217c-11 0 -27 3 -27 -14c0 -50 65 -92 112 -92c75 0 112 45 133 45s39 -31 39 -50c0 -77 -141 -133 -231 -133c-180 0 -273 130 -273 259c0 154 131 266 281 266c170 0 245 -131 245 -206c0 -66 -30 -75 -62 -75zM292 326c27 0 59 -6 59 30s-22 64 -59 64
c-33 0 -60 -34 -60 -66c0 -36 34 -28 60 -28zM199 561c-26 0 -54 5 -54 37c0 42 70 56 70 83c0 9 -8 12 -8 23c0 25 68 30 84 30c31 0 122 -10 122 -56c0 -25 -78 -117 -214 -117z" />
    <glyph glyph-name="ecircumflex" unicode="&#xea;" horiz-adv-x="557" 
d="M481 230h-217c-11 0 -27 3 -27 -14c0 -50 65 -92 112 -92c75 0 112 45 133 45s39 -31 39 -50c0 -77 -141 -133 -231 -133c-180 0 -273 130 -273 259c0 154 131 266 281 266c170 0 245 -131 245 -206c0 -66 -30 -75 -62 -75zM292 326c27 0 59 -6 59 30s-22 64 -59 64
c-33 0 -60 -34 -60 -66c0 -36 34 -28 60 -28zM278 750c37 0 193 -100 193 -148c0 -23 -15 -42 -39 -42c-41 1 -110 57 -154 57s-113 -56 -154 -57c-24 0 -39 19 -39 42c0 48 156 148 193 148z" />
    <glyph glyph-name="edieresis" unicode="&#xeb;" horiz-adv-x="557" 
d="M481 230h-217c-11 0 -27 3 -27 -14c0 -50 65 -92 112 -92c75 0 112 45 133 45s39 -31 39 -50c0 -77 -141 -133 -231 -133c-180 0 -273 130 -273 259c0 154 131 266 281 266c170 0 245 -131 245 -206c0 -66 -30 -75 -62 -75zM292 326c27 0 59 -6 59 30s-22 64 -59 64
c-33 0 -60 -34 -60 -66c0 -36 34 -28 60 -28zM257 656c0 -67 -116 -85 -166 -85c-40 0 -95 17 -95 66c0 71 103 83 154 83c40 0 107 -11 107 -64zM562 656c0 -67 -116 -85 -166 -85c-40 0 -95 17 -95 66c0 71 103 83 154 83c40 0 107 -11 107 -64z" />
    <glyph glyph-name="egrave" unicode="&#xe8;" horiz-adv-x="557" 
d="M481 230h-217c-11 0 -27 3 -27 -14c0 -50 65 -92 112 -92c75 0 112 45 133 45s39 -31 39 -50c0 -77 -141 -133 -231 -133c-180 0 -273 130 -273 259c0 154 131 266 281 266c170 0 245 -131 245 -206c0 -66 -30 -75 -62 -75zM292 326c27 0 59 -6 59 30s-22 64 -59 64
c-33 0 -60 -34 -60 -66c0 -36 34 -28 60 -28zM359 561c-136 0 -214 92 -214 117c0 46 91 56 122 56c16 0 84 -5 84 -30c0 -11 -8 -14 -8 -23c0 -27 70 -41 70 -83c0 -32 -28 -37 -54 -37z" />
    <glyph glyph-name="iacute" unicode="&#xed;" horiz-adv-x="375" 
d="M305 464v-279c0 -118 59 -75 59 -128c0 -68 -127 -68 -172 -68c-172 0 -179 39 -179 63c0 36 41 38 53 69c13 35 15 180 4 217c-9 35 -60 24 -60 69c0 71 254 101 264 101c30 0 31 -23 31 -44zM108 561c-26 0 -54 5 -54 37c0 42 70 56 70 83c0 9 -8 12 -8 23
c0 25 68 30 84 30c31 0 122 -10 122 -56c0 -25 -78 -117 -214 -117z" />
    <glyph glyph-name="icircumflex" unicode="&#xee;" horiz-adv-x="375" 
d="M305 464v-279c0 -118 59 -75 59 -128c0 -68 -127 -68 -172 -68c-172 0 -179 39 -179 63c0 36 41 38 53 69c13 35 15 180 4 217c-9 35 -60 24 -60 69c0 71 254 101 264 101c30 0 31 -23 31 -44zM187 750c37 0 193 -100 193 -148c0 -23 -15 -42 -39 -42
c-41 1 -110 57 -154 57s-113 -56 -154 -57c-24 0 -39 19 -39 42c0 48 156 148 193 148z" />
    <glyph glyph-name="idieresis" unicode="&#xef;" horiz-adv-x="375" 
d="M305 464v-279c0 -118 59 -75 59 -128c0 -68 -127 -68 -172 -68c-172 0 -179 39 -179 63c0 36 41 38 53 69c13 35 15 180 4 217c-9 35 -60 24 -60 69c0 71 254 101 264 101c30 0 31 -23 31 -44zM166 656c0 -67 -116 -85 -166 -85c-40 0 -95 17 -95 66c0 71 103 83 154 83
c40 0 107 -11 107 -64zM471 656c0 -67 -116 -85 -166 -85c-40 0 -95 17 -95 66c0 71 103 83 154 83c40 0 107 -11 107 -64z" />
    <glyph glyph-name="igrave" unicode="&#xec;" horiz-adv-x="375" 
d="M305 464v-279c0 -118 59 -75 59 -128c0 -68 -127 -68 -172 -68c-172 0 -179 39 -179 63c0 36 41 38 53 69c13 35 15 180 4 217c-9 35 -60 24 -60 69c0 71 254 101 264 101c30 0 31 -23 31 -44zM268 561c-136 0 -214 92 -214 117c0 46 91 56 122 56c16 0 84 -5 84 -30
c0 -11 -8 -14 -8 -23c0 -27 70 -41 70 -83c0 -32 -28 -37 -54 -37z" />
    <glyph glyph-name="ntilde" unicode="&#xf1;" horiz-adv-x="705" 
d="M298 244v-77c0 -97 34 -80 34 -118c0 -62 -133 -60 -174 -60c-40 0 -142 0 -142 60c0 48 46 5 49 103l4 150c2 74 -59 50 -59 103s230 103 250 103c22 0 36 -19 36 -39c0 -6 -1 -12 -1 -18c0 -12 5 -26 20 -26c16 0 25 21 45 42c20 20 50 41 107 41
c207 0 172 -203 182 -355c5 -79 46 -61 46 -104c0 -18 4 -60 -184 -60c-36 0 -132 -2 -132 54c0 36 33 19 38 84c5 71 33 231 -61 231c-64 0 -58 -69 -58 -114zM502 728c46 0 85 -6 85 -55c0 -55 -50 -102 -109 -102c-77 0 -177 57 -214 57c-12 0 -12 -5 -12 -14
c0 -32 -24 -43 -48 -43c-46 0 -86 6 -86 55c0 55 51 102 110 102c76 0 176 -57 214 -57c12 0 12 5 12 14c0 32 24 43 48 43z" />
    <glyph glyph-name="oacute" unicode="&#xf3;" horiz-adv-x="633" 
d="M292 -14c-148 0 -274 87 -274 245c0 179 157 280 322 280c175 0 275 -137 275 -261c0 -164 -176 -264 -323 -264zM385 174c0 45 -20 219 -88 219c-33 0 -51 -31 -49 -60c4 -63 22 -217 91 -221c38 -2 46 30 46 62zM237 561c-26 0 -54 5 -54 37c0 42 70 56 70 83
c0 9 -8 12 -8 23c0 25 68 30 84 30c31 0 122 -10 122 -56c0 -25 -78 -117 -214 -117z" />
    <glyph glyph-name="ocircumflex" unicode="&#xf4;" horiz-adv-x="633" 
d="M292 -14c-148 0 -274 87 -274 245c0 179 157 280 322 280c175 0 275 -137 275 -261c0 -164 -176 -264 -323 -264zM385 174c0 45 -20 219 -88 219c-33 0 -51 -31 -49 -60c4 -63 22 -217 91 -221c38 -2 46 30 46 62zM316 750c37 0 193 -100 193 -148c0 -23 -15 -42 -39 -42
c-41 1 -110 57 -154 57s-113 -56 -154 -57c-24 0 -39 19 -39 42c0 48 156 148 193 148z" />
    <glyph glyph-name="odieresis" unicode="&#xf6;" horiz-adv-x="633" 
d="M292 -14c-148 0 -274 87 -274 245c0 179 157 280 322 280c175 0 275 -137 275 -261c0 -164 -176 -264 -323 -264zM385 174c0 45 -20 219 -88 219c-33 0 -51 -31 -49 -60c4 -63 22 -217 91 -221c38 -2 46 30 46 62zM295 656c0 -67 -116 -85 -166 -85c-40 0 -95 17 -95 66
c0 71 103 83 154 83c40 0 107 -11 107 -64zM600 656c0 -67 -116 -85 -166 -85c-40 0 -95 17 -95 66c0 71 103 83 154 83c40 0 107 -11 107 -64z" />
    <glyph glyph-name="ograve" unicode="&#xf2;" horiz-adv-x="633" 
d="M292 -14c-148 0 -274 87 -274 245c0 179 157 280 322 280c175 0 275 -137 275 -261c0 -164 -176 -264 -323 -264zM385 174c0 45 -20 219 -88 219c-33 0 -51 -31 -49 -60c4 -63 22 -217 91 -221c38 -2 46 30 46 62zM397 561c-136 0 -214 92 -214 117c0 46 91 56 122 56
c16 0 84 -5 84 -30c0 -11 -8 -14 -8 -23c0 -27 70 -41 70 -83c0 -32 -28 -37 -54 -37z" />
    <glyph glyph-name="otilde" unicode="&#xf5;" horiz-adv-x="633" 
d="M292 -14c-148 0 -274 87 -274 245c0 179 157 280 322 280c175 0 275 -137 275 -261c0 -164 -176 -264 -323 -264zM385 174c0 45 -20 219 -88 219c-33 0 -51 -31 -49 -60c4 -63 22 -217 91 -221c38 -2 46 30 46 62zM466 728c46 0 85 -6 85 -55c0 -55 -50 -102 -109 -102
c-77 0 -177 57 -214 57c-12 0 -12 -5 -12 -14c0 -32 -24 -43 -48 -43c-46 0 -86 6 -86 55c0 55 51 102 110 102c76 0 176 -57 214 -57c12 0 12 5 12 14c0 32 24 43 48 43z" />
    <glyph glyph-name="scaron" unicode="&#x161;" horiz-adv-x="501" 
d="M229 511c20 0 41 -3 60 -6c18 -4 34 -7 41 -7c10 0 18 3 27 7c9 3 18 6 27 6c46 0 92 -92 92 -133c0 -27 -23 -47 -49 -47c-57 0 -89 79 -133 79c-18 0 -36 -15 -36 -34c0 -64 220 -76 220 -231c0 -94 -91 -159 -195 -159c-20 0 -49 3 -74 7c-25 3 -47 6 -53 6
c-7 0 -13 -1 -20 -2c-6 -1 -12 -2 -19 -2c-20 0 -30 3 -44 19c-25 28 -50 85 -50 123c0 26 9 47 38 47c44 0 84 -99 140 -99c20 0 39 10 39 32c0 59 -196 66 -196 231c0 100 82 163 185 163zM250 561c-37 0 -193 100 -193 148c0 23 15 42 39 42c41 -1 110 -57 154 -57
s113 56 154 57c24 0 39 -19 39 -42c0 -48 -156 -148 -193 -148z" />
    <glyph glyph-name="uacute" unicode="&#xfa;" horiz-adv-x="712" 
d="M301 470v-254c0 -40 3 -102 57 -102c72 0 62 94 62 142c0 33 1 76 -4 108c-8 50 -57 33 -57 75c0 59 201 69 239 69c36 0 51 -21 51 -56c0 -32 -2 -63 -2 -95v-201c0 -60 55 -32 55 -80c0 -68 -177 -87 -232 -87c-77 0 -26 60 -66 60c-11 0 -27 -15 -51 -30
s-56 -30 -100 -30c-190 0 -174 150 -174 300c0 153 -69 86 -69 152c0 64 252 67 260 67c28 0 31 -13 31 -38zM276 561c-26 0 -54 5 -54 37c0 42 70 56 70 83c0 9 -8 12 -8 23c0 25 68 30 84 30c31 0 122 -10 122 -56c0 -25 -78 -117 -214 -117z" />
    <glyph glyph-name="ucircumflex" unicode="&#xfb;" horiz-adv-x="712" 
d="M301 470v-254c0 -40 3 -102 57 -102c72 0 62 94 62 142c0 33 1 76 -4 108c-8 50 -57 33 -57 75c0 59 201 69 239 69c36 0 51 -21 51 -56c0 -32 -2 -63 -2 -95v-201c0 -60 55 -32 55 -80c0 -68 -177 -87 -232 -87c-77 0 -26 60 -66 60c-11 0 -27 -15 -51 -30
s-56 -30 -100 -30c-190 0 -174 150 -174 300c0 153 -69 86 -69 152c0 64 252 67 260 67c28 0 31 -13 31 -38zM356 750c37 0 193 -100 193 -148c0 -23 -15 -42 -39 -42c-41 1 -110 57 -154 57s-113 -56 -154 -57c-24 0 -39 19 -39 42c0 48 156 148 193 148z" />
    <glyph glyph-name="udieresis" unicode="&#xfc;" horiz-adv-x="712" 
d="M301 470v-254c0 -40 3 -102 57 -102c72 0 62 94 62 142c0 33 1 76 -4 108c-8 50 -57 33 -57 75c0 59 201 69 239 69c36 0 51 -21 51 -56c0 -32 -2 -63 -2 -95v-201c0 -60 55 -32 55 -80c0 -68 -177 -87 -232 -87c-77 0 -26 60 -66 60c-11 0 -27 -15 -51 -30
s-56 -30 -100 -30c-190 0 -174 150 -174 300c0 153 -69 86 -69 152c0 64 252 67 260 67c28 0 31 -13 31 -38zM334 656c0 -67 -116 -85 -166 -85c-40 0 -95 17 -95 66c0 71 103 83 154 83c40 0 107 -11 107 -64zM639 656c0 -67 -116 -85 -166 -85c-40 0 -95 17 -95 66
c0 71 103 83 154 83c40 0 107 -11 107 -64z" />
    <glyph glyph-name="ugrave" unicode="&#xf9;" horiz-adv-x="712" 
d="M301 470v-254c0 -40 3 -102 57 -102c72 0 62 94 62 142c0 33 1 76 -4 108c-8 50 -57 33 -57 75c0 59 201 69 239 69c36 0 51 -21 51 -56c0 -32 -2 -63 -2 -95v-201c0 -60 55 -32 55 -80c0 -68 -177 -87 -232 -87c-77 0 -26 60 -66 60c-11 0 -27 -15 -51 -30
s-56 -30 -100 -30c-190 0 -174 150 -174 300c0 153 -69 86 -69 152c0 64 252 67 260 67c28 0 31 -13 31 -38zM436 561c-136 0 -214 92 -214 117c0 46 91 56 122 56c16 0 84 -5 84 -30c0 -11 -8 -14 -8 -23c0 -27 70 -41 70 -83c0 -32 -28 -37 -54 -37z" />
    <glyph glyph-name="yacute" unicode="&#xfd;" horiz-adv-x="651" 
d="M504 247l-59 -163c-49 -133 -113 -263 -276 -263c-72 0 -157 37 -157 120c0 50 38 92 89 92c93 0 67 -106 108 -106c27 0 39 26 39 49c0 28 -20 66 -32 91l-140 293c-19 40 -76 28 -76 74c0 30 18 74 229 74c38 0 128 -4 128 -61c0 -27 -23 -35 -23 -59
c0 -38 44 -108 61 -108c30 0 51 69 51 93c0 45 -32 42 -32 76c0 53 94 59 130 59c33 0 107 -5 107 -51c0 -59 -60 -33 -95 -92c-22 -35 -38 -79 -52 -118zM246 561c-26 0 -54 5 -54 37c0 42 70 56 70 83c0 9 -8 12 -8 23c0 25 68 30 84 30c31 0 122 -10 122 -56
c0 -25 -78 -117 -214 -117z" />
    <glyph glyph-name="ydieresis" unicode="&#xff;" horiz-adv-x="651" 
d="M504 247l-59 -163c-49 -133 -113 -263 -276 -263c-72 0 -157 37 -157 120c0 50 38 92 89 92c93 0 67 -106 108 -106c27 0 39 26 39 49c0 28 -20 66 -32 91l-140 293c-19 40 -76 28 -76 74c0 30 18 74 229 74c38 0 128 -4 128 -61c0 -27 -23 -35 -23 -59
c0 -38 44 -108 61 -108c30 0 51 69 51 93c0 45 -32 42 -32 76c0 53 94 59 130 59c33 0 107 -5 107 -51c0 -59 -60 -33 -95 -92c-22 -35 -38 -79 -52 -118zM304 656c0 -67 -116 -85 -166 -85c-40 0 -95 17 -95 66c0 71 103 83 154 83c40 0 107 -11 107 -64zM609 656
c0 -67 -116 -85 -166 -85c-40 0 -95 17 -95 66c0 71 103 83 154 83c40 0 107 -11 107 -64z" />
    <glyph glyph-name="zcaron" unicode="&#x17e;" horiz-adv-x="540" 
d="M483 405l-124 -220c-6 -12 -22 -39 -22 -52c0 -21 19 -25 36 -25c82 0 66 86 110 86c36 0 50 -34 50 -66c0 -78 -68 -144 -100 -144c-20 0 -20 16 -91 16h-244c-25 0 -81 0 -81 38c0 22 21 47 32 65l121 195c8 13 39 60 39 76c0 21 -29 21 -44 21c-72 0 -60 -84 -113 -84
c-31 0 -45 30 -45 57c0 69 57 148 88 148c27 0 33 -19 199 -19h111c15 1 74 3 85 -3s17 -17 17 -29c0 -19 -15 -44 -24 -60zM270 561c-37 0 -193 100 -193 148c0 23 15 42 39 42c41 -1 110 -57 154 -57s113 56 154 57c24 0 39 -19 39 -42c0 -48 -156 -148 -193 -148z" />
    <glyph glyph-name="Delta" unicode="&#x2206;" horiz-adv-x="689" 
d="M652 0h-617v43l263 529l84 17l270 -546v-43zM442 72l-160 347l-160 -347h320z" />
    <glyph glyph-name="Omega" unicode="&#x2126;" horiz-adv-x="790" 
d="M754 173l-33 -173h-297l-10 28c36 52 108 167 108 300c0 139 -42 217 -131 217c-86 0 -124 -71 -124 -218c0 -124 67 -241 105 -298l-7 -29h-302l-27 173h41c23 -48 37 -60 86 -60h84c-75 37 -176 106 -176 221c0 157 129 255 324 255c197 0 322 -98 322 -251
c0 -102 -99 -178 -184 -225h99c44 0 58 12 80 60h42z" />
    <glyph glyph-name="pi" unicode="&#x3c0;" horiz-adv-x="640" 
d="M582 443l34 -10c-2 -42 -28 -123 -46 -138c-16 -4 -42 -7 -66 -7c-6 -53 -6 -75 -5 -142c1 -57 26 -69 43 -69c16 0 26 4 39 8l13 -34c-27 -34 -89 -62 -144 -62c-66 0 -124 27 -124 122c0 76 6 133 9 179c-70 2 -67 2 -99 2v-5c0 -195 -51 -269 -65 -282
c-33 -10 -55 -14 -76 -16l-12 25c66 86 96 209 96 279c-57 1 -86 -3 -133 -28l-21 36c43 59 74 113 195 112c85 -1 202 -3 296 -3c29 0 50 7 66 33z" />
    <glyph glyph-name="Euro" unicode="&#x20ac;" 
d="M619 129c0 -92 -44 -132 -79 -132c-14 0 -21 9 -39 9c-21 0 -45 -20 -109 -20c-182 0 -292 111 -312 254h-48c-12 0 -26 2 -32 13c-4 7 -5 19 3 37l15 32c10 21 17 27 55 27h9c27 140 149 240 302 240c34 0 56 -5 72 -10s26 -10 35 -10c10 0 16 2 22 5c5 2 11 4 18 4
c34 0 79 -40 79 -132c0 -47 -28 -87 -77 -87c-72 0 -54 81 -141 81c-77 0 -96 -48 -100 -91h158c12 0 26 -2 32 -13c4 -7 5 -19 -3 -37l-15 -32c-10 -21 -22 -27 -55 -27h-106c17 -62 53 -104 114 -104c72 0 53 80 125 80c49 0 77 -40 77 -87z" />
    <glyph glyph-name="estimated" unicode="&#x212e;" horiz-adv-x="726" 
d="M697 279h-542c-2 0 -4 -1 -4 -4v-164c0 -7 3 -13 7 -19c53 -54 125 -89 205 -89c86 0 163 40 215 100h49c-60 -70 -157 -116 -265 -116c-184 0 -334 134 -334 300s150 301 334 301c185 0 335 -135 335 -301v-8zM574 300v165c0 7 -3 14 -8 19c-53 52 -124 86 -203 86
s-152 -35 -204 -88c-5 -6 -8 -13 -8 -21v-161c0 -2 2 -5 4 -5h415c3 0 4 3 4 5z" />
    <glyph glyph-name="partialdiff" unicode="&#x2202;" horiz-adv-x="587" 
d="M268 372c50 0 97 -20 114 -47c6 23 11 70 11 94c1 46 1 82 -23 123c-20 32 -45 41 -66 41c-62 0 -124 -50 -161 -81c-24 0 -78 74 -60 110c36 14 69 32 158 32c115 0 190 -52 242 -126c46 -66 59 -138 59 -188c0 -72 -13 -142 -56 -212c-48 -78 -122 -131 -241 -131
c-125 0 -205 77 -205 187c0 66 25 110 62 142c46 41 101 56 166 56zM317 315h-1c-22 0 -53 -10 -74 -46c-27 -46 -35 -95 -35 -148c0 -52 13 -91 49 -91c33 0 55 37 71 75c22 51 35 99 46 168c-15 25 -31 42 -56 42z" />
    <glyph glyph-name="product" unicode="&#x220f;" horiz-adv-x="760" 
d="M731 605v-38c-81 -6 -88 -17 -88 -96v-403c0 -79 8 -89 90 -94v-39h-337v39c68 5 71 10 71 95v454c0 30 -4 31 -34 31h-108c-31 0 -33 -3 -33 -33v-452c0 -86 3 -90 66 -95v-39h-330v39c78 6 87 16 87 95v402c0 79 -9 90 -91 96v38h707z" />
    <glyph glyph-name="summation" unicode="&#x2211;" horiz-adv-x="597" 
d="M573 153l-52 -227h-499v44l204 257l-195 335v43h487c1 -15 6 -108 12 -180l-40 -11c-13 37 -30 80 -45 104c-19 29 -29 43 -100 43h-109l132 -243l-209 -262h224c88 0 92 1 149 108z" />
    <glyph glyph-name="uni2219" unicode="&#x2219;" horiz-adv-x="315" 
d="M278 259c0 -67 -54 -121 -121 -121s-121 54 -121 121s54 121 121 121s121 -54 121 -121z" />
    <glyph glyph-name="radical" unicode="&#x221a;" horiz-adv-x="553" 
d="M554 739l-170 -865l-42 -16l-209 444l-83 -36l-15 46l209 95l128 -292h2l121 634z" />
    <glyph glyph-name="infinity" unicode="&#x221e;" horiz-adv-x="694" 
d="M656 242v-1c0 -106 -76 -166 -153 -166c-41 0 -102 8 -159 93c-43 -56 -88 -93 -157 -93c-79 0 -151 61 -151 160c0 98 69 163 159 163c68 0 114 -29 158 -89c28 32 70 90 153 89c80 -1 150 -60 150 -156zM195 161h2c42 0 76 36 101 70c-31 47 -53 82 -103 82
c-37 0 -71 -26 -71 -77c0 -41 32 -75 71 -75zM497 313c-44 0 -76 -43 -101 -76c47 -66 73 -76 107 -76c42 0 64 42 64 73c0 44 -26 79 -70 79z" />
    <glyph glyph-name="integral" unicode="&#x222b;" horiz-adv-x="420" 
d="M158 -36l-20 333c-23 362 130 403 193 403c41 0 84 -24 84 -59c0 -47 -32 -69 -64 -69c-40 0 -43 74 -63 74c-15 0 -19 -21 -13 -116l18 -314c16 -297 -89 -407 -197 -407c-44 0 -85 27 -86 63c-1 41 48 71 81 71c37 0 34 -81 54 -81c17 0 17 36 13 102z" />
    <glyph glyph-name="approxequal" unicode="&#x2248;" horiz-adv-x="535" 
d="M448 408l62 -65c-48 -66 -104 -91 -147 -91s-70 12 -107 33c-23 12 -45 25 -77 25c-40 0 -70 -25 -99 -58l-61 65c30 45 98 90 160 90c44 0 71 -9 98 -26c39 -25 52 -32 79 -32c33 0 62 22 92 59zM448 229l62 -65c-47 -64 -102 -91 -149 -91c-42 0 -71 14 -105 32
c-27 15 -47 26 -76 26c-42 0 -71 -26 -100 -58l-61 65c30 45 99 90 161 90c42 0 70 -10 96 -25c25 -16 45 -33 78 -33c36 0 61 20 94 59z" />
    <glyph glyph-name="notequal" unicode="&#x2260;" horiz-adv-x="535" 
d="M407 439l-28 -62h113v-93h-155l-44 -97h199v-94h-242l-46 -99l-76 36l29 63h-114v94h156l45 97h-201v93h242l45 97z" />
    <glyph glyph-name="lessequal" unicode="&#x2264;" horiz-adv-x="535" 
d="M492 124l-449 185v100l448 185v-102l-345 -132v-2l346 -132v-102zM492 0h-449v97h449v-97z" />
    <glyph glyph-name="greaterequal" unicode="&#x2265;" horiz-adv-x="535" 
d="M43 594l449 -186v-99l-448 -185v102l345 132v2l-346 132v102zM486 0h-442v97h442v-97z" />
    <glyph glyph-name="lozenge" unicode="&#x25ca;" horiz-adv-x="599" 
d="M563 283l-205 -349h-118l-205 349l208 351h115zM451 283l-150 264h-4l-150 -264l151 -268h3z" />
    <glyph glyph-name="uni02C9" unicode="&#x2c9;" horiz-adv-x="614" 
d="M266 704h163c38 0 58 1 70 2c12 0 15 1 19 1c14 0 26 -9 26 -22c0 -18 -27 -76 -35 -89c-11 -18 -22 -26 -47 -26c-14 0 -45 6 -114 6h-163c-76 0 -81 -3 -89 -3c-14 0 -26 8 -26 21c0 18 27 77 35 90c11 18 22 26 47 26c14 0 45 -6 114 -6z" />
    <glyph glyph-name="uni00AD" unicode="&#xad;" horiz-adv-x="299" 
d="M259 204c-13 -25 -25 -36 -54 -36c-24 0 -49 8 -73 8c-87 0 -93 -4 -102 -4c-16 0 -30 12 -30 30c0 25 31 106 40 124c13 25 25 36 54 36c24 0 49 -8 73 -8c87 0 93 4 102 4c16 0 30 -12 30 -30c0 -25 -31 -106 -40 -124z" />
    <glyph glyph-name="uni03A9" unicode="&#x3a9;" horiz-adv-x="790" 
d="M754 173l-33 -173h-297l-10 28c36 52 108 167 108 300c0 139 -42 217 -131 217c-86 0 -124 -71 -124 -218c0 -124 67 -241 105 -298l-7 -29h-302l-27 173h41c23 -48 37 -60 86 -60h84c-75 37 -176 106 -176 221c0 157 129 255 324 255c197 0 322 -98 322 -251
c0 -102 -99 -178 -184 -225h99c44 0 58 12 80 60h42z" />
    <glyph glyph-name="uni00A0" unicode="&#xa0;" horiz-adv-x="315" 
 />
    <glyph glyph-name="afii61289" unicode="&#x2113;" horiz-adv-x="502" 
d="M453 152l27 -28c-54 -88 -120 -137 -217 -137c-64 0 -101 13 -130 39c-23 22 -47 57 -47 149v15l-60 -28l-15 38l75 43v106c0 111 12 174 55 225c51 62 103 74 151 74c93 0 127 -69 127 -135c0 -99 -59 -166 -175 -243v-60c0 -86 24 -137 88 -137c50 0 92 42 121 79z
M244 405v-75c42 51 76 85 76 185c0 31 -6 90 -40 90c-37 0 -36 -58 -36 -200z" />
    <glyph glyph-name="uni03BC" unicode="&#x3bc;" horiz-adv-x="712" 
d="M647 357v-201c0 -60 55 -32 55 -80c0 -68 -177 -87 -232 -87c-77 0 -26 60 -66 60c-16 0 -69 -48 -96 -50c2 -11 2 -20 2 -35c0 -74 -34 -149 -119 -149s-121 81 -121 156c0 50 9 80 9 118v200c0 153 -69 86 -69 152c0 64 252 67 260 67c28 0 31 -13 31 -38v-254
c0 -40 3 -102 57 -102c72 0 62 94 62 142c0 33 1 76 -4 108c-8 50 -57 33 -57 75c0 59 201 69 239 69c36 0 51 -21 51 -56c0 -32 -2 -63 -2 -95z" />
    <glyph glyph-name="uni2215" unicode="&#x2215;" horiz-adv-x="140" 
d="M183 404l-189 -323c-74 -127 -74 -150 -108 -150c-16 0 -59 4 -59 25c0 28 23 35 145 245l234 405c17 30 25 44 61 44c15 0 47 -2 47 -23c0 -35 -23 -39 -131 -223z" />
    </font>
</defs>
</svg>
