<?xml version="1.0" standalone="no"?>
<!DOCTYPE svg PUBLIC "-//W3C//DTD SVG 1.1//EN" "http://www.w3.org/Graphics/SVG/1.1/DTD/svg11.dtd" >
<svg>
<metadata>
Created by FontForge 20090914 at Sun Dec 18 15:29:28 2011
 By www-data
Copyright &#194;&#169; Esselte Corporation 1997.  Portions Copyright Microsoft Corporation 1997.  All rights reserved.
</metadata>
<defs>
<font id="Jokerman-Regular" horiz-adv-x="1149" >
  <font-face 
    font-family="Jokerman"
    font-weight="400"
    font-stretch="normal"
    units-per-em="2048"
    panose-1="4 9 6 5 6 13 6 2 7 2"
    ascent="1638"
    descent="-410"
    x-height="867"
    cap-height="1671"
    bbox="-424 -714 2802 2270"
    underline-thickness="175"
    underline-position="-130"
    unicode-range="U+0020-U+F002"
  />
<missing-glyph horiz-adv-x="1276" 
d="M1117 0h-957v1844h957v-1844zM957 160v1525h-638v-1525h638z" />
    <glyph glyph-name=".notdef" horiz-adv-x="1276" 
d="M1117 0h-957v1844h957v-1844zM957 160v1525h-638v-1525h638z" />
    <glyph glyph-name="glyph1" horiz-adv-x="0" 
 />
    <glyph glyph-name="glyph2" horiz-adv-x="492" 
 />
    <glyph glyph-name="space" unicode=" " horiz-adv-x="510" 
 />
    <glyph glyph-name="exclam" unicode="!" horiz-adv-x="804" 
d="M599 1733l-124 -1253l-154 -18l-73 745l93 18v63l-98 -22l-9 61l102 25l-5 65l-102 -24l-7 70l109 27l-5 61l-109 -27l-13 115zM574 146q0 -76 -52.5 -130.5t-128.5 -54.5q-75 0 -129.5 54.5t-54.5 130.5t54 130.5t130 54.5t128.5 -54.5t52.5 -130.5zM457 171
q0 35 -24 63.5t-58 28.5t-57.5 -28.5t-23.5 -63.5t23 -63.5t58 -28.5t58.5 28.5t23.5 63.5z" />
    <glyph glyph-name="quotedbl" unicode="&#x22;" horiz-adv-x="993" 
d="M477 1690l-87 -735h-112l-44 287l75 22l-5 58l-77 -17l-10 68l73 18l-7 56l-76 -13l-5 61l71 21l-3 57l-78 -19l-14 80zM789 867l-287 -27l92 762l123 -5zM712 1225q0 29 -14.5 43.5t-44.5 14.5q-29 0 -44 -14.5t-15 -43.5q0 -30 15 -44.5t44 -14.5q30 0 44.5 14.5
t14.5 44.5zM723 1023q0 37 -19.5 56t-58.5 19q-34 0 -52.5 -19t-18.5 -56t18.5 -55t52.5 -18q39 0 58.5 18t19.5 55z" />
    <glyph glyph-name="numbersign" unicode="#" horiz-adv-x="1200" 
d="M1179 569h-258v-547l-168 34v452h-291v-452l-168 -34v547h-258v86h261v445h-261v86h258l-51 511l219 3v-453h291v453l219 -3l-51 -511h258v-86h-261v-445h261v-86zM840 1059q0 34 -25 59.5t-60 25.5q-34 0 -58.5 -25.5t-24.5 -59.5q0 -33 24.5 -59t58.5 -26q35 0 60 26
t25 59zM546 1059q0 34 -25 59.5t-59 25.5q-35 0 -59.5 -25.5t-24.5 -59.5q0 -33 24.5 -59t59.5 -26q34 0 59 26t25 59zM840 689q0 34 -25 59.5t-60 25.5q-34 0 -58.5 -25.5t-24.5 -59.5t24.5 -59.5t58.5 -25.5q35 0 60 25.5t25 59.5zM546 689q0 34 -25 59.5t-59 25.5
q-35 0 -59.5 -25.5t-24.5 -59.5t24.5 -59.5t59.5 -25.5q34 0 59 25.5t25 59.5z" />
    <glyph glyph-name="dollar" unicode="$" horiz-adv-x="998" 
d="M908 1296q0 -74 -50.5 -123.5t-124.5 -49.5q-20 0 -39 5t-36 15q-20 11 -30.5 26t-10.5 35q0 22 16 41t49 33l-2 -9q-6 -25 11 -37t47 -12q35 0 51.5 18.5t16.5 57.5q0 41 -39 61.5t-119 20.5q-74 0 -128.5 -50t-54.5 -123q0 -40 27.5 -75.5t80.5 -66.5l136 -81.5
t66 -46.5q55 -52 81.5 -121t26.5 -155q0 -101 -47 -182t-142 -143l64 -334l-135 -29l-49 307q-22 -8 -45.5 -11.5t-48.5 -3.5l-10 -273l-129 5l22 275q-101 17 -176.5 68t-125.5 137l85 68q62 -82 130 -122.5t140 -40.5q104 0 155.5 55t51.5 164q0 51 -10 91t-30 68
q-16 22 -49.5 47t-84.5 52q-111 59 -166.5 135t-55.5 169q0 100 50.5 176t151.5 128l-49 298l138 19l41 -279l64 2l20 200l138 -20l-38 -200q83 -26 124 -73.5t41 -115.5z" />
    <glyph glyph-name="percent" unicode="%" horiz-adv-x="2070" 
d="M888 1335q0 -167 -114 -289.5t-279 -122.5q-166 0 -279.5 122.5t-113.5 289.5t113.5 289t279.5 122q165 0 279 -122t114 -289zM1524 1690l-835 -1810l-348 196l108 182l118 -71l40 78l-112 69l53 95l105 -64l41 66l-102 71l56 97l92 -61l41 66l-92 65l648 1107zM1955 500
l-100 -23q8 -25 11.5 -51t3.5 -53q0 -35 -6 -70t-19 -71l79 -28l-32 -84l-83 46q-31 -49 -74 -84t-99 -57l23 -117l-95 -5l-15 99q-56 0 -100.5 6.5t-75.5 20.5l-36 -105l-105 27l64 120q-40 29 -70 67t-50 86l-81 -27l-33 81l89 29q-2 11 -3.5 27t-1.5 39q0 34 6 68t17 65
l-80 20l16 83l97 -35q33 49 76 84t95 56l-43 118l76 30l51 -124l28.5 3.5t22.5 1.5q28 0 56.5 -5t55.5 -15l54 119l84 -41l-61 -112q40 -25 73 -60t59 -81l116 36zM709 1350q0 36 -8.5 69.5t-26.5 65.5l-67 -77l-61 46l72 92q-34 25 -70 38t-73 13q-10 0 -25.5 -2t-35.5 -7
l46 -144l-67 -25l-52 137q-53 -38 -80 -90t-27 -116q0 -14 3 -33t8 -41l120 54l39 -59l-119 -71q35 -47 80.5 -71.5t101.5 -25.5l-12 104l68 13l23 -105q43 15 75.5 41.5t52.5 63.5l-87 56l36 59l81 -39q3 7 4 21t1 33zM1753 395q0 88 -58.5 154.5t-145.5 66.5
q-42 0 -78.5 -17.5t-66.5 -51.5q-28 -32 -42.5 -70t-14.5 -82t15 -80.5t42 -67.5q30 -34 66.5 -50t78.5 -16q86 0 145 64t59 150z" />
    <glyph glyph-name="ampersand" unicode="&#x26;" horiz-adv-x="1488" 
d="M1361 779l-226 10l-56 -633q-110 -75 -217 -112t-212 -37q-107 0 -193.5 24t-153.5 70q-75 52 -112.5 130.5t-37.5 182.5q0 162 81 291.5t243 226.5q-87 45 -131 121t-44 184q0 180 146 324t326 144q53 0 100 -15.5t85 -43.5q44 -32 66 -74.5t22 -93.5q0 -75 -46 -124
t-139 -73l-68 71q32 24 47.5 55t15.5 68q0 49 -29.5 73.5t-91.5 24.5q-54 0 -96.5 -27t-71.5 -79q-24 -42 -35.5 -94t-11.5 -112q0 -61 20.5 -108.5t60.5 -80.5q39 -32 88.5 -48t110.5 -16q30 0 62 4t65 11l19 -81l59 15l-18 76l61 11l20 -85l59 10l-18 85l61 10l23 -90
l53 17l-20 83l66 10zM439 672q0 35 -17.5 53t-53.5 18q-35 0 -53 -18t-18 -53q0 -36 18 -54.5t53 -18.5q36 0 53.5 18.5t17.5 54.5zM896 148l-90 666q-47 0 -97 10.5t-102 32.5q-71 -73 -106.5 -178.5t-35.5 -242.5q0 -75 14 -134.5t44 -104.5q36 -54 89 -80.5t123 -26.5
q34 0 74.5 14t86.5 44zM398 446q0 39 -27 65.5t-64 26.5q-39 0 -66 -26.5t-27 -65.5q0 -37 27 -64t66 -27q37 0 64 27t27 64zM439 217q0 35 -17.5 53t-53.5 18q-35 0 -53 -18t-18 -53q0 -36 18 -53.5t53 -17.5q36 0 53.5 17.5t17.5 53.5z" />
    <glyph glyph-name="quotesingle" unicode="'" horiz-adv-x="677" 
d="M523 1776l-99 -890h-136l-51 351l84 22v73l-94 -25l-13 89l88 16l-8 71l-92 -18l-13 79l91 20l-2 70l-95 -24l-15 100z" />
    <glyph glyph-name="parenleft" unicode="(" 
d="M937 29l-333 -246q-135 249 -204 510.5t-69 533.5q0 144 37 301.5t113 329.5q80 181 174 311.5t202 210.5l80 -66q-70 -80 -124.5 -186.5t-93.5 -239.5q-35 -119 -52 -238t-17 -239q0 -201 72 -446.5t215 -535.5zM579 693q0 33 -18 50.5t-54 17.5q-35 0 -53 -18t-18 -54
q0 -27 20.5 -49t48.5 -22q37 0 55.5 18.5t18.5 56.5zM655 435q0 37 -27 64.5t-66 27.5q-37 0 -64 -28t-27 -65q0 -36 28 -63t64 -27q38 0 65 27.5t27 63.5zM712 181q0 35 -17.5 52t-52.5 17q-36 0 -54.5 -18.5t-18.5 -54.5q0 -35 18.5 -52t52.5 -17q37 0 54.5 18.5
t17.5 54.5z" />
    <glyph glyph-name="parenright" unicode=")" 
d="M816 937q0 -144 -37 -302.5t-112 -329.5q-79 -180 -173 -311t-204 -211l-78 66q71 80 126 186.5t93 239.5q34 120 51.5 238.5t17.5 239.5q0 203 -72 448.5t-216 534.5l331 244q137 -249 205 -510t68 -533zM581 1583q0 36 -18 54t-55 18q-34 0 -52.5 -18t-18.5 -53
q0 -36 17.5 -53.5t51.5 -17.5q37 0 56 17.5t19 52.5zM679 1328q0 39 -27.5 65t-65.5 26t-64 -26.5t-26 -64.5q0 -37 26 -64.5t65 -27.5q37 0 64.5 27.5t27.5 64.5zM713 1072q0 28 -20.5 51t-49.5 23q-36 0 -54 -18t-18 -54t17.5 -54t51.5 -18q37 0 55 17.5t18 52.5z" />
    <glyph glyph-name="asterisk" unicode="*" horiz-adv-x="1026" 
d="M950 1526l-161 -56q1 -7 1.5 -14.5t0.5 -16.5q0 -42 -13.5 -80.5t-42.5 -72.5l100 -158l-136 -76l-71 158q-20 -9 -42.5 -12.5t-47.5 -3.5t-49 5t-48 16l-127 -168l-120 93l145 151q-27 30 -40.5 73t-10.5 99l-161 47l51 121l148 -58q28 42 66 69.5t88 39.5l-13 191h151
l-11 -193q46 -13 82 -39t64 -66l140 64z" />
    <glyph glyph-name="plus" unicode="+" horiz-adv-x="1006" 
d="M913 758h-365v-342h-81v342h-365l13 192h352v331h81v-331h353zM669 809v82h-333v-82h333z" />
    <glyph glyph-name="comma" unicode="," horiz-adv-x="677" 
d="M579 229l-77 -32q5 -20 5 -47.5t-5 -62.5l72 -18l-12 -84l-77 25q-14 -45 -33.5 -85t-42.5 -76l66 -61l-59 -63l-53 66q-14 -15 -31 -31.5t-38 -32.5l-60 54q53 42 77.5 95t24.5 117v7q-24 0 -46.5 5.5t-41.5 16.5l-59 -71l-64 59l79 59q-13 17 -19 44t-4 63l-86 26
l30 76l82 -41q15 25 35.5 42.5t47.5 27.5l-17 63l92 13l5 -69q30 -2 55.5 -14.5t46.5 -36.5l71 46z" />
    <glyph glyph-name="hyphen" unicode="-" horiz-adv-x="1006" 
d="M850 411l-232 -41l-19 97l-61 -7l15 -100l-63 -12l-23 98l-58 -5l17 -105l-66 -10l-16 105l-69 -10l15 -107l-76 -12l-58 346l689 -59z" />
    <glyph glyph-name="hyphen" unicode="&#x2010;" horiz-adv-x="1006" 
d="M850 411l-232 -41l-19 97l-61 -7l15 -100l-63 -12l-23 98l-58 -5l17 -105l-66 -10l-16 105l-69 -10l15 -107l-76 -12l-58 346l689 -59z" />
    <glyph glyph-name="period" unicode="." horiz-adv-x="677" 
d="M521 146q0 -76 -53 -130.5t-129 -54.5q-75 0 -129 54.5t-54 130.5t53.5 130.5t129.5 54.5t129 -54.5t53 -130.5zM404 171q0 35 -24.5 63.5t-58.5 28.5q-33 0 -57 -28.5t-24 -63.5t23.5 -63.5t57.5 -28.5q35 0 59 28.5t24 63.5z" />
    <glyph glyph-name="slash" unicode="/" horiz-adv-x="1358" 
d="M1403 1771l-834 -1988l-457 283l41 85l112 -72l83 153l-114 72l46 66l105 -63l87 158l-109 63l41 71l102 -66l68 125l-104 77l36 61l103 -71l73 140l-105 61l30 62l107 -62l80 146l-105 68l31 62l112 -58l66 125l-112 56l35 56l111 -51l59 114l-108 56l35 66l113 -50
l58 113l-103 51l30 66l107 -54l58 110l-104 51l31 61z" />
    <glyph glyph-name="zero" unicode="0" horiz-adv-x="1422" 
d="M1332 845q0 -156 -38 -297.5t-113 -269.5q-88 -151 -206 -225.5t-263 -74.5t-263 74.5t-207 225.5q-75 128 -113.5 269.5t-38.5 297.5t38.5 298t113.5 270q89 151 207 226.5t263 75.5t263 -75.5t206 -226.5q75 -128 113 -270t38 -298zM1164 799l-107 7l-10 102l112 8
q-8 92 -29.5 174.5t-57.5 154.5l-140 -96l-57 76l136 120q-49 64 -106.5 97t-123.5 33q-17 0 -31 -1t-22 -4l15 -199l-100 -26l-17 174q-69 -51 -118 -134t-79 -198l127 -51l-28 -91l-119 41q-7 -48 -10.5 -93.5t-3.5 -88.5l107 31l41 -97l-139 -49q5 -56 18.5 -112.5
t34.5 -114.5l99 56l43 -82l-97 -71q57 -102 126.5 -153t150.5 -51l-19 173l110 14l33 -154q49 28 91.5 75.5t77.5 115.5l-176 138l73 76l149 -97q21 67 33 141.5t13 155.5zM923 883q0 -52 -38.5 -91t-90.5 -39q-54 0 -94 38.5t-40 91.5t40 91.5t94 38.5q52 0 90.5 -38.5
t38.5 -91.5z" />
    <glyph glyph-name="one" unicode="1" horiz-adv-x="835" 
d="M618 1731l-77 -1706l-217 -30l-125 1452l-160 -44l-51 158zM506 1276l-100 12q-38 -153 -56.5 -284.5t-16.5 -239.5l1 -52l54 21q8 143 38 279t80 264z" />
    <glyph glyph-name="two" unicode="2" horiz-adv-x="1144" 
d="M1130 0l-1118 71q24 128 64 243.5t95 216.5q47 86 120 183.5t171 206.5q124 138 185.5 265t61.5 243q0 43 -17.5 79.5t-52.5 66.5q-31 27 -70 41.5t-84 14.5q-58 0 -106 -14t-86 -41q-43 -31 -64.5 -74t-21.5 -98q0 -28 7.5 -53t19.5 -46q16 -27 37.5 -39t47.5 -12
q55 0 82.5 25.5t27.5 76.5q0 13 -3.5 27.5t-9.5 30.5q59 -16 88 -51.5t29 -90.5q0 -42 -19 -75t-58 -57q-32 -20 -71 -30t-83 -10q-114 0 -185 72t-71 185q0 87 38.5 157t114.5 121q67 45 147 66t172 21q118 0 210 -29t159 -86q72 -62 108 -150.5t36 -202.5
q0 -84 -44 -170.5t-131 -176.5l-172.5 -151l-172.5 -152q-102 -92 -165.5 -175.5t-87.5 -158.5l801 149zM945 1335q0 34 -18.5 52.5t-54.5 18.5q-35 0 -53 -18.5t-18 -52.5q0 -37 18 -54t53 -17q36 0 54.5 17t18.5 54zM898 1110q0 38 -26.5 65t-65.5 27q-37 0 -64.5 -27
t-27.5 -65t27.5 -65t64.5 -27q39 0 65.5 27t26.5 65zM728 926q0 36 -18 54t-55 18q-34 0 -52.5 -18t-18.5 -54t18.5 -53.5t52.5 -17.5q37 0 55 17.5t18 53.5z" />
    <glyph glyph-name="three" unicode="3" horiz-adv-x="1388" 
d="M1298 401l-22 -99l-100 17q-23 -66 -63.5 -122.5t-99.5 -104.5l66 -112l-86 -70l-72 124q-64 -34 -138 -51t-157 -17l-29 -134l-107 20l33 126q-58 10 -110 35.5t-96 65.5l-108 -91l-68 71l117 87q-27 38 -49.5 83t-40.5 97l-117 -24l-26 83l128 24q-5 22 -7.5 44
t-2.5 44l74 16q26 -144 145.5 -238t268.5 -94q129 0 217.5 88.5t88.5 217.5q0 190 -113.5 287.5t-341.5 103.5l526 592l-779 -138l-76 373l1033 -51l68 -156l-463 -531q41 0 72.5 -4t52.5 -11l77 90l76 -60l-66 -69q42 -27 76.5 -65.5t60.5 -89.5l111 56l37 -74l-114 -63
q22 -75 27.5 -140t-4.5 -121z" />
    <glyph glyph-name="four" unicode="4" horiz-adv-x="1463" 
d="M1001 1396q0 -51 -37 -88t-89 -37q-50 0 -87.5 37.5t-37.5 87.5q0 51 37.5 88t87.5 37q52 0 89 -36.5t37 -88.5zM1437 582l-332 -76l-18 -427l-120 -5v396l-95 -21l14 -632l-141 -39l-25 636l-342 -83l-332 110l41 118l135 -43l36 81l-141 48l34 100l143 -46l25 92
l-136 46l34 100l117 -44l31 93l-117 40l273 788l178 -32l-197 -1032l205 -2l-10 231l160 39l5 -273l105 -2v411l166 5l-18 -419l288 -5z" />
    <glyph glyph-name="five" unicode="5" horiz-adv-x="1301" 
d="M1200 543q0 -117 -49 -215.5t-149 -176.5q-94 -73 -199 -111t-226 -38q-106 0 -199.5 34.5t-173.5 104.5q-82 72 -123.5 160.5t-41.5 193.5l124 28q3 -25 7 -48t11 -44l92 44l39 -69l-100 -58q22 -46 56.5 -81.5t81.5 -59.5l40 97l80 -21l-34 -107q30 -7 59.5 -10
t57.5 -3q33 0 62.5 5t58.5 15l-61 158l89 39l77 -140q75 58 112 129.5t37 158.5l-129 -22l-15 83l134 37q-15 59 -46.5 106.5t-80.5 81.5l-74 -132l-77 56l62 119q-27 7 -60 10.5t-73 3.5q-17 0 -35 -1t-37 -3l16 -114l-92 -10l-15 114q-23 -3 -48 -9t-51 -13l-49 329l86 12
l-5 75l-91 -16l-16 90l107 10l-10 73l-107 -15l-13 92l120 20l-5 78l-127 -13l-21 135l541 -25q158 -7 255 -58t192 -175l-148 -100q-27 62 -76 104.5t-121 64.5q-44 14 -111.5 23t-159.5 12l-76 -555q87 21 155 32t118 11q105 0 188.5 -36.5t145.5 -109.5q60 -71 90.5 -158
t30.5 -192z" />
    <glyph glyph-name="six" unicode="6" horiz-adv-x="1276" 
d="M1232 477q0 -121 -42 -217t-128 -167q-81 -67 -182 -100.5t-225 -33.5q-130 0 -235.5 51t-185.5 154q-73 93 -108.5 208t-35.5 251q0 179 56.5 348.5t168.5 330.5q105 150 242 267.5t305 203.5l177 -314q-161 -66 -293 -157.5t-236 -208.5q-120 -135 -180 -281.5
t-60 -303.5q0 -79 24 -148.5t71 -128.5q51 -65 114.5 -97t141.5 -32q165 0 263 104t98 271q0 60 -15.5 110.5t-48.5 94.5q-35 46 -82 69t-106 23q-85 0 -139.5 -49.5t-54.5 -132.5q0 -59 25 -88t75 -29q33 0 56 26t23 61q0 14 -3.5 25.5t-12.5 21.5q52 -15 78.5 -50.5
t26.5 -91.5q0 -33 -14 -61t-42 -50q-26 -20 -55.5 -29.5t-64.5 -9.5q-50 0 -91 19.5t-73 59.5q-30 37 -44 81.5t-14 96.5q0 83 29 150t86 120q55 51 125.5 76t152.5 25q97 0 175.5 -35t139.5 -105q59 -68 88.5 -149.5t29.5 -178.5z" />
    <glyph glyph-name="seven" unicode="7" horiz-adv-x="1291" 
d="M465 977q0 -51 -37 -88t-89 -37q-51 0 -88 37t-37 88q0 52 37 89t88 37q52 0 89 -37t37 -89zM1215 1615l-439 -1674l-428 149l638 1393l-935 -141l74 409zM862 743l-35 46q-69 -112 -126.5 -245.5t-101.5 -288.5l93 -38q22 138 65 269.5t105 256.5z" />
    <glyph glyph-name="eight" unicode="8" horiz-adv-x="1315" 
d="M1251 513q0 -117 -43.5 -215.5t-132.5 -177.5q-87 -77 -186.5 -118t-216.5 -41t-217.5 40.5t-187.5 118.5q-88 79 -131.5 177.5t-43.5 215.5q0 146 76 272t205 201q-93 61 -139.5 143t-46.5 186q0 88 35 162t104 134q67 58 146 86t168 28q91 0 169.5 -28.5t145.5 -85.5
q71 -60 105.5 -134t34.5 -162q0 -96 -39 -174t-119 -138q142 -70 228 -201.5t86 -288.5zM881 1510q-71 66 -151 97.5t-168 31.5h-26l-66 -519q31 -37 77 -56t106 -19q29 0 54.5 6t47.5 18zM942 623l-126 -29l-20 61l127 52q-15 52 -44 96t-73 80l-71 -166l-66 33l69 173
q-29 15 -61.5 23.5t-69.5 8.5q-19 0 -39.5 -3.5t-41.5 -9.5l41 -158l-82 -10l-36 137q-66 -40 -108 -101t-61 -143l121 10l5 -78l-131 -12q0 -45 9.5 -85.5t27.5 -75.5l99 76l49 -58l-97 -100q41 -46 87.5 -73.5t97.5 -36.5l3 156h85l2 -158q55 4 104 27.5t93 66.5l-85 105
l36 46l92 -97q33 46 48.5 106.5t15.5 136.5z" />
    <glyph glyph-name="nine" unicode="9" horiz-adv-x="1412" 
d="M1296 12l-424 -102l11 119l159 30v79l-151 -26l7 92l144 18l-6 82l-128 -10l8 86l117 13v82l-110 -3l32 332q-55 -40 -120.5 -62t-140.5 -25l-15 -155l-100 15l10 143q-68 9 -129.5 35t-118.5 70l-119 -131l-76 64l134 125q-32 37 -55 75t-38 78l-118 -45l-30 98l122 41
q-3 23 -4 41.5t-1 33.5q0 45 8 87.5t23 80.5l-138 71l43 95l140 -74q36 55 84 98.5t108 75.5l-54 122l81 36l51 -126q35 12 75 19t83 7q33 0 64.5 -3.5t61.5 -11.5l46 125l94 -31l-56 -122q46 -20 85 -47t73 -61l19 171l158 19zM991 1156q0 131 -92 225t-222 94
q-131 0 -221.5 -94t-90.5 -225q0 -130 91 -224.5t221 -94.5q129 0 221.5 95t92.5 224z" />
    <glyph glyph-name="colon" unicode=":" horiz-adv-x="677" 
d="M521 682q0 -76 -53 -130.5t-129 -54.5t-129.5 54.5t-53.5 130.5t53.5 130.5t129.5 54.5t129 -54.5t53 -130.5zM521 146q0 -76 -53 -130.5t-129 -54.5q-75 0 -129 54.5t-54 130.5t53.5 130.5t129.5 54.5t129 -54.5t53 -130.5zM404 704q0 35 -24.5 63.5t-58.5 28.5
q-33 0 -57 -28.5t-24 -63.5t24 -63t57 -28q34 0 58.5 28t24.5 63zM404 171q0 35 -24.5 63.5t-58.5 28.5q-33 0 -57 -28.5t-24 -63.5t23.5 -63.5t57.5 -28.5q35 0 59 28.5t24 63.5z" />
    <glyph glyph-name="semicolon" unicode=";" horiz-adv-x="677" 
d="M526 682q0 -76 -52.5 -130.5t-129.5 -54.5q-76 0 -129.5 54.5t-53.5 130.5t53.5 130.5t129.5 54.5t129 -54.5t53 -130.5zM579 229l-77 -32q5 -20 5 -47.5t-5 -62.5l72 -18l-12 -84l-77 25q-14 -45 -33.5 -85t-42.5 -76l66 -61l-59 -63l-53 66q-14 -15 -31 -31.5
t-38 -32.5l-60 54q53 42 77.5 95t24.5 117v7q-24 0 -46.5 5.5t-41.5 16.5l-59 -71l-64 59l79 59q-13 17 -19 44t-4 63l-86 26l30 76l82 -41q15 25 35.5 42.5t47.5 27.5l-17 63l92 13l5 -69q30 -2 55.5 -14.5t46.5 -36.5l71 46zM409 704q0 35 -24.5 63.5t-58.5 28.5
q-33 0 -57 -28.5t-24 -63.5t24 -63t57 -28q34 0 58.5 28t24.5 63z" />
    <glyph glyph-name="less" unicode="&#x3c;" horiz-adv-x="1039" 
d="M932 1059l-437 -360l428 -321l-107 -130l-579 290l-147 241l86 51l61 -100l62 33l-62 104l72 44l66 -107l61 46l-58 100l73 43l49 -87l64 39l-48 86l303 186z" />
    <glyph glyph-name="equal" unicode="=" horiz-adv-x="1006" 
d="M952 1006l-12 -205l-864 100l-12 105h888zM937 528l-881 -31l13 205l854 -30zM875 940l-424 19v-38l399 -56zM265 599q0 38 -18 56.5t-55 18.5t-56 -18.5t-19 -56.5q0 -36 19 -53.5t56 -17.5t55 17.5t18 53.5z" />
    <glyph glyph-name="greater" unicode="&#x3e;" horiz-adv-x="1039" 
d="M804 609l-582 -361l-112 158l436 359l-429 322l107 130l580 -291v-317zM723 875q0 32 -24 56t-56 24t-55.5 -24t-23.5 -56q0 -31 23.5 -55t55.5 -24t56 24t24 55zM704 653q0 32 -23 56t-55 24q-33 0 -56.5 -24t-23.5 -56t23.5 -55.5t56.5 -23.5q32 0 55 23.5t23 55.5z
" />
    <glyph glyph-name="question" unicode="?" horiz-adv-x="1179" 
d="M1179 1261l-115 3q0 -58 -16.5 -109.5t-51.5 -97.5l117 -69l-64 -85l-99 95q-24 -26 -63.5 -51t-92.5 -49l87 -122l-102 -59l-65 148q-21 -8 -40.5 -13t-37.5 -7l-32 -363l-149 -33l-90 421q97 7 177.5 35t145.5 73q77 54 115.5 126t38.5 162q0 64 -16.5 116t-51.5 92
q-36 41 -86 61.5t-114 20.5q-41 0 -77 -10.5t-67 -29.5q-36 -22 -54 -53t-18 -70q0 -57 28 -86t84 -29q33 0 62 15t52 47l49 -39q-19 -30 -44.5 -54.5t-57.5 -41.5l46 -95l-102 -36l-29 100q-10 -4 -23 -5t-29 -1q-55 0 -95.5 18.5t-66.5 55.5l-107 -58l-28 102l107 34
q-2 8 -3.5 17.5t-1.5 20.5q0 46 20 90t59 83l-89 76l71 93l88 -112q48 28 103 46t116 27l-8 115l94 11v-123q61 -3 114 -17.5t98 -41.5l80 102l71 -63l-90 -80q52 -48 85 -102.5t46 -116.5l114 33zM709 151q0 -76 -53.5 -131.5t-129.5 -55.5q-75 0 -128.5 55.5t-53.5 131.5
q0 75 53.5 129t128.5 54t129 -54t54 -129zM592 125q0 36 -23.5 64t-57.5 28q-41 0 -61.5 -23t-20.5 -69q0 -35 23.5 -63t58.5 -28q34 0 57.5 28.5t23.5 62.5z" />
    <glyph glyph-name="at" unicode="@" horiz-adv-x="1674" 
d="M1617 908q-91 -81 -192.5 -148.5t-213.5 -121.5q-128 -62 -245 -93.5t-223 -31.5q-64 0 -118 14.5t-99 44.5q-52 34 -79 80.5t-27 107.5q0 66 35.5 127t105.5 119q56 46 121.5 78.5t138.5 53.5q-14 43 -45 65t-78 22q-64 0 -121 -29.5t-107 -87.5l-64 66
q68 104 167.5 156.5t230.5 52.5q99 0 176.5 -53t132.5 -157q42 -80 67 -176.5t32 -210.5q79 38 144.5 81t116.5 90q-20 253 -207.5 427.5t-440.5 174.5q-268 0 -458.5 -191.5t-190.5 -459.5t191.5 -459t459.5 -191v-141q-327 0 -559 232.5t-232 558.5q0 327 232 559.5
t559 232.5t558.5 -232.5t231.5 -559.5zM1424 388l-99 -98l-83 121l68 66zM1259 243l-119 -65l-51 136l85 44zM1057 148l-120 -23l-21 138l92 22zM1039 1006q0 25 -12.5 38t-38.5 13q-25 0 -38 -13t-13 -38q0 -27 13 -39t38 -12q26 0 38.5 12t12.5 39zM908 684v13
q0 86 -11.5 168.5t-39.5 162.5q-68 -20 -123.5 -43t-97.5 -48l81 -297q57 0 105 11t86 33zM1125 809q0 31 -23 54t-53 23q-31 0 -54 -23t-23 -54q0 -30 23 -53t54 -23q30 0 53 23t23 53z" />
    <glyph glyph-name="A" unicode="A" horiz-adv-x="1629" 
d="M1578 51l-177 -41l-120 365l-717 10l-179 -487l-385 265l753 1544l278 24zM1123 852l-188 672l-258 -774zM1222 551l-58 174l-538 -133l-32 -81zM482 658l-36 46q-72 -120 -128 -253t-96 -280l92 -39q20 137 62.5 268.5t105.5 257.5z" />
    <glyph glyph-name="B" unicode="B" horiz-adv-x="1393" 
d="M1305 526q0 -136 -54 -240.5t-161 -177.5q-92 -63 -209.5 -94t-261.5 -31q-92 0 -194 12t-213 39l-71 1697q48 5 94.5 8t89.5 3q124 0 230 -22.5t194 -68.5q112 -58 167.5 -143t55.5 -197q0 -49 -12 -99.5t-37 -101.5q171 -73 276.5 -235.5t105.5 -348.5zM692 1067
l-44 513q-14 14 -46.5 27.5t-83.5 26.5l-74 -718q84 27 146.5 65t101.5 86zM953 688q0 90 -33.5 164t-100.5 134q-80 -71 -176 -118t-209 -69l-59 -636q115 4 214 42t184 108q91 75 135.5 169t44.5 206zM1179 538q0 35 -17.5 53t-53.5 18t-54 -18t-18 -53q0 -36 18 -53.5
t54 -17.5t53.5 17.5t17.5 53.5zM1105 304q0 37 -26.5 64t-65.5 27t-65.5 -27t-26.5 -64q0 -39 26.5 -65.5t65.5 -26.5t65.5 26.5t26.5 65.5zM881 151q0 35 -18 53t-54 18q-35 0 -53 -18t-18 -53q0 -36 18 -54t53 -18q36 0 54 18t18 54zM809 758q-91 -108 -164 -225
t-129 -243l-59 -2q46 132 112.5 261.5t153.5 256.5z" />
    <glyph glyph-name="C" unicode="C" horiz-adv-x="1534" 
d="M1465 572h-92q0 -44 -8.5 -87.5t-27.5 -86.5l107 -48l-32 -67l-107 48q-29 -47 -67 -86t-84 -69l51 -122l-80 -47l-56 125q-65 -26 -128 -34t-122 2l-28 -144l-89 24l36 130q-44 10 -84.5 23.5t-76.5 29.5l-69 -114l-72 56l61 104q-45 31 -84 71t-74 90l-120 -63l-41 68
l119 69q-38 76 -58 160.5t-22 179.5l-130 -21l-23 89l155 20q7 84 25.5 163.5t49.5 155.5l-123 83l56 78l107 -76q30 50 60 91.5t61 76.5l-90 122l66 51l87 -109q49 42 99 74t100 52l-28 119l95 18l15 -112q32 7 65.5 11t67.5 4q35 0 68.5 -5t66.5 -15l28 117l79 -20
l-39 -131q40 -25 75 -60.5t64 -81.5l89 61l51 -80l-99 -58q15 -35 26 -64t17 -51l-94 -39q-69 116 -160 174.5t-206 58.5q-98 0 -181 -41.5t-149 -125.5q-62 -78 -92 -168t-30 -190q0 -111 28 -203t85 -164q63 -80 147.5 -119.5t191.5 -39.5q144 0 238 86t94 228l90 36
q17 -30 28 -63t18 -71h99v-73z" />
    <glyph glyph-name="D" unicode="D" horiz-adv-x="1465" 
d="M1363 930q0 -217 -102.5 -391t-309.5 -305q-164 -104 -366 -170t-444 -93l109 1813q263 -17 456.5 -62t315.5 -117q171 -101 256 -270t85 -405zM1054 928v100l-143 5l-13 131l138 5l-5 92l-148 15l-33 290q-75 36 -163 62t-190 41l21 -1521q99 21 193 58t182 88l10 378
l133 7l13 102l-143 5l2 132zM745 931q0 -85 -5.5 -162t-16.5 -146l-51 27q2 32 2.5 65t0.5 68q0 113 -11 219t-33 203h99q8 -67 11.5 -135.5t3.5 -138.5z" />
    <glyph glyph-name="E" unicode="E" horiz-adv-x="1242" 
d="M872 1352l-30 -265l-233 57l78 163zM1217 1286l-160 -46q-8 106 -45.5 175.5t-105.5 103.5q-37 18 -119.5 33.5t-209.5 25.5l-77 -660l511 27l-128 -287l-408 87l-90 -669l375 -5l131 192l209 12l5 -319l-964 54l56 1044l134 -7l22 86l-154 2l8 121l146 -11l15 107h-156
l5 118l146 -11l20 92l-161 8l10 182l199 -15.5t200 -13.5q119 -14 212 -40.5t159 -66.5q87 -52 140.5 -132t74.5 -187z" />
    <glyph glyph-name="F" unicode="F" horiz-adv-x="1115" 
d="M1194 1816q0 -120 -78 -200t-235 -121q-55 -14 -182 -28.5t-324 -27.5l54 -418l474 77l37 -121l-491 -74l8 -48l480 33l-2 -160l-458 -16l105 -702l-441 -59v179l147 36l-3 89l-144 -18l2 136l135 22l-3 92l-132 -17v129l130 24l-5 89l-122 -8l27 935l490 7q113 2 191 11
t120 23q83 28 121.5 87t32.5 147l56 -10q5 -24 7.5 -45.5t2.5 -42.5z" />
    <glyph glyph-name="G" unicode="G" horiz-adv-x="1539" 
d="M1463 835q-5 -165 -40.5 -302.5t-101.5 -247.5q-81 -135 -197 -203t-267 -68q-164 0 -302 71t-248 213q-103 132 -154.5 282t-51.5 320q0 163 45 303t139 254q100 122 230 183.5t290 61.5q78 0 151 -21t139 -64q65 -42 116 -98t87 -126l-68 -17q-33 35 -80 52t-111 17
q-133 0 -246.5 -73.5t-205.5 -220.5q-81 -129 -121.5 -264.5t-40.5 -277.5q0 -103 25.5 -189.5t77.5 -154.5q58 -76 137 -114t179 -38q79 0 142.5 41.5t112.5 124.5q39 67 62 144.5t28 165.5l-459 -41l-28 146l428 44l-365 89l11 161zM674 1424q0 35 -18 53t-54 18
q-35 0 -53 -18t-18 -53q0 -28 21 -50t50 -22q36 0 54 18t18 54zM490 1274q0 37 -27 64.5t-65 27.5t-64.5 -27.5t-26.5 -64.5q0 -38 26.5 -65.5t64.5 -27.5t65 27.5t27 65.5zM375 1036q0 36 -17.5 54t-53.5 18t-54 -18t-18 -54q0 -28 21.5 -50t50.5 -22t50 22t21 50z" />
    <glyph glyph-name="H" unicode="H" horiz-adv-x="1368" 
d="M847 1347q0 -50 -37 -86t-87 -36q-51 0 -88.5 36t-37.5 86q0 52 36.5 89t89.5 37q51 0 87.5 -37t36.5 -89zM1254 29l-348 -22l-54 767l-355 -31l29 -794l-385 61l76 1692l224 23l39 -597l508 -23l-16 607l263 -5l-51 -534q-13 -134 -19 -200.5l-6 -66.5q0 -35 2.5 -71.5
t8.5 -75.5q10 -67 14.5 -103.5t5.5 -42.5zM1001 935l-5 66l-511 35l5 -158z" />
    <glyph glyph-name="I" unicode="I" horiz-adv-x="672" 
d="M672 1602q-69 -262 -115.5 -454.5t-69.5 -315.5q-36 -195 -55.5 -394t-22.5 -399l-238 -27q-9 100 -13.5 204.5t-4.5 215.5q0 278 28 588t84 651zM516 1383l-36 46q-70 -112 -126.5 -245.5t-100.5 -287.5l91 -39q24 139 67 270.5t105 255.5z" />
    <glyph glyph-name="J" unicode="J" horiz-adv-x="1276" 
d="M1312 1664l-21 -184l-270 -10q-1 0 -0.5 -54t0.5 -160l140 -9l-15 -149l-130 15q-5 -74 -10 -130.5t-10 -96.5h127l-20 -163l-129 10q-63 -383 -194 -573.5t-330 -190.5q-95 0 -171.5 44t-136.5 133q-52 77 -77.5 165.5t-25.5 189.5q0 67 13 130.5t38 123.5l127 10
q-8 -52 -12 -104.5t-4 -105.5q0 -78 8 -147t23 -130q4 110 25 204t60 173l109 -12q-21 -51 -32 -109.5t-11 -124.5q0 -131 31.5 -196t95.5 -65q66 0 113 110t76 330q17 127 24.5 263t7.5 279q0 92 -2.5 177.5t-8.5 162.5q-102 5 -181 23t-132 50q-67 40 -110 106t-60 158
l72 15q30 -81 147.5 -121.5t324.5 -39.5z" />
    <glyph glyph-name="K" unicode="K" horiz-adv-x="1412" 
d="M996 832q0 -36 -18.5 -54t-54.5 -18t-54.5 18t-18.5 54q0 35 18.5 53t54.5 18t54.5 -18t18.5 -53zM1355 130l-296 -212l-597 980l25 -864l-346 -63l73 1688l225 26l18 -677q160 51 283.5 113.5t209.5 132.5q109 88 179 203.5t101 257.5l117 -35q-22 -171 -75 -298
t-136 -212q-69 -71 -189 -137.5t-292 -129.5zM1138 648q0 -36 -17.5 -53.5t-53.5 -17.5q-35 0 -53 17.5t-18 53.5t18 54t53 18q36 0 53.5 -18t17.5 -54zM1298 460q0 -36 -17 -54t-54 -18q-34 0 -52.5 18t-18.5 54q0 35 18.5 53t52.5 18q37 0 54 -18t17 -53zM1463 268
q0 -36 -18 -53.5t-54 -17.5q-35 0 -53 17.5t-18 53.5q0 35 18 53t53 18q36 0 54 -18t18 -53z" />
    <glyph glyph-name="L" unicode="L" horiz-adv-x="1401" 
d="M1402 275q0 -84 -62 -141t-185 -85q-71 -16 -198 -27t-310 -15q-167 -4 -273.5 -13.5t-151.5 -27.5l58 848l-139 11l10 171l143 5l13 188l-149 11l10 168l151 -5l12 198l-155 17l2 155l572 -41l-283 -1498l41 2q40 2 97 -2.5l130 -10.5q79 -7 135 -10.5t91 -3.5
q158 0 237 44.5t79 134.5q0 30 -8 64.5t-24 74.5l75 41q41 -74 61.5 -137t20.5 -116zM1062 682q0 -51 -37 -88.5t-88 -37.5q-52 0 -89 37.5t-37 88.5q0 49 37.5 85.5t88.5 36.5q50 0 87.5 -36.5t37.5 -85.5z" />
    <glyph glyph-name="M" unicode="M" horiz-adv-x="1926" 
d="M1807 7l-497 -56l40 1118l-523 -877l-447 541q-36 -165 -78 -294.5t-89 -224.5q-62 -126 -150 -226.5t-201 -176.5l-40 84q141 105 238.5 295t153.5 465l217 1067l521 -974l465 942l224 -8zM840 562l-360 622l-51 -266l352 -461zM1595 765v39l-54 -20
q-8 -142 -37.5 -277.5t-79.5 -263.5l100 -16q37 151 54 285.5t17 252.5z" />
    <glyph glyph-name="N" unicode="N" horiz-adv-x="1771" 
d="M1599 1050q0 -31 -1 -62.5t-3 -64.5l-51 -1028l-1095 1113l-45 -954l-404 -3l120 324l194 10l84 1399l963 -1187q8 96 17 191l18 191q11 114 16 210t5 174q0 163 -38 292t-115 223l66 41q134 -147 201.5 -364t67.5 -505zM755 1074q0 36 -17.5 54t-53.5 18q-35 0 -53 -18
t-18 -54t18 -53.5t53 -17.5q36 0 53.5 17.5t17.5 53.5zM1033 768q0 38 -27 66t-64 28q-40 0 -67.5 -27.5t-27.5 -66.5t27.5 -65t67.5 -26q37 0 64 26.5t27 64.5zM1283 465q0 35 -17 53t-54 18q-36 0 -54 -18t-18 -53q0 -36 18 -54t54 -18q37 0 54 18t17 54z" />
    <glyph glyph-name="O" unicode="O" horiz-adv-x="1575" 
d="M1473 855q0 -158 -45 -297t-137 -260q-100 -132 -225.5 -198t-279.5 -66q-152 0 -277.5 66t-225.5 198q-91 120 -136 260t-45 297t44.5 294t132.5 253q97 127 222 190.5t278 63.5t279.5 -63.5t227.5 -189.5q93 -117 140 -254t47 -294zM1257 761v26.5t-1 28.5l-156 -12
l-18 79l160 25q-13 66 -37 123.5t-59 106.5l-133 -159l-58 47l117 194q-58 50 -128 74t-155 23l61 -240l-71 -25l-85 244q-75 -27 -137 -79.5t-113 -129.5l163 -181l-59 -69l-153 159q-32 -75 -47 -145t-13 -134l1 -38l177 -12v-88l-169 10q7 -49 23.5 -99t41.5 -100
l137 123l56 -51l-140 -148q43 -55 94.5 -91t112.5 -55l23 197l71 -10l-5 -202h11q63 0 123.5 19.5t118.5 61.5l-115 223l68 40l118 -198q37 41 65 84t47 89l-166 144l44 44l155 -91q15 42 22.5 90t7.5 102z" />
    <glyph glyph-name="P" unicode="P" horiz-adv-x="1412" 
d="M1361 1204q0 -190 -122 -322t-311 -132q-123 0 -206.5 56t-127.5 168l-66 -984l-199 -54l-20 880l-161 -20l-18 173l174 22l-5 178l-169 -13l-10 179l174 10l-4 174l-180 -21l2 182q261 15 416.5 23t206.5 8q140 0 249.5 -28t189.5 -84q93 -65 140 -164t47 -231z
M1159 1181q0 181 -108.5 271.5t-325.5 90.5q-20 0 -41 -1.5t-44 -2.5l-24 -327q36 91 100.5 137.5t158.5 46.5q82 0 139.5 -51.5t57.5 -132.5q0 -57 -37 -97.5t-93 -40.5q-37 0 -62 15.5t-38 48.5l22 -2q39 -4 58.5 12.5t19.5 51.5q0 29 -17 44t-50 15t-57.5 -14.5
t-43.5 -42.5q-16 -24 -23.5 -53.5t-7.5 -64.5q0 -81 52 -132t133 -51q56 0 100 22t75 65q28 39 42 87.5t14 105.5z" />
    <glyph glyph-name="Q" unicode="Q" horiz-adv-x="1636" 
d="M1763 120l-102 -118l-321 386q-23 -28 -44.5 -51t-44.5 -43l247 -345l-132 -95l-233 353q-86 -54 -177 -80t-188 -26q-144 0 -264 53.5t-216 160.5q-93 103 -139.5 228t-46.5 271q0 158 54 296.5t161 258.5q110 124 244 185.5t291 61.5q145 0 266 -53.5t217 -159.5
q93 -102 139.5 -226.5t46.5 -270.5q0 -107 -25.5 -206t-76.5 -192zM1350 933q0 106 -33.5 196.5t-100.5 165.5q-68 77 -155 116t-191 39q-114 0 -211 -44t-177 -132q-78 -86 -117 -187t-39 -216q0 -105 33.5 -195t100.5 -164q70 -78 156.5 -117t189.5 -39q51 0 101 10t99 32
l-171 257l110 68l180 -253q25 20 45 38.5t35 37.5l-148 177l83 96l143 -159q34 63 50.5 131.5t16.5 141.5zM875 1128q-99 -99 -182.5 -209t-151.5 -232l-59 2q55 125 132.5 247t176.5 243z" />
    <glyph glyph-name="R" unicode="R" horiz-adv-x="1363" 
d="M1465 183q-44 -95 -104 -141.5t-135 -46.5q-83 0 -167.5 56t-170.5 168l-337 441l-122 -34l-34 -631l-186 -31l-68 1777l102 2l5 -128l188 -15l19 122l101 -7l-13 -132l139 -34l61 128l87 -41l-60 -120q49 -19 85.5 -48.5t62.5 -66.5l98 69l66 -74l-127 -84
q16 -37 21 -84t-2 -103l144 -51l-41 -88l-122 45q-10 -39 -31 -78.5t-52 -77.5l97 -86l-61 -80l-109 82l-51 -28l319 -508q17 -26 39.5 -50t51.5 -45q33 -24 63.5 -36t58.5 -12q40 0 77 22t72 65zM755 911l-119 533q-30 13 -67.5 23.5t-83.5 17.5l-49 -745q101 26 181 69
t138 102z" />
    <glyph glyph-name="S" unicode="S" horiz-adv-x="1202" 
d="M1140 1383q0 -157 -95 -252t-251 -95q-65 0 -120.5 15.5t-101.5 48.5q-51 36 -76.5 86t-25.5 112q0 52 19 92.5t58 68.5q35 25 78.5 38t97.5 13q33 0 63 -8t53 -25q27 -20 40.5 -45.5t13.5 -58.5q0 -48 -36.5 -80t-86.5 -32q-32 0 -54 11t-34 35q8 -2 17 -3t16 -1
q35 0 52 12.5t17 39.5q0 26 -18 39.5t-54 13.5q-24 0 -46 -6.5t-38 -19.5q-19 -15 -29 -34.5t-10 -42.5q0 -74 48 -110t144 -36q94 0 152 64.5t58 159.5q0 57 -26.5 102t-78.5 78q-43 28 -95.5 41t-113.5 13q-74 0 -135 -18t-108 -55q-51 -40 -77 -96t-26 -128
q0 -73 48 -141.5t144 -133.5l179 -121l178 -120q96 -85 144 -186.5t48 -219.5q0 -111 -39.5 -198.5t-119.5 -150.5q-74 -58 -166.5 -89t-205.5 -31q-89 0 -163.5 16t-137.5 49q-77 41 -116 101.5t-39 141.5q0 123 66.5 198.5t187.5 75.5q49 0 89 -14t73 -40q36 -28 53.5 -66
t17.5 -84q0 -86 -41 -128.5t-125 -42.5q-45 0 -78.5 25.5t-33.5 67.5q0 38 17.5 57t52.5 19q4 0 9 -0.5t10 -0.5q-12 -9 -18 -19t-6 -20q0 -20 12 -29t35 -9q26 0 38.5 16.5t12.5 50.5q0 23 -10.5 41.5t-32.5 33.5q-18 12 -40.5 18t-47.5 6q-69 0 -104 -39.5t-35 -116.5
q0 -45 21 -80t62 -60q34 -21 76 -31t90 -10q61 0 112 21t91 64q39 42 58.5 93t19.5 114q0 66 -40.5 140.5t-123.5 156.5l-150.5 144l-152.5 143q-81 87 -122 171.5t-41 165.5q0 120 42 212t125 154q75 56 174.5 83.5t224.5 27.5q92 0 173.5 -21.5t150.5 -65.5
q82 -52 122.5 -121t40.5 -155z" />
    <glyph glyph-name="T" unicode="T" horiz-adv-x="1335" 
d="M1403 1659l-22 -159q-66 12 -131 18t-127 6q-79 0 -159.5 -10t-162.5 -29l95 -1480l-452 59l112 1409l-68 -1q-109 -2 -191.5 10t-136.5 39q-75 38 -111.5 105t-36.5 166v25l67 23q4 -112 84.5 -167.5t235.5 -55.5q131 0 389.5 39t389.5 39q69 0 126 -9.5t99 -26.5z
M743 1031q0 36 -17.5 54t-53.5 18t-54.5 -18t-18.5 -54q0 -37 18.5 -54.5t54.5 -17.5t53.5 17.5t17.5 54.5zM760 733q0 37 -26.5 64.5t-64.5 27.5t-65 -27.5t-27 -64.5q0 -39 27 -66t65 -27t64.5 27t26.5 66zM738 419q0 35 -17.5 53t-53.5 18t-54.5 -18t-18.5 -53
q0 -36 18.5 -53.5t54.5 -17.5t53.5 17.5t17.5 53.5z" />
    <glyph glyph-name="U" unicode="U" horiz-adv-x="1554" 
d="M1384 714q0 -355 -160.5 -532t-483.5 -177q-157 0 -271 40.5t-185 121.5q-66 75 -99 192t-33 275q0 131 30.5 391.5t30.5 391.5q0 85 -12.5 149t-37.5 108l85 38q46 -91 73.5 -207t37.5 -256q3 -44 4.5 -165t1.5 -319q0 -122 6.5 -207.5t19.5 -133.5q28 -100 86 -150
t146 -50q102 0 172.5 35t109.5 106q28 51 42.5 129t14.5 184q0 20 -1 48t-2 63q-1 40 -1.5 66.5t-0.5 40.5l153 12l-10 118l-145 -5l-5 112l143 7l-4 116h-139l-5 117l144 -10v107l-144 13l-5 119l415 -41l21.5 -620t7.5 -227zM755 835q0 -52 -36.5 -89t-87.5 -37
q-52 0 -87.5 37.5t-35.5 88.5q0 50 35.5 87t87.5 37q51 0 87.5 -36.5t36.5 -87.5z" />
    <glyph glyph-name="V" unicode="V" horiz-adv-x="1408" 
d="M1345 1521q0 -92 -40 -219t-120 -288q-61 -122 -129 -241t-129 -242q-73 -147 -130 -284t-98 -264l-653 1648l395 176l322 -1310q10 24 76 161.5l188 389.5q95 197 143.5 327t48.5 194q0 31 -7 59t-21 52q-16 27 -39.5 41.5t-53.5 14.5q-72 0 -122 -54.5t-50 -127.5
q0 -62 19 -93.5t58 -31.5q29 0 42.5 12.5t13.5 38.5q0 25 -15 40t-46 21q23 22 44 32.5t40 10.5q37 0 55.5 -26.5t18.5 -77.5q0 -33 -13 -59.5t-39 -46.5q-24 -18 -52.5 -26t-63.5 -8q-92 0 -148 66t-56 158q0 58 23.5 105.5t70.5 83.5q44 34 95 50t111 16q62 0 111 -22.5
t83 -66.5q33 -43 50 -94.5t17 -114.5zM457 972v40q0 113 -16 240t-53 267l-94 -14q47 -121 75.5 -250t36.5 -264z" />
    <glyph glyph-name="W" unicode="W" horiz-adv-x="2194" 
d="M2348 1659l-186 -276l-158 56l-404 -1383l-74 -34l-416 1035l-516 -1091l-41 195l-137 -49l-21 90l143 46l-36 163l-137 -43l-21 97l143 37l-36 185l-132 -56l-41 97l153 61l-36 180l-171 -41l-25 90l176 46l-36 192l-132 -51l-26 83l138 49l-41 224l-127 -42l-36 105
l326 107l350 -1049l505 1084l378 -941l301 951zM1607 638l-351 835l-67 -131l362 -901z" />
    <glyph glyph-name="X" unicode="X" horiz-adv-x="1641" 
d="M1536 903q0 -51 -36.5 -87.5t-87.5 -36.5q-53 0 -89.5 36.5t-36.5 87.5q0 50 37.5 86.5t88.5 36.5q50 0 87 -36.5t37 -86.5zM1600 49l-130 -139l-618 726q-78 -153 -132 -247.5t-82 -134.5q-82 -117 -167 -175t-172 -58q-90 0 -178.5 63.5t-174.5 190.5l52 54
q51 -72 104.5 -108.5t109.5 -36.5q71 0 148 59.5t161 178.5q25 35 77 124.5l132 232.5l-202 239l88 75l-68 81l-88 -76l-80 91l97 77l-66 79l-92 -81l-66 76l102 79l-51 79l-112 -90l-70 82l355 251l421 -623l327 666l171 -130l-388 -714zM395 743q0 -51 -37 -88t-88 -37
t-87.5 37t-36.5 88q0 50 37.5 87t86.5 37q50 0 87.5 -37t37.5 -87z" />
    <glyph glyph-name="Y" unicode="Y" horiz-adv-x="1419" 
d="M166 1444q0 -33 -16.5 -49.5t-49.5 -16.5t-49.5 16.5t-16.5 49.5t16.5 49.5t49.5 16.5t49.5 -16.5t16.5 -49.5zM270 1247q0 -33 -16 -49.5t-50 -16.5q-32 0 -49 16.5t-17 49.5q0 34 17 51t49 17q34 0 50 -17t16 -51zM388 1042q0 -34 -16.5 -51t-50.5 -17q-32 0 -49 17
t-17 51q0 32 17 49t49 17q34 0 50.5 -17t16.5 -49zM1508 1771q-97 -13 -174.5 -67.5t-136.5 -152.5q54 28 98.5 41.5t77.5 13.5q16 0 38.5 -2.5t51.5 -6.5l-26 -81h-18q-155 0 -280.5 -129.5t-221.5 -394.5q-28 -78 -42 -124t-15 -57l-9.5 -201l-29.5 -603l-171 -36l-56 910
l-428 726l352 136l281 -730q70 188 128.5 320t108.5 210q95 148 208 222.5t244 74.5zM511 837q0 -33 -17 -50t-50 -17t-49.5 17t-16.5 50t16.5 49.5t49.5 16.5t50 -16.5t17 -49.5z" />
    <glyph glyph-name="Z" unicode="Z" horiz-adv-x="1442" 
d="M414 1197l-31 -265l-235 56l76 163zM1442 1544l-81 -173l-205 7l-72 -97l182 -69l-110 -135l-170 74l-100 -130l147 -74l-86 -153l-171 87l-393 -516l883 56l59 -404l-1325 32l969 1332l-793 25l61 330zM551 219q0 34 -16.5 51.5t-49.5 17.5t-49.5 -17.5t-16.5 -51.5
q0 -35 16.5 -51.5t49.5 -16.5t49.5 16.5t16.5 51.5zM855 217q0 36 -25.5 61.5t-61.5 25.5q-35 0 -62 -25.5t-27 -61.5t27 -61.5t62 -25.5q36 0 61.5 25.5t25.5 61.5zM1135 212q0 33 -16 50.5t-50 17.5q-33 0 -50.5 -17.5t-17.5 -50.5q0 -34 17.5 -50t50.5 -16q34 0 50 16
t16 50z" />
    <glyph glyph-name="bracketleft" unicode="[" 
d="M1149 1797l-82 -222l-378 96l-73 -1673l392 46l-22 -210l-535 -28l-198 2130zM283 631q0 -37 -17.5 -54.5t-53.5 -17.5q-35 0 -53 17.5t-18 54.5q0 34 18 52.5t53 18.5q36 0 53.5 -18.5t17.5 -52.5zM299 398q0 -37 -18 -54.5t-54 -17.5q-35 0 -53 17.5t-18 54.5
q0 36 18 54t53 18q36 0 54 -18t18 -54zM324 151q0 -36 -17.5 -54t-53.5 -18t-54 18t-18 54q0 35 18 53t54 18t53.5 -18t17.5 -53zM355 -100q0 -36 -18 -53.5t-54 -17.5q-35 0 -53 17.5t-18 53.5q0 35 18 53t53 18q36 0 54 -18t18 -53zM650 1766l-34 46
q-70 -112 -127.5 -245.5t-100.5 -288.5l92 -38q22 138 65 269.5t105 256.5z" />
    <glyph glyph-name="backslash" unicode="\" horiz-adv-x="1358" 
d="M1335 -74l-296 -143l-31 61l105 54l-59 109l-107 -56l-31 69l105 51l-59 110l-112 -49l-36 67l107 56l-59 115l-109 -51l-36 56l113 56l-67 125l-113 -59l-29 62l104 67l-80 148l-107 -62l-30 62l105 61l-72 139l-105 -71l-35 61l105 78l-70 124l-102 -68l-40 73l110 64
l-87 158l-105 -63l-46 66l112 72l-81 149l-112 -71l-41 88l456 280z" />
    <glyph glyph-name="bracketright" unicode="]" 
d="M937 1843q0 -36 -18 -54t-54 -18t-55 18t-19 54q0 35 19 53t55 18t54 -18t18 -53zM967 1593q0 -37 -17.5 -54.5t-53.5 -17.5q-35 0 -53 17.5t-18 54.5q0 34 18 52.5t53 18.5q36 0 53.5 -18.5t17.5 -52.5zM991 1345q0 -37 -18 -54t-55 -17q-35 0 -53 17t-18 54q0 36 18 54
t53 18q37 0 55 -18t18 -54zM1008 1113q0 -36 -17.5 -53.5t-53.5 -17.5t-54 17.5t-18 53.5q0 35 18 53t54 18t53.5 -18t17.5 -53zM896 -194l-896 140l79 222l378 -97l74 1675l-393 -46l23 209l533 27zM758 465l-91 37q-23 -138 -66 -269.5t-106 -254.5l36 -47
q71 111 127.5 244.5t99.5 289.5z" />
    <glyph glyph-name="asciicircum" unicode="^" horiz-adv-x="1103" 
d="M1042 592l-243 -64l-29 95l65 20l-31 85l-59 -16l-28 97l64 21l-26 83l-61 -15l-15 84l56 24l-176 528l-314 -996l-155 54l392 1098l69 -41l94 61zM592 1052q0 -24 -11.5 -35t-34.5 -11t-34.5 11t-11.5 35q0 23 11.5 35.5t34.5 12.5t34.5 -12.5t11.5 -35.5zM604 840
q0 -30 -14 -44.5t-44 -14.5q-29 0 -44 14.5t-15 44.5q0 29 15 43.5t44 14.5q30 0 44 -14.5t14 -43.5zM648 562q0 -42 -30 -72t-72 -30q-41 0 -71.5 30t-30.5 72q0 41 30.5 71t71.5 30q42 0 72 -30t30 -71z" />
    <glyph glyph-name="underscore" unicode="_" horiz-adv-x="1276" 
d="M1276 -543h-1276v204h1276v-204z" />
    <glyph glyph-name="grave" unicode="`" horiz-adv-x="697" 
d="M569 1120l-79 -78l-363 295l170 184z" />
    <glyph glyph-name="a" unicode="a" 
d="M1073 103l-1 -54q-155 -70 -306.5 -104.5t-299.5 -34.5q-82 0 -150 16t-122 47q-64 37 -96.5 95t-32.5 135q0 136 136.5 243t407.5 185q-22 64 -74.5 97t-133.5 33q-87 0 -158 -35.5t-126 -104.5l-53 51q84 129 208 194.5t289 65.5q134 0 235.5 -74.5t171.5 -223.5
q55 -117 81.5 -249.5t23.5 -281.5zM918 451q0 36 -17.5 54t-53.5 18t-54.5 -18t-18.5 -54t18.5 -53.5t54.5 -17.5t53.5 17.5t17.5 53.5zM680 177q0 91 -8.5 180t-26.5 176q-94 -27 -169.5 -57.5t-131.5 -64.5l102 -413q80 0 138 9t93 29q2 36 2.5 71t0.5 70zM959 181
q0 38 -26.5 65t-65.5 27q-38 0 -65.5 -26t-27.5 -66q0 -39 27.5 -65t65.5 -26q39 0 65.5 26.5t26.5 64.5z" />
    <glyph glyph-name="b" unicode="b" horiz-adv-x="1227" 
d="M1151 436q0 -103 -30 -187.5t-89 -150.5q-61 -68 -143.5 -102.5t-184.5 -34.5q-78 0 -140.5 24.5t-108.5 74.5q-45 49 -67.5 111.5t-22.5 142.5q0 62 19 115.5t56 98.5q40 48 91 71.5t112 23.5q91 0 155 -52.5t64 -141.5q0 -34 -10 -61.5t-28 -50.5q-20 -25 -47 -37
t-60 -12q-49 0 -76 22.5t-32 67.5q9 -8 20 -11.5t25 -3.5q35 0 52 17.5t17 53.5t-21.5 54.5t-63.5 18.5q-39 0 -69.5 -15.5t-52.5 -46.5q-19 -27 -29 -61.5t-10 -75.5q0 -91 67.5 -147t159.5 -56q60 0 108 25.5t84 76.5q33 47 49.5 100.5t16.5 116.5q0 73 -20.5 133
t-61.5 107q-43 49 -101 74t-131 25q-64 0 -118.5 -25.5t-100.5 -75.5q-43 -46 -69 -102.5t-34 -120.5l-56 -431l-143 -32l11 1167l120 15l2 67l-124 -5v81l127 15l-5 80l-122 -15l-4 71l131 22l5 82l-136 -23v111l435 78l-187 -1008q50 106 151 172t217 66q98 0 174.5 -38.5
t131.5 -115.5q49 -69 73 -154.5t24 -187.5z" />
    <glyph glyph-name="c" unicode="c" horiz-adv-x="1072" 
d="M1021 214q-95 -127 -209.5 -190t-249.5 -63q-209 0 -340.5 128.5t-131.5 336.5q0 205 150 355.5t354 150.5q61 0 112.5 -10t92.5 -30q55 -26 82 -66t27 -93q0 -49 -40.5 -97t-122.5 -95l-43 41q21 21 34.5 43.5t18.5 46.5l-119 30l14 43l108 -15q-3 25 -17.5 45t-40.5 35
q-22 13 -46.5 19t-51.5 6q-14 0 -29.5 -1.5t-31.5 -3.5l23 -156l-46 -11l-41 136q-46 -21 -79.5 -60t-53.5 -94l138 -41l-20 -51l-136 34q-8 -23 -12.5 -54.5t-4.5 -72.5q0 -19 2 -36.5t6 -33.5l114 39l31 -59l-131 -46q9 -30 28 -61.5t47 -65.5l91 71l44 -36l-79 -76
q33 -26 74.5 -38.5t94.5 -12.5l9 117h52l10 -115q36 3 70.5 14.5t69.5 31.5l-36 100l46 17l39 -81q17 13 35.5 31.5t37.5 42.5z" />
    <glyph glyph-name="d" unicode="d" horiz-adv-x="1322" 
d="M745 1556q0 -36 -17.5 -53.5t-53.5 -17.5t-54 17.5t-18 53.5q0 37 18 55t54 18t53.5 -18t17.5 -55zM763 1325q0 -37 -17.5 -54t-53.5 -17q-35 0 -53 17t-18 54q0 34 18 52.5t53 18.5q36 0 53.5 -18.5t17.5 -52.5zM791 1077q0 -37 -17.5 -54t-53.5 -17t-54 17t-18 54
q0 36 18 54t54 18t53.5 -18t17.5 -54zM1220 1776l-143 -1835l-179 15l-10 251q-69 -97 -159.5 -146t-202.5 -49q-182 0 -309 131t-127 314q0 99 36.5 180.5t109.5 145.5q69 61 154 91.5t184 30.5q94 0 163.5 -25t117.5 -74l-41 879zM870 472q0 167 -83 248t-250 81h-19
l-23 -129l-132 25l-10 -74l127 -31l-13 -90l-128 31l-13 -71l125 -36l-15 -78l-122 32l-20 -83l127 -29l-20 -127q35 -15 70 -22.5t69 -7.5q71 0 130 27.5t108 83.5q46 53 69 115.5t23 134.5z" />
    <glyph glyph-name="e" unicode="e" horiz-adv-x="1222" 
d="M1159 76l-45 -44.5t-35 -31.5l75 -112l-70 -41l-76 94q-40 -24 -85 -40.5t-96 -22.5l-2 -118l-90 6l8 109q-46 0 -98 9.5t-109 28.5l-56 -120l-90 49l61 112q-49 27 -89.5 62.5t-71.5 80.5l-107 -68l-45 71l117 61q-23 48 -36 98.5t-17 103.5l-107 -27l-31 88l138 31
q5 56 17 101t31 80l-97 58l46 76l95 -66q25 31 54.5 56t62.5 44l-82 119l90 44l66 -127q32 10 58 16t46 9l27 131l71 -22l-18 -104q40 0 76 -10t69 -30l99 98l56 -47l-94 -102q22 -21 41 -50.5t34 -65.5l117 39l20 -74l-113 -39q8 -22 13.5 -48t10.5 -56l-465 -81v-11
q0 -73 15.5 -137.5t47.5 -122.5q38 -69 91 -103.5t119 -34.5q68 0 143 36t159 110zM750 567q-4 44 -32.5 66t-81.5 22q-65 0 -121 -39t-76 -100z" />
    <glyph glyph-name="f" unicode="f" horiz-adv-x="707" 
d="M988 1639l-110 -210q-33 15 -56.5 23t-37.5 8q-61 0 -114.5 -38.5t-100.5 -114.5q-32 -52 -55.5 -118t-41.5 -142l281 46l-5 -138l-297 -32q0 -6 -2.5 -27.5t-7.5 -60.5l282 30l-11 -130l-281 -18l-71 -890l-360 -51l54 275l226 23l22 633l-180 -13l-30 102l212 23l5 89
l-173 -15l-11 98l184 30q5 160 21 278t46 189q50 118 141.5 177.5t225.5 59.5q62 0 123 -22t122 -64z" />
    <glyph glyph-name="g" unicode="g" horiz-adv-x="1220" 
d="M1105 947l-7 -85l-116 5l-10 -83l117 -10l-7 -105l-132 15l2 -85l120 -20l-8 -92l-124 10l-5 -91l122 -16q-41 -497 -176.5 -745t-365.5 -248q-80 0 -151.5 31t-136.5 93q-60 57 -100 126t-63 151l72 46q26 -50 59.5 -90.5t73.5 -73.5q48 -39 96.5 -57.5t96.5 -18.5
q75 0 131.5 43.5t95.5 131.5q27 61 44 138t22 168q-51 -33 -109 -49t-123 -16q-188 0 -322.5 132t-134.5 320q0 187 134.5 319t322.5 132q76 0 144 -22.5t127 -65.5l7 153zM764 470q0 48 -12 90.5t-37 81.5q-27 42 -64.5 63t-83.5 21q-55 0 -100.5 -27t-82.5 -82
q-33 -49 -49 -102.5t-16 -110.5q0 -49 11.5 -92.5t35.5 -79.5q29 -43 66 -64t83 -21q54 0 100.5 27.5t82.5 82.5q32 49 49 102t17 111zM669 446q0 -51 -36.5 -88t-89.5 -37q-50 0 -86 37.5t-36 87.5t37 86.5t85 36.5q51 0 88.5 -36t37.5 -87z" />
    <glyph glyph-name="h" unicode="h" horiz-adv-x="1350" 
d="M1221 208v-69t-1 -108l-378 -62q40 172 60 314.5t20 256.5q0 51 -6.5 99.5t-17.5 94.5q-16 65 -41 98t-59 33q-58 0 -120 -31.5t-130 -93.5l-25 -742l-301 -57l-20 79l132 19l-10 132l-132 -20l-14 71l141 15l-12 164l-131 -16l-10 72l136 13l-14 170l-122 -19l-18 76
l132 17l-10 138l-119 -25l-15 86l127 15l-15 195l-110 -20l-13 78l118 24l-16 193l-102 -22l-18 81l112 26l-10 134l-109 -39l-24 91l511 125l-34 -906q75 57 150.5 85t151.5 28q118 0 198.5 -75.5t121.5 -225.5q23 -84 34.5 -207t11.5 -285zM852 667
q-63 -127 -105.5 -258.5t-64.5 -267.5l-93 35q44 157 100.5 291t126.5 245z" />
    <glyph glyph-name="i" unicode="i" horiz-adv-x="633" 
d="M531 1154l-25 -61l-87 45q-14 -18 -31 -29t-38 -16l20 -82l-68 -10l-17 86q-16 3 -31.5 11.5t-29.5 19.5l-66 -61l-46 53l77 56q-10 19 -11.5 40t3.5 45l-89 56l33 54l82 -56q12 15 27.5 25.5t35.5 16.5l-17 118h64l4 -110q22 -3 40 -10t34 -18l70 56l46 -46l-80 -54
q8 -11 11 -34t2 -58zM497 -115l-421 54l156 974h187zM378 401q0 35 -17.5 53t-53.5 18q-37 0 -55 -18t-18 -53q0 -36 18 -54t55 -18q36 0 53.5 18t17.5 54zM378 130q0 38 -27 65t-66 27q-37 0 -64 -27t-27 -65t27 -64.5t64 -26.5q39 0 66 26.5t27 64.5z" />
    <glyph glyph-name="j" unicode="j" horiz-adv-x="633" 
d="M582 1217q0 -104 -73.5 -181t-177.5 -77q-103 0 -176 77t-73 181t73 181t176 77q104 0 177.5 -77t73.5 -181zM507 459q0 -257 -31 -442.5t-93 -301.5q-80 -150 -186.5 -224.5t-241.5 -74.5q-96 0 -159.5 33.5t-94.5 101.5q44 -23 87.5 -35t86.5 -12q74 0 125.5 22
t81.5 65q-38 -16 -76 -23.5t-76 -7.5q-78 0 -145 31t-121 95l58 66q45 -45 101.5 -66.5t125.5 -21.5q126 0 189 125t63 375v40t-2 46l84 8l-10 100l-81 -19l-11 87l84 20l-10 92l-87 -15q-1 15 -4.5 38t-10.5 55l90 20l-14 97l-91 -24q-1 5 -6 32.5t-15 77.5l373 77
q8 -122 12.5 -231t4.5 -206zM497 1237l-53 -5l-23 39l69 15q-10 27 -24.5 48t-31.5 34l-39 -58l-40 30l28 58q-13 4 -30 6t-36 2l9 -71l-41 -18l-27 71q-22 -14 -38 -28.5t-23 -29.5l58 -23l-15 -46l-69 22q-3 -7 -4 -19t-1 -27q0 -18 3.5 -35.5t11.5 -32.5l48 20l34 -38
l-54 -31q23 -20 47 -33t51 -18l5 61l53 -7v-51q18 3 38.5 14t45.5 29l-69 74l49 16l46 -49q11 20 16.5 40.5t5.5 40.5z" />
    <glyph glyph-name="k" unicode="k" horiz-adv-x="1133" 
d="M765 1617q0 -36 -17.5 -53.5t-53.5 -17.5q-35 0 -53 17.5t-18 53.5q0 37 18 55t53 18q36 0 53.5 -18t17.5 -55zM748 1386q0 -36 -17.5 -53.5t-53.5 -17.5q-37 0 -55 17.5t-18 53.5q0 35 18 53t55 18q36 0 53.5 -18t17.5 -53zM720 1138q0 -36 -18 -53.5t-54 -17.5
q-35 0 -53 17.5t-18 53.5t18 54t53 18q36 0 54 -18t18 -54zM1095 178q0 -108 -72 -180t-181 -72q-67 0 -128.5 39t-117.5 117l-80 135l-80 136l-61 -24l-54 -368l-194 17l26 1099l132 16l3 101l-137 -15l2 107l146 15l8 95l-154 -18l3 102l146 36v86l-144 -19v102l429 97
l-141 -957q97 53 182 80t158 27q88 0 130.5 -31.5t42.5 -94.5q0 -56 -40.5 -117t-120.5 -128q-55 -46 -119.5 -88t-137.5 -80q43 -72 77 -121.5t56 -75.5q50 -60 97.5 -90t90.5 -30q46 0 75.5 31t29.5 76q0 36 -14.5 54t-44.5 18q-23 0 -35 -11t-12 -33q0 -5 1.5 -10t2.5 -9
l-51 -16q-10 20 -15 39t-5 38q0 52 37.5 86t89.5 34q41 0 73 -15t55 -44q22 -28 34 -61.5t12 -74.5zM709 723q0 36 -19.5 54.5t-58.5 18.5q-43 0 -93.5 -21.5t-108.5 -65.5l-44 -308q56 19 107.5 50t99.5 72q58 50 87.5 100t29.5 100z" />
    <glyph glyph-name="l" unicode="l" horiz-adv-x="684" 
d="M633 1712l-204 -1712l-317 31l15 91l123 -17l5 183l-140 9l7 83l133 -2l3 175l-146 6l10 74h138l3 192l-158 10l10 100l150 -27v164l-150 17l12 82l141 3l2 173l-163 8l18 94l145 -15l5 163l-173 13l13 102h518z" />
    <glyph glyph-name="m" unicode="m" horiz-adv-x="1636" 
d="M1559 5l-408 -46l8 503q2 107 -21.5 161t-70.5 54q-29 0 -59 -35.5t-62 -106.5q-22 -48 -37.5 -97t-27.5 -99l-10.5 84.5l-10.5 84.5q-9 53 -22.5 92.5t-32.5 66.5q-25 35 -61 53t-84 18q-69 0 -124 -53t-95 -159l10 -531l-361 25l122 968l209 -33l10 -205
q60 76 126.5 114.5t139.5 38.5q69 0 123.5 -27t92.5 -82q56 61 113 91.5t114 30.5q64 0 118 -34.5t99 -102.5q34 -51 58.5 -114t41.5 -137l-127 -36l15 -78l130 27l10 -86l-127 -21l18 -86l134 22l16 -87l-143 -7l13 -91l143 15zM1006 153q0 -55 -37.5 -93t-93.5 -38
q-55 0 -93.5 38t-38.5 93t38.5 92.5t93.5 37.5q56 0 93.5 -37.5t37.5 -92.5z" />
    <glyph glyph-name="n" unicode="n" horiz-adv-x="1237" 
d="M1161 39l-385 -68l11 417.5t3 139.5q0 93 -30 139.5t-91 46.5q-57 0 -119.5 -51.5t-130.5 -154.5l-29 -518l-181 -24l-107 917l342 72l-15 -288q74 99 157 149.5t174 50.5q120 0 196.5 -90t112.5 -271zM996 431q0 31 -16 47.5t-48 16.5t-48.5 -16.5t-16.5 -47.5
q0 -33 16.5 -49.5t48.5 -16.5t48 16.5t16 49.5zM1033 187q0 34 -25 57.5t-58 23.5q-42 0 -62.5 -20.5t-20.5 -60.5q0 -41 20.5 -61.5t62.5 -20.5q33 0 58 23.5t25 58.5z" />
    <glyph glyph-name="o" unicode="o" horiz-adv-x="1271" 
d="M1207 536l-125 -34q3 -19 5 -40.5t2 -45.5q0 -36 -5 -71t-15 -70l100 -46l-51 -88l-79 56q-38 -81 -98 -137t-142 -89l28 -119l-92 -23l-18 117q-30 -5 -52.5 -7.5t-38.5 -2.5q-60 0 -117.5 15t-110.5 47l-74 -115l-79 46l84 120q-40 33 -70.5 74t-51.5 89l-125 -39
l-18 85l114 25q-9 37 -13 71t-4 62q0 31 3.5 60.5t11.5 56.5l-112 36l23 86l115 -48q24 61 62.5 111t90.5 88l-67 105l77 53l66 -112q46 22 94.5 33t100.5 11t98.5 -10.5t89.5 -30.5l53 95l78 -44l-54 -97q59 -43 101 -99t70 -126l122 54zM809 416q0 63 -12 116t-39 97
q-32 53 -76 79.5t-103 26.5q-57 0 -102 -26.5t-76 -80.5q-26 -44 -38.5 -97.5t-12.5 -114.5q0 -65 12.5 -118.5t37.5 -96.5q31 -54 76 -80t103 -26q60 0 105 26t75 80q24 43 37 96.5t13 118.5z" />
    <glyph glyph-name="p" unicode="p" horiz-adv-x="1251" 
d="M1161 457q0 -94 -27.5 -173t-81.5 -144q-58 -70 -132.5 -105t-166.5 -35q-76 0 -138 18.5t-109 56.5q-50 40 -75 98t-25 134q0 135 73 220.5t208 85.5q84 0 140 -53.5t56 -138.5q0 -32 -8 -58t-23 -49q-17 -25 -41.5 -37t-55.5 -12q-21 0 -41.5 6.5t-39.5 18.5
q39 3 66.5 32t27.5 68q0 46 -23.5 69t-70.5 23q-31 0 -55.5 -15t-42.5 -45q-14 -24 -22 -53.5t-8 -61.5q0 -84 56.5 -139.5t140.5 -55.5q55 0 99 24t76 72q29 43 44 93t15 108q0 136 -81.5 219.5t-218.5 83.5q-83 0 -145.5 -34t-106.5 -101q-37 -56 -55.5 -129.5
t-18.5 -160.5q0 -7 3.5 -111.5t8.5 -307.5l-108 -16l-2 -61l112 5v-74l-115 -12l5 -73l110 15l3 -66l-118 -20l-2 -72l120 21l2 -79l-345 -89l172 1579l153 -23l18 -243q59 106 168 167t232 61q92 0 165 -31.5t126 -93.5q51 -60 76.5 -136t25.5 -170z" />
    <glyph glyph-name="q" unicode="q" horiz-adv-x="1254" 
d="M1125 986l-129 -1678l-131 5l-54 774q-62 -52 -133 -78t-152 -26q-182 0 -309 128t-127 310t127 311.5t309 129.5q67 0 129.5 -20t118.5 -58l-11 139zM618 -324q0 -51 -37.5 -86.5t-88.5 -35.5q-48 0 -85 36t-37 86t36 86t86 36q53 0 89.5 -35.5t36.5 -86.5zM840 406v20
q0 41 -9 79t-27 74l-125 -82l-39 80l123 68q-39 47 -85.5 70t-100.5 23q-8 0 -19.5 -1.5l-26.5 -3.5l38 -134l-82 -27l-36 127q-57 -37 -91 -95t-43 -137l114 -5l-5 -72l-107 -10q4 -47 21.5 -89.5t47.5 -78.5l74 58l40 -38l-61 -74q33 -22 66.5 -32.5t69.5 -10.5q27 0 50 5
t42 16l-38 134l48 27l56 -121q33 30 56 68.5t36 84.5l-107 72l33 43z" />
    <glyph glyph-name="r" unicode="r" horiz-adv-x="1059" 
d="M1059 774l-97 -36q0 -8 1 -24t1 -25q0 -26 -5.5 -48.5t-16.5 -41.5l86 -61l-54 -53l-76 61q-16 -15 -36.5 -28t-45.5 -26l-51 70q16 20 23.5 40t7.5 40q0 41 -28 62t-84 21q-62 0 -132 -66.5t-148 -198.5l15 -550l-343 51l156 942l158 32l8 -295q32 45 62 80t58 61
l-43 97l68 35l36 -83q35 21 71.5 35.5t74.5 20.5l3 100l73 -7l-15 -91q56 -3 95.5 -25.5t60.5 -63.5l91 48zM341 365q0 31 -16 47.5t-50 16.5q-31 0 -47 -16.5t-16 -47.5q0 -32 16 -47.5t47 -15.5q34 0 50 15.5t16 47.5zM336 120q0 35 -23.5 59.5t-57.5 24.5
q-33 0 -57.5 -24.5t-24.5 -59.5q0 -41 20.5 -61t61.5 -20q42 0 61.5 20t19.5 61z" />
    <glyph glyph-name="s" unicode="s" horiz-adv-x="901" 
d="M811 768q0 -83 -36 -123.5t-108 -40.5q-65 0 -97.5 24.5t-32.5 73.5q0 24 13 43.5t39 33.5l29 -21q-7 -8 -11 -15.5t-4 -14.5q0 -20 12 -29.5t35 -9.5q32 0 47 15.5t15 48.5q0 26 -13.5 47t-40.5 36q-21 12 -46.5 18t-55.5 6q-38 0 -68.5 -9.5t-57.5 -28.5
q-29 -21 -43 -50t-14 -65q0 -35 27 -68.5t79 -66.5l143.5 -91t52.5 -34q54 -45 80 -97.5t26 -115.5q0 -84 -31.5 -152t-96.5 -118q-59 -46 -132.5 -70t-160.5 -24q-57 0 -109 13.5t-101 40.5q-50 27 -87.5 66t-62.5 89l74 69q46 -86 113 -128t154 -42q79 0 129.5 46.5
t50.5 123.5q0 50 -22.5 97.5t-68.5 92.5l-85 74l-86 74q-45 46 -68 96t-23 105q0 67 29 120t85 93q49 35 109.5 51t131.5 16q59 0 107 -10.5t85 -30.5q49 -26 72.5 -66t23.5 -92zM275 314q0 -51 -36 -86.5t-86 -35.5t-86 36t-36 86t36 86t86 36t86 -36t36 -86z" />
    <glyph glyph-name="t" unicode="t" horiz-adv-x="832" 
d="M768 852l-15 -104l-200 -15l-15 -120l215 -6l-41 -142l-191 12l-75 -551l-147 -26l-19 595l-180 13l30 113l148 -3l-5 94l-191 -15l-43 155h229l-10 348l368 42l-54 -390h196zM508 1011q0 41 -20.5 61.5t-61.5 20.5t-61.5 -20.5t-20.5 -61.5q0 -42 20.5 -62.5t61.5 -20.5
t61.5 20.5t20.5 62.5zM472 765q0 33 -15.5 49t-47.5 16q-33 0 -49 -16t-16 -49q0 -32 16 -47.5t49 -15.5q32 0 47.5 15.5t15.5 47.5z" />
    <glyph glyph-name="u" unicode="u" horiz-adv-x="1288" 
d="M760 791q-56 -116 -94.5 -234t-58.5 -238l-81 34q40 139 91 260t113 222zM1123 -64l-332 44l28 234q-75 -111 -161 -166t-183 -55q-120 0 -197 89t-112 268l79 20l-5 71l-87 -25l-17 92l88 25l-5 66l-97 -22l-20 100l102 22l-10 69l-104 -20l-14 77l381 66l-7.5 -374
t-2.5 -133q0 -119 30 -177.5t90 -58.5q64 0 133 62t142 185l54 467l183 10z" />
    <glyph glyph-name="v" unicode="v" horiz-adv-x="1110" 
d="M870 918q0 -32 -15 -47.5t-46 -15.5t-47.5 15.5t-16.5 47.5t16.5 48t47.5 16t46 -16t15 -48zM784 704q0 -32 -15.5 -48t-48.5 -16q-32 0 -48.5 16t-16.5 48q0 31 16.5 47.5t48.5 16.5q33 0 48.5 -16.5t15.5 -47.5zM702 490q0 -33 -16 -48.5t-48 -15.5q-31 0 -47.5 15.5
t-16.5 48.5q0 31 16.5 47t47.5 16q32 0 48 -16t16 -47zM1084 860l-490 -950l-32 59l-100 -71l-41 66l105 72l-61 110l-110 -70l-41 72l112 61l-71 130l-110 -66l-41 66l115 67l-71 125l-112 -59l-41 64l114 63l-82 151l-120 -63l-32 66l395 206l266 -767l306 731z" />
    <glyph glyph-name="w" unicode="w" horiz-adv-x="1519" 
d="M1519 872l-365 -906l-158 -25l-268 680l-180 -570l-283 -141l-25 100l118 54l-19 61l-120 -54l-22 90l107 43l-19 56l-107 -38l-22 82l97 40l-19 57l-93 -38l-141 502l166 75l289 -708l234 640l273 75l148 -766l261 756zM865 -112q0 -51 -37 -88t-88 -37t-87.5 37
t-36.5 88q0 50 36.5 86t87.5 36t88 -36t37 -86z" />
    <glyph glyph-name="x" unicode="x" horiz-adv-x="1210" 
d="M1159 528q0 -51 -36 -87.5t-87 -36.5q-52 0 -88.5 36.5t-36.5 87.5q0 50 37.5 86t87.5 36q49 0 86 -36t37 -86zM299 457q0 -52 -36.5 -87.5t-89.5 -35.5q-51 0 -86.5 35.5t-35.5 87.5q0 50 36 86t86 36q51 0 88.5 -36t37.5 -86zM1054 117l-255 -196l-246 408l-339 -395
l-66 59l329 458l-265 447l122 79l282 -337l226 319l154 -114l-279 -324z" />
    <glyph glyph-name="y" unicode="y" horiz-adv-x="1215" 
d="M1087 320q0 -514 -143.5 -771.5t-430.5 -257.5q-133 0 -245.5 36t-203.5 109l46 87q67 -56 150.5 -83.5t183.5 -27.5q36 0 69.5 3.5t65.5 12.5q-16 -2 -31.5 -3t-31.5 -1q-76 0 -144 24t-129 72q-64 51 -97 113.5t-36 137.5q41 -56 78 -96.5t71 -62.5q44 -29 95.5 -43.5
t112.5 -14.5q169 0 260.5 187.5t107.5 562.5q-30 -51 -60.5 -88.5t-62.5 -62.5l36 -89l-61 -52l-39 103q-31 -15 -66.5 -20t-75.5 0l-29 -112l-92 22l44 105q-45 15 -83 44t-68 73l-86 -66l-67 71l118 67q-16 37 -26.5 78.5t-14.5 87.5l-97 -36l-31 79l120 35q-1 10 -2 22
t-1 24q0 14 2.5 41.5t5.5 68.5h-135l10 95l133 -20l10 81l168 12q-21 -82 -31.5 -154.5t-10.5 -134.5q0 -67 13 -123t38 -100q31 -55 77 -82.5t108 -27.5q120 0 179 78.5t59 235.5q0 54 -8 114.5t-25 127.5l270 61q16 -149 24.5 -284.5t8.5 -257.5z" />
    <glyph glyph-name="z" unicode="z" horiz-adv-x="1156" 
d="M1181 745q0 -36 -17.5 -53.5t-53.5 -17.5q-35 0 -53 17.5t-18 53.5q0 35 18 53t53 18q36 0 53.5 -18t17.5 -53zM959 506q0 -35 -17 -52.5t-54 -17.5q-36 0 -54 17.5t-18 52.5t18 53t54 18q37 0 54 -18t17 -53zM1033 913l-768 -869l699 41l-17 -212l-908 45l463 850
l-443 -25l71 216zM738 268q0 -36 -17.5 -53.5t-53.5 -17.5t-54.5 17.5t-18.5 53.5q0 35 18.5 53t54.5 18t53.5 -18t17.5 -53zM689 840l-82 32q-20 -126 -58 -244t-94 -230l30 -40q65 102 116 223t88 259z" />
    <glyph glyph-name="braceleft" unicode="{" 
d="M321 852q0 -54 -39.5 -94.5t-94.5 -40.5q-56 0 -96 40.5t-40 94.5q0 55 40 95.5t96 40.5q55 0 94.5 -40.5t39.5 -95.5zM1039 1639q-76 -8 -160.5 -19t-176.5 -25q-53 -22 -80.5 -179t-29.5 -449l-135 -97l135 -69q1 -203 5 -380t10 -326l426 -225l-22 -169l-567 220
l-132 1452q-1 13 -2 24.5t-1 23.5q0 73 24 139t73 122q53 60 115 90t134 30q94 0 189.5 -2t191.5 -6zM663 1692l-35 46q-70 -112 -126.5 -245.5t-100.5 -287.5l91 -39q23 139 66 270.5t105 255.5z" />
    <glyph glyph-name="bar" unicode="|" horiz-adv-x="857" 
d="M543 -707h-229v2552h229v-2552zM506 1388q0 35 -18 53t-54 18q-35 0 -53 -18t-18 -53q0 -36 18 -53.5t53 -17.5q36 0 54 17.5t18 53.5z" />
    <glyph glyph-name="braceright" unicode="}" 
d="M1072 862q0 -55 -40 -94.5t-95 -39.5q-56 0 -96 39.5t-40 94.5q0 56 40 96t96 40q55 0 95 -40t40 -96zM814 146q0 -75 -24.5 -141t-72.5 -121q-52 -60 -114 -89t-136 -29q-93 0 -188 1.5t-192 5.5l-2 156q76 7 160 18l176 24q30 13 52 100t37 250q10 106 15.5 212.5
t5.5 214.5l136 97l-136 68q0 94 -4 233.5t-11 326.5l-426 224l22 168l567 -219l132 -1452l2 -25.5t1 -22.5zM723 363l-92 38q-23 -139 -65.5 -270.5t-105.5 -255.5l35 -46q71 111 127.5 244.5t100.5 289.5z" />
    <glyph glyph-name="asciitilde" unicode="~" horiz-adv-x="1103" 
d="M1055 1434q0 -98 -11.5 -188.5t-35.5 -173.5q-35 -124 -89 -185.5t-128 -61.5q-47 0 -87.5 35.5t-72.5 107.5q-5 11 -27.5 78.5l-62.5 189.5q-23 71 -47.5 108t-49.5 37q-45 0 -82 -57t-65 -169l-14 -81.5l-38 -218.5l-204 163q60 307 146.5 460t200.5 153
q58 0 107.5 -29t88.5 -88q18 -28 44.5 -82t58.5 -134q23 -58 43 -87.5t38 -29.5q36 0 53.5 47t17.5 141q0 44 -3.5 91.5t-10.5 98.5l222 61q5 -47 6.5 -94t1.5 -92zM506 1210q0 -36 -18 -54t-54 -18q-35 0 -53 18t-18 54q0 35 18 53t53 18q36 0 54 -18t18 -53z" />
    <glyph glyph-name="Adieresis" unicode="&#xc4;" horiz-adv-x="1629" 
d="M1578 51l-177 -41l-120 365l-717 10l-179 -487l-385 265l753 1544l278 24zM1123 852l-188 672l-258 -774zM1222 551l-58 174l-538 -133l-32 -81zM482 658l-36 46q-72 -120 -128 -253t-96 -280l92 -39q20 137 62.5 268.5t105.5 257.5zM1327 1903q0 -58 -43 -101t-102 -43
q-61 0 -104.5 42.5t-43.5 101.5q0 60 43.5 103t104.5 43q59 0 102 -43t43 -103zM776 1903q0 -59 -44 -101.5t-104 -42.5q-59 0 -102.5 43t-43.5 101q0 60 43.5 103t102.5 43q60 0 104 -43t44 -103z" />
    <glyph glyph-name="Aring" unicode="&#xc5;" horiz-adv-x="1629" 
d="M1578 51l-177 -41l-120 365l-717 10l-179 -487l-385 265l753 1544l278 24zM1123 852l-188 672l-258 -774zM1222 551l-58 174l-538 -133l-32 -81zM482 658l-36 46q-72 -120 -128 -253t-96 -280l92 -39q20 137 62.5 268.5t105.5 257.5zM1127 1993q0 -89 -62.5 -151.5
t-152.5 -62.5q-89 0 -153 62t-64 152t64 152t153 62q90 0 152.5 -63t62.5 -151zM1007 1988q0 50 -35 85t-85 35t-86 -35t-36 -85t36 -85t86 -35t85 35t35 85z" />
    <glyph glyph-name="Ccedilla" unicode="&#xc7;" horiz-adv-x="1534" 
d="M1465 572h-92q0 -44 -8.5 -87.5t-27.5 -86.5l107 -48l-32 -67l-107 48q-29 -47 -67 -86t-84 -69l51 -122l-80 -47l-56 125q-65 -26 -128 -34t-122 2l-28 -144l-89 24l36 130q-44 10 -84.5 23.5t-76.5 29.5l-69 -114l-72 56l61 104q-45 31 -84 71t-74 90l-120 -63l-41 68
l119 69q-38 76 -58 160.5t-22 179.5l-130 -21l-23 89l155 20q7 84 25.5 163.5t49.5 155.5l-123 83l56 78l107 -76q30 50 60 91.5t61 76.5l-90 122l66 51l87 -109q49 42 99 74t100 52l-28 119l95 18l15 -112q32 7 65.5 11t67.5 4q35 0 68.5 -5t66.5 -15l28 117l79 -20
l-39 -131q40 -25 75 -60.5t64 -81.5l89 61l51 -80l-99 -58q15 -35 26 -64t17 -51l-94 -39q-69 116 -160 174.5t-206 58.5q-98 0 -181 -41.5t-149 -125.5q-62 -78 -92 -168t-30 -190q0 -111 28 -203t85 -164q63 -80 147.5 -119.5t191.5 -39.5q144 0 238 86t94 228l90 36
q17 -30 28 -63t18 -71h99v-73zM958 -337l-314 -61l8 75l94 22v56l-87 -17l5 53l77 10v54l-72 -10l6 61l74 7l2 51l-71 -5l18 169l160 -13z" />
    <glyph glyph-name="Eacute" unicode="&#xc9;" horiz-adv-x="1242" 
d="M872 1352l-30 -265l-233 57l78 163zM1217 1286l-160 -46q-8 106 -45.5 175.5t-105.5 103.5q-37 18 -119.5 33.5t-209.5 25.5l-77 -660l511 27l-128 -287l-408 87l-90 -669l375 -5l131 192l209 12l5 -319l-964 54l56 1044l134 -7l22 86l-154 2l8 121l146 -11l15 107h-156
l5 118l146 -11l20 92l-161 8l10 182l199 -15.5t200 -13.5q119 -14 212 -40.5t159 -66.5q87 -52 140.5 -132t74.5 -187zM994 2063l-362 -296l-80 79l274 401z" />
    <glyph glyph-name="Ntilde" unicode="&#xd1;" horiz-adv-x="1771" 
d="M1599 1050q0 -31 -1 -62.5t-3 -64.5l-51 -1028l-1095 1113l-45 -954l-404 -3l120 324l194 10l84 1399l963 -1187q8 96 17 191l18 191q11 114 16 210t5 174q0 163 -38 292t-115 223l66 41q134 -147 201.5 -364t67.5 -505zM755 1074q0 36 -17.5 54t-53.5 18q-35 0 -53 -18
t-18 -54t18 -53.5t53 -17.5q36 0 53.5 17.5t17.5 53.5zM1033 768q0 38 -27 66t-64 28q-40 0 -67.5 -27.5t-27.5 -66.5t27.5 -65t67.5 -26q37 0 64 26.5t27 64.5zM1283 465q0 35 -17 53t-54 18q-36 0 -54 -18t-18 -53q0 -36 18 -54t54 -18q37 0 54 18t17 54zM1206 2139
q0 -60 -12.5 -111t-36.5 -92q-30 -51 -73 -76.5t-99 -25.5q-101 0 -174 104.5t-114 104.5q-40 0 -69.5 -15.5t-49.5 -45.5q-9 -14 -20.5 -47.5t-26.5 -85.5l-172 81q51 153 124 229.5t168 76.5q48 0 88.5 -11.5t74.5 -34.5q16 -11 37 -33t48 -53q20 -23 36.5 -34.5
t31.5 -11.5q30 0 44.5 15.5t14.5 46.5q0 15 -3 35t-10 45l186 31q4 -23 5.5 -46.5t1.5 -45.5z" />
    <glyph glyph-name="Odieresis" unicode="&#xd6;" horiz-adv-x="1575" 
d="M1473 855q0 -158 -45 -297t-137 -260q-100 -132 -225.5 -198t-279.5 -66q-152 0 -277.5 66t-225.5 198q-91 120 -136 260t-45 297t44.5 294t132.5 253q97 127 222 190.5t278 63.5t279.5 -63.5t227.5 -189.5q93 -117 140 -254t47 -294zM1257 761v26.5t-1 28.5l-156 -12
l-18 79l160 25q-13 66 -37 123.5t-59 106.5l-133 -159l-58 47l117 194q-58 50 -128 74t-155 23l61 -240l-71 -25l-85 244q-75 -27 -137 -79.5t-113 -129.5l163 -181l-59 -69l-153 159q-32 -75 -47 -145t-13 -134l1 -38l177 -12v-88l-169 10q7 -49 23.5 -99t41.5 -100
l137 123l56 -51l-140 -148q43 -55 94.5 -91t112.5 -55l23 197l71 -10l-5 -202h11q63 0 123.5 19.5t118.5 61.5l-115 223l68 40l118 -198q37 41 65 84t47 89l-166 144l44 44l155 -91q15 42 22.5 90t7.5 102zM1205 1897q0 -58 -43 -101t-102 -43q-61 0 -104.5 42.5
t-43.5 101.5q0 60 43.5 103t104.5 43q59 0 102 -43t43 -103zM654 1897q0 -59 -44 -101.5t-104 -42.5q-59 0 -102.5 43t-43.5 101q0 60 43.5 103t102.5 43q60 0 104 -43t44 -103z" />
    <glyph glyph-name="Udieresis" unicode="&#xdc;" horiz-adv-x="1554" 
d="M1384 714q0 -355 -160.5 -532t-483.5 -177q-157 0 -271 40.5t-185 121.5q-66 75 -99 192t-33 275q0 131 30.5 391.5t30.5 391.5q0 85 -12.5 149t-37.5 108l85 38q46 -91 73.5 -207t37.5 -256q3 -44 4.5 -165t1.5 -319q0 -122 6.5 -207.5t19.5 -133.5q28 -100 86 -150
t146 -50q102 0 172.5 35t109.5 106q28 51 42.5 129t14.5 184q0 20 -1 48t-2 63q-1 40 -1.5 66.5t-0.5 40.5l153 12l-10 118l-145 -5l-5 112l143 7l-4 116h-139l-5 117l144 -10v107l-144 13l-5 119l415 -41l21.5 -620t7.5 -227zM755 835q0 -52 -36.5 -89t-87.5 -37
q-52 0 -87.5 37.5t-35.5 88.5q0 50 35.5 87t87.5 37q51 0 87.5 -36.5t36.5 -87.5zM1190 1897q0 -58 -43 -101t-102 -43q-61 0 -104.5 42.5t-43.5 101.5q0 60 43.5 103t104.5 43q59 0 102 -43t43 -103zM639 1897q0 -59 -44 -101.5t-104 -42.5q-59 0 -102.5 43t-43.5 101
q0 60 43.5 103t102.5 43q60 0 104 -43t44 -103z" />
    <glyph glyph-name="aacute" unicode="&#xe1;" 
d="M1073 103l-1 -54q-155 -70 -306.5 -104.5t-299.5 -34.5q-82 0 -150 16t-122 47q-64 37 -96.5 95t-32.5 135q0 136 136.5 243t407.5 185q-22 64 -74.5 97t-133.5 33q-87 0 -158 -35.5t-126 -104.5l-53 51q84 129 208 194.5t289 65.5q134 0 235.5 -74.5t171.5 -223.5
q55 -117 81.5 -249.5t23.5 -281.5zM918 451q0 36 -17.5 54t-53.5 18t-54.5 -18t-18.5 -54t18.5 -53.5t54.5 -17.5t53.5 17.5t17.5 53.5zM680 177q0 91 -8.5 180t-26.5 176q-94 -27 -169.5 -57.5t-131.5 -64.5l102 -413q80 0 138 9t93 29q2 36 2.5 71t0.5 70zM959 181
q0 38 -26.5 65t-65.5 27q-38 0 -65.5 -26t-27.5 -66q0 -39 27.5 -65t65.5 -26q39 0 65.5 26.5t26.5 64.5zM928 1340l-362 -296l-80 79l274 401z" />
    <glyph glyph-name="agrave" unicode="&#xe0;" 
d="M1073 103l-1 -54q-155 -70 -306.5 -104.5t-299.5 -34.5q-82 0 -150 16t-122 47q-64 37 -96.5 95t-32.5 135q0 136 136.5 243t407.5 185q-22 64 -74.5 97t-133.5 33q-87 0 -158 -35.5t-126 -104.5l-53 51q84 129 208 194.5t289 65.5q134 0 235.5 -74.5t171.5 -223.5
q55 -117 81.5 -249.5t23.5 -281.5zM918 451q0 36 -17.5 54t-53.5 18t-54.5 -18t-18.5 -54t18.5 -53.5t54.5 -17.5t53.5 17.5t17.5 53.5zM680 177q0 91 -8.5 180t-26.5 176q-94 -27 -169.5 -57.5t-131.5 -64.5l102 -413q80 0 138 9t93 29q2 36 2.5 71t0.5 70zM959 181
q0 38 -26.5 65t-65.5 27q-38 0 -65.5 -26t-27.5 -66q0 -39 27.5 -65t65.5 -26q39 0 65.5 26.5t26.5 64.5zM656 1120l-79 -78l-363 295l170 184z" />
    <glyph glyph-name="acircumflex" unicode="&#xe2;" 
d="M1073 103l-1 -54q-155 -70 -306.5 -104.5t-299.5 -34.5q-82 0 -150 16t-122 47q-64 37 -96.5 95t-32.5 135q0 136 136.5 243t407.5 185q-22 64 -74.5 97t-133.5 33q-87 0 -158 -35.5t-126 -104.5l-53 51q84 129 208 194.5t289 65.5q134 0 235.5 -74.5t171.5 -223.5
q55 -117 81.5 -249.5t23.5 -281.5zM918 451q0 36 -17.5 54t-53.5 18t-54.5 -18t-18.5 -54t18.5 -53.5t54.5 -17.5t53.5 17.5t17.5 53.5zM680 177q0 91 -8.5 180t-26.5 176q-94 -27 -169.5 -57.5t-131.5 -64.5l102 -413q80 0 138 9t93 29q2 36 2.5 71t0.5 70zM959 181
q0 38 -26.5 65t-65.5 27q-38 0 -65.5 -26t-27.5 -66q0 -39 27.5 -65t65.5 -26q39 0 65.5 26.5t26.5 64.5zM929 1148l-96 -97l-302 239l-219 -249l-177 119l384 286z" />
    <glyph glyph-name="adieresis" unicode="&#xe4;" 
d="M1073 103l-1 -54q-155 -70 -306.5 -104.5t-299.5 -34.5q-82 0 -150 16t-122 47q-64 37 -96.5 95t-32.5 135q0 136 136.5 243t407.5 185q-22 64 -74.5 97t-133.5 33q-87 0 -158 -35.5t-126 -104.5l-53 51q84 129 208 194.5t289 65.5q134 0 235.5 -74.5t171.5 -223.5
q55 -117 81.5 -249.5t23.5 -281.5zM918 451q0 36 -17.5 54t-53.5 18t-54.5 -18t-18.5 -54t18.5 -53.5t54.5 -17.5t53.5 17.5t17.5 53.5zM680 177q0 91 -8.5 180t-26.5 176q-94 -27 -169.5 -57.5t-131.5 -64.5l102 -413q80 0 138 9t93 29q2 36 2.5 71t0.5 70zM959 181
q0 38 -26.5 65t-65.5 27q-38 0 -65.5 -26t-27.5 -66q0 -39 27.5 -65t65.5 -26q39 0 65.5 26.5t26.5 64.5zM972 1201q0 -58 -43 -101t-102 -43q-61 0 -104.5 42.5t-43.5 101.5q0 60 43.5 103t104.5 43q59 0 102 -43t43 -103zM421 1201q0 -59 -44 -101.5t-104 -42.5
q-59 0 -102.5 43t-43.5 101q0 60 43.5 103t102.5 43q60 0 104 -43t44 -103z" />
    <glyph glyph-name="atilde" unicode="&#xe3;" 
d="M1073 103l-1 -54q-155 -70 -306.5 -104.5t-299.5 -34.5q-82 0 -150 16t-122 47q-64 37 -96.5 95t-32.5 135q0 136 136.5 243t407.5 185q-22 64 -74.5 97t-133.5 33q-87 0 -158 -35.5t-126 -104.5l-53 51q84 129 208 194.5t289 65.5q134 0 235.5 -74.5t171.5 -223.5
q55 -117 81.5 -249.5t23.5 -281.5zM918 451q0 36 -17.5 54t-53.5 18t-54.5 -18t-18.5 -54t18.5 -53.5t54.5 -17.5t53.5 17.5t17.5 53.5zM680 177q0 91 -8.5 180t-26.5 176q-94 -27 -169.5 -57.5t-131.5 -64.5l102 -413q80 0 138 9t93 29q2 36 2.5 71t0.5 70zM959 181
q0 38 -26.5 65t-65.5 27q-38 0 -65.5 -26t-27.5 -66q0 -39 27.5 -65t65.5 -26q39 0 65.5 26.5t26.5 64.5zM989 1347q0 -60 -12.5 -111t-36.5 -92q-30 -51 -73 -76.5t-99 -25.5q-101 0 -174 104.5t-114 104.5q-40 0 -69.5 -15.5t-49.5 -45.5q-9 -14 -20.5 -47.5t-26.5 -85.5
l-172 81q51 153 124 229.5t168 76.5q48 0 88.5 -11.5t74.5 -34.5q16 -11 37 -33t48 -53q20 -23 36.5 -34.5t31.5 -11.5q30 0 44.5 15.5t14.5 46.5q0 15 -3 35t-10 45l186 31q4 -23 5.5 -46.5t1.5 -45.5z" />
    <glyph glyph-name="aring" unicode="&#xe5;" 
d="M781 1235q0 -89 -62.5 -151.5t-152.5 -62.5q-89 0 -153 62t-64 152t64 152t153 62q90 0 152.5 -63t62.5 -151zM661 1230q0 50 -35 85t-85 35t-86 -35t-36 -85t36 -85t86 -35t85 35t35 85zM1073 103l-1 -54q-155 -70 -306.5 -104.5t-299.5 -34.5q-82 0 -150 16t-122 47
q-64 37 -96.5 95t-32.5 135q0 136 136.5 243t407.5 185q-22 64 -74.5 97t-133.5 33q-87 0 -158 -35.5t-126 -104.5l-53 51q84 129 208 194.5t289 65.5q134 0 235.5 -74.5t171.5 -223.5q55 -117 81.5 -249.5t23.5 -281.5zM918 451q0 36 -17.5 54t-53.5 18t-54.5 -18
t-18.5 -54t18.5 -53.5t54.5 -17.5t53.5 17.5t17.5 53.5zM680 177q0 91 -8.5 180t-26.5 176q-94 -27 -169.5 -57.5t-131.5 -64.5l102 -413q80 0 138 9t93 29q2 36 2.5 71t0.5 70zM959 181q0 38 -26.5 65t-65.5 27q-38 0 -65.5 -26t-27.5 -66q0 -39 27.5 -65t65.5 -26
q39 0 65.5 26.5t26.5 64.5z" />
    <glyph glyph-name="ccedilla" unicode="&#xe7;" horiz-adv-x="1072" 
d="M1021 214q-95 -127 -209.5 -190t-249.5 -63q-209 0 -340.5 128.5t-131.5 336.5q0 205 150 355.5t354 150.5q61 0 112.5 -10t92.5 -30q55 -26 82 -66t27 -93q0 -49 -40.5 -97t-122.5 -95l-43 41q21 21 34.5 43.5t18.5 46.5l-119 30l14 43l108 -15q-3 25 -17.5 45t-40.5 35
q-22 13 -46.5 19t-51.5 6q-14 0 -29.5 -1.5t-31.5 -3.5l23 -156l-46 -11l-41 136q-46 -21 -79.5 -60t-53.5 -94l138 -41l-20 -51l-136 34q-8 -23 -12.5 -54.5t-4.5 -72.5q0 -19 2 -36.5t6 -33.5l114 39l31 -59l-131 -46q9 -30 28 -61.5t47 -65.5l91 71l44 -36l-79 -76
q33 -26 74.5 -38.5t94.5 -12.5l9 117h52l10 -115q36 3 70.5 14.5t69.5 31.5l-36 100l46 17l39 -81q17 13 35.5 31.5t37.5 42.5zM705 -420l-314 -61l8 75l94 22v56l-87 -17l5 53l77 10v54l-72 -10l6 61l74 7l2 51l-71 -5l18 169l160 -13z" />
    <glyph glyph-name="eacute" unicode="&#xe9;" horiz-adv-x="1222" 
d="M1159 76l-45 -44.5t-35 -31.5l75 -112l-70 -41l-76 94q-40 -24 -85 -40.5t-96 -22.5l-2 -118l-90 6l8 109q-46 0 -98 9.5t-109 28.5l-56 -120l-90 49l61 112q-49 27 -89.5 62.5t-71.5 80.5l-107 -68l-45 71l117 61q-23 48 -36 98.5t-17 103.5l-107 -27l-31 88l138 31
q5 56 17 101t31 80l-97 58l46 76l95 -66q25 31 54.5 56t62.5 44l-82 119l90 44l66 -127q32 10 58 16t46 9l27 131l71 -22l-18 -104q40 0 76 -10t69 -30l99 98l56 -47l-94 -102q22 -21 41 -50.5t34 -65.5l117 39l20 -74l-113 -39q8 -22 13.5 -48t10.5 -56l-465 -81v-11
q0 -73 15.5 -137.5t47.5 -122.5q38 -69 91 -103.5t119 -34.5q68 0 143 36t159 110zM750 567q-4 44 -32.5 66t-81.5 22q-65 0 -121 -39t-76 -100zM957 1340l-362 -296l-80 79l274 401z" />
    <glyph glyph-name="egrave" unicode="&#xe8;" horiz-adv-x="1222" 
d="M1159 76l-45 -44.5t-35 -31.5l75 -112l-70 -41l-76 94q-40 -24 -85 -40.5t-96 -22.5l-2 -118l-90 6l8 109q-46 0 -98 9.5t-109 28.5l-56 -120l-90 49l61 112q-49 27 -89.5 62.5t-71.5 80.5l-107 -68l-45 71l117 61q-23 48 -36 98.5t-17 103.5l-107 -27l-31 88l138 31
q5 56 17 101t31 80l-97 58l46 76l95 -66q25 31 54.5 56t62.5 44l-82 119l90 44l66 -127q32 10 58 16t46 9l27 131l71 -22l-18 -104q40 0 76 -10t69 -30l99 98l56 -47l-94 -102q22 -21 41 -50.5t34 -65.5l117 39l20 -74l-113 -39q8 -22 13.5 -48t10.5 -56l-465 -81v-11
q0 -73 15.5 -137.5t47.5 -122.5q38 -69 91 -103.5t119 -34.5q68 0 143 36t159 110zM750 567q-4 44 -32.5 66t-81.5 22q-65 0 -121 -39t-76 -100zM718 1120l-79 -78l-363 295l170 184z" />
    <glyph glyph-name="ecircumflex" unicode="&#xea;" horiz-adv-x="1222" 
d="M1159 76l-45 -44.5t-35 -31.5l75 -112l-70 -41l-76 94q-40 -24 -85 -40.5t-96 -22.5l-2 -118l-90 6l8 109q-46 0 -98 9.5t-109 28.5l-56 -120l-90 49l61 112q-49 27 -89.5 62.5t-71.5 80.5l-107 -68l-45 71l117 61q-23 48 -36 98.5t-17 103.5l-107 -27l-31 88l138 31
q5 56 17 101t31 80l-97 58l46 76l95 -66q25 31 54.5 56t62.5 44l-82 119l90 44l66 -127q32 10 58 16t46 9l27 131l71 -22l-18 -104q40 0 76 -10t69 -30l99 98l56 -47l-94 -102q22 -21 41 -50.5t34 -65.5l117 39l20 -74l-113 -39q8 -22 13.5 -48t10.5 -56l-465 -81v-11
q0 -73 15.5 -137.5t47.5 -122.5q38 -69 91 -103.5t119 -34.5q68 0 143 36t159 110zM750 567q-4 44 -32.5 66t-81.5 22q-65 0 -121 -39t-76 -100zM990 1149l-96 -97l-302 239l-219 -249l-177 119l384 286z" />
    <glyph glyph-name="edieresis" unicode="&#xeb;" horiz-adv-x="1222" 
d="M1159 76l-45 -44.5t-35 -31.5l75 -112l-70 -41l-76 94q-40 -24 -85 -40.5t-96 -22.5l-2 -118l-90 6l8 109q-46 0 -98 9.5t-109 28.5l-56 -120l-90 49l61 112q-49 27 -89.5 62.5t-71.5 80.5l-107 -68l-45 71l117 61q-23 48 -36 98.5t-17 103.5l-107 -27l-31 88l138 31
q5 56 17 101t31 80l-97 58l46 76l95 -66q25 31 54.5 56t62.5 44l-82 119l90 44l66 -127q32 10 58 16t46 9l27 131l71 -22l-18 -104q40 0 76 -10t69 -30l99 98l56 -47l-94 -102q22 -21 41 -50.5t34 -65.5l117 39l20 -74l-113 -39q8 -22 13.5 -48t10.5 -56l-465 -81v-11
q0 -73 15.5 -137.5t47.5 -122.5q38 -69 91 -103.5t119 -34.5q68 0 143 36t159 110zM750 567q-4 44 -32.5 66t-81.5 22q-65 0 -121 -39t-76 -100zM1089 1237q0 -58 -43 -101t-102 -43q-61 0 -104.5 42.5t-43.5 101.5q0 60 43.5 103t104.5 43q59 0 102 -43t43 -103zM538 1237
q0 -59 -44 -101.5t-104 -42.5q-59 0 -102.5 43t-43.5 101q0 60 43.5 103t102.5 43q60 0 104 -43t44 -103z" />
    <glyph glyph-name="iacute" unicode="&#xed;" horiz-adv-x="633" 
d="M497 -115l-421 54l156 974h187zM378 401q0 35 -17.5 53t-53.5 18q-37 0 -55 -18t-18 -53q0 -36 18 -54t55 -18q36 0 53.5 18t17.5 54zM378 130q0 38 -27 65t-66 27q-37 0 -64 -27t-27 -65t27 -64.5t64 -26.5q39 0 66 26.5t27 64.5zM662 1340l-362 -296l-80 79l274 401z
" />
    <glyph glyph-name="igrave" unicode="&#xec;" horiz-adv-x="633" 
d="M497 -115l-421 54l156 974h187zM378 401q0 35 -17.5 53t-53.5 18q-37 0 -55 -18t-18 -53q0 -36 18 -54t55 -18q36 0 53.5 18t17.5 54zM378 130q0 38 -27 65t-66 27q-37 0 -64 -27t-27 -65t27 -64.5t64 -26.5q39 0 66 26.5t27 64.5zM407 1120l-79 -78l-363 295l170 184z
" />
    <glyph glyph-name="icircumflex" unicode="&#xee;" horiz-adv-x="633" 
d="M497 -115l-421 54l156 974h187zM378 401q0 35 -17.5 53t-53.5 18q-37 0 -55 -18t-18 -53q0 -36 18 -54t55 -18q36 0 53.5 18t17.5 54zM378 130q0 38 -27 65t-66 27q-37 0 -64 -27t-27 -65t27 -64.5t64 -26.5q39 0 66 26.5t27 64.5zM729 1149l-96 -97l-302 239l-219 -249
l-177 119l384 286z" />
    <glyph glyph-name="idieresis" unicode="&#xef;" horiz-adv-x="633" 
d="M497 -115l-421 54l156 974h187zM378 401q0 35 -17.5 53t-53.5 18q-37 0 -55 -18t-18 -53q0 -36 18 -54t55 -18q36 0 53.5 18t17.5 54zM378 130q0 38 -27 65t-66 27q-37 0 -64 -27t-27 -65t27 -64.5t64 -26.5q39 0 66 26.5t27 64.5zM762 1237q0 -58 -43 -101t-102 -43
q-61 0 -104.5 42.5t-43.5 101.5q0 60 43.5 103t104.5 43q59 0 102 -43t43 -103zM211 1237q0 -59 -44 -101.5t-104 -42.5q-59 0 -102.5 43t-43.5 101q0 60 43.5 103t102.5 43q60 0 104 -43t44 -103z" />
    <glyph glyph-name="ntilde" unicode="&#xf1;" horiz-adv-x="1237" 
d="M1161 39l-385 -68l11 417.5t3 139.5q0 93 -30 139.5t-91 46.5q-57 0 -119.5 -51.5t-130.5 -154.5l-29 -518l-181 -24l-107 917l342 72l-15 -288q74 99 157 149.5t174 50.5q120 0 196.5 -90t112.5 -271zM996 431q0 31 -16 47.5t-48 16.5t-48.5 -16.5t-16.5 -47.5
q0 -33 16.5 -49.5t48.5 -16.5t48 16.5t16 49.5zM1033 187q0 34 -25 57.5t-58 23.5q-42 0 -62.5 -20.5t-20.5 -60.5q0 -41 20.5 -61.5t62.5 -20.5q33 0 58 23.5t25 58.5zM986 1347q0 -60 -12.5 -111t-36.5 -92q-30 -51 -73 -76.5t-99 -25.5q-101 0 -174 104.5t-114 104.5
q-40 0 -69.5 -15.5t-49.5 -45.5q-9 -14 -20.5 -47.5t-26.5 -85.5l-172 81q51 153 124 229.5t168 76.5q48 0 88.5 -11.5t74.5 -34.5q16 -11 37 -33t48 -53q20 -23 36.5 -34.5t31.5 -11.5q30 0 44.5 15.5t14.5 46.5q0 15 -3 35t-10 45l186 31q4 -23 5.5 -46.5t1.5 -45.5z" />
    <glyph glyph-name="oacute" unicode="&#xf3;" horiz-adv-x="1271" 
d="M1207 536l-125 -34q3 -19 5 -40.5t2 -45.5q0 -36 -5 -71t-15 -70l100 -46l-51 -88l-79 56q-38 -81 -98 -137t-142 -89l28 -119l-92 -23l-18 117q-30 -5 -52.5 -7.5t-38.5 -2.5q-60 0 -117.5 15t-110.5 47l-74 -115l-79 46l84 120q-40 33 -70.5 74t-51.5 89l-125 -39
l-18 85l114 25q-9 37 -13 71t-4 62q0 31 3.5 60.5t11.5 56.5l-112 36l23 86l115 -48q24 61 62.5 111t90.5 88l-67 105l77 53l66 -112q46 22 94.5 33t100.5 11t98.5 -10.5t89.5 -30.5l53 95l78 -44l-54 -97q59 -43 101 -99t70 -126l122 54zM809 416q0 63 -12 116t-39 97
q-32 53 -76 79.5t-103 26.5q-57 0 -102 -26.5t-76 -80.5q-26 -44 -38.5 -97.5t-12.5 -114.5q0 -65 12.5 -118.5t37.5 -96.5q31 -54 76 -80t103 -26q60 0 105 26t75 80q24 43 37 96.5t13 118.5zM992 1340l-362 -296l-80 79l274 401z" />
    <glyph glyph-name="ograve" unicode="&#xf2;" horiz-adv-x="1271" 
d="M1207 536l-125 -34q3 -19 5 -40.5t2 -45.5q0 -36 -5 -71t-15 -70l100 -46l-51 -88l-79 56q-38 -81 -98 -137t-142 -89l28 -119l-92 -23l-18 117q-30 -5 -52.5 -7.5t-38.5 -2.5q-60 0 -117.5 15t-110.5 47l-74 -115l-79 46l84 120q-40 33 -70.5 74t-51.5 89l-125 -39
l-18 85l114 25q-9 37 -13 71t-4 62q0 31 3.5 60.5t11.5 56.5l-112 36l23 86l115 -48q24 61 62.5 111t90.5 88l-67 105l77 53l66 -112q46 22 94.5 33t100.5 11t98.5 -10.5t89.5 -30.5l53 95l78 -44l-54 -97q59 -43 101 -99t70 -126l122 54zM809 416q0 63 -12 116t-39 97
q-32 53 -76 79.5t-103 26.5q-57 0 -102 -26.5t-76 -80.5q-26 -44 -38.5 -97.5t-12.5 -114.5q0 -65 12.5 -118.5t37.5 -96.5q31 -54 76 -80t103 -26q60 0 105 26t75 80q24 43 37 96.5t13 118.5zM740 1120l-79 -78l-363 295l170 184z" />
    <glyph glyph-name="ocircumflex" unicode="&#xf4;" horiz-adv-x="1271" 
d="M1207 536l-125 -34q3 -19 5 -40.5t2 -45.5q0 -36 -5 -71t-15 -70l100 -46l-51 -88l-79 56q-38 -81 -98 -137t-142 -89l28 -119l-92 -23l-18 117q-30 -5 -52.5 -7.5t-38.5 -2.5q-60 0 -117.5 15t-110.5 47l-74 -115l-79 46l84 120q-40 33 -70.5 74t-51.5 89l-125 -39
l-18 85l114 25q-9 37 -13 71t-4 62q0 31 3.5 60.5t11.5 56.5l-112 36l23 86l115 -48q24 61 62.5 111t90.5 88l-67 105l77 53l66 -112q46 22 94.5 33t100.5 11t98.5 -10.5t89.5 -30.5l53 95l78 -44l-54 -97q59 -43 101 -99t70 -126l122 54zM809 416q0 63 -12 116t-39 97
q-32 53 -76 79.5t-103 26.5q-57 0 -102 -26.5t-76 -80.5q-26 -44 -38.5 -97.5t-12.5 -114.5q0 -65 12.5 -118.5t37.5 -96.5q31 -54 76 -80t103 -26q60 0 105 26t75 80q24 43 37 96.5t13 118.5zM999 1149l-96 -97l-302 239l-219 -249l-177 119l384 286z" />
    <glyph glyph-name="odieresis" unicode="&#xf6;" horiz-adv-x="1271" 
d="M1207 536l-125 -34q3 -19 5 -40.5t2 -45.5q0 -36 -5 -71t-15 -70l100 -46l-51 -88l-79 56q-38 -81 -98 -137t-142 -89l28 -119l-92 -23l-18 117q-30 -5 -52.5 -7.5t-38.5 -2.5q-60 0 -117.5 15t-110.5 47l-74 -115l-79 46l84 120q-40 33 -70.5 74t-51.5 89l-125 -39
l-18 85l114 25q-9 37 -13 71t-4 62q0 31 3.5 60.5t11.5 56.5l-112 36l23 86l115 -48q24 61 62.5 111t90.5 88l-67 105l77 53l66 -112q46 22 94.5 33t100.5 11t98.5 -10.5t89.5 -30.5l53 95l78 -44l-54 -97q59 -43 101 -99t70 -126l122 54zM809 416q0 63 -12 116t-39 97
q-32 53 -76 79.5t-103 26.5q-57 0 -102 -26.5t-76 -80.5q-26 -44 -38.5 -97.5t-12.5 -114.5q0 -65 12.5 -118.5t37.5 -96.5q31 -54 76 -80t103 -26q60 0 105 26t75 80q24 43 37 96.5t13 118.5zM1047 1237q0 -58 -43 -101t-102 -43q-61 0 -104.5 42.5t-43.5 101.5
q0 60 43.5 103t104.5 43q59 0 102 -43t43 -103zM496 1237q0 -59 -44 -101.5t-104 -42.5q-59 0 -102.5 43t-43.5 101q0 60 43.5 103t102.5 43q60 0 104 -43t44 -103z" />
    <glyph glyph-name="otilde" unicode="&#xf5;" horiz-adv-x="1271" 
d="M1207 536l-125 -34q3 -19 5 -40.5t2 -45.5q0 -36 -5 -71t-15 -70l100 -46l-51 -88l-79 56q-38 -81 -98 -137t-142 -89l28 -119l-92 -23l-18 117q-30 -5 -52.5 -7.5t-38.5 -2.5q-60 0 -117.5 15t-110.5 47l-74 -115l-79 46l84 120q-40 33 -70.5 74t-51.5 89l-125 -39
l-18 85l114 25q-9 37 -13 71t-4 62q0 31 3.5 60.5t11.5 56.5l-112 36l23 86l115 -48q24 61 62.5 111t90.5 88l-67 105l77 53l66 -112q46 22 94.5 33t100.5 11t98.5 -10.5t89.5 -30.5l53 95l78 -44l-54 -97q59 -43 101 -99t70 -126l122 54zM809 416q0 63 -12 116t-39 97
q-32 53 -76 79.5t-103 26.5q-57 0 -102 -26.5t-76 -80.5q-26 -44 -38.5 -97.5t-12.5 -114.5q0 -65 12.5 -118.5t37.5 -96.5q31 -54 76 -80t103 -26q60 0 105 26t75 80q24 43 37 96.5t13 118.5zM1049 1347q0 -60 -12.5 -111t-36.5 -92q-30 -51 -73 -76.5t-99 -25.5
q-101 0 -174 104.5t-114 104.5q-40 0 -69.5 -15.5t-49.5 -45.5q-9 -14 -20.5 -47.5t-26.5 -85.5l-172 81q51 153 124 229.5t168 76.5q48 0 88.5 -11.5t74.5 -34.5q16 -11 37 -33t48 -53q20 -23 36.5 -34.5t31.5 -11.5q30 0 44.5 15.5t14.5 46.5q0 15 -3 35t-10 45l186 31
q4 -23 5.5 -46.5t1.5 -45.5z" />
    <glyph glyph-name="uacute" unicode="&#xfa;" horiz-adv-x="1288" 
d="M760 791q-56 -116 -94.5 -234t-58.5 -238l-81 34q40 139 91 260t113 222zM1123 -64l-332 44l28 234q-75 -111 -161 -166t-183 -55q-120 0 -197 89t-112 268l79 20l-5 71l-87 -25l-17 92l88 25l-5 66l-97 -22l-20 100l102 22l-10 69l-104 -20l-14 77l381 66l-7.5 -374
t-2.5 -133q0 -119 30 -177.5t90 -58.5q64 0 133 62t142 185l54 467l183 10zM950 1340l-362 -296l-80 79l274 401z" />
    <glyph glyph-name="ugrave" unicode="&#xf9;" horiz-adv-x="1288" 
d="M760 791q-56 -116 -94.5 -234t-58.5 -238l-81 34q40 139 91 260t113 222zM1123 -64l-332 44l28 234q-75 -111 -161 -166t-183 -55q-120 0 -197 89t-112 268l79 20l-5 71l-87 -25l-17 92l88 25l-5 66l-97 -22l-20 100l102 22l-10 69l-104 -20l-14 77l381 66l-7.5 -374
t-2.5 -133q0 -119 30 -177.5t90 -58.5q64 0 133 62t142 185l54 467l183 10zM758 1120l-79 -78l-363 295l170 184z" />
    <glyph glyph-name="ucircumflex" unicode="&#xfb;" horiz-adv-x="1288" 
d="M760 791q-56 -116 -94.5 -234t-58.5 -238l-81 34q40 139 91 260t113 222zM1123 -64l-332 44l28 234q-75 -111 -161 -166t-183 -55q-120 0 -197 89t-112 268l79 20l-5 71l-87 -25l-17 92l88 25l-5 66l-97 -22l-20 100l102 22l-10 69l-104 -20l-14 77l381 66l-7.5 -374
t-2.5 -133q0 -119 30 -177.5t90 -58.5q64 0 133 62t142 185l54 467l183 10zM1020 1149l-96 -97l-302 239l-219 -249l-177 119l384 286z" />
    <glyph glyph-name="udieresis" unicode="&#xfc;" horiz-adv-x="1288" 
d="M760 791q-56 -116 -94.5 -234t-58.5 -238l-81 34q40 139 91 260t113 222zM1123 -64l-332 44l28 234q-75 -111 -161 -166t-183 -55q-120 0 -197 89t-112 268l79 20l-5 71l-87 -25l-17 92l88 25l-5 66l-97 -22l-20 100l102 22l-10 69l-104 -20l-14 77l381 66l-7.5 -374
t-2.5 -133q0 -119 30 -177.5t90 -58.5q64 0 133 62t142 185l54 467l183 10zM1038 1237q0 -58 -43 -101t-102 -43q-61 0 -104.5 42.5t-43.5 101.5q0 60 43.5 103t104.5 43q59 0 102 -43t43 -103zM487 1237q0 -59 -44 -101.5t-104 -42.5q-59 0 -102.5 43t-43.5 101
q0 60 43.5 103t102.5 43q60 0 104 -43t44 -103z" />
    <glyph glyph-name="dagger" unicode="&#x2020;" horiz-adv-x="1470" 
d="M1412 816q0 -66 -15.5 -122.5t-45.5 -104.5q-35 -56 -83.5 -84t-111.5 -28q-47 0 -85.5 11.5t-67.5 36.5q-31 26 -47 62t-16 82q0 72 45.5 121.5t117.5 49.5q22 0 33.5 -12.5t11.5 -36.5q0 -20 -9 -29t-26 -9q-26 0 -40 -22t-14 -64q0 -40 24.5 -60t72.5 -20
q66 0 99 37.5t33 113.5q0 107 -47 160.5t-143 53.5q-55 0 -121.5 -42.5t-146.5 -125.5q6 -136 13.5 -248t16.5 -201q17 -168 38.5 -273.5t46.5 -148.5l-190 -627q-26 112 -69 268.5t-104 358.5q20 56 37.5 226.5t33.5 454.5q-65 -58 -126 -87.5t-118 -29.5q-90 0 -159 31.5
t-117 93.5q-43 56 -63.5 130.5t-20.5 168.5q0 68 16.5 128t49.5 111q38 59 90 89t116 30q119 0 190 -68t71 -185q0 -49 -13 -89.5t-37 -75.5q-27 -40 -64 -59t-83 -19q-67 0 -101 53.5t-34 160.5q0 27 11.5 41.5t32.5 14.5q32 0 38 -77.5t53 -77.5q41 0 61.5 30t20.5 90
q0 66 -33.5 99t-102.5 33q-79 0 -119.5 -52t-40.5 -157q0 -131 49.5 -196t149.5 -65q47 0 92 27t89 82l61.5 94l61.5 94q4 69 8.5 171.5t9.5 239.5q-63 19 -94 62.5t-31 110.5q0 76 53.5 130t129.5 54t130.5 -54t54.5 -130q0 -64 -30.5 -108t-93.5 -65q0 -20 1.5 -79.5
t3.5 -158.5q54 43 114.5 64t128.5 21q84 0 149.5 -30t113.5 -88q45 -55 67.5 -125.5t22.5 -155.5z" />
    <glyph glyph-name="degree" unicode="&#xb0;" horiz-adv-x="1271" 
d="M1207 1352l-125 -32q3 -20 5 -42t2 -46q0 -36 -5 -71t-15 -68l100 -46l-51 -90l-79 56q-38 -81 -98 -137t-142 -87l28 -120l-92 -24l-18 118q-30 -5 -52.5 -7.5t-38.5 -2.5q-60 0 -117.5 15t-110.5 46l-74 -115l-79 46l84 120q-40 33 -70.5 74.5t-51.5 88.5l-125 -37
l-18 83l114 26q-9 38 -13 71t-4 61q0 32 3.5 61t11.5 57l-112 36l23 87l115 -49q24 60 62.5 110t90.5 90l-67 103l77 55l66 -113q46 21 94.5 32t100.5 11t98.5 -10.5t89.5 -30.5l53 95l78 -44l-54 -96q59 -42 101 -99t70 -126l122 53zM993 1227q0 150 -105 255.5t-255 105.5
t-255 -105.5t-105 -255.5q0 -149 105 -254.5t255 -105.5t255 105.5t105 254.5z" />
    <glyph glyph-name="cent" unicode="&#xa2;" horiz-adv-x="1322" 
d="M1169 508q-85 -69 -169 -111.5t-168 -57.5l20 -234l-153 -10l-7 234l-76 5l-70 -383h-142l76 412q-155 52 -241 179t-86 293q0 177 97.5 313.5t265.5 196.5l-24 240l139 8l12 -217l82 7l43 358l143 -29l-56 -339q112 -20 168 -69.5t56 -129.5q0 -53 -35.5 -100.5
t-106.5 -91.5l-77 54q17 19 26 40.5t9 43.5q0 53 -36.5 79t-108.5 26q-60 0 -113 -35t-100 -103q-44 -63 -65 -126.5t-21 -125.5q0 -82 30 -147t90 -114q56 -46 125 -69t151 -23q55 0 123 26.5t150 78.5zM847 837q0 -52 -36.5 -88.5t-87.5 -36.5q-53 0 -89.5 36.5
t-36.5 88.5q0 51 36.5 88t89.5 37q51 0 87.5 -37t36.5 -88z" />
    <glyph glyph-name="sterling" unicode="&#xa3;" horiz-adv-x="1373" 
d="M1207 1442q0 -50 -24 -93t-74 -79q-46 -33 -93.5 -50.5t-99.5 -17.5q-8 0 -15.5 1l-14.5 2l-11 61q84 5 126.5 35.5t42.5 86.5q0 76 -36.5 114.5t-111.5 38.5q-107 0 -188.5 -145.5t-138.5 -436.5l252 39l21 -117l-291 -29l-10 -66h380l-15 -131l-375 27
q-10 -99 -15.5 -198t-5.5 -197q0 -39 1 -75l2 -71q187 -8 285.5 -11t108.5 -3q48 0 80 3.5t50 9.5q32 11 47.5 34.5t15.5 59.5q0 23 -7.5 50.5t-23.5 59.5l82 29q27 -37 39 -80.5t12 -95.5q0 -59 -23.5 -102t-71.5 -70q-37 -21 -90 -32.5t-122 -14.5q-54 -2 -107 -1.5
t-106 -1.5l-580 -19l34 195l124 -10l10 76l-122 7l18 110l128 -8l15 83l-131 7l21 105l137 -13l17 81l-139 10l36 210q27 160 78.5 304t128.5 271q100 165 217 248t252 83q123 0 202 -75t79 -198z" />
    <glyph glyph-name="section" unicode="&#xa7;" horiz-adv-x="1225" 
d="M1140 1383q0 -157 -95 -252t-251 -95q-65 0 -120.5 15.5t-101.5 48.5q-51 36 -76.5 86t-25.5 112q0 52 19 92.5t58 68.5q35 25 78.5 38t97.5 13q33 0 63 -8t53 -25q27 -20 40.5 -45.5t13.5 -58.5q0 -48 -36.5 -80t-86.5 -32q-32 0 -54 11t-34 35q8 -2 17 -3t16 -1
q35 0 52 12.5t17 39.5q0 26 -18 39.5t-54 13.5q-24 0 -46 -6.5t-38 -19.5q-19 -15 -29 -34.5t-10 -42.5q0 -74 48 -110t144 -36q94 0 152 64.5t58 159.5q0 57 -26.5 102t-78.5 78q-43 28 -95.5 41t-113.5 13q-74 0 -135 -18t-108 -55q-51 -40 -77 -96t-26 -128
q0 -73 48 -141.5t144 -133.5l179 -121l178 -120q96 -85 144 -186.5t48 -219.5q0 -111 -39.5 -198.5t-119.5 -150.5q-74 -58 -166.5 -89t-205.5 -31q-89 0 -163.5 16t-137.5 49q-77 41 -116 101.5t-39 141.5q0 123 66.5 198.5t187.5 75.5q49 0 89 -14t73 -40q36 -28 53.5 -66
t17.5 -84q0 -86 -41 -128.5t-125 -42.5q-45 0 -78.5 25.5t-33.5 67.5q0 38 17.5 57t52.5 19q4 0 9 -0.5t10 -0.5q-12 -9 -18 -19t-6 -20q0 -20 12 -29t35 -9q26 0 38.5 16.5t12.5 50.5q0 23 -10.5 41.5t-32.5 33.5q-18 12 -40.5 18t-47.5 6q-69 0 -104 -39.5t-35 -116.5
q0 -45 21 -80t62 -60q34 -21 76 -31t90 -10q61 0 112 21t91 64q39 42 58.5 93t19.5 114q0 66 -40.5 140.5t-123.5 156.5l-150.5 144l-152.5 143q-81 87 -122 171.5t-41 165.5q0 120 42 212t125 154q75 56 174.5 83.5t224.5 27.5q92 0 173.5 -21.5t150.5 -65.5
q82 -52 122.5 -121t40.5 -155zM847 770l-377 241l-92 -103l316 -326zM720 750l-46 -46l-128 163z" />
    <glyph glyph-name="bullet" unicode="&#x2022;" horiz-adv-x="1191" 
d="M937 857q0 -142 -100.5 -241.5t-242.5 -99.5t-240.5 99.5t-98.5 241.5t99.5 241t239.5 99q142 0 242.5 -99t100.5 -241z" />
    <glyph glyph-name="paragraph" unicode="&#xb6;" horiz-adv-x="1412" 
d="M1205 1736l-46 -1748l-287 -78l11 119l159 30v79l-151 -26l7 92l144 18l-6 82l-128 -10l8 86l117 13v82l-110 -3l32 332q-38 -28 -74 -45.5t-70 -25.5l-81 -840l-207 41l66 786q-68 9 -129.5 35t-118.5 70l-119 -131l-76 64l134 125q-32 37 -55 75t-38 78l-118 -45
l-30 98l122 41q-3 23 -4 41.5t-1 33.5q0 45 8 87.5t23 80.5l-138 71l43 95l140 -74q36 55 84 98.5t108 75.5l-54 122l81 36l51 -126q35 12 75 19t83 7q33 0 64.5 -3.5t61.5 -11.5l46 125l94 -31l-56 -122q46 -20 85 -47t73 -61l19 171zM991 1156q0 131 -92 225t-222 94
q-131 0 -221.5 -94t-90.5 -225q0 -130 91 -224.5t221 -94.5q129 0 221.5 95t92.5 224z" />
    <glyph glyph-name="germandbls" unicode="&#xdf;" horiz-adv-x="1414" 
d="M1325 516q0 -112 -28 -205.5t-82 -167.5q-61 -83 -146.5 -124t-193.5 -41q-55 0 -100.5 14t-84.5 42q-41 30 -62 72t-21 96q0 27 7.5 51t22.5 44q16 22 38 33t48 11q16 0 33.5 -4t34.5 -13q-43 -11 -65 -35.5t-22 -61.5q0 -45 27.5 -67t82.5 -22q117 0 175 100.5
t58 302.5q0 56 -13 107t-40 98q-31 55 -72 83t-92 28q-32 0 -66.5 -10.5t-71.5 -30.5l-54 143q181 44 270.5 142.5t89.5 253.5q0 118 -50.5 178t-151.5 60q-134 0 -209 -138.5t-90 -415.5l-58 -1090l-388 85l20 91l138 -25l13 87l-130 20l18 73l127 -22l18 86l-128 16l21 84
l127 -23l15 74l-124 23l194 809q20 85 58 155t92 125q61 62 132.5 93t153.5 31q175 0 282.5 -101.5t107.5 -274.5q0 -121 -56 -209.5t-168 -144.5q90 -17 158.5 -60t115.5 -111q45 -65 67 -143t22 -171zM835 579q0 -51 -37 -87.5t-89 -36.5q-51 0 -88 36.5t-37 87.5
q0 50 37.5 86.5t87.5 36.5q51 0 88.5 -36.5t37.5 -86.5z" />
    <glyph glyph-name="registered" unicode="&#xae;" horiz-adv-x="2154" 
d="M1916 321q-43 -93 -101 -139t-132 -46q-81 0 -166.5 55.5t-176.5 166.5l-215 263l-132 -42l-19 -309l-211 -30l-49 1270l102 3l9.5 -83t6.5 -69q14 0 46.5 2.5t83.5 7.5l7 124l95 -7l-15 -120q84 -4 158 -24t141 -57q83 -46 124 -106.5t41 -135.5q0 -78 -47.5 -158.5
t-143.5 -163.5l207 -309q44 -66 94.5 -99t106.5 -33q38 0 71 13.5t59 40.5zM2039 791q0 -67 -9 -133.5t-26 -131.5l-88 15v62v188q0 340 -252.5 586.5t-594.5 246.5q-344 0 -588 -244.5t-244 -588.5t244 -588t588 -244q105 0 201 23.5t184 71.5l62 -125q-104 -54 -216 -80.5
t-231 -26.5q-401 0 -685 283.5t-284 685.5t284 686t685 284q403 0 686.5 -284t283.5 -686zM604 779q0 -49 -33.5 -82.5t-80.5 -33.5q-48 0 -81.5 33.5t-33.5 82.5q0 47 33.5 80.5t81.5 33.5q47 0 80.5 -33.5t33.5 -80.5zM937 1251l-97 5l20 -445zM1310 860l-9 314
q-79 32 -146 52.5t-122 29.5l-37 -557q98 26 176.5 66t137.5 95z" />
    <glyph glyph-name="copyright" unicode="&#xa9;" horiz-adv-x="2154" 
d="M2039 791q0 -402 -283.5 -685.5t-686.5 -283.5q-401 0 -685 283.5t-284 685.5t284 686t685 284q70 0 139.5 -10.5t141.5 -30.5l21 58l73 -20l-22 -63q93 -38 175.5 -91.5t153.5 -123.5l109 79l39 -59l-100 -71q120 -137 180 -296.5t60 -341.5zM1301 1590q-60 16 -118 25
t-114 9q-25 0 -44 -1.5l-32 -2.5l43 -262q22 5 47 7.5t52 2.5q23 0 43.5 -2.5t38.5 -7.5zM967 1332l-56 275q-79 -16 -149 -43.5t-131 -65.5l206 -242q27 24 59 42.5t71 33.5zM1639 1398q-58 54 -124 95.5t-139 70.5l-88 -237q29 -16 54.5 -43t48.5 -64zM1902 791
q0 160 -54 299.5t-161 259.5l-265 -186l25 -64q36 -10 54 -33.5t18 -60.5q0 -40 -30 -70t-70 -30t-69.5 30t-29.5 70q0 25 10.5 44.5t30.5 33.5q-46 69 -109 103.5t-142 34.5q-73 0 -135.5 -31t-112.5 -93q-47 -58 -69.5 -125t-22.5 -143q0 -84 22 -152t64 -123
q47 -62 111 -91.5t143 -29.5q107 0 179 64t72 171l66 28q13 -27 21.5 -51.5t10.5 -48.5l-71 -5v-56l80 5q0 -31 -7 -63.5t-22 -66.5l-41 20l-25 -51l41 -17q-20 -37 -48.5 -66.5t-67.5 -53.5l-12 22l-59 -33l10 -20q-52 -23 -95.5 -29t-77.5 4l-12 -82l-83 17l17 72
q-30 7 -59 17t-57 23l-49 -88l-71 46l54 78q-31 23 -59 53t-53 67l-136 -83l-43 66l140 82q-25 51 -38 112t-16 132l-224 -51l-17 69l244 51q4 61 14 112t24 92l-267 153l43 61l256 -150q25 48 51.5 88.5t55.5 72.5l-223 250q-160 -125 -239.5 -289t-79.5 -367
q0 -344 244 -588t588 -244t588.5 244t244.5 588z" />
    <glyph glyph-name="trademark" unicode="&#x2122;" horiz-adv-x="2036" 
d="M1125 1736l-32 -158q-40 6 -78 9.5t-74 3.5q-61 0 -121 -11t-118 -34l58 -658l-365 44l100 589q-46 -5 -87.5 -7t-77.5 -2q-82 0 -142 13t-96 40q-41 31 -60.5 86.5t-19.5 134.5v31l67 23q4 -100 51.5 -150t137.5 -50q110 0 337 63.5t347 63.5q50 0 93 -8t80 -23z
M1983 694l-298 -34l25 721l-319 -618l-212 304q-50 -196 -133 -332.5t-199 -213.5l-53 105q84 63 142 177t92 279l131 640l295 -553l251 533l178 -5zM669 1278q0 35 -18 53.5t-54 18.5q-35 0 -53 -18.5t-18 -53.5q0 -36 18 -53.5t53 -17.5q36 0 54 17.5t18 53.5zM1388 1036
l-153 245l-30 -87l153 -215z" />
    <glyph glyph-name="acute" unicode="&#xb4;" horiz-adv-x="697" 
d="M569 1340l-362 -296l-80 79l274 401z" />
    <glyph glyph-name="dieresis" unicode="&#xa8;" horiz-adv-x="1100" 
d="M972 1237q0 -58 -43 -101t-102 -43q-61 0 -104.5 42.5t-43.5 101.5q0 60 43.5 103t104.5 43q59 0 102 -43t43 -103zM421 1237q0 -59 -44 -101.5t-104 -42.5q-59 0 -102.5 43t-43.5 101q0 60 43.5 103t102.5 43q60 0 104 -43t44 -103z" />
    <glyph glyph-name="notequal" unicode="&#x2260;" horiz-adv-x="1006" 
d="M937 945l-14 -180l-380 56l-27 -144l400 -61l12 -180l-448 66l-34 -168h-81l36 179l-340 51l13 179l362 -56l31 148l-385 58l-13 179l431 -64l38 192h83l-42 -204z" />
    <glyph glyph-name="AE" unicode="&#xc6;" horiz-adv-x="2090" 
d="M1710 1393l-3 -265l-237 31l59 171zM2052 1424l-155 -69q-33 147 -132.5 221t-266.5 74q-36 0 -76 -3t-85 -8l-15 -723l485 82l-44 -296l-443 -8l-13 -620l393 33l94 217l230 26l22 -355l-962 -59l-30 756l-362 -5l-312 -860l-380 242l85 153l127 -79l38 86l-123 73
l49 88l123 -69l35 77l-117 69l51 86l120 -61l41 72l-115 72l609 1110l395 16.5t155 5.5q232 0 377 -86t202 -258zM940 406q-78 -116 -134.5 -241.5t-91.5 -261.5l-88 46q58 149 129 276.5t153 231.5zM1047 870l-31 708l-273 -759z" />
    <glyph glyph-name="Oslash" unicode="&#xd8;" horiz-adv-x="1575" 
d="M1470 855q0 -158 -44.5 -297t-135.5 -260q-99 -132 -224.5 -198t-279.5 -66q-41 0 -82 5.5t-81 16.5l-112 -260l-340 192l141 275q-105 118 -157.5 266.5t-52.5 325.5q0 157 44 294t132 253q97 127 221.5 190.5t276.5 63.5q63 0 124 -12.5t121 -36.5l117 217l212 -114
l-128 -240q125 -118 186.5 -272t61.5 -343zM1255 761v26.5t-1 28.5l-154 -12l-21 79l163 25q-15 68 -39.5 125t-58.5 105l-131 -159l-61 47l117 194q-57 50 -127.5 74t-155.5 23l61 -240l-71 -25l-84 244q-76 -27 -138 -79.5t-110 -129.5l160 -181l-58 -69l-153 159
q-32 -81 -47 -151t-13 -128l1 -38l177 -12v-88l-170 10q8 -47 25 -97t43 -102l134 123l59 -51l-142 -148q42 -55 94 -91t113 -55l22 197l71 -10l-5 -202h11q64 0 124.5 19.5t117.5 61.5l-115 223l69 40l117 -198q36 36 64 79.5t48 93.5l-163 144l41 44l158 -91q14 48 21 96
t7 96zM916 753q0 -50 -37.5 -87.5t-87.5 -37.5q-51 0 -87.5 37t-36.5 88t36.5 88t87.5 37q50 0 87.5 -38t37.5 -87z" />
    <glyph glyph-name="infinity" unicode="&#x221e;" horiz-adv-x="1578" 
d="M1521 723q0 -91 -28.5 -169t-85.5 -145q-60 -71 -134 -106t-163 -35q-94 0 -172 39t-139 119q-70 -97 -155.5 -145.5t-186.5 -48.5q-88 0 -162 35t-135 106q-57 66 -85.5 144.5t-28.5 169.5q0 89 28 168.5t86 145.5q61 69 135 104t162 35q89 0 170 -37.5t154 -111.5
q61 92 143.5 138.5t185.5 46.5q89 0 163 -35.5t134 -104.5q58 -67 86 -145.5t28 -167.5zM726 699q0 27 -6 53t-18 49l-366 120q-66 -71 -98.5 -150t-29.5 -168l1 -26l441 -61q39 30 57.5 76t18.5 107zM1353 805l-1 27l-436 61q-38 -31 -56.5 -77t-18.5 -106q0 -28 6.5 -53.5
t17.5 -49.5l360 -120q67 71 99 150.5t29 167.5z" />
    <glyph glyph-name="plusminus" unicode="&#xb1;" horiz-adv-x="1006" 
d="M913 758h-365v-113h263v-81h-263v-148h-81v148h-278v81h278v113h-365l13 192h352v331h81v-331h353zM564 860q0 28 -14 43t-44 15t-45 -15t-15 -43q0 -30 15 -44.5t45 -14.5t44 14.5t14 44.5z" />
    <glyph glyph-name="lessequal" unicode="&#x2264;" horiz-adv-x="1039" 
d="M932 1059l-386 -314l245 -199l-107 -125l-457 178l-137 180l86 51l61 -100l62 33l-62 104l72 44l66 -107l61 46l-58 100l73 43l49 -87l64 39l-48 86l303 186zM940 161l-792 -31l-28 204l806 31zM862 268q0 36 -18 54.5t-55 18.5q-38 0 -56.5 -18.5t-18.5 -54.5
t18.5 -53.5t56.5 -17.5q37 0 55 17.5t18 53.5z" />
    <glyph glyph-name="greaterequal" unicode="&#x2265;" horiz-adv-x="1039" 
d="M940 161l-792 -31l-28 204l138 5l-31 92l319 334l-429 322l107 130l580 -291v-317l-448 -265l570 21zM758 763q0 32 -23 55.5t-56 23.5q-32 0 -56 -23.5t-24 -55.5t24 -55.5t56 -23.5q33 0 56 23.5t23 55.5zM867 209l-15 93l-357 -17l26 -86z" />
    <glyph glyph-name="yen" unicode="&#xa5;" horiz-adv-x="1342" 
d="M1215 1629l-401 -674l284 43v-133l-333 -5l11 -71h403l-64 -168l-321 46l104 -708l-411 43l56 631l-306 -56l33 140l286 43l6 65l-9 10l-395 -75l-43 148l380 32l-135 229l54 41l-24 59l-61 -47l-41 64l77 51l-31 71l-81 -61l-36 67l97 66l-29 66l-104 -73l-49 83
l350 192l205 -798l397 755z" />
    <glyph glyph-name="mu" unicode="&#xb5;" horiz-adv-x="1288" 
d="M699 638l-183 -229l5 173l127 122zM1123 -64l-332 44l28 234q-75 -111 -161 -166t-183 -55q-21 0 -40.5 2.5t-36.5 6.5l-57 -267l-219 87l133 293q-31 47 -53.5 106t-35.5 129l79 20l-5 71l-87 -25l-17 92l88 25l-5 66l-97 -22l-20 100l102 22l-10 69l-104 -20l-14 77
l381 66l-7.5 -374t-2.5 -133q0 -119 30 -177.5t90 -58.5q64 0 133 62t142 185l54 467l183 10z" />
    <glyph glyph-name="mu" unicode="&#x3bc;" horiz-adv-x="1288" 
d="M699 638l-183 -229l5 173l127 122zM1123 -64l-332 44l28 234q-75 -111 -161 -166t-183 -55q-21 0 -40.5 2.5t-36.5 6.5l-57 -267l-219 87l133 293q-31 47 -53.5 106t-35.5 129l79 20l-5 71l-87 -25l-17 92l88 25l-5 66l-97 -22l-20 100l102 22l-10 69l-104 -20l-14 77
l381 66l-7.5 -374t-2.5 -133q0 -119 30 -177.5t90 -58.5q64 0 133 62t142 185l54 467l183 10z" />
    <glyph glyph-name="partialdiff" unicode="&#x2202;" horiz-adv-x="1276" 
d="M1217 623q0 -136 -36 -250t-109 -209q-79 -103 -184 -154t-238 -51q-122 0 -223.5 33.5t-181.5 100.5q-85 71 -128 167t-43 217q0 97 29.5 179.5t88.5 148.5q62 70 141 105t175 35q84 0 153 -26t124 -75q59 -53 87.5 -120t28.5 -150q0 -52 -14.5 -96t-44.5 -82
q-31 -40 -72 -59.5t-91 -19.5q-35 0 -65.5 9t-55.5 30q-27 22 -41.5 50t-14.5 61q0 56 26.5 91.5t78.5 50.5q-8 -10 -12 -21.5t-4 -25.5q0 -35 23 -61t58 -26q49 0 73.5 29t24.5 88q0 83 -55 132.5t-138 49.5q-59 0 -106 -23t-82 -69q-33 -44 -49 -94.5t-16 -110.5
q0 -167 98.5 -271t264.5 -104q77 0 140.5 32t114.5 97q47 59 70.5 128.5t23.5 148.5q0 157 -59.5 303.5t-178.5 281.5q-104 118 -236.5 209t-293.5 157l176 314q168 -86 305 -203.5t243 -267.5q113 -161 169 -330.5t56 -348.5z" />
    <glyph glyph-name="summation" unicode="&#x2211;" horiz-adv-x="1315" 
d="M1325 17l-1325 32l636 886q-7 20 -7.5 44.5t4.5 56.5l-388 386l-135 -5l61 329l1020 -120l-81 -174l-669 -23l284 -275q24 12 47 18.5t47 6.5q78 0 135 -57t57 -134q0 -78 -57 -135t-135 -57q-28 0 -52 7t-47 22l-337 -460l883 56zM551 219q0 34 -16.5 51.5t-49.5 17.5
t-49.5 -17.5t-16.5 -51.5q0 -35 16.5 -51.5t49.5 -16.5t49.5 16.5t16.5 51.5zM855 217q0 36 -25.5 61.5t-61.5 25.5q-35 0 -62 -25.5t-27 -61.5t27 -61.5t62 -25.5q36 0 61.5 25.5t25.5 61.5zM1135 212q0 33 -16 50.5t-50 17.5q-33 0 -50.5 -17.5t-17.5 -50.5
q0 -34 17.5 -50t50.5 -16q34 0 50 16t16 50z" />
    <glyph glyph-name="product" unicode="&#x220f;" horiz-adv-x="1412" 
d="M1403 1659l-22 -159q-50 9 -112.5 13.5t-137.5 4.5q-26 0 -54.5 -1t-58.5 -1l236 -1699l-341 47l-63 1636q-62 -8 -110 -17t-82 -18l90 -1460l-451 59l112 1409q-97 6 -168 23.5t-115 44.5q-59 37 -86.5 99.5t-27.5 151.5v25l67 23q4 -112 84.5 -167.5t235.5 -55.5
q131 0 389.5 39t389.5 39q69 0 126 -9.5t99 -26.5zM594 1031q0 36 -17.5 54t-53.5 18t-54 -18t-18 -54q0 -37 18 -54.5t54 -17.5t53.5 17.5t17.5 54.5zM613 733q0 37 -27.5 64.5t-64.5 27.5q-39 0 -65.5 -27.5t-26.5 -64.5q0 -39 26.5 -66t65.5 -27q37 0 64.5 27t27.5 66z
M589 419q0 35 -17 53t-54 18q-36 0 -54 -18t-18 -53q0 -36 18 -53.5t54 -17.5q37 0 54 17.5t17 53.5z" />
    <glyph glyph-name="pi" unicode="&#x3c0;" horiz-adv-x="1251" 
d="M1197 852l-16 -104l-199 -15l-15 -120l214 -6l-41 -142l-190 12l-75 -551l-115 -2l61 566l-341 10l56 -587l-237 -13l-19 595l-180 13l30 113l148 -3l-5 94l-191 -15l-43 155h229l-10 348l796 42l-53 -390h196zM893 1011h-464l5 -159l444 15zM862 735l-402 -10l10 -118
l387 11z" />
    <glyph glyph-name="integral" unicode="&#x222b;" horiz-adv-x="1807" 
d="M1761 1578q0 -65 -47 -112t-112 -47q-64 0 -111 47t-47 112q0 64 47 111t111 47q65 0 112 -47t47 -111zM1909 1782l-97 -51q-35 55 -90.5 82t-131.5 27q-101 0 -178.5 -140t-130.5 -419q-86 -452 -141 -712.5t-78 -325.5q-99 -280 -254 -420t-367 -140q-101 0 -184 24.5
t-146 76.5q-67 55 -101.5 132t-34.5 176q0 66 14.5 123t47.5 102q37 51 86.5 76.5t113.5 25.5q96 0 154 -56t58 -151q0 -52 -36.5 -95t-88.5 -43q-31 0 -55 13.5t-40 42.5q15 -5 27.5 -7t23.5 -2q35 0 52.5 22.5t17.5 68.5q0 41 -25 61.5t-76 20.5q-35 0 -64 -17.5
t-53 -50.5q-23 -31 -32.5 -64.5t-9.5 -69.5q0 -103 54.5 -155t164.5 -52q140 0 259 137.5t216 412.5l153.5 509l152.5 510q98 274 215 412t254 138q66 0 119 -14t93 -41q37 -25 71.5 -67t66.5 -100zM969 299q0 35 -17 53t-54 18q-34 0 -52.5 -18t-18.5 -53q0 -36 18.5 -54
t52.5 -18q37 0 54 18t17 54zM878 71q0 39 -28.5 65.5t-65.5 26.5q-39 0 -65.5 -26.5t-26.5 -65.5q0 -37 26.5 -64t65.5 -27q37 0 65.5 27t28.5 64zM687 -122q0 35 -17.5 53t-53.5 18q-37 0 -55 -18t-18 -53q0 -36 18 -54t55 -18q36 0 53.5 18t17.5 54z" />
    <glyph glyph-name="ordfeminine" unicode="&#xaa;" 
d="M1073 905l-1 -55q-155 -70 -306.5 -104t-299.5 -34q-82 0 -150 15.5t-122 46.5q-64 37 -96.5 95t-32.5 135q0 136 136.5 243.5t407.5 184.5q-22 65 -74.5 98t-133.5 33q-87 0 -158 -35.5t-126 -105.5l-53 51q84 129 208 194.5t289 65.5q134 0 235.5 -74.5t171.5 -222.5
q56 -118 82 -250.5t23 -280.5zM1028 411l-410 -41l-19 97l-61 -7l15 -100l-63 -12l-23 98l-58 -5l17 -105l-66 -10l-16 105l-69 -10l15 -107l-76 -12l-58 346l867 -59zM918 1254q0 34 -17.5 52.5t-53.5 18.5t-54.5 -18.5t-18.5 -52.5q0 -37 18.5 -55t54.5 -18t53.5 18
t17.5 55zM680 978q0 91 -8.5 180t-26.5 177q-94 -28 -169.5 -58.5t-131.5 -64.5l102 -413q80 0 138 9t93 29q2 37 2.5 71.5t0.5 69.5zM959 982q0 39 -26.5 65.5t-65.5 26.5q-38 0 -65.5 -26t-27.5 -66q0 -39 27.5 -65t65.5 -26q39 0 65.5 27t26.5 64z" />
    <glyph glyph-name="ordmasculine" unicode="&#xba;" 
d="M1207 1317l-125 -34q3 -19 5 -40.5t2 -45.5q0 -36 -5 -70.5t-15 -69.5l100 -46l-51 -90l-79 56q-38 -81 -98 -137t-142 -87l28 -120l-92 -24l-18 119q-30 -7 -52.5 -9t-38.5 -2q-60 0 -117.5 15.5t-110.5 46.5l-74 -116l-79 46l84 121q-40 34 -70.5 75t-51.5 88l-125 -38
l-18 84l114 25q-9 38 -13 71.5t-4 61.5q0 32 3.5 61t11.5 57l-112 35l23 87l115 -49q24 61 62.5 111t90.5 89l-67 104l77 54l66 -112q46 21 94.5 32t100.5 11t98.5 -10.5t89.5 -30.5l53 95l78 -44l-54 -97q59 -42 101 -98t70 -126l122 53zM1028 314l-814 -110l-58 347
l867 -59zM809 1197q0 63 -12.5 115.5t-38.5 96.5q-32 54 -76 80.5t-103 26.5q-57 0 -102 -26.5t-76 -80.5q-26 -44 -38.5 -97t-12.5 -115q0 -64 12.5 -117.5t37.5 -97.5q31 -54 76 -80.5t103 -26.5q60 0 105 26.5t75 80.5q24 43 37 97t13 118zM896 401q0 21 -10.5 32
t-33.5 11q-21 0 -32 -11t-11 -32q0 -22 11 -32.5t32 -10.5q23 0 33.5 10.5t10.5 32.5zM697 390q0 35 -17 52.5t-52 17.5q-34 0 -51.5 -17.5t-17.5 -52.5t17.5 -52t51.5 -17q35 0 52 17t17 52zM455 378q0 41 -30.5 71.5t-71.5 30.5q-43 0 -73 -30.5t-30 -71.5q0 -42 30 -72.5
t73 -30.5q41 0 71.5 30.5t30.5 72.5z" />
    <glyph glyph-name="Omega" unicode="&#x2126;" horiz-adv-x="1575" 
d="M1473 926q0 -64 -21 -135.5t-64 -150.5l-365 -4l49 97l155 -16q17 43 24 75.5t6 53.5l-1 42l-156 -13l-18 80l160 24q-13 66 -37 124t-59 107l-133 -158l-58 46l117 193q-59 51 -130 75.5t-153 21.5l61 -239l-71 -26l-85 245q-75 -28 -137 -80.5t-113 -128.5l163 -182
l-59 -69l-153 159q-31 -74 -46.5 -137.5t-13.5 -117.5l1 -36l177 -38l46 -93l-413 22q-21 82 -32.5 146.5t-11.5 112.5q0 157 44 294.5t133 253.5q97 126 222 189.5t278 63.5t279.5 -63t227.5 -189q94 -117 140.5 -254.5t46.5 -294.5zM628 556l-46 -61l-404 -46l-15 138
l414 5zM1368 582l-16 -127l-346 10l-5 107zM1317 260l-173 -265l-256 -5l-71 648q-1 5 -9.5 2.5t-17.5 -1.5l-111 -644l-399 5l-86 265l403 -15l151 399q-53 20 -79 58t-26 94q0 68 48.5 115.5t114.5 47.5q68 0 115.5 -47.5t47.5 -115.5q0 -56 -25.5 -94t-77.5 -58l145 -404
zM556 414l-40 -102l-317 -5l-10 71zM1342 398l-10 -72l-260 -24l-41 91z" />
    <glyph glyph-name="ae" unicode="&#xe6;" horiz-adv-x="1963" 
d="M1936 92q-108 -91 -217.5 -136.5t-220.5 -45.5q-64 0 -133 19t-145 57q-82 41 -132.5 90t-69.5 105l-20 -286l-143 10l-25 129q-60 -40 -125.5 -60t-137.5 -20q-197 0 -337 140t-140 337q0 198 139.5 340t337.5 142q55 0 109.5 -13.5t109.5 -39.5l-7 126l324 45l-16 -227
q82 76 170.5 114.5t181.5 38.5q140 0 234.5 -94.5t143.5 -283.5l-628 -109q12 -76 43 -145.5t83 -131.5q58 -70 122.5 -104.5t135.5 -34.5q73 0 147 29t148 88zM1531 623q-27 32 -48.5 53.5t-37.5 30.5q-21 12 -51 19t-67 7q-65 0 -122 -47t-107 -140zM878 358l-133 40
l15 69l115 -31q-8 65 -37 118t-80 94l-56 -86l-62 32l57 90q-24 10 -48.5 15t-49.5 5q-22 0 -45 -4.5t-48 -12.5l47 -115l-81 -36l-41 104q-56 -47 -84 -108.5t-28 -136.5l97 29l13 -69l-103 -34q12 -54 38.5 -99t69.5 -81l26 93l83 -22l-32 -115q21 -7 43 -11t45 -4
q30 0 59 7t56 21l-51 92l75 35l43 -79q41 39 65.5 89t31.5 111z" />
    <glyph glyph-name="oslash" unicode="&#xf8;" horiz-adv-x="1271" 
d="M1220 536l-122 -34q2 -25 3.5 -46.5t1.5 -39.5q0 -41 -5 -76.5t-16 -64.5l102 -46l-51 -88l-81 56q-39 -81 -99 -137t-142 -89l31 -119l-94 -23l-18 117q-40 -7 -77 -8.5t-71 3.5l-133 -289l-276 151l146 266q-34 33 -58.5 68.5t-41.5 74.5l-124 -39l-19 85l116 25
q-8 32 -12 66t-4 67q0 29 3.5 58t9.5 59l-113 36l24 86l114 -48q28 63 66.5 113t89.5 86l-66 105l76 53l66 -112q44 22 92.5 33t101.5 11q25 0 52.5 -3t57.5 -10l125 240l197 -102l-122 -251q39 -34 70.5 -80.5t53.5 -105.5l123 54zM857 416q0 63 -15.5 119.5t-46.5 107.5
q-36 60 -84 90t-107 30q-57 0 -103.5 -30t-84.5 -90q-32 -51 -46.5 -108.5t-14.5 -118.5q0 -62 15.5 -119.5t45.5 -108.5q36 -61 83 -91.5t105 -30.5q60 0 107.5 30t83.5 91q30 51 46 108.5t16 120.5zM733 411q0 -50 -37 -86.5t-87 -36.5t-87 36t-37 87t36.5 88t87.5 37
t87.5 -37.5t36.5 -87.5z" />
    <glyph glyph-name="questiondown" unicode="&#xbf;" horiz-adv-x="1179" 
d="M886 1583q0 -75 -53.5 -130t-128.5 -55t-129 54.5t-54 130.5t53.5 130.5t129.5 54.5t129 -55.5t53 -129.5zM1133 446l-107 -32q2 -10 3.5 -19.5t1.5 -19.5q0 -47 -19.5 -91t-59.5 -82l90 -77l-73 -91l-86 112q-48 -30 -103.5 -48.5t-116.5 -26.5l9 -115l-95 -10v123
q-61 2 -114 16.5t-98 41.5l-80 -102l-71 65l90 78q-52 48 -84.5 102.5t-46.5 117.5l-114 -33l-8 117l115 -2q0 56 17.5 107.5t50.5 99.5l-117 68l64 85l99 -95q25 25 64 50t92 50l-86 122l101 59l65 -149q21 8 41 13t37 8l32 363l150 32l89 -421q-96 -8 -177 -34.5
t-146 -72.5q-77 -55 -115.5 -126.5t-38.5 -161.5q0 -65 17 -116.5t52 -91.5q36 -42 86 -62.5t112 -20.5q42 0 78 10.5t67 29.5q36 22 54 53t18 70q0 57 -28 86.5t-84 29.5q-32 0 -61 -15.5t-54 -46.5l-48 38q20 30 45.5 54.5t56.5 42.5l-46 95l102 35l29 -99q10 3 23 5t29 2
q55 0 95.5 -19.5t66.5 -56.5l107 58zM801 1607q0 37 -23.5 65t-57.5 28q-35 0 -58.5 -29t-23.5 -64q0 -34 23.5 -62.5t58.5 -28.5q41 0 61 22.5t20 68.5z" />
    <glyph glyph-name="exclamdown" unicode="&#xa1;" horiz-adv-x="804" 
d="M594 1549q0 -76 -53.5 -131t-129.5 -55t-129 55t-53 131t53 130t129 54q75 0 129 -54t54 -130zM599 56l-395 -95l125 1254l153 20l74 -745l-94 -18v-66l100 23l7 -61l-102 -27l5 -63l102 26l8 -72l-110 -28l5 -58l110 27zM511 1526q0 35 -24.5 63t-57.5 28
q-34 0 -57.5 -28t-23.5 -63q0 -36 23 -64t58 -28t58.5 28t23.5 64z" />
    <glyph glyph-name="logicalnot" unicode="&#xac;" horiz-adv-x="1475" 
d="M1271 1047l-245 -623l-128 41l71 239l-709 36l-20 347zM806 945l-423 29l-15 -107l423 -20zM1103 872q0 39 -27 65.5t-65 26.5q-39 0 -66 -26.5t-27 -65.5q0 -37 27 -64t66 -27q38 0 65 27t27 64z" />
    <glyph glyph-name="radical" unicode="&#x221a;" horiz-adv-x="1975" 
d="M1924 1612l-244 -458l-129 51l-51 -107l117 -62l-51 -123l-122 56l-56 -117l128 -51l-67 -138l-117 57l-41 -102l117 -56l-295 -470l-256 193l-209 -219l-383 343l118 102l-98 107l-107 -107l-107 107l270 290l547 -535l695 1363zM579 406q0 34 -16.5 51.5t-51.5 17.5
t-52.5 -17.5t-17.5 -51.5q0 -35 17.5 -52.5t52.5 -17.5t51.5 17.5t16.5 52.5zM1200 378q0 41 -30.5 71.5t-71.5 30.5q-43 0 -72.5 -30.5t-29.5 -71.5q0 -42 29.5 -72.5t72.5 -30.5q41 0 71.5 30.5t30.5 72.5zM712 268q0 34 -17 51t-52 17q-34 0 -51.5 -17t-17.5 -51
q0 -35 17.5 -52t51.5 -17q35 0 52 17t17 52z" />
    <glyph glyph-name="florin" unicode="&#x192;" horiz-adv-x="1883" 
d="M1909 1782l-97 -51q-35 55 -90.5 82t-131.5 27q-132 0 -223.5 -163.5t-144.5 -490.5l353 24l8 -110l-376 -28q-5 -34 -8 -62t-5 -51l258 29l-8 -126l-265 -37q-3 0 -2.5 -13.5t-2.5 -37.5q-23 -213 -69 -388t-114 -312q-98 -196 -235.5 -293.5t-314.5 -97.5
q-101 0 -184 24.5t-146 76.5q-67 55 -101.5 132t-34.5 176q0 66 14.5 123t47.5 102q37 51 86.5 76.5t113.5 25.5q96 0 154 -56t58 -151q0 -52 -36.5 -95t-88.5 -43q-31 0 -55 13.5t-40 42.5q15 -5 27.5 -7t23.5 -2q35 0 52.5 22.5t17.5 68.5q0 41 -25 61.5t-76 20.5
q-35 0 -64 -17.5t-53 -50.5q-23 -31 -32.5 -64.5t-9.5 -69.5q0 -103 54.5 -155t164.5 -52q165 0 312.5 225.5t276.5 678.5l-331 -46l-24 150l397 42q6 10 13.5 39.5t15.5 79.5l-282 -21l27 118l287 20q46 179 88.5 309t81.5 208q79 157 175.5 236.5t212.5 79.5q66 0 119 -14
t93 -41q36 -24 71 -66.5t67 -100.5zM969 299q0 35 -17 53t-54 18q-34 0 -52.5 -18t-18.5 -53q0 -36 18.5 -54t52.5 -18q37 0 54 18t17 54zM878 71q0 39 -28.5 65.5t-65.5 26.5q-39 0 -65.5 -26.5t-26.5 -65.5q0 -37 26.5 -64t65.5 -27q37 0 65.5 27t28.5 64zM687 -122
q0 35 -17.5 53t-53.5 18q-37 0 -55 -18t-18 -53q0 -36 18 -54t55 -18q36 0 53.5 18t17.5 54z" />
    <glyph glyph-name="approxequal" unicode="&#x2248;" horiz-adv-x="1103" 
d="M1002 1136q0 -61 -14.5 -112t-42.5 -93q-33 -49 -78.5 -72.5t-103.5 -23.5q-43 0 -78.5 18t-65.5 54q-5 5 -25 38.5l-56 94.5q-22 37 -43 55t-44 18q-39 0 -70 -24.5t-55 -72.5q-6 -12 -19 -53.5l-34 -112.5l-183 82q52 152 130 228.5t181 76.5q53 0 97 -14t80 -43
q18 -15 41 -41.5t51 -66.5q22 -31 40 -45t33 -14q32 0 48 23t16 71q0 21 -3 44.5t-10 50.5l199 30q5 -25 7 -48.5t2 -47.5zM516 950q0 -37 -18 -54.5t-54 -17.5q-35 0 -53 17.5t-18 54.5q0 34 18 52.5t53 18.5q36 0 54 -18.5t18 -52.5zM1002 736q0 -61 -14.5 -112t-42.5 -93
q-33 -49 -78.5 -73t-103.5 -24q-99 0 -186 110.5t-126 110.5t-70 -16.5t-53 -50.5q-14 -21 -27.5 -56t-27.5 -83l-183 82q52 153 130 229.5t181 76.5q53 0 97 -15t80 -43q18 -14 41 -41.5t51 -67.5q20 -29 39 -43t34 -14q32 0 48 23t16 69q0 21 -3 45.5t-10 50.5l199 31
q5 -25 7 -48.5t2 -47.5z" />
    <glyph glyph-name="Delta" unicode="&#x2206;" horiz-adv-x="1629" 
d="M1578 51l-177 -41l-23 75l-952 -102l-41 -85l-385 265l753 1544l278 24zM1340 199l-405 1325l-458 -1392zM482 658l-36 46q-72 -120 -128 -253t-96 -280l92 -39q20 137 62.5 268.5t105.5 257.5zM1077 506q0 -70 -50 -120t-119 -50q-68 0 -118 50t-50 120q0 68 50 118
t118 50q69 0 119 -50t50 -118z" />
    <glyph glyph-name="guillemotleft" unicode="&#xab;" horiz-adv-x="1291" 
d="M702 158l-232 -204l-54 95l107 71l-36 38l-97 -58l-27 51l83 56l-30 41l-77 -54l-30 54l69 46l-34 50l-61 -45l-117 212l316 463l115 -78l-242 -394zM1125 158l-232 -204l-306 557l306 439l113 -83l-230 -365zM986 181q0 36 -18 54t-55 18q-35 0 -53 -18t-18 -54
t18 -53.5t53 -17.5q37 0 55 17.5t18 53.5z" />
    <glyph glyph-name="guillemotright" unicode="&#xbb;" horiz-adv-x="1291" 
d="M702 419l-304 -436l-115 78l230 365l-347 344l232 204zM1125 419l-319 -465l-114 80l245 392l-350 344l232 204l53 -93l-104 -72l36 -39l94 60l30 -51l-83 -56l27 -41l80 53l27 -53l-66 -46l32 -52l63 47zM446 748q0 35 -17.5 53t-53.5 18q-35 0 -53 -18t-18 -53
q0 -36 18 -53.5t53 -17.5q36 0 53.5 17.5t17.5 53.5z" />
    <glyph glyph-name="ellipsis" unicode="&#x2026;" horiz-adv-x="2552" 
d="M2292 146q0 -76 -53 -130.5t-128 -54.5t-128.5 55t-53.5 130t53 130t129 55t128.5 -54.5t52.5 -130.5zM1459 146q0 -76 -54 -130.5t-129 -54.5t-128 55t-53 130t53 130t128 55q76 0 129.5 -54.5t53.5 -130.5zM626 146q0 -76 -54.5 -130.5t-130.5 -54.5q-73 0 -127 55
t-54 130t53 130t128 55q76 0 130.5 -54.5t54.5 -130.5zM2174 171q0 36 -23.5 64t-58.5 28q-33 0 -57 -28.5t-24 -63.5t24 -63.5t57 -28.5q41 0 61.5 23t20.5 69zM1342 171q0 35 -23.5 63.5t-57.5 28.5q-35 0 -58.5 -28t-23.5 -64q0 -46 20.5 -69t61.5 -23q35 0 58 28.5
t23 63.5zM508 171q0 35 -24 63.5t-58 28.5q-35 0 -58.5 -28t-23.5 -64q0 -46 20.5 -69t61.5 -23q35 0 58.5 28.5t23.5 63.5z" />
    <glyph glyph-name="nonbreakingspace" unicode="&#xa0;" horiz-adv-x="510" 
 />
    <glyph glyph-name="Agrave" unicode="&#xc0;" horiz-adv-x="1629" 
d="M1578 51l-177 -41l-120 365l-717 10l-179 -487l-385 265l753 1544l278 24zM1123 852l-188 672l-258 -774zM1222 551l-58 174l-538 -133l-32 -81zM482 658l-36 46q-72 -120 -128 -253t-96 -280l92 -39q20 137 62.5 268.5t105.5 257.5zM1007 1865l-79 -78l-363 295l170 184
z" />
    <glyph glyph-name="Atilde" unicode="&#xc3;" horiz-adv-x="1629" 
d="M1578 51l-177 -41l-120 365l-717 10l-179 -487l-385 265l753 1544l278 24zM1123 852l-188 672l-258 -774zM1222 551l-58 174l-538 -133l-32 -81zM482 658l-36 46q-72 -120 -128 -253t-96 -280l92 -39q20 137 62.5 268.5t105.5 257.5zM1286 2079q0 -60 -12.5 -111
t-36.5 -92q-30 -51 -73 -76.5t-99 -25.5q-101 0 -174 104.5t-114 104.5q-40 0 -69.5 -15.5t-49.5 -45.5q-9 -14 -20.5 -47.5t-26.5 -85.5l-172 81q51 153 124 229.5t168 76.5q48 0 88.5 -11.5t74.5 -34.5q16 -11 37 -33t48 -53q20 -23 36.5 -34.5t31.5 -11.5q30 0 44.5 15.5
t14.5 46.5q0 15 -3 35t-10 45l186 31q4 -23 5.5 -46.5t1.5 -45.5z" />
    <glyph glyph-name="Otilde" unicode="&#xd5;" horiz-adv-x="1575" 
d="M1473 855q0 -158 -45 -297t-137 -260q-100 -132 -225.5 -198t-279.5 -66q-152 0 -277.5 66t-225.5 198q-91 120 -136 260t-45 297t44.5 294t132.5 253q97 127 222 190.5t278 63.5t279.5 -63.5t227.5 -189.5q93 -117 140 -254t47 -294zM1257 761v26.5t-1 28.5l-156 -12
l-18 79l160 25q-13 66 -37 123.5t-59 106.5l-133 -159l-58 47l117 194q-58 50 -128 74t-155 23l61 -240l-71 -25l-85 244q-75 -27 -137 -79.5t-113 -129.5l163 -181l-59 -69l-153 159q-32 -75 -47 -145t-13 -134l1 -38l177 -12v-88l-169 10q7 -49 23.5 -99t41.5 -100
l137 123l56 -51l-140 -148q43 -55 94.5 -91t112.5 -55l23 197l71 -10l-5 -202h11q63 0 123.5 19.5t118.5 61.5l-115 223l68 40l118 -198q37 41 65 84t47 89l-166 144l44 44l155 -91q15 42 22.5 90t7.5 102zM1198 2022q0 -60 -12.5 -111t-36.5 -92q-30 -51 -73 -76.5
t-99 -25.5q-101 0 -174 104.5t-114 104.5q-40 0 -69.5 -15.5t-49.5 -45.5q-9 -14 -20.5 -47.5t-26.5 -85.5l-172 81q51 153 124 229.5t168 76.5q48 0 88.5 -11.5t74.5 -34.5q16 -11 37 -33t48 -53q20 -23 36.5 -34.5t31.5 -11.5q30 0 44.5 15.5t14.5 46.5q0 15 -3 35t-10 45
l186 31q4 -23 5.5 -46.5t1.5 -45.5z" />
    <glyph glyph-name="OE" unicode="&#x152;" horiz-adv-x="2330" 
d="M2330 1817l-82 -327l-526 69l-66 -480l487 8l-27 -159l-477 9l-15 -110l372 -31l-18 -156l-376 29l-78 -590l419 -5l61 189l288 46l-28 -370l-968 17l11 327q-102 -138 -230.5 -207t-282.5 -69q-155 0 -282.5 69t-228.5 207q-90 123 -135.5 266t-45.5 303q0 161 45 305
t136 267q101 137 228.5 206.5t282.5 69.5q169 0 307 -82t244 -245l10 378zM1352 918q0 114 -34 213t-104 185q-74 91 -166 136.5t-203 45.5t-203 -45.5t-166 -136.5q-70 -86 -103.5 -185t-33.5 -213t34.5 -213.5t102.5 -184.5q74 -93 166 -138.5t203 -45.5q112 0 204 45.5
t166 138.5q68 85 102.5 184.5t34.5 213.5zM1057 1057l-100 -46q7 -20 7 -39t-7 -37l90 -42l-49 -63l-72 51q-10 -12 -22.5 -21.5t-28.5 -14.5l23 -95l-79 -15l-3 105q-26 4 -46.5 14.5t-36.5 28.5l-59 -64l-67 64l97 62q-2 7 -3.5 13t-1.5 11q0 10 2.5 23.5t7.5 28.5l-96 41
l27 68l103 -63q12 11 26 19t30 12l-10 102l81 5l-5 -107q18 -6 34.5 -15.5t28.5 -23.5l85 61z" />
    <glyph glyph-name="oe" unicode="&#x153;" horiz-adv-x="2004" 
d="M1978 -34l-74 -61l-59 88q-36 -23 -80 -40t-96 -27l23 -123l-90 -10l-19 117q-33 -2 -60.5 -3.5t-49.5 -1.5q-8 0 -19.5 1.5t-29.5 3.5l-23 -107l-89 34l33 89q-40 10 -81.5 28.5t-82.5 43.5l-71 -103l-71 51l76 98l-40 39.5t-31 36.5q-36 -40 -79.5 -70.5t-94.5 -51.5
l41 -83l-95 -42l-40 96q-22 -4 -45 -6t-47 -2q-52 0 -103 11t-101 33l-51 -132l-100 32l69 149q-48 36 -86 80t-67 98l-113 -51l-40 87l117 51q-11 37 -16.5 78.5t-5.5 84.5q0 30 2.5 57t7.5 50l-121 37l31 114l122 -43q30 68 73.5 122.5t101.5 93.5l-63 95l88 54l53 -103
q48 22 111.5 32.5t141.5 9.5l33 107l94 -15l-37 -111q71 -21 129.5 -60t104.5 -95q18 19 41 39.5t51 41.5l-72 105l75 59l76 -117q40 18 80 28t81 13l15 107l82 -16l-15 -91q52 -9 97 -29.5t81 -53.5l112 90l51 -85l-99 -71q27 -35 46.5 -76t30.5 -89l107 30l17 -89
l-112 -19q2 -7 2 -14.5v-15.5v-15t-2 -16l-530 -73q2 -222 83 -332.5t240 -110.5q84 0 157 35t135 106l74 -78q-7 -9 -20 -21.5t-34 -29.5zM1566 660q-16 50 -32.5 84t-33.5 54q-23 27 -57.5 40.5t-79.5 13.5q-67 0 -119.5 -63.5t-89.5 -189.5zM893 487q0 64 -15.5 121
t-45.5 111q-34 61 -81.5 92t-107.5 31q-57 0 -104 -31t-83 -93q-31 -53 -46 -110.5t-15 -120.5q0 -62 15.5 -119t45.5 -110q36 -64 83 -95t104 -31q60 0 107.5 31t83.5 94q30 52 44.5 109.5t14.5 120.5z" />
    <glyph glyph-name="endash" unicode="&#x2013;" horiz-adv-x="1312" 
d="M1156 273l-1000 122l27 202l894 105zM694 492q0 36 -17.5 54t-53.5 18t-54 -18t-18 -54t18 -53.5t54 -17.5t53.5 17.5t17.5 53.5zM988 487q0 39 -27.5 65.5t-64.5 26.5q-39 0 -65.5 -26.5t-26.5 -65.5q0 -37 26.5 -64.5t65.5 -27.5q37 0 64.5 27.5t27.5 64.5z" />
    <glyph glyph-name="emdash" unicode="&#x2014;" horiz-adv-x="2713" 
d="M2557 321l-2401 74l58 156l2256 184zM2343 569l-28 94q-118 -70 -246.5 -122.5t-266.5 -85.5l-13 -54q131 18 269.5 59.5t284.5 108.5z" />
    <glyph glyph-name="quotedblleft" unicode="&#x201c;" horiz-adv-x="1130" 
d="M972 1298q0 -63 -49 -107.5t-114 -44.5q-73 0 -117 45.5t-44 118.5q0 69 50.5 162t151.5 210l73 -48q-21 -30 -49.5 -76l-64.5 -109q65 0 114 -43.5t49 -107.5zM597 1278l-30 -68l-72 35q-14 -24 -32.5 -39t-43.5 -22l17 -59l-83 -12l-3 61q-30 4 -53 15.5t-39 32.5
l-64 -41l-36 70l71 30q-3 19 -3 44t3 56l-66 15l13 77l69 -24q10 31 27 66.5t42 77.5l-59 56l52 58l48 -58q5 5 20.5 19l40.5 37l54 -49q-46 -37 -69 -86.5t-23 -110.5q18 0 38.5 -5.5t43.5 -16.5l51 66l56 -54l-70 -51q13 -17 18.5 -42t5.5 -58zM906 1291q0 37 -18 56
t-56 19q-37 0 -55.5 -19t-18.5 -56t18.5 -55.5t55.5 -18.5q38 0 56 18.5t18 55.5z" />
    <glyph glyph-name="quotedblright" unicode="&#x201d;" horiz-adv-x="1130" 
d="M972 1583l-71 -32q4 -18 4 -43t-4 -56l66 -15l-12 -76l-69 22q-10 -31 -27.5 -67t-42.5 -76l59 -56l-50 -59l-49 59q-5 -6 -20.5 -20l-41.5 -36l-54 48q47 38 70 87t23 110q-18 0 -38.5 5.5t-42.5 17.5l-51 -66l-57 53l69 51q-11 18 -17.5 43t-6.5 57l-76 20l31 70
l72 -36q13 22 32.5 37.5t43.5 23.5l-18 58l85 13l2 -61q30 -4 52.5 -16.5t38.5 -32.5l65 41zM482 1523q0 -70 -50.5 -163t-151.5 -209l-73 49q21 29 49.5 75l64.5 108q-63 0 -113 43.5t-50 107.5q0 65 49.5 109t113.5 44q73 0 117 -46t44 -118zM373 1541q0 37 -18.5 55.5
t-55.5 18.5t-56 -18.5t-19 -55.5t19 -55t56 -18t55.5 18t18.5 55z" />
    <glyph glyph-name="quoteleft" unicode="&#x2018;" horiz-adv-x="677" 
d="M567 1278l-31 -68l-71 35q-14 -24 -33.5 -39t-43.5 -22l18 -59l-85 -12l-2 61q-30 4 -53 15.5t-39 32.5l-64 -41l-36 70l72 30q-3 19 -3 44t3 56l-67 15l14 77l68 -24q10 31 27.5 66.5t41.5 77.5l-59 56l51 58l49 -58q5 5 20.5 19l40.5 37l54 -49q-45 -37 -68 -86.5
t-23 -110.5q17 0 37.5 -5.5t43.5 -16.5l51 66l56 -54l-69 -51q12 -17 17.5 -42t5.5 -58z" />
    <glyph glyph-name="quoteright" unicode="&#x2019;" horiz-adv-x="677" 
d="M518 1505q0 -76 -56 -178t-168 -229l-82 53q46 63 77.5 113.5t49.5 87.5q-71 0 -126 49t-55 120q0 72 55 120.5t126 48.5q81 0 130 -52t49 -133zM395 1529q0 40 -20 60.5t-61 20.5t-61.5 -20.5t-20.5 -60.5q0 -41 20.5 -61.5t61.5 -20.5t61 20.5t20 61.5z" />
    <glyph glyph-name="divide" unicode="&#xf7;" horiz-adv-x="1006" 
d="M594 1003q0 -50 -34.5 -85t-84.5 -35t-85 35t-35 85t35 85t85 35t84.5 -35t34.5 -85zM911 613h-889l14 203l855 -99zM669 326q0 -82 -58.5 -140.5t-140.5 -58.5t-141 58.5t-59 140.5q0 83 59 141.5t141 58.5t140.5 -58.5t58.5 -141.5zM523 658v39l-398 56l-25 -74z
M516 297q0 36 -25.5 61t-61.5 25t-62 -25t-26 -61q0 -37 26 -62.5t62 -25.5t61.5 25.5t25.5 62.5z" />
    <glyph glyph-name="lozenge" unicode="&#x25ca;" horiz-adv-x="1288" 
d="M1194 923l-459 -948l-199 40l56 107l-546 638l521 833l-46 117l153 46zM898 1047l-163 188l-387 -566l214 -240z" />
    <glyph glyph-name="ydieresis" unicode="&#xff;" horiz-adv-x="1215" 
d="M1087 320q0 -514 -143.5 -771.5t-430.5 -257.5q-133 0 -245.5 36t-203.5 109l46 87q67 -56 150.5 -83.5t183.5 -27.5q36 0 69.5 3.5t65.5 12.5q-16 -2 -31.5 -3t-31.5 -1q-76 0 -144 24t-129 72q-64 51 -97 113.5t-36 137.5q41 -56 78 -96.5t71 -62.5q44 -29 95.5 -43.5
t112.5 -14.5q169 0 260.5 187.5t107.5 562.5q-30 -51 -60.5 -88.5t-62.5 -62.5l36 -89l-61 -52l-39 103q-31 -15 -66.5 -20t-75.5 0l-29 -112l-92 22l44 105q-45 15 -83 44t-68 73l-86 -66l-67 71l118 67q-16 37 -26.5 78.5t-14.5 87.5l-97 -36l-31 79l120 35q-1 10 -2 22
t-1 24q0 14 2.5 41.5t5.5 68.5h-135l10 95l133 -20l10 81l168 12q-21 -82 -31.5 -154.5t-10.5 -134.5q0 -67 13 -123t38 -100q31 -55 77 -82.5t108 -27.5q120 0 179 78.5t59 235.5q0 54 -8 114.5t-25 127.5l270 61q16 -149 24.5 -284.5t8.5 -257.5zM1049 1161
q0 -58 -43 -101t-102 -43q-61 0 -104.5 42.5t-43.5 101.5q0 60 43.5 103t104.5 43q59 0 102 -43t43 -103zM498 1161q0 -59 -44 -101.5t-104 -42.5q-59 0 -102.5 43t-43.5 101q0 60 43.5 103t102.5 43q60 0 104 -43t44 -103z" />
    <glyph glyph-name="Ydieresis" unicode="&#x178;" horiz-adv-x="1437" 
d="M166 1444q0 -33 -16.5 -49.5t-49.5 -16.5t-49.5 16.5t-16.5 49.5t16.5 49.5t49.5 16.5t49.5 -16.5t16.5 -49.5zM270 1247q0 -33 -16 -49.5t-50 -16.5q-32 0 -49 16.5t-17 49.5q0 34 17 51t49 17q34 0 50 -17t16 -51zM388 1042q0 -34 -16.5 -51t-50.5 -17q-32 0 -49 17
t-17 51q0 32 17 49t49 17q34 0 50.5 -17t16.5 -49zM1508 1771q-97 -13 -174.5 -67.5t-136.5 -152.5q54 28 98.5 41.5t77.5 13.5q16 0 38.5 -2.5t51.5 -6.5l-26 -81h-18q-155 0 -280.5 -129.5t-221.5 -394.5q-28 -78 -42 -124t-15 -57l-9.5 -201l-29.5 -603l-171 -36l-56 910
l-428 726l352 136l281 -730q70 188 128.5 320t108.5 210q95 148 208 222.5t244 74.5zM511 837q0 -33 -17 -50t-50 -17t-49.5 17t-16.5 50t16.5 49.5t49.5 16.5t50 -16.5t17 -49.5zM1176 1969q0 -58 -43 -101t-102 -43q-61 0 -104.5 42.5t-43.5 101.5q0 60 43.5 103t104.5 43
q59 0 102 -43t43 -103zM625 1969q0 -59 -44 -101.5t-104 -42.5q-59 0 -102.5 43t-43.5 101q0 60 43.5 103t102.5 43q60 0 104 -43t44 -103z" />
    <glyph glyph-name="fraction" unicode="&#x2015;" horiz-adv-x="375" 
d="M714 1771l-834 -1988l-304 296l916 1723zM212 753q0 41 -20.5 61.5t-61.5 20.5q-40 0 -60.5 -20.5t-20.5 -61.5q0 -33 24 -56t57 -23q32 0 57 23t25 56zM90 467q0 44 -32 75.5t-75 31.5q-44 0 -76 -31.5t-32 -75.5q0 -43 32 -75t76 -32q43 0 75 32t32 75zM-56 117
q0 51 -38 89.5t-89 38.5q-53 0 -91 -38.5t-38 -89.5t38 -87.5t91 -36.5q51 0 89 36.5t38 87.5z" />
    <glyph glyph-name="Euro" unicode="&#x20ac;" horiz-adv-x="1422" 
d="M1426 572h-92q0 -93 -36 -174l107 -48l-32 -67l-107 48q-58 -95 -151 -155l51 -122l-80 -47l-56 125q-94 -38 -183 -38q-34 0 -67 6l-28 -144l-89 24l36 130q-85 19 -161 53l-69 -114l-72 56l61 104q-87 60 -158 161l-120 -63l-41 68l119 69q-44 88 -64 190l-187 -7
l13 205l161 -6q10 128 20 185l-174 20l-12 105h219l21 55l-123 83l56 78l107 -76q58 97 121 168l-90 122l66 51l87 -109q101 87 199 126l-28 119l95 18l15 -112q69 15 133 15q69 0 135 -20l28 117l79 -20l-39 -131q82 -51 139 -142l89 61l51 -80l-99 -58q32 -75 43 -115
l-94 -39q-139 233 -366 233q-198 0 -330 -167q-64 -81 -92 -168l-3 -9h469l-12 -205l-483 56q-1 -20 -1 -32q0 -72 12 -137l455 -16l14 -144l-406 -14q71 -121 186 -175q86 -40 191 -40q144 0 238 85.5t94 228.5l90 36q32 -56 46 -134h99v-73zM824 1069l-224 -1v-38l199 -36
zM214 728q0 75 -73 75q-75 0 -75 -75q0 -71 75 -71q73 0 73 71z" />
    <glyph glyph-name="guilsinglleft" unicode="&#x2039;" horiz-adv-x="867" 
d="M702 158l-232 -204l-54 95l107 71l-36 38l-97 -58l-27 51l83 56l-30 41l-77 -54l-30 54l69 46l-34 50l-61 -45l-117 212l316 463l115 -78l-242 -394z" />
    <glyph glyph-name="guilsinglright" unicode="&#x203a;" horiz-adv-x="867" 
d="M702 419l-317 -465l-115 80l243 392l-347 344l232 204l53 -93l-107 -72l36 -39l97 60l29 -51l-85 -56l30 -41l77 53l31 -53l-69 -46l33 -52l61 47z" />
    <glyph glyph-name="fi" unicode="&#xf001;" horiz-adv-x="1189" 
d="M1087 -115l-420 54l112 804l-348 -26l-71 -890l-360 -51l54 275l231 23l17 633l-180 -13l-30 102l212 23l5 89l-173 -15l-11 98l184 30q5 160 21 278t46 189q50 118 141.5 177.5t225.5 59.5q62 0 123 -22t122 -64l-110 -210q-32 15 -55.5 23t-38.5 8q-61 0 -114.5 -38.5
t-100.5 -114.5q-32 -52 -55.5 -118t-41.5 -142l514 61zM809 955l-358 -32q-1 -6 -3.5 -28.5l-6.5 -59.5l358 37zM967 401q0 35 -17.5 53t-53.5 18q-35 0 -53 -18t-18 -53q0 -36 18 -54t53 -18q36 0 53.5 18t17.5 54zM969 130q0 38 -26.5 65t-64.5 27q-39 0 -66.5 -26.5
t-27.5 -65.5t27.5 -65t66.5 -26q38 0 64.5 26.5t26.5 64.5z" />
    <glyph glyph-name="fi" unicode="&#xfb01;" horiz-adv-x="1189" 
d="M1087 -115l-420 54l112 804l-348 -26l-71 -890l-360 -51l54 275l231 23l17 633l-180 -13l-30 102l212 23l5 89l-173 -15l-11 98l184 30q5 160 21 278t46 189q50 118 141.5 177.5t225.5 59.5q62 0 123 -22t122 -64l-110 -210q-32 15 -55.5 23t-38.5 8q-61 0 -114.5 -38.5
t-100.5 -114.5q-32 -52 -55.5 -118t-41.5 -142l514 61zM809 955l-358 -32q-1 -6 -3.5 -28.5l-6.5 -59.5l358 37zM967 401q0 35 -17.5 53t-53.5 18q-35 0 -53 -18t-18 -53q0 -36 18 -54t53 -18q36 0 53.5 18t17.5 54zM969 130q0 38 -26.5 65t-64.5 27q-39 0 -66.5 -26.5
t-27.5 -65.5t27.5 -65t66.5 -26q38 0 64.5 26.5t26.5 64.5z" />
    <glyph glyph-name="fl" unicode="&#xf002;" horiz-adv-x="1378" 
d="M1327 1575q0 -36 -17.5 -54t-53.5 -18t-54 18t-18 54q0 35 18 53t54 18t53.5 -18t17.5 -53zM1312 1342q0 -36 -18 -53.5t-54 -17.5q-35 0 -53 17.5t-18 53.5t18 54t53 18q36 0 54 -18t18 -54zM1281 1095q0 -36 -17.5 -54t-53.5 -18t-54 18t-18 54q0 35 18 53t54 18
t53.5 -18t17.5 -53zM1135 1700l-171 -1698l-163 -27l-58 1204l109 5l5 82h-117l-7 107l129 3l5 73l-139 -2q-92 -36 -156 -136.5t-100 -263.5l176 20v-122l-197 -22q0 -6 -2.5 -27.5t-7.5 -60.5l153 20l-10 -130l-153 -8l-71 -890l-360 -51l54 275l231 23l17 633l-180 -13
l-30 102l212 23l5 89l-173 -15l-11 98l184 30q4 132 13.5 228t26.5 157q30 109 86 181t139 106q38 16 73 24t65 8l105.5 -6.5t317.5 -18.5z" />
    <glyph glyph-name="fl" unicode="&#xfb02;" horiz-adv-x="1378" 
d="M1327 1575q0 -36 -17.5 -54t-53.5 -18t-54 18t-18 54q0 35 18 53t54 18t53.5 -18t17.5 -53zM1312 1342q0 -36 -18 -53.5t-54 -17.5q-35 0 -53 17.5t-18 53.5t18 54t53 18q36 0 54 -18t18 -54zM1281 1095q0 -36 -17.5 -54t-53.5 -18t-54 18t-18 54q0 35 18 53t54 18
t53.5 -18t17.5 -53zM1135 1700l-171 -1698l-163 -27l-58 1204l109 5l5 82h-117l-7 107l129 3l5 73l-139 -2q-92 -36 -156 -136.5t-100 -263.5l176 20v-122l-197 -22q0 -6 -2.5 -27.5t-7.5 -60.5l153 20l-10 -130l-153 -8l-71 -890l-360 -51l54 275l231 23l17 633l-180 -13
l-30 102l212 23l5 89l-173 -15l-11 98l184 30q4 132 13.5 228t26.5 157q30 109 86 181t139 106q38 16 73 24t65 8l105.5 -6.5t317.5 -18.5z" />
    <glyph glyph-name="daggerdbl" unicode="&#x2021;" horiz-adv-x="1612" 
d="M1568 45l-2 -25l-66 -22q-3 110 -83.5 165.5t-236.5 55.5q-50 0 -119.5 -5.5t-159.5 -16.5l-34 -343q63 -22 93.5 -65t30.5 -108q0 -76 -54.5 -129.5t-130.5 -53.5t-129.5 53.5t-53.5 129.5q0 65 30 108t90 65q-3 75 -9 154t-17 163q-101 -14 -180.5 -21t-136.5 -7
q-70 0 -126 9t-98 26l23 158q68 -11 132.5 -16.5t127.5 -5.5q58 0 118 5t120 15q-18 97 -39 166t-45 109q16 45 30.5 121.5t28.5 185.5q-54 -5 -102 -7t-91 -2q-111 0 -193 13.5t-135 40.5q-74 37 -109 104.5t-35 164.5v26l67 22q5 -112 84.5 -167.5t235.5 -55.5
q53 0 127.5 6.5t170.5 20.5q5 47 11.5 118.5t16.5 167.5q-61 21 -92 65t-31 108q0 76 54 130t130 54t129.5 -54t53.5 -130q0 -66 -29.5 -109t-89.5 -64l8 -136t9 -127q102 14 180.5 21t135.5 7q68 0 123.5 -9t96.5 -26l-22 -158q-66 11 -130.5 16.5t-126.5 5.5
q-59 0 -117.5 -5t-118.5 -15q19 -118 41.5 -200.5t49.5 -128.5q-12 -42 -25 -105t-26 -148q44 3 84.5 4t76.5 1q112 0 196 -12.5t137 -38.5q77 -37 118 -104.5t33 -164.5zM872 589l-107 108l-37 -118l81 -99z" />
    <glyph glyph-name="periodcentered" unicode="&#xb7;" horiz-adv-x="677" 
d="M521 852q0 -76 -53 -130.5t-129 -54.5t-129.5 54.5t-53.5 130.5t53.5 130t129.5 54t129 -54t53 -130zM404 875q0 35 -24.5 63.5t-58.5 28.5q-33 0 -57 -28.5t-24 -63.5t23.5 -63t57.5 -28q35 0 59 28t24 63z" />
    <glyph glyph-name="periodcentered" unicode="&#x2219;" horiz-adv-x="677" 
d="M521 852q0 -76 -53 -130.5t-129 -54.5t-129.5 54.5t-53.5 130.5t53.5 130t129.5 54t129 -54t53 -130zM404 875q0 35 -24.5 63.5t-58.5 28.5q-33 0 -57 -28.5t-24 -63.5t23.5 -63t57.5 -28q35 0 59 28t24 63z" />
    <glyph glyph-name="quotesinglbase" unicode="&#x201a;" horiz-adv-x="677" 
d="M518 153q0 -76 -56 -178t-168 -230l-82 53q46 62 77.5 112.5t49.5 89.5q-71 0 -126 48.5t-55 119.5t55 119.5t126 48.5q81 0 130 -51t49 -132zM395 176q0 41 -20 61.5t-61 20.5t-61.5 -20.5t-20.5 -61.5t20.5 -61t61.5 -20t61 20t20 61z" />
    <glyph glyph-name="quotedblbase" unicode="&#x201e;" horiz-adv-x="1130" 
d="M964 224l-71 -27q4 -23 4 -48.5t-4 -53.5l66 -16l-12 -77l-69 27q-9 -33 -26.5 -69.5t-42.5 -76.5l58 -56l-51 -59l-48 61l-25 -25t-36 -33l-57 48q48 38 70.5 86t22.5 106v6q-22 0 -41 5t-35 17l-58 -68l-56 58l73 50q-12 16 -17.5 40t-4.5 57l-78 21l27 71l73 -39
q13 21 32.5 37.5t43.5 27.5l-15 56l83 13l4 -61q28 -3 50.5 -15t40.5 -34l63 41zM467 166q0 -43 -16.5 -92.5t-50.5 -107.5q-28 -48 -61.5 -90.5t-70.5 -77.5l-81 54q40 43 68.5 89.5t46.5 94.5q-68 0 -102 32.5t-34 97.5q0 73 39.5 110.5t118.5 37.5q72 0 107.5 -37.5
t35.5 -110.5zM363 187q0 35 -19 53t-56 18q-36 0 -55 -18t-19 -53q0 -37 19 -56t55 -19q37 0 56 19t19 56z" />
    <glyph glyph-name="perthousand" unicode="&#x2030;" horiz-adv-x="2917" 
d="M888 1335q0 -167 -114 -289.5t-279 -122.5q-166 0 -279.5 122.5t-113.5 289.5t113.5 289t279.5 122q165 0 279 -122t114 -289zM1524 1690l-835 -1810l-348 196l108 182l118 -71l40 78l-112 69l53 95l105 -64l41 66l-102 71l56 97l92 -61l41 66l-92 65l648 1107zM2802 350
h-84q-14 -55 -32 -96.5t-42 -70.5l64 -37l-39 -70l-71 60q-41 -34 -87.5 -52.5t-99.5 -22.5l5 -112l-76 -3l-5 118q-36 6 -70 20t-68 38l-79 -86l-58 59l81 78q-26 33 -45 71.5t-29 84.5l-109 2l15 75l92 -8q0 57 19 108.5t57 97.5l-61 49l53 59l59 -59q37 31 83 49t101 23
l15 105l82 -21l-16 -92q30 0 67 -17t79 -50l61 78l80 -51l-87 -88q27 -34 42 -74.5t19 -88.5h74zM1955 500l-100 -23q8 -25 11.5 -51t3.5 -53q0 -35 -6 -70t-19 -71l79 -28l-32 -84l-83 46q-31 -49 -74 -84t-99 -57l23 -117l-95 -5l-15 99q-56 0 -100.5 6.5t-75.5 20.5
l-36 -105l-105 27l64 120q-40 29 -70 67t-50 86l-81 -27l-33 81l89 29q-2 11 -3.5 27t-1.5 39q0 34 6 68t17 65l-80 20l16 83l97 -35q33 49 76 84t95 56l-43 118l76 30l51 -124l28.5 3.5t22.5 1.5q28 0 56.5 -5t55.5 -15l54 119l84 -41l-61 -112q40 -25 73 -60t59 -81
l116 36zM709 1350q0 36 -8.5 69.5t-26.5 65.5l-67 -77l-61 46l72 92q-34 25 -70 38t-73 13q-10 0 -25.5 -2t-35.5 -7l46 -144l-67 -25l-52 137q-53 -38 -80 -90t-27 -116q0 -14 3 -33t8 -41l120 54l39 -59l-119 -71q35 -47 80.5 -71.5t101.5 -25.5l-12 104l68 13l23 -105
q43 15 75.5 41.5t52.5 63.5l-87 56l36 59l81 -39q3 7 4 21t1 33zM1753 395q0 88 -58.5 154.5t-145.5 66.5q-42 0 -78.5 -17.5t-66.5 -51.5q-28 -32 -42.5 -70t-14.5 -82t15 -80.5t42 -67.5q30 -34 66.5 -50t78.5 -16q86 0 145 64t59 150zM2532 391q0 75 -51 131t-126 56
q-81 0 -136 -60.5t-55 -142.5q0 -76 50.5 -131.5t126.5 -55.5q80 0 135.5 62t55.5 141z" />
    <glyph glyph-name="Acircumflex" unicode="&#xc2;" horiz-adv-x="1629" 
d="M1578 51l-177 -41l-120 365l-717 10l-179 -487l-385 265l753 1544l278 24zM1123 852l-188 672l-258 -774zM1222 551l-58 174l-538 -133l-32 -81zM482 658l-36 46q-72 -120 -128 -253t-96 -280l92 -39q20 137 62.5 268.5t105.5 257.5zM1273 1883l-96 -97l-302 239
l-219 -249l-177 119l384 286z" />
    <glyph glyph-name="Ecircumflex" unicode="&#xca;" horiz-adv-x="1242" 
d="M872 1352l-30 -265l-233 57l78 163zM1217 1286l-160 -46q-8 106 -45.5 175.5t-105.5 103.5q-37 18 -119.5 33.5t-209.5 25.5l-77 -660l511 27l-128 -287l-408 87l-90 -669l375 -5l131 192l209 12l5 -319l-964 54l56 1044l134 -7l22 86l-154 2l8 121l146 -11l15 107h-156
l5 118l146 -11l20 92l-161 8l10 182l199 -15.5t200 -13.5q119 -14 212 -40.5t159 -66.5q87 -52 140.5 -132t74.5 -187zM1056 1893l-96 -97l-302 239l-219 -249l-177 119l384 286z" />
    <glyph glyph-name="Aacute" unicode="&#xc1;" horiz-adv-x="1629" 
d="M1578 51l-177 -41l-120 365l-717 10l-179 -487l-385 265l753 1544l278 24zM1123 852l-188 672l-258 -774zM1222 551l-58 174l-538 -133l-32 -81zM482 658l-36 46q-72 -120 -128 -253t-96 -280l92 -39q20 137 62.5 268.5t105.5 257.5zM1228 2079l-362 -296l-80 79l274 401
z" />
    <glyph glyph-name="Edieresis" unicode="&#xcb;" horiz-adv-x="1242" 
d="M872 1352l-30 -265l-233 57l78 163zM1217 1286l-160 -46q-8 106 -45.5 175.5t-105.5 103.5q-37 18 -119.5 33.5t-209.5 25.5l-77 -660l511 27l-128 -287l-408 87l-90 -669l375 -5l131 192l209 12l5 -319l-964 54l56 1044l134 -7l22 86l-154 2l8 121l146 -11l15 107h-156
l5 118l146 -11l20 92l-161 8l10 182l199 -15.5t200 -13.5q119 -14 212 -40.5t159 -66.5q87 -52 140.5 -132t74.5 -187zM1114 1930q0 -58 -43 -101t-102 -43q-61 0 -104.5 42.5t-43.5 101.5q0 60 43.5 103t104.5 43q59 0 102 -43t43 -103zM563 1930q0 -59 -44 -101.5
t-104 -42.5q-59 0 -102.5 43t-43.5 101q0 60 43.5 103t102.5 43q60 0 104 -43t44 -103z" />
    <glyph glyph-name="Egrave" unicode="&#xc8;" horiz-adv-x="1242" 
d="M872 1352l-30 -265l-233 57l78 163zM1217 1286l-160 -46q-8 106 -45.5 175.5t-105.5 103.5q-37 18 -119.5 33.5t-209.5 25.5l-77 -660l511 27l-128 -287l-408 87l-90 -669l375 -5l131 192l209 12l5 -319l-964 54l56 1044l134 -7l22 86l-154 2l8 121l146 -11l15 107h-156
l5 118l146 -11l20 92l-161 8l10 182l199 -15.5t200 -13.5q119 -14 212 -40.5t159 -66.5q87 -52 140.5 -132t74.5 -187zM792 1869l-79 -78l-363 295l170 184z" />
    <glyph glyph-name="Iacute" unicode="&#xcd;" horiz-adv-x="672" 
d="M672 1602q-69 -262 -115.5 -454.5t-69.5 -315.5q-36 -195 -55.5 -394t-22.5 -399l-238 -27q-9 100 -13.5 204.5t-4.5 215.5q0 278 28 588t84 651zM516 1383l-36 46q-70 -112 -126.5 -245.5t-100.5 -287.5l91 -39q24 139 67 270.5t105 255.5zM878 2030l-362 -296l-80 79
l274 401z" />
    <glyph glyph-name="Icircumflex" unicode="&#xce;" horiz-adv-x="672" 
d="M672 1602q-69 -262 -115.5 -454.5t-69.5 -315.5q-36 -195 -55.5 -394t-22.5 -399l-238 -27q-9 100 -13.5 204.5t-4.5 215.5q0 278 28 588t84 651zM516 1383l-36 46q-70 -112 -126.5 -245.5t-100.5 -287.5l91 -39q24 139 67 270.5t105 255.5zM919 1854l-96 -97l-302 239
l-219 -249l-177 119l384 286z" />
    <glyph glyph-name="Idieresis" unicode="&#xcf;" horiz-adv-x="672" 
d="M672 1602q-69 -262 -115.5 -454.5t-69.5 -315.5q-36 -195 -55.5 -394t-22.5 -399l-238 -27q-9 100 -13.5 204.5t-4.5 215.5q0 278 28 588t84 651zM516 1383l-36 46q-70 -112 -126.5 -245.5t-100.5 -287.5l91 -39q24 139 67 270.5t105 255.5zM969 1900q0 -58 -43 -101
t-102 -43q-61 0 -104.5 42.5t-43.5 101.5q0 60 43.5 103t104.5 43q59 0 102 -43t43 -103zM418 1900q0 -59 -44 -101.5t-104 -42.5q-59 0 -102.5 43t-43.5 101q0 60 43.5 103t102.5 43q60 0 104 -43t44 -103z" />
    <glyph glyph-name="Igrave" unicode="&#xcc;" horiz-adv-x="672" 
d="M672 1602q-69 -262 -115.5 -454.5t-69.5 -315.5q-36 -195 -55.5 -394t-22.5 -399l-238 -27q-9 100 -13.5 204.5t-4.5 215.5q0 278 28 588t84 651zM516 1383l-36 46q-70 -112 -126.5 -245.5t-100.5 -287.5l91 -39q24 139 67 270.5t105 255.5zM605 1832l-79 -78l-363 295
l170 184z" />
    <glyph glyph-name="Oacute" unicode="&#xd3;" horiz-adv-x="1575" 
d="M1112 2024l-362 -296l-80 79l274 401zM1473 855q0 -158 -45 -297t-137 -260q-100 -132 -225.5 -198t-279.5 -66q-152 0 -277.5 66t-225.5 198q-91 120 -136 260t-45 297t44.5 294t132.5 253q97 127 222 190.5t278 63.5t279.5 -63.5t227.5 -189.5q93 -117 140 -254
t47 -294zM1257 761v26.5t-1 28.5l-156 -12l-18 79l160 25q-13 66 -37 123.5t-59 106.5l-133 -159l-58 47l117 194q-58 50 -128 74t-155 23l61 -240l-71 -25l-85 244q-75 -27 -137 -79.5t-113 -129.5l163 -181l-59 -69l-153 159q-32 -75 -47 -145t-13 -134l1 -38l177 -12v-88
l-169 10q7 -49 23.5 -99t41.5 -100l137 123l56 -51l-140 -148q43 -55 94.5 -91t112.5 -55l23 197l71 -10l-5 -202h11q63 0 123.5 19.5t118.5 61.5l-115 223l68 40l118 -198q37 41 65 84t47 89l-166 144l44 44l155 -91q15 42 22.5 90t7.5 102z" />
    <glyph glyph-name="Ocircumflex" unicode="&#xd4;" horiz-adv-x="1575" 
d="M1473 855q0 -158 -45 -297t-137 -260q-100 -132 -225.5 -198t-279.5 -66q-152 0 -277.5 66t-225.5 198q-91 120 -136 260t-45 297t44.5 294t132.5 253q97 127 222 190.5t278 63.5t279.5 -63.5t227.5 -189.5q93 -117 140 -254t47 -294zM1257 761v26.5t-1 28.5l-156 -12
l-18 79l160 25q-13 66 -37 123.5t-59 106.5l-133 -159l-58 47l117 194q-58 50 -128 74t-155 23l61 -240l-71 -25l-85 244q-75 -27 -137 -79.5t-113 -129.5l163 -181l-59 -69l-153 159q-32 -75 -47 -145t-13 -134l1 -38l177 -12v-88l-169 10q7 -49 23.5 -99t41.5 -100
l137 123l56 -51l-140 -148q43 -55 94.5 -91t112.5 -55l23 197l71 -10l-5 -202h11q63 0 123.5 19.5t118.5 61.5l-115 223l68 40l118 -198q37 41 65 84t47 89l-166 144l44 44l155 -91q15 42 22.5 90t7.5 102zM1167 1851l-96 -97l-302 239l-219 -249l-177 119l384 286z" />
    <glyph glyph-name="Ograve" unicode="&#xd2;" horiz-adv-x="1575" 
d="M1473 855q0 -158 -45 -297t-137 -260q-100 -132 -225.5 -198t-279.5 -66q-152 0 -277.5 66t-225.5 198q-91 120 -136 260t-45 297t44.5 294t132.5 253q97 127 222 190.5t278 63.5t279.5 -63.5t227.5 -189.5q93 -117 140 -254t47 -294zM1257 761v26.5t-1 28.5l-156 -12
l-18 79l160 25q-13 66 -37 123.5t-59 106.5l-133 -159l-58 47l117 194q-58 50 -128 74t-155 23l61 -240l-71 -25l-85 244q-75 -27 -137 -79.5t-113 -129.5l163 -181l-59 -69l-153 159q-32 -75 -47 -145t-13 -134l1 -38l177 -12v-88l-169 10q7 -49 23.5 -99t41.5 -100
l137 123l56 -51l-140 -148q43 -55 94.5 -91t112.5 -55l23 197l71 -10l-5 -202h11q63 0 123.5 19.5t118.5 61.5l-115 223l68 40l118 -198q37 41 65 84t47 89l-166 144l44 44l155 -91q15 42 22.5 90t7.5 102zM890 1831l-79 -78l-363 295l170 184z" />
    <glyph glyph-name="Uacute" unicode="&#xda;" horiz-adv-x="1536" 
d="M1384 714q0 -355 -160.5 -532t-483.5 -177q-157 0 -271 40.5t-185 121.5q-66 75 -99 192t-33 275q0 131 30.5 391.5t30.5 391.5q0 85 -12.5 149t-37.5 108l85 38q46 -91 73.5 -207t37.5 -256q3 -44 4.5 -165t1.5 -319q0 -122 6.5 -207.5t19.5 -133.5q28 -100 86 -150
t146 -50q102 0 172.5 35t109.5 106q28 51 42.5 129t14.5 184q0 20 -1 48t-2 63q-1 40 -1.5 66.5t-0.5 40.5l153 12l-10 118l-145 -5l-5 112l143 7l-4 116h-139l-5 117l144 -10v107l-144 13l-5 119l415 -41l21.5 -620t7.5 -227zM755 835q0 -52 -36.5 -89t-87.5 -37
q-52 0 -87.5 37.5t-35.5 88.5q0 50 35.5 87t87.5 37q51 0 87.5 -36.5t36.5 -87.5zM992 2024l-362 -296l-80 79l274 401z" />
    <glyph glyph-name="Ucircumflex" unicode="&#xdb;" horiz-adv-x="1536" 
d="M1384 714q0 -355 -160.5 -532t-483.5 -177q-157 0 -271 40.5t-185 121.5q-66 75 -99 192t-33 275q0 131 30.5 391.5t30.5 391.5q0 85 -12.5 149t-37.5 108l85 38q46 -91 73.5 -207t37.5 -256q3 -44 4.5 -165t1.5 -319q0 -122 6.5 -207.5t19.5 -133.5q28 -100 86 -150
t146 -50q102 0 172.5 35t109.5 106q28 51 42.5 129t14.5 184q0 20 -1 48t-2 63q-1 40 -1.5 66.5t-0.5 40.5l153 12l-10 118l-145 -5l-5 112l143 7l-4 116h-139l-5 117l144 -10v107l-144 13l-5 119l415 -41l21.5 -620t7.5 -227zM755 835q0 -52 -36.5 -89t-87.5 -37
q-52 0 -87.5 37.5t-35.5 88.5q0 50 35.5 87t87.5 37q51 0 87.5 -36.5t36.5 -87.5zM1101 1848l-96 -97l-302 239l-219 -249l-177 119l384 286z" />
    <glyph glyph-name="Ugrave" unicode="&#xd9;" horiz-adv-x="1536" 
d="M1384 714q0 -355 -160.5 -532t-483.5 -177q-157 0 -271 40.5t-185 121.5q-66 75 -99 192t-33 275q0 131 30.5 391.5t30.5 391.5q0 85 -12.5 149t-37.5 108l85 38q46 -91 73.5 -207t37.5 -256q3 -44 4.5 -165t1.5 -319q0 -122 6.5 -207.5t19.5 -133.5q28 -100 86 -150
t146 -50q102 0 172.5 35t109.5 106q28 51 42.5 129t14.5 184q0 20 -1 48t-2 63q-1 40 -1.5 66.5t-0.5 40.5l153 12l-10 118l-145 -5l-5 112l143 7l-4 116h-139l-5 117l144 -10v107l-144 13l-5 119l415 -41l21.5 -620t7.5 -227zM755 835q0 -52 -36.5 -89t-87.5 -37
q-52 0 -87.5 37.5t-35.5 88.5q0 50 35.5 87t87.5 37q51 0 87.5 -36.5t36.5 -87.5zM836 1831l-79 -78l-363 295l170 184z" />
    <glyph glyph-name="dotlessi" unicode="&#x131;" horiz-adv-x="633" 
d="M497 -115l-421 54l156 974h187zM378 401q0 35 -17.5 53t-53.5 18q-37 0 -55 -18t-18 -53q0 -36 18 -54t55 -18q36 0 53.5 18t17.5 54zM378 130q0 38 -27 65t-66 27q-37 0 -64 -27t-27 -65t27 -64.5t64 -26.5q39 0 66 26.5t27 64.5z" />
    <glyph glyph-name="circumflex" unicode="&#x2c6;" horiz-adv-x="1049" 
d="M921 1149l-96 -97l-302 239l-219 -249l-177 119l384 286z" />
    <glyph glyph-name="tilde" unicode="&#x2dc;" horiz-adv-x="1103" 
d="M974 1347q0 -60 -12.5 -111t-36.5 -92q-30 -51 -73 -76.5t-99 -25.5q-101 0 -174 104.5t-114 104.5q-40 0 -69.5 -15.5t-49.5 -45.5q-9 -14 -20.5 -47.5t-26.5 -85.5l-172 81q51 153 124 229.5t168 76.5q48 0 88.5 -11.5t74.5 -34.5q16 -11 37 -33t48 -53
q20 -23 36.5 -34.5t31.5 -11.5q30 0 44.5 15.5t14.5 46.5q0 15 -3 35t-10 45l186 31q4 -23 5.5 -46.5t1.5 -45.5z" />
    <glyph glyph-name="macron" unicode="&#xaf;" horiz-adv-x="1103" 
d="M842 1067l-602 15v133l602 66v-214z" />
    <glyph glyph-name="breve" unicode="&#x2d8;" horiz-adv-x="1103" 
d="M1018 1378q-9 -77 -50.5 -139.5t-116.5 -110.5q-67 -43 -141 -64.5t-157 -21.5q-82 0 -156 20.5t-138 63.5q-71 48 -111 111t-48 141l236 30q22 -71 81 -106.5t155 -35.5q29 0 61 11t67 31q39 23 59.5 48t21.5 52z" />
    <glyph glyph-name="dotaccent" unicode="&#x2d9;" horiz-adv-x="1103" 
d="M738 1232q0 -86 -60.5 -146t-146.5 -60t-146.5 60t-60.5 146t60.5 146.5t146.5 60.5t146.5 -60.5t60.5 -146.5z" />
    <glyph glyph-name="ring" unicode="&#x2da;" horiz-adv-x="687" 
d="M559 1235q0 -89 -62.5 -151.5t-152.5 -62.5q-89 0 -153 62t-64 152t64 152t153 62q90 0 152.5 -63t62.5 -151zM439 1230q0 50 -35 85t-85 35t-86 -35t-36 -85t36 -85t86 -35t85 35t35 85z" />
    <glyph glyph-name="cedilla" unicode="&#xb8;" horiz-adv-x="1534" 
d="M1003 -355l-314 -61l8 75l94 22v56l-87 -17l5 53l77 10v54l-72 -10l6 61l74 7l2 51l-71 -5l18 169l160 -13z" />
    <glyph glyph-name="hungarumlaut" unicode="&#x2dd;" horiz-adv-x="1103" 
d="M964 1358l-458 -306l-62 41l46 178l-159 -117l-76 61l205 490l188 -108l-102 -255l240 194z" />
    <glyph glyph-name="ogonek" unicode="&#x2db;" horiz-adv-x="1103" 
d="M903 -312l-163 -280l-531 295l261 348l117 -56l-163 -250l122 -66l77 127l91 -40l-56 -134l67 -30l71 138z" />
    <glyph glyph-name="caron" unicode="&#x2c7;" horiz-adv-x="1049" 
d="M913 1312l-382 -286l-411 299l97 97l301 -241l220 251z" />
    <glyph glyph-name="Lslash" unicode="&#x141;" horiz-adv-x="1401" 
d="M1402 275q0 -84 -62 -141t-185 -85q-71 -16 -198 -27t-310 -15q-167 -4 -273.5 -13.5t-151.5 -27.5l23 346q-31 -29 -59.5 -62t-55.5 -69l-74 51q35 66 85.5 132.5t116.5 135.5l22 314l-139 11l10 171l143 5l13 188l-149 11l10 168l151 -5l12 198l-155 17l2 155l572 -41
l-181 -959q93 51 175.5 76.5t156.5 25.5q12 0 24.5 -0.5t24.5 -2.5l-37 -194q-73 0 -169.5 -32t-217.5 -95l-59 -317l41 2q40 2 97 -2.5l130 -10.5q79 -7 135 -10.5t91 -3.5q158 0 237 44.5t79 134.5q0 30 -8 64.5t-24 74.5l75 41q41 -74 61.5 -137t20.5 -116z" />
    <glyph glyph-name="lslash" unicode="&#x142;" horiz-adv-x="847" 
d="M878 613l-102 -148q-36 23 -91.5 41.5t-131.5 29.5l-63 -536l-317 31l16 91l123 -17l5 183l-141 9l7 83l134 -2l2 165q-76 -8 -143.5 -29t-126.5 -52l-34 79q66 48 142.5 85.5t163.5 62.5l3 136l-158 10l10 100l150 -27v164l-150 17l13 82l140 3l2 173l-163 8l19 94
l144 -15l5 163l-173 13l13 102h518l-117 -995q101 -3 176.5 -28.5t124.5 -75.5z" />
    <glyph glyph-name="Scaron" unicode="&#x160;" horiz-adv-x="1202" 
d="M1140 1383q0 -157 -95 -252t-251 -95q-65 0 -120.5 15.5t-101.5 48.5q-51 36 -76.5 86t-25.5 112q0 52 19 92.5t58 68.5q35 25 78.5 38t97.5 13q33 0 63 -8t53 -25q27 -20 40.5 -45.5t13.5 -58.5q0 -48 -36.5 -80t-86.5 -32q-32 0 -54 11t-34 35q8 -2 17 -3t16 -1
q35 0 52 12.5t17 39.5q0 26 -18 39.5t-54 13.5q-24 0 -46 -6.5t-38 -19.5q-19 -15 -29 -34.5t-10 -42.5q0 -74 48 -110t144 -36q94 0 152 64.5t58 159.5q0 57 -26.5 102t-78.5 78q-43 28 -95.5 41t-113.5 13q-74 0 -135 -18t-108 -55q-51 -40 -77 -96t-26 -128
q0 -73 48 -141.5t144 -133.5l179 -121l178 -120q96 -85 144 -186.5t48 -219.5q0 -111 -39.5 -198.5t-119.5 -150.5q-74 -58 -166.5 -89t-205.5 -31q-89 0 -163.5 16t-137.5 49q-77 41 -116 101.5t-39 141.5q0 123 66.5 198.5t187.5 75.5q49 0 89 -14t73 -40q36 -28 53.5 -66
t17.5 -84q0 -86 -41 -128.5t-125 -42.5q-45 0 -78.5 25.5t-33.5 67.5q0 38 17.5 57t52.5 19q4 0 9 -0.5t10 -0.5q-12 -9 -18 -19t-6 -20q0 -20 12 -29t35 -9q26 0 38.5 16.5t12.5 50.5q0 23 -10.5 41.5t-32.5 33.5q-18 12 -40.5 18t-47.5 6q-69 0 -104 -39.5t-35 -116.5
q0 -45 21 -80t62 -60q34 -21 76 -31t90 -10q61 0 112 21t91 64q39 42 58.5 93t19.5 114q0 66 -40.5 140.5t-123.5 156.5l-150.5 144l-152.5 143q-81 87 -122 171.5t-41 165.5q0 120 42 212t125 154q75 56 174.5 83.5t224.5 27.5q92 0 173.5 -21.5t150.5 -65.5
q82 -52 122.5 -121t40.5 -155zM1042 2044l-382 -286l-411 299l97 97l301 -241l220 251z" />
    <glyph glyph-name="scaron" unicode="&#x161;" horiz-adv-x="901" 
d="M922 1312l-382 -286l-411 299l97 97l301 -241l220 251zM811 768q0 -83 -36 -123.5t-108 -40.5q-65 0 -97.5 24.5t-32.5 73.5q0 24 13 43.5t39 33.5l29 -21q-7 -8 -11 -15.5t-4 -14.5q0 -20 12 -29.5t35 -9.5q32 0 47 15.5t15 48.5q0 26 -13.5 47t-40.5 36
q-21 12 -46.5 18t-55.5 6q-38 0 -68.5 -9.5t-57.5 -28.5q-29 -21 -43 -50t-14 -65q0 -35 27 -68.5t79 -66.5l143.5 -91t52.5 -34q54 -45 80 -97.5t26 -115.5q0 -84 -31.5 -152t-96.5 -118q-59 -46 -132.5 -70t-160.5 -24q-57 0 -109 13.5t-101 40.5q-50 27 -87.5 66
t-62.5 89l74 69q46 -86 113 -128t154 -42q79 0 129.5 46.5t50.5 123.5q0 50 -22.5 97.5t-68.5 92.5l-85 74l-86 74q-45 46 -68 96t-23 105q0 67 29 120t85 93q49 35 109.5 51t131.5 16q59 0 107 -10.5t85 -30.5q49 -26 72.5 -66t23.5 -92zM275 314q0 -51 -36 -86.5
t-86 -35.5t-86 36t-36 86t36 86t86 36t86 -36t36 -86z" />
    <glyph glyph-name="Zcaron" unicode="&#x17d;" horiz-adv-x="1442" 
d="M414 1197l-31 -265l-235 56l76 163zM1442 1544l-81 -173l-205 7l-72 -97l182 -69l-110 -135l-170 74l-100 -130l147 -74l-86 -153l-171 87l-393 -516l883 56l59 -404l-1325 32l969 1332l-793 25l61 330zM551 219q0 34 -16.5 51.5t-49.5 17.5t-49.5 -17.5t-16.5 -51.5
q0 -35 16.5 -51.5t49.5 -16.5t49.5 16.5t16.5 51.5zM855 217q0 36 -25.5 61.5t-61.5 25.5q-35 0 -62 -25.5t-27 -61.5t27 -61.5t62 -25.5q36 0 61.5 25.5t25.5 61.5zM1135 212q0 33 -16 50.5t-50 17.5q-33 0 -50.5 -17.5t-17.5 -50.5q0 -34 17.5 -50t50.5 -16q34 0 50 16
t16 50zM1276 1999l-382 -286l-411 299l97 97l301 -241l220 251z" />
    <glyph glyph-name="zcaron" unicode="&#x17e;" horiz-adv-x="1156" 
d="M1181 745q0 -36 -17.5 -53.5t-53.5 -17.5q-35 0 -53 17.5t-18 53.5q0 35 18 53t53 18q36 0 53.5 -18t17.5 -53zM959 506q0 -35 -17 -52.5t-54 -17.5q-36 0 -54 17.5t-18 52.5t18 53t54 18q37 0 54 -18t17 -53zM1033 913l-768 -869l699 41l-17 -212l-908 45l463 850
l-443 -25l71 216zM738 268q0 -36 -17.5 -53.5t-53.5 -17.5t-54.5 17.5t-18.5 53.5q0 35 18.5 53t54.5 18t53.5 -18t17.5 -53zM689 840l-82 32q-20 -126 -58 -244t-94 -230l30 -40q65 102 116 223t88 259zM973 1312l-382 -286l-411 299l97 97l301 -241l220 251z" />
    <glyph glyph-name="brokenbar" unicode="&#xa6;" horiz-adv-x="857" 
d="M543 798l-229 8v1015l229 24v-1047zM543 -694l-229 -13v1100l229 -38v-1049zM506 1388q0 35 -18 53t-54 18q-35 0 -53 -18t-18 -53q0 -36 18 -53.5t53 -17.5q36 0 54 17.5t18 53.5z" />
    <glyph glyph-name="Eth" unicode="&#xd0;" horiz-adv-x="1465" 
d="M1363 927q0 -208 -94 -375t-283 -294q-146 -98 -335 -167t-424 -108l46 734q-35 -22 -70.5 -48t-70.5 -56l-98 227q54 29 117 53t134 44l51 847q246 -25 426 -76t295 -127q153 -102 229.5 -266t76.5 -388zM1054 928v100l-143 5l-13 131l138 5l-5 92l-148 15l-33 290
q-38 19 -104.5 39.5t-161.5 43.5l10 -651q70 8 126 13t99 7v-83q-63 -12 -119 -27t-106 -33l10 -697q68 13 140 42t149 74l10 378l133 7l13 102l-143 5l2 132z" />
    <glyph glyph-name="eth" unicode="&#xf0;" horiz-adv-x="1271" 
d="M1276 1521l-36 -194q-39 35 -77 57t-74 30q13 -59 19 -126t6 -140q0 -51 -10.5 -182t-31.5 -340l-125 -17l-10 -91l127 10l-10 -92l-122 -20l-19 -85l136 17l-10 -105l-121 -11l-5 -84l118 5l-8 -84l-311 -40l21 152q-68 -45 -140 -67t-149 -22q-164 0 -273 105.5
t-109 268.5q0 211 166 370.5t376 159.5q65 0 120 -16.5t101 -47.5q11 105 16.5 179.5t5.5 120.5q0 42 -3 77.5t-9 63.5q-55 -28 -107.5 -76t-101.5 -116l-64 46q47 90 102.5 156t119.5 110q-25 38 -62 57.5t-84 19.5q-98 0 -192.5 -60.5t-182.5 -179.5l-64 46
q38 82 91.5 152.5t124.5 125.5q78 61 159 91.5t166 30.5q99 0 172.5 -50.5t123.5 -150.5h13q53 0 109.5 -13t117.5 -41zM771 613q0 49 -11.5 91t-36.5 80q-28 42 -65 63.5t-84 21.5q-54 0 -99.5 -27.5t-83.5 -82.5q-34 -49 -49.5 -102.5t-15.5 -110.5q0 -49 12.5 -91.5
t36.5 -80.5q27 -43 64.5 -63.5t83.5 -20.5q55 0 101 27.5t83 82.5q33 48 48.5 101.5t15.5 111.5zM619 586q0 -58 -44.5 -101.5t-102.5 -43.5q-43 0 -73 30t-30 74q0 56 45 100t102 44q52 0 77.5 -26t25.5 -77z" />
    <glyph glyph-name="Yacute" unicode="&#xdd;" horiz-adv-x="1419" 
d="M166 1444q0 -33 -16.5 -49.5t-49.5 -16.5t-49.5 16.5t-16.5 49.5t16.5 49.5t49.5 16.5t49.5 -16.5t16.5 -49.5zM270 1247q0 -33 -16 -49.5t-50 -16.5q-32 0 -49 16.5t-17 49.5q0 34 17 51t49 17q34 0 50 -17t16 -51zM388 1042q0 -34 -16.5 -51t-50.5 -17q-32 0 -49 17
t-17 51q0 32 17 49t49 17q34 0 50.5 -17t16.5 -49zM1508 1771q-97 -13 -174.5 -67.5t-136.5 -152.5q54 28 98.5 41.5t77.5 13.5q16 0 38.5 -2.5t51.5 -6.5l-26 -81h-18q-155 0 -280.5 -129.5t-221.5 -394.5q-28 -78 -42 -124t-15 -57l-9.5 -201l-29.5 -603l-171 -36l-56 910
l-428 726l352 136l281 -730q70 188 128.5 320t108.5 210q95 148 208 222.5t244 74.5zM511 837q0 -33 -17 -50t-50 -17t-49.5 17t-16.5 50t16.5 49.5t49.5 16.5t50 -16.5t17 -49.5zM1172 2031l-362 -296l-80 79l274 401z" />
    <glyph glyph-name="Thorn" unicode="&#xde;" horiz-adv-x="1412" 
d="M280 1008q0 -36 -17.5 -53.5t-53.5 -17.5t-54.5 17.5t-18.5 53.5q0 35 18.5 53t54.5 18t53.5 -18t17.5 -53zM1327 846q0 -95 -30 -174.5t-90 -144.5q-62 -67 -140 -100.5t-171 -33.5q-57 0 -109 14t-97 43q-47 30 -79.5 72t-48.5 96l-36 -672l-178 -46l-9 95l-132 -29
l-15 164l142 21l-35 1018l-169 -25l-10 178l174 23v347q106 6 196.5 10t164.5 5l-29 -346q21 1 42 1.5t42 0.5q134 0 241 -31t190 -91q94 -68 140 -167.5t46 -227.5zM285 779q0 -36 -17.5 -54t-53.5 -18q-35 0 -53 18t-18 54q0 35 18 53t53 18q36 0 53.5 -18t17.5 -53z
M294 546q0 -36 -18 -53.5t-54 -17.5q-35 0 -53 17.5t-18 53.5t18 54t53 18q36 0 54 -18t18 -54zM297 299q0 -36 -18.5 -54t-54.5 -18q-35 0 -53 18t-18 54q0 35 18 53t53 18q36 0 54.5 -18t18.5 -53zM1125 825q0 93 -31 165t-93 120q-56 44 -133.5 65.5t-177.5 21.5
q-18 0 -38.5 -1l-42.5 -2l-27 -339q37 92 102 138t158 46q46 0 69.5 -18t23.5 -54q0 -22 -15 -36.5t-46 -22.5q-47 -12 -76 -21.5t-38 -15.5q-30 -20 -45.5 -56t-15.5 -87q0 -83 57.5 -134t139.5 -51q56 0 99 22t74 67q27 39 41.5 86.5t14.5 106.5zM962 728
q0 -36 -17.5 -54.5t-53.5 -18.5t-54 18.5t-18 54.5q0 35 18 53t54 18t53.5 -18t17.5 -53z" />
    <glyph glyph-name="thorn" unicode="&#xfe;" horiz-adv-x="1227" 
d="M1171 436q0 -101 -29 -184t-87 -150q-61 -71 -140.5 -106t-179.5 -35q-159 0 -254.5 97t-95.5 256q0 62 19.5 115.5t56.5 98.5q40 48 90.5 71.5t111.5 23.5q34 0 50.5 -16t16.5 -48q0 -27 -15.5 -44t-45.5 -24q-46 -11 -74 -20t-37 -16q-30 -23 -45.5 -64.5t-15.5 -102.5
q0 -46 17.5 -83t52.5 -65q33 -27 72.5 -41t85.5 -14q65 0 115 24t83 73q29 42 44 97.5t15 124.5q0 146 -94 242.5t-240 96.5q-62 0 -114.5 -25.5t-94.5 -77.5q-38 -47 -61 -102t-30 -119l-114 -1021l-142 -31l40 2257l435 78l-172 -988q50 100 146 159t207 59
q99 0 178.5 -38t137.5 -114q54 -70 80.5 -156t26.5 -188zM799 304q0 -39 -19.5 -58t-59.5 -19t-60 19t-20 58q0 32 24 55.5t56 23.5q31 0 55 -23.5t24 -55.5zM439 1544l-220 -41l-20 -1248l30 93q30 92 57.5 223.5t52.5 298.5zM383 1403q0 -31 -15 -46t-47 -15q-29 0 -45 15
t-16 46t16 46.5t45 15.5q32 0 47 -15.5t15 -46.5zM353 1184q0 -28 -13.5 -41t-40.5 -13q-26 0 -40 13t-14 41q0 26 14 39.5t40 13.5q27 0 40.5 -13.5t13.5 -39.5zM324 988q0 -20 -10 -29t-31 -9q-20 0 -30 9t-10 29t10 30t30 10q21 0 31 -10t10 -30z" />
    <glyph glyph-name="minus" unicode="&#x2212;" horiz-adv-x="1006" 
d="M952 955l-12 -205l-855 100l-21 105h888zM875 888l-424 20v-38l399 -56z" />
    <glyph glyph-name="onesuperior" unicode="&#xb9;" horiz-adv-x="584" 
d="M472 1743l-53 -1023l-151 -18l-87 871l-115 -27l-32 95zM395 1470l-71 8q-26 -90 -37.5 -168.5t-11.5 -146.5v-33l37 14q7 87 27.5 168.5t55.5 157.5z" />
    <glyph glyph-name="twosuperior" unicode="&#xb2;" horiz-adv-x="855" 
d="M791 679l-784 44q30 131 109.5 258.5t207.5 250.5q87 83 130 159.5t43 144.5q0 28 -13 50.5t-40 39.5q-24 15 -50 22.5t-55 7.5q-37 0 -69 -7t-59 -22q-33 -18 -49.5 -44.5t-16.5 -61.5q0 -44 19 -66.5t58 -22.5q40 0 59 15t19 45q0 7 -2.5 15.5t-7.5 18.5
q41 -10 62 -30.5t21 -52.5q0 -27 -14.5 -47t-43.5 -34q-22 -11 -47.5 -16.5t-55.5 -5.5q-38 0 -69 9t-56 30q-27 22 -41 50.5t-14 64.5q0 55 29.5 97.5t86.5 73.5q47 26 101 36.5t114 10.5q77 0 139 -15t109 -46q56 -37 84 -92t28 -127q0 -51 -30.5 -103t-91.5 -105
l-122 -91l-121 -91q-71 -55 -115.5 -105t-61.5 -95l559 86zM660 1480q0 22 -12 33t-39 11q-23 0 -35 -11t-12 -33t12 -32.5t35 -10.5q27 0 39 10.5t12 32.5zM628 1345q0 27 -15.5 41.5t-48.5 14.5q-32 0 -48 -14.5t-16 -41.5q0 -29 16 -43t48 -14q33 0 48.5 14t15.5 43z
M508 1235q0 21 -11.5 32t-36.5 11t-38 -11t-13 -32q0 -23 13 -33.5t38 -10.5t36.5 10.5t11.5 33.5z" />
    <glyph glyph-name="threesuperior" unicode="&#xb3;" horiz-adv-x="972" 
d="M908 942l-15 -59l-68 10q-18 -39 -47 -73t-69 -62l46 -69l-61 -41l-49 75q-44 -21 -96.5 -31t-112.5 -10l-17 -83l-78 14l24 76q-42 5 -77.5 20.5t-65.5 40.5l-76 -56l-49 44l84 51q-18 18 -33.5 45.5t-30.5 63.5l-81 -15l-19 52l90 12q-4 15 -5.5 28t-1.5 26l51 10
q10 -47 37.5 -84t71.5 -65q41 -26 87 -38.5t94 -12.5q44 0 79.5 12.5t67.5 36.5q34 26 50.5 59.5t16.5 76.5q0 113 -79.5 171t-239.5 60l368 358l-543 -85l-54 225l723 -30l48 -95l-325 -319q31 0 53 -2t34 -5l54 53l54 -36l-46 -40q31 -19 55 -42.5t42 -52.5l76 33l26 -43
l-80 -38q19 -50 22.5 -88.5t-6.5 -67.5z" />
    <glyph glyph-name="onehalf" unicode="&#xbd;" horiz-adv-x="1763" 
d="M442 1743l-53 -1023l-151 -18l-87 871l-115 -27l-32 95zM1278 1771l-834 -1988l-304 296l916 1723zM1757 2l-784 44q30 131 109.5 258.5t207.5 250.5q87 83 130 159.5t43 144.5q0 28 -13 50.5t-40 39.5q-24 15 -50 22.5t-55 7.5q-37 0 -69 -7t-59 -22
q-33 -18 -49.5 -44.5t-16.5 -61.5q0 -44 19 -66.5t58 -22.5q40 0 59 15t19 45q0 7 -2.5 15.5t-7.5 18.5q41 -10 62 -30.5t21 -52.5q0 -27 -14.5 -47t-43.5 -34q-22 -11 -47.5 -16.5t-55.5 -5.5q-38 0 -69 9t-56 30q-27 22 -41 50.5t-14 64.5q0 55 29.5 97.5t86.5 73.5
q47 26 101 36.5t114 10.5q77 0 139 -15t109 -46q56 -37 84 -92t28 -127q0 -51 -30.5 -103t-91.5 -105l-122 -91l-121 -91q-71 -55 -115.5 -105t-61.5 -95l559 86zM365 1470l-71 8q-26 -90 -37.5 -168.5t-11.5 -146.5v-33l37 14q7 87 27.5 168.5t55.5 157.5zM1626 803
q0 22 -12 33t-39 11q-23 0 -35 -11t-12 -33t12 -32.5t35 -10.5q27 0 39 10.5t12 32.5zM776 753q0 41 -20.5 61.5t-61.5 20.5q-40 0 -60.5 -20.5t-20.5 -61.5q0 -33 24 -56t57 -23q32 0 57 23t25 56zM1594 668q0 27 -15.5 41.5t-48.5 14.5q-32 0 -48 -14.5t-16 -41.5
q0 -29 16 -43t48 -14q33 0 48.5 14t15.5 43zM1474 558q0 21 -11.5 32t-36.5 11t-38 -11t-13 -32q0 -23 13 -33.5t38 -10.5t36.5 10.5t11.5 33.5zM654 467q0 44 -32 75.5t-75 31.5q-44 0 -76 -31.5t-32 -75.5q0 -43 32 -75t76 -32q43 0 75 32t32 75zM508 117q0 51 -38 89.5
t-89 38.5q-53 0 -91 -38.5t-38 -89.5t38 -87.5t91 -36.5q51 0 89 36.5t38 87.5z" />
    <glyph glyph-name="onequarter" unicode="&#xbc;" horiz-adv-x="1855" 
d="M442 1743l-53 -1023l-151 -18l-87 871l-115 -27l-32 95zM1322 1771l-834 -1988l-304 296l916 1723zM1561 732q0 -37 -21.5 -55t-65.5 -18q-32 0 -59.5 21t-27.5 52q0 33 27.5 55.5t59.5 22.5q34 0 60.5 -22t26.5 -56zM1867 245l-232 -46l-13 -255l-84 -5v238l-67 -10
l10 -381l-99 -23l-18 380l-239 -49l-233 68l31 68l95 -26l25 49l-100 31l24 58l98 -28l19 57l-95 27l23 59l84 -25l20 56l-81 22l191 475l126 -20l-138 -620h143l-8 138l113 22l2 -163h74v246l118 2l-14 -250l202 -3zM365 1470l-71 8q-26 -90 -37.5 -168.5t-11.5 -146.5v-33
l37 14q7 87 27.5 168.5t55.5 157.5zM820 753q0 41 -20.5 61.5t-61.5 20.5q-40 0 -60.5 -20.5t-20.5 -61.5q0 -33 24 -56t57 -23q32 0 57 23t25 56zM698 467q0 44 -32 75.5t-75 31.5q-44 0 -76 -31.5t-32 -75.5q0 -43 32 -75t76 -32q43 0 75 32t32 75zM552 117q0 51 -38 89.5
t-89 38.5q-53 0 -91 -38.5t-38 -89.5t38 -87.5t91 -36.5q51 0 89 36.5t38 87.5z" />
    <glyph glyph-name="threequarters" unicode="&#xbe;" horiz-adv-x="2169" 
d="M896 942l-15 -59l-68 10q-18 -39 -47 -73t-69 -62l46 -69l-61 -41l-49 75q-44 -21 -96.5 -31t-112.5 -10l-17 -83l-78 14l24 76q-42 5 -77.5 20.5t-65.5 40.5l-76 -56l-49 44l84 51q-18 18 -33.5 45.5t-30.5 63.5l-81 -15l-19 52l90 12q-4 15 -5.5 28t-1.5 26l51 10
q10 -47 37.5 -84t71.5 -65q41 -26 87 -38.5t94 -12.5q44 0 79.5 12.5t67.5 36.5q34 26 50.5 59.5t16.5 76.5q0 113 -79.5 171t-239.5 60l368 358l-543 -85l-54 225l723 -30l48 -95l-325 -319q31 0 53 -2t34 -5l54 53l54 -36l-46 -40q31 -19 55 -42.5t42 -52.5l76 33l26 -43
l-80 -38q19 -50 22.5 -88.5t-6.5 -67.5zM1701 1771l-834 -1988l-304 296l916 1723zM1915 732q0 -37 -21.5 -55t-65.5 -18q-32 0 -59.5 21t-27.5 52q0 33 27.5 55.5t59.5 22.5q34 0 60.5 -22t26.5 -56zM2221 245l-232 -46l-13 -255l-84 -5v238l-67 -10l10 -381l-99 -23
l-18 380l-239 -49l-233 68l31 68l95 -26l25 49l-100 31l24 58l98 -28l19 57l-95 27l23 59l84 -25l20 56l-81 22l191 475l126 -20l-138 -620h143l-8 138l113 22l2 -163h74v246l118 2l-14 -250l202 -3zM1199 753q0 41 -20.5 61.5t-61.5 20.5q-40 0 -60.5 -20.5t-20.5 -61.5
q0 -33 24 -56t57 -23q32 0 57 23t25 56zM1077 467q0 44 -32 75.5t-75 31.5q-44 0 -76 -31.5t-32 -75.5q0 -43 32 -75t76 -32q43 0 75 32t32 75zM931 117q0 51 -38 89.5t-89 38.5q-53 0 -91 -38.5t-38 -89.5t38 -87.5t91 -36.5q51 0 89 36.5t38 87.5z" />
    <glyph glyph-name="yacute" unicode="&#xfd;" horiz-adv-x="1215" 
d="M1087 320q0 -514 -143.5 -771.5t-430.5 -257.5q-133 0 -245.5 36t-203.5 109l46 87q67 -56 150.5 -83.5t183.5 -27.5q36 0 69.5 3.5t65.5 12.5q-16 -2 -31.5 -3t-31.5 -1q-76 0 -144 24t-129 72q-64 51 -97 113.5t-36 137.5q41 -56 78 -96.5t71 -62.5q44 -29 95.5 -43.5
t112.5 -14.5q169 0 260.5 187.5t107.5 562.5q-30 -51 -60.5 -88.5t-62.5 -62.5l36 -89l-61 -52l-39 103q-31 -15 -66.5 -20t-75.5 0l-29 -112l-92 22l44 105q-45 15 -83 44t-68 73l-86 -66l-67 71l118 67q-16 37 -26.5 78.5t-14.5 87.5l-97 -36l-31 79l120 35q-1 10 -2 22
t-1 24q0 14 2.5 41.5t5.5 68.5h-135l10 95l133 -20l10 81l168 12q-21 -82 -31.5 -154.5t-10.5 -134.5q0 -67 13 -123t38 -100q31 -55 77 -82.5t108 -27.5q120 0 179 78.5t59 235.5q0 54 -8 114.5t-25 127.5l270 61q16 -149 24.5 -284.5t8.5 -257.5zM921 1340l-362 -296
l-80 79l274 401z" />
    <glyph glyph-name="multiply" unicode="&#xd7;" horiz-adv-x="1106" 
d="M898 657l-255 -196l-150 246l-243 -227l-66 59l233 290l-193 297l122 79l210 -187l154 199l154 -114l-207 -204z" />
    <glyph glyph-name="sfthyphen" unicode="&#xad;" horiz-adv-x="1006" 
d="M952 955l-12 -205l-855 100l-21 105h888zM875 888l-424 20v-38l399 -56z" />
    <glyph glyph-name="currency" unicode="&#xa4;" horiz-adv-x="1271" 
d="M1207 536l-125 -34q3 -20 5 -41t2 -45q0 -68 -20.5 -134.5t-59.5 -131.5q-42 -69 -95 -113t-115 -66l28 -119l-92 -23l-18 117q-29 -5 -52 -7.5t-39 -2.5q-67 0 -130 18.5t-122 56.5q-61 39 -103 89.5t-64 111.5l-125 -39l-18 85l114 25q-9 37 -13 71t-4 62
q0 120 48.5 217t145.5 173l-67 105l77 53l66 -112q46 22 94.5 33t100.5 11q162 0 271 -78t165 -234l122 54zM809 416q0 63 -12 116t-39 97q-32 53 -76 79.5t-103 26.5q-57 0 -102 -26.5t-76 -80.5q-26 -44 -38.5 -97.5t-12.5 -114.5q0 -65 12.5 -118.5t37.5 -96.5
q31 -54 76 -80t103 -26q60 0 105 26t75 80q24 43 37 96.5t13 118.5z" />
  </font>
</defs>
</svg>
