<?xml version="1.0" standalone="no"?>
<!DOCTYPE svg PUBLIC "-//W3C//DTD SVG 1.1//EN" "http://www.w3.org/Graphics/SVG/1.1/DTD/svg11.dtd" >
<svg>
<metadata>
Created by FontForge 20090914 at Sun Dec 18 15:31:28 2011
 By www-data
Copyright 1987, 1990, 1994, 2001 , 2002Adobe Systems Incorporated. All Rights Reserved. 
</metadata>
<defs>
<font id="StencilStd" horiz-adv-x="695" >
  <font-face 
    font-family="Stencil Std"
    font-weight="700"
    font-stretch="normal"
    units-per-em="1000"
    panose-1="0 0 8 0 0 0 0 0 0 0"
    ascent="748"
    descent="-252"
    x-height="748"
    cap-height="748"
    bbox="-158 -298 1265 1019"
    underline-thickness="50"
    underline-position="-50"
    stemh="58"
    stemv="245"
    unicode-range="U+0020-U+FB02"
  />
<missing-glyph horiz-adv-x="500" 
d="M0 0v700h500v-700h-500zM250 395l170 255h-340zM280 350l170 -255v510zM80 50h340l-170 255zM50 605v-510l170 255z" />
    <glyph glyph-name=".notdef" horiz-adv-x="500" 
d="M0 0v700h500v-700h-500zM250 395l170 255h-340zM280 350l170 -255v510zM80 50h340l-170 255zM50 605v-510l170 255z" />
    <glyph glyph-name="space" unicode=" " horiz-adv-x="340" 
 />
    <glyph glyph-name="exclam" unicode="!" horiz-adv-x="378" 
d="M302 93c0 -58 -46 -108 -108 -108s-108 50 -108 108s46 108 108 108s108 -50 108 -108zM189 763c78 0 113 -67 113 -138c0 -41 -16 -90 -29 -130c-23 -69 -45 -139 -48 -212c-1 -21 -6 -41 -36 -41s-35 20 -36 41c-3 73 -25 143 -48 212c-13 40 -29 89 -29 130
c0 71 35 138 113 138z" />
    <glyph glyph-name="quotedbl" unicode="&#x22;" horiz-adv-x="333" 
d="M77 763c33 0 52 -18 52 -60c0 -28 -14 -150 -21 -221c-2 -22 -17 -35 -31 -35s-29 13 -31 35c-7 71 -21 193 -21 221c0 42 19 60 52 60zM256 763c33 0 52 -18 52 -60c0 -28 -14 -150 -21 -221c-2 -22 -17 -35 -31 -35s-29 13 -31 35c-7 71 -21 193 -21 221
c0 42 19 60 52 60z" />
    <glyph glyph-name="numbersign" unicode="#" horiz-adv-x="631" 
d="M587 569l-18 -126h-115l-29 -107h101l-19 -127h-111l-46 -194h-62l47 194h-117l-45 -194h-63l48 194h-118l18 127h128l27 107h-109l18 126h120l40 164h62l-40 -164h116l40 164h62l-41 -164h106zM392 442h-116l-28 -106h116z" />
    <glyph glyph-name="dollar" unicode="$" horiz-adv-x="570" 
d="M249 58v168l58 -22v-146c43 -1 93 36 93 88c0 47 -30 76 -151 127c-143 67 -209 131 -207 243c2 123 95 215 207 230v73h58v-71c86 -3 212 -47 212 -156c0 -53 -42 -81 -91 -81c-44 0 -82 33 -82 77s29 61 29 75c0 20 -56 29 -68 27v-146l-58 25v121
c-34 -8 -64 -40 -59 -80c7 -57 69 -92 115 -112l82 -38c103 -47 161 -106 161 -225c0 -141 -112 -228 -241 -235v-82h-58v82c-90 2 -227 54 -227 167c0 55 40 96 95 96c50 0 87 -41 87 -90c0 -59 -53 -69 -53 -80c0 -19 82 -42 98 -35z" />
    <glyph glyph-name="percent" unicode="%" horiz-adv-x="817" 
d="M625 0v42c26 6 36 20 36 48v146c0 28 -10 42 -36 48v42c100 0 185 -47 185 -163s-85 -163 -185 -163zM553 748h64l-363 -748h-64zM596 326v-42c-26 -6 -36 -20 -36 -48v-146c0 -28 10 -42 36 -48v-42c-100 0 -185 47 -185 163s85 163 185 163zM221 437v42
c26 6 36 20 36 48v146c0 28 -10 42 -36 48v42c100 0 185 -47 185 -163s-85 -163 -185 -163zM192 763v-42c-26 -6 -36 -20 -36 -48v-146c0 -28 10 -42 36 -48v-42c-100 0 -185 47 -185 163s85 163 185 163z" />
    <glyph glyph-name="ampersand" unicode="&#x26;" horiz-adv-x="781" 
d="M481 0l-244 438c-23 40 -36 94 -36 140c0 111 108 186 212 186l36 -3v-68c-22 -7 -35 -26 -35 -49s10 -44 20 -63l254 -473c12 -22 21 -39 44 -51c14 -7 19 -11 19 -27c0 -29 -29 -30 -34 -30h-236zM494 693v61c63 -8 110 -69 110 -132c0 -52 -31 -105 -75 -131l-27 50
c26 23 42 42 42 78c0 34 -20 60 -50 74zM648 270l-28 52c10 16 16 33 16 52c0 38 -23 52 -23 70c0 25 41 36 61 36c34 0 41 -35 41 -62c0 -62 -28 -104 -67 -148zM204 412l28 -50c-9 -11 -14 -17 -14 -31c0 -13 1 -19 7 -29l100 -185c22 -42 33 -37 64 -37l30 -52
c-215 -120 -395 34 -390 172c4 100 87 181 175 212z" />
    <glyph glyph-name="quoteright" unicode="&#x2019;" horiz-adv-x="375" 
d="M300 633c0 -64 -44 -129 -91 -168c-45 -38 -79 -53 -101 -56c-23 -3 -34 8 -34 23c0 19 29 33 43 42c45 27 73 52 73 71c0 14 -22 14 -32 15c-48 4 -79 56 -79 101c0 59 49 102 106 102c71 0 115 -65 115 -130z" />
    <glyph glyph-name="parenleft" unicode="(" horiz-adv-x="387" 
d="M42 326c0 88 35 186 89 260c31 43 66 79 108 113c24 20 76 64 111 64c11 0 25 -7 25 -19c0 -8 -9 -16 -14 -20c-46 -34 -103 -128 -125 -173c-31 -62 -55 -155 -55 -224c0 -68 21 -155 49 -217c22 -51 81 -148 131 -184c5 -5 14 -11 14 -20c0 -12 -14 -19 -25 -19
c-65 0 -188 134 -223 182c-31 43 -53 88 -66 137c-9 33 -19 87 -19 120z" />
    <glyph glyph-name="parenright" unicode=")" horiz-adv-x="387" 
d="M345 324c0 -88 -35 -186 -89 -260c-31 -43 -66 -79 -108 -113c-24 -20 -76 -64 -111 -64c-11 0 -25 7 -25 19c0 8 9 16 14 20c46 34 103 128 125 173c31 62 55 155 55 224c0 68 -21 155 -49 217c-22 51 -81 148 -131 184c-5 5 -14 11 -14 20c0 12 14 19 25 19
c65 0 188 -134 223 -182c31 -43 53 -88 66 -137c9 -33 19 -87 19 -120z" />
    <glyph glyph-name="asterisk" unicode="*" horiz-adv-x="444" 
d="M226 622l-47 82c-8 14 -15 25 -1 40c10 11 32 19 48 19s38 -8 48 -19c14 -15 7 -26 0 -40zM250 608l48 82c8 13 14 25 34 21c14 -4 32 -19 40 -32c8 -15 12 -37 8 -52c-6 -20 -19 -19 -35 -19h-95zM196 608h-94c-17 0 -29 -1 -36 19c-4 14 0 37 8 51c9 13 26 28 41 32
c20 4 26 -7 34 -21zM220 568l47 -82c8 -14 15 -24 1 -40c-10 -11 -32 -19 -48 -19s-38 8 -49 19c-13 16 -6 26 1 40zM194 583l-46 -83c-9 -13 -15 -24 -35 -20c-15 3 -32 18 -40 33c-8 13 -13 36 -8 51c7 19 19 18 35 19h94zM248 583h95c16 -1 29 0 35 -19
c4 -15 0 -38 -8 -51c-8 -15 -26 -30 -40 -33c-20 -4 -26 7 -34 20z" />
    <glyph glyph-name="plus" unicode="+" horiz-adv-x="586" 
d="M538 244h-184v-221h-121v221h-185v118h185v210h121v-210h184v-118z" />
    <glyph glyph-name="comma" unicode="," horiz-adv-x="375" 
d="M301 82c0 -64 -44 -129 -91 -168c-45 -38 -79 -53 -101 -56c-23 -3 -34 8 -34 23c0 19 29 33 43 42c45 27 73 52 73 71c0 14 -22 14 -32 15c-48 4 -79 56 -79 101c0 59 49 102 106 102c71 0 115 -65 115 -130z" />
    <glyph glyph-name="hyphen" unicode="-" horiz-adv-x="500" 
d="M75 447h350v-152h-350v152z" />
    <glyph glyph-name="period" unicode="." horiz-adv-x="364" 
d="M290 93c0 -58 -46 -108 -108 -108s-108 50 -108 108s46 108 108 108s108 -50 108 -108z" />
    <glyph glyph-name="slash" unicode="/" horiz-adv-x="313" 
d="M269 748h84l-308 -861h-84z" />
    <glyph glyph-name="zero" unicode="0" horiz-adv-x="630" 
d="M293 43v-58c-146 18 -282 131 -282 389s136 371 282 389v-58c-50 -17 -57 -50 -58 -96v-470c1 -46 8 -79 58 -96zM338 705v58c146 -18 282 -131 282 -389s-136 -371 -282 -389v58c50 17 57 50 58 96v470c-1 46 -8 79 -58 96z" />
    <glyph glyph-name="one" unicode="1" horiz-adv-x="630" 
d="M422 748v-646c0 -29 2 -33 41 -44c16 -2 26 -11 26 -28c0 -31 -39 -30 -48 -30h-249c-9 0 -48 -1 -48 30c0 17 10 26 26 28c39 11 41 15 41 44v503c0 63 -7 66 -32 70c-17 2 -37 5 -37 27c0 35 39 33 49 34z" />
    <glyph glyph-name="two" unicode="2" horiz-adv-x="630" 
d="M290 703v60c136 3 278 -67 274 -219c-3 -117 -82 -186 -185 -226l-146 -69l-10 -7c-36 0 -70 -16 -100 -29l-2 2c100 141 216 112 219 328c0 14 3 137 -50 160zM530 58c-31 -42 -90 -73 -143 -73c-83 0 -175 50 -241 50c-35 0 -52 -36 -72 -36c-19 0 -27 15 -27 33
c0 43 24 91 56 120c38 33 86 45 134 45s95 -10 141 -17c33 -5 67 -12 101 -12c72 0 33 74 78 74c24 0 28 -24 28 -43c0 -45 -28 -106 -55 -141zM244 761v-60c-12 -1 -33 -8 -33 -22c0 -17 61 -23 61 -102c0 -56 -51 -102 -108 -102c-66 0 -109 51 -109 115
c0 101 100 160 189 171z" />
    <glyph glyph-name="three" unicode="3" horiz-adv-x="630" 
d="M256 760v-59c-16 -3 -42 -11 -42 -29c0 -22 51 -24 51 -90c0 -51 -44 -98 -96 -98c-58 0 -99 43 -99 100c0 102 95 162 186 176zM418 382v-2c109 -30 169 -79 169 -183c0 -91 -57 -217 -286 -212v59c47 11 62 43 62 90v134c0 46 -7 86 -65 89c-19 1 -41 3 -41 28
c0 26 20 28 41 30c64 6 65 71 65 81v116c0 45 -14 81 -62 92v59c199 9 274 -114 274 -198c0 -99 -66 -160 -157 -183zM256 44v-59c-94 8 -211 59 -211 169c0 61 44 109 107 109c50 0 101 -46 101 -97c0 -69 -56 -84 -56 -101c0 -16 45 -20 59 -21z" />
    <glyph glyph-name="four" unicode="4" horiz-adv-x="630" 
d="M255 228v-58h-199c-10 0 -32 0 -32 38c0 23 9 36 22 54l207 286h2v-84l-168 -236h168zM300 102v506l79 108c17 19 24 32 45 32h56c27 0 31 6 31 -42v-478h70c8 0 26 0 26 -29s-18 -29 -26 -29h-70v-68c0 -29 2 -33 41 -44c16 -2 26 -11 26 -28c0 -31 -39 -30 -48 -30
h-249c-9 0 -48 -1 -48 30c0 17 10 26 26 28c39 11 41 15 41 44z" />
    <glyph glyph-name="five" unicode="5" horiz-adv-x="630" 
d="M99 537l56 -6l-10 -117c29 27 67 53 110 62v-78c-35 -8 -68 -19 -100 -39c-11 -7 -25 -16 -38 -16c-19 0 -33 10 -33 29zM301 -15v58c53 15 57 70 57 106v143c0 35 -4 91 -57 106v81c154 3 281 -79 281 -247s-127 -250 -281 -247zM255 44v-59c-91 4 -206 66 -206 168
c0 62 46 111 108 111c55 0 100 -44 99 -98c-1 -63 -52 -83 -52 -95c0 -16 38 -24 51 -27zM119 763l207 -17c71 -6 178 -2 230 17c-15 -61 -50 -108 -98 -144c-64 -46 -128 -53 -205 -53l-154 11z" />
    <glyph glyph-name="six" unicode="6" horiz-adv-x="630" 
d="M310 340v59c36 20 74 33 115 33c108 0 189 -86 189 -193c0 -143 -105 -260 -261 -254v59c35 7 37 30 37 35v230c0 5 -1 43 -37 47c-14 0 -31 -9 -43 -16zM308 43v-58c-133 2 -275 138 -280 389c5 251 147 387 280 389v-59c-46 -8 -56 -45 -56 -88v-485
c0 -43 10 -80 56 -88zM353 704v59c90 -1 211 -60 211 -162c0 -64 -48 -107 -110 -107c-48 0 -96 39 -95 88c1 54 39 64 39 92c0 20 -27 30 -45 30z" />
    <glyph glyph-name="seven" unicode="7" horiz-adv-x="630" 
d="M192 140c0 158 150 246 222 370c24 2 48 10 70 19c-74 -145 -84 -221 -65 -320c6 -31 12 -55 12 -88c0 -64 -43 -129 -117 -129c-84 0 -122 72 -122 148zM154 744l-8 -64c59 49 81 78 164 78c44 0 71 -11 113 -24c17 -6 56 -19 72 -19s23 6 34 16c6 5 10 11 18 11
c13 0 21 -11 21 -23c0 -24 -23 -75 -35 -95c-25 -42 -76 -61 -136 -61c-70 0 -152 39 -223 29c-47 -7 -52 -37 -53 -74v-8h-42l35 234h40z" />
    <glyph glyph-name="eight" unicode="8" horiz-adv-x="630" 
d="M338 705v58c118 -5 256 -66 247 -199c-7 -102 -75 -153 -167 -176v-2c105 -24 179 -87 179 -202c0 -58 -34 -213 -259 -199v58c34 13 35 51 35 56v213c0 5 0 34 -35 46v58c33 11 35 45 35 50v182c0 5 4 41 -35 57zM293 416v-58c-35 -12 -35 -41 -35 -46v-213
c0 -5 1 -43 35 -56v-58c-225 -14 -259 141 -259 199c0 115 74 178 179 202v2c-92 23 -172 75 -167 176c7 134 129 194 247 199v-58c-39 -16 -35 -52 -35 -57v-182c0 -5 2 -39 35 -50z" />
    <glyph glyph-name="nine" unicode="9" horiz-adv-x="630" 
d="M319 408v-59c-36 -20 -74 -33 -115 -33c-108 0 -189 86 -189 193c0 143 105 260 261 254v-59c-35 -7 -37 -30 -37 -35v-230c0 -5 1 -43 37 -47c14 0 31 9 43 16zM321 705v58c133 -2 275 -138 280 -389c-5 -251 -147 -387 -280 -389v59c46 8 56 45 56 88v485
c0 43 -10 80 -56 88zM276 44v-59c-90 1 -211 60 -211 162c0 64 48 107 110 107c48 0 94 -39 95 -88c1 -54 -39 -64 -39 -92c0 -20 27 -30 45 -30z" />
    <glyph glyph-name="colon" unicode=":" horiz-adv-x="364" 
d="M290 447c0 -58 -46 -108 -108 -108s-108 50 -108 108s46 108 108 108s108 -50 108 -108zM290 93c0 -58 -46 -108 -108 -108s-108 50 -108 108s46 108 108 108s108 -50 108 -108z" />
    <glyph glyph-name="semicolon" unicode=";" horiz-adv-x="375" 
d="M301 83c0 -64 -44 -129 -91 -168c-45 -38 -79 -53 -101 -56c-23 -3 -34 8 -34 23c0 19 29 33 43 42c45 27 73 52 73 71c0 14 -22 14 -32 15c-48 4 -79 56 -79 101c0 59 49 102 106 102c71 0 115 -65 115 -130zM290 447c0 -58 -46 -108 -108 -108s-108 50 -108 108
s46 108 108 108s108 -50 108 -108z" />
    <glyph glyph-name="less" unicode="&#x3c;" horiz-adv-x="586" 
d="M537 4l-488 238v124l488 237v-129l-377 -169v-2l377 -169v-130z" />
    <glyph glyph-name="equal" unicode="=" horiz-adv-x="586" 
d="M538 365h-490v118h490v-118zM538 124h-490v117h490v-117z" />
    <glyph glyph-name="greater" unicode="&#x3e;" horiz-adv-x="586" 
d="M49 603l488 -238v-124l-487 -237v130l377 169v3l-378 168v129z" />
    <glyph glyph-name="question" unicode="?" horiz-adv-x="606" 
d="M282 763v-58c-13 -4 -26 -7 -26 -24c0 -9 2 -13 5 -22c5 -12 7 -19 7 -34c0 -49 -43 -87 -92 -87c-54 0 -101 37 -101 94s58 131 207 131zM330 702v58c111 -11 202 -105 202 -218c0 -128 -96 -220 -237 -238c-28 -4 -36 -5 -37 -37c0 -18 -7 -33 -28 -33
c-30 0 -30 21 -30 45v168c0 33 -3 36 34 36c78 2 130 57 130 135c0 30 -8 63 -34 84zM351 93c0 -58 -46 -108 -108 -108s-108 50 -108 108s46 108 108 108s108 -50 108 -108z" />
    <glyph glyph-name="at" unicode="@" horiz-adv-x="918" 
d="M716 -6l23 -34c-95 -101 -231 -137 -314 -137c-205 0 -370 119 -370 382c0 275 227 446 464 446c229 0 350 -136 350 -303c0 -180 -118 -314 -288 -314c-68 0 -101 31 -90 92l8 35l-2 2c-40 -64 -129 -129 -191 -129c-34 0 -64 39 -62 117c1 74 26 156 95 225
c49 50 151 97 229 97c21 0 59 -6 77 -11c13 -4 24 -5 45 -5c-9 -33 -34 -151 -59 -285c-11 -60 1 -76 23 -76c68 0 139 77 139 247c0 158 -119 260 -274 260c-218 0 -365 -167 -365 -392c0 -158 95 -313 315 -313c65 0 154 15 247 96zM508 419l-1 -1c-18 1 -35 -12 -51 -31
c-27 -34 -58 -102 -58 -207c0 -26 7 -36 18 -36c18 0 61 36 96 123c10 43 26 102 31 137c-8 10 -20 15 -35 15z" />
    <glyph glyph-name="A" unicode="A" 
d="M221 608l26 -113l-94 -342c-16 -61 -2 -78 32 -93c16 -7 30 -13 30 -33c0 -28 -32 -27 -52 -27h-115c-20 0 -56 1 -56 30c0 24 17 23 39 34c21 11 48 34 67 105l120 439h3zM374 117l-20 77h-146l14 58h122l-101 442l13 54h221l150 -632c6 -28 7 -47 35 -59
c14 -6 25 -13 25 -31c0 -27 -36 -26 -55 -26h-249c-20 0 -49 2 -49 28c0 16 6 21 19 28c26 15 30 22 21 61z" />
    <glyph glyph-name="B" unicode="B" horiz-adv-x="751" 
d="M334 748v-748h-269c-7 0 -32 2 -32 31c0 14 9 23 22 27c35 11 34 17 34 54v524c0 37 1 43 -34 54c-13 4 -22 13 -22 27c0 29 25 31 32 31h269zM379 690v58h31c63 0 127 -1 185 -29c62 -31 98 -83 98 -154c0 -110 -92 -161 -189 -176v-2c111 -18 199 -67 199 -192
c0 -71 -31 -127 -94 -162c-64 -36 -127 -33 -198 -33h-32v58c67 3 75 41 75 77v129c0 46 -11 89 -75 94v58c73 6 75 49 75 86v100c0 42 -15 82 -75 88z" />
    <glyph glyph-name="C" unicode="C" horiz-adv-x="656" 
d="M391 705v58c37 -1 114 -40 140 -40c15 0 21 6 27 19s13 21 27 21c32 0 32 -31 32 -36v-232c0 -5 0 -36 -32 -36c-21 0 -33 17 -37 36c-17 81 -64 185 -157 210zM555 185c6 17 12 32 33 32c19 0 30 -16 30 -34c-2 -82 -123 -202 -227 -198v58c77 17 142 68 164 142z
M346 43v-58c-220 4 -324 171 -324 376c0 231 130 395 324 402v-58c-48 -10 -64 -51 -64 -93v-474c0 -42 16 -83 64 -95z" />
    <glyph glyph-name="D" unicode="D" horiz-adv-x="727" 
d="M372 690v58c170 2 312 -116 324 -374c11 -235 -158 -374 -324 -374v58c61 8 64 65 64 103v426c0 38 -3 95 -64 103zM327 748v-748h-254c-22 0 -47 2 -47 31c0 14 9 23 22 27c35 11 34 17 34 54v524c0 15 2 42 -17 48c-20 7 -39 10 -39 35c0 26 25 29 45 29h256z" />
    <glyph glyph-name="E" unicode="E" horiz-adv-x="658" 
d="M37 717c0 29 33 31 37 31h264v-748h-264c-4 0 -37 2 -37 31c0 14 9 23 22 27c35 11 34 17 34 54v524c0 37 1 43 -34 54c-13 4 -22 13 -22 27zM383 690v58h223v-203c0 -5 -1 -24 -31 -24c-17 0 -22 10 -27 25c-26 81 -77 130 -165 144zM383 0v58c81 10 143 65 170 145
c7 15 13 31 31 31c32 0 29 -30 29 -34v-200h-230zM383 352v62c42 11 61 50 70 88c5 17 11 33 32 33c31 0 26 -36 26 -44v-216c0 -8 5 -44 -26 -44c-21 0 -27 16 -32 33c-9 38 -28 77 -70 88z" />
    <glyph glyph-name="F" unicode="F" horiz-adv-x="635" 
d="M101 112v524c0 37 1 43 -34 54c-13 4 -22 13 -22 27c0 29 33 31 37 31h264v-636c0 -37 -1 -43 34 -54c13 -4 22 -13 22 -27c0 -29 -33 -31 -37 -31h-283c-4 0 -37 2 -37 31c0 14 9 23 22 27c35 11 34 17 34 54zM391 690v58h223v-203c0 -5 -1 -24 -31 -24
c-17 0 -22 10 -27 25c-26 81 -77 130 -165 144zM391 352v62c42 11 61 50 70 88c5 17 11 33 32 33c31 0 26 -36 26 -44v-216c0 -8 5 -44 -26 -44c-21 0 -27 16 -32 33c-9 38 -28 77 -70 88z" />
    <glyph glyph-name="G" unicode="G" 
d="M282 614v-479c0 -36 8 -78 48 -92v-58c-174 5 -308 175 -308 389c0 215 134 385 308 389v-58c-40 -14 -48 -55 -48 -91zM375 705v58c105 -9 159 -37 170 -37c30 0 27 37 59 37c30 0 28 -27 28 -32v-223c0 -5 0 -36 -31 -36c-26 0 -33 19 -38 40
c-31 128 -107 189 -188 193zM375 -15v58c44 13 46 47 46 64v180c0 22 -1 27 -41 34c-16 4 -26 13 -26 30c0 27 35 28 40 28h239c5 0 35 3 35 -30c0 -17 -9 -24 -18 -30c-21 -13 -18 -25 -18 -30v-198c-70 -63 -162 -104 -257 -106z" />
    <glyph glyph-name="H" unicode="H" horiz-adv-x="847" 
d="M357 636v-524c0 -37 -1 -43 34 -54c13 -4 22 -13 22 -27c0 -29 -33 -31 -37 -31h-283c-4 0 -37 2 -37 31c0 14 9 23 22 27c35 11 34 17 34 54v524c0 37 1 43 -34 54c-13 4 -22 13 -22 27c0 29 33 31 37 31h283c4 0 37 -2 37 -31c0 -14 -9 -23 -22 -27
c-35 -11 -34 -17 -34 -54zM490 112v239h-88v58h88v227c0 37 1 43 -34 54c-13 4 -22 13 -22 27c0 29 33 31 37 31h283c4 0 37 -2 37 -31c0 -14 -9 -23 -22 -27c-35 -11 -34 -17 -34 -54v-524c0 -37 -1 -43 34 -54c13 -4 22 -13 22 -27c0 -29 -33 -31 -37 -31h-283
c-4 0 -37 2 -37 31c0 14 9 23 22 27c35 11 34 17 34 54z" />
    <glyph glyph-name="I" unicode="I" horiz-adv-x="447" 
d="M346 636v-524c0 -37 -1 -43 34 -54c13 -4 22 -13 22 -27c0 -29 -33 -31 -37 -31h-283c-4 0 -37 2 -37 31c0 14 9 23 22 27c35 11 34 17 34 54v524c0 37 1 43 -34 54c-13 4 -22 13 -22 27c0 29 33 31 37 31h283c4 0 37 -2 37 -31c0 -14 -9 -23 -22 -27
c-35 -11 -34 -17 -34 -54z" />
    <glyph glyph-name="J" unicode="J" horiz-adv-x="604" 
d="M189 47v-59c-94 10 -188 72 -188 175c0 66 51 121 117 121c58 0 109 -48 109 -107c0 -46 -27 -83 -69 -100c-2 -1 -10 -5 -10 -8c0 -10 32 -20 41 -22zM518 636v-433c0 -63 -11 -118 -61 -161c-48 -41 -126 -57 -188 -57l-35 1v59c39 18 39 57 39 92v499
c0 37 1 43 -34 54c-13 4 -22 13 -22 27c0 29 33 31 37 31h283c4 0 37 -2 37 -31c0 -14 -9 -23 -22 -27c-35 -11 -34 -17 -34 -54z" />
    <glyph glyph-name="K" unicode="K" horiz-adv-x="823" 
d="M573 531l161 -422c9 -22 12 -39 35 -50c15 -7 24 -13 24 -32c0 -29 -33 -27 -53 -27h-251c-23 0 -53 0 -53 31c0 33 41 27 41 49c0 8 -5 23 -8 30l-62 186c-6 19 -13 40 -13 61s11 34 23 51l116 165c14 19 26 39 26 63c0 27 -14 41 -38 51c-16 7 -31 11 -31 31
c0 31 28 30 49 30h171c24 0 53 -1 53 -33c0 -23 -19 -30 -37 -37c-69 -26 -92 -64 -134 -121zM357 636v-524c0 -37 -1 -43 34 -54c13 -4 22 -13 22 -27c0 -29 -33 -31 -37 -31h-283c-4 0 -37 2 -37 31c0 14 9 23 22 27c35 11 34 17 34 54v524c0 37 1 43 -34 54
c-13 4 -22 13 -22 27c0 29 33 31 37 31h283c4 0 37 -2 37 -31c0 -14 -9 -23 -22 -27c-35 -11 -34 -17 -34 -54z" />
    <glyph glyph-name="L" unicode="L" horiz-adv-x="597" 
d="M341 636v-636h-264c-4 0 -37 2 -37 31c0 14 9 23 22 27c35 11 34 17 34 54v524c0 37 1 43 -34 54c-13 4 -22 13 -22 27c0 29 33 31 37 31h283c4 0 37 -2 37 -31c0 -14 -9 -23 -22 -27c-35 -11 -34 -17 -34 -54zM386 0v58c81 11 127 81 148 174c5 22 17 28 38 28
c23 0 25 -19 25 -38v-222h-211z" />
    <glyph glyph-name="M" unicode="M" horiz-adv-x="879" 
d="M125 158v337h2l56 -165v-172c16 -125 80 -86 80 -129c0 -31 -41 -29 -52 -29h-114c-11 0 -52 -2 -52 29c0 43 64 4 80 129zM538 112v636h264c4 0 37 -2 37 -31c0 -14 -9 -23 -22 -27c-35 -11 -34 -17 -34 -54v-524c0 -37 -1 -43 34 -54c13 -4 22 -13 22 -27
c0 -29 -33 -31 -37 -31h-283c-4 0 -37 2 -37 31c0 14 9 23 22 27c35 11 34 17 34 54zM41 717c0 31 30 31 42 31h254l107 -307h2l45 166h2v-182l-127 -425h-29l-209 619c-5 15 -10 30 -18 43c-9 15 -13 27 -30 28c-12 1 -39 3 -39 27z" />
    <glyph glyph-name="N" unicode="N" horiz-adv-x="753" 
d="M115 158v402h2l56 -100v-302c16 -125 80 -86 80 -129c0 -31 -41 -29 -52 -29h-114c-11 0 -52 -2 -52 29c0 43 64 4 80 129zM578 425v142c0 143 -82 105 -82 151c0 28 33 30 43 30h136c10 0 43 -2 43 -30c0 -46 -82 -8 -82 -151v-243h-2zM345 748l291 -506v-242h-149
l-366 631c-16 28 -21 43 -54 54c-17 6 -30 10 -30 32c0 30 30 30 51 31h257z" />
    <glyph glyph-name="O" unicode="O" horiz-adv-x="711" 
d="M333 763v-58c-47 -17 -51 -47 -51 -72v-518c0 -25 4 -55 51 -72v-58c-212 19 -311 190 -311 389s99 370 311 389zM378 -15v58c47 17 51 47 51 72v518c0 25 -4 55 -51 72v58c212 -19 311 -190 311 -389s-99 -370 -311 -389z" />
    <glyph glyph-name="P" unicode="P" horiz-adv-x="714" 
d="M378 690v58c95 0 151 -10 198 -37c74 -44 103 -110 103 -194s-29 -150 -103 -194c-47 -27 -103 -37 -198 -37v58c59 11 62 52 62 101v151c0 45 -9 86 -62 94zM88 112v524c0 37 1 43 -34 54c-13 4 -22 13 -22 27c0 29 33 31 37 31h264v-636c0 -37 -1 -43 34 -54
c13 -4 22 -13 22 -27c0 -29 -33 -31 -37 -31h-283c-4 0 -37 2 -37 31c0 14 9 23 22 27c35 11 34 17 34 54z" />
    <glyph glyph-name="Q" unicode="Q" horiz-adv-x="718" 
d="M333 763v-58c-47 -17 -51 -47 -51 -72v-518c0 -25 4 -55 51 -72v-58c-212 19 -311 190 -311 389s99 370 311 389zM431 148v485c0 25 -4 55 -51 72v58h1c212 -19 312 -190 310 -389c-1 -120 -34 -221 -123 -308c15 -16 35 -22 56 -22c27 0 44 11 55 11c10 0 18 -13 18 -21
c0 -19 -14 -31 -28 -40c-29 -20 -59 -32 -95 -32c-42 0 -81 13 -110 45c-20 -14 -42 -22 -86 -22v59c12 6 24 12 31 22c-13 17 -24 30 -46 37c-18 1 -35 2 -35 26c0 25 29 32 49 32c19 0 38 -3 54 -13z" />
    <glyph glyph-name="R" unicode="R" horiz-adv-x="784" 
d="M106 112v524c0 37 1 43 -34 54c-13 4 -22 13 -22 27c0 29 33 31 37 31h264v-636c0 -37 -1 -43 34 -54c13 -4 22 -13 22 -27c0 -29 -33 -31 -37 -31h-283c-4 0 -37 2 -37 31c0 14 9 23 22 27c35 11 34 17 34 54zM396 689v59h5c65 0 133 2 193 -27c67 -33 101 -88 102 -164
c2 -115 -74 -165 -176 -189v-2c89 -13 174 -39 176 -145v-88c0 -9 -3 -29 10 -29c16 0 19 29 43 29c13 0 29 -15 29 -29c0 -29 -33 -66 -55 -83c-34 -28 -70 -36 -113 -36s-82 11 -113 42c-35 36 -40 80 -40 127v68c0 46 -1 102 -61 108v59c54 5 61 38 61 87v121
c0 50 -11 74 -61 92z" />
    <glyph glyph-name="S" unicode="S" horiz-adv-x="631" 
d="M298 763v-58c-38 -13 -71 -41 -71 -82c0 -49 27 -79 146 -125c177 -68 217 -162 217 -254c0 -155 -129 -256 -277 -259v58c48 15 89 37 91 92c2 63 -72 89 -120 110c-126 53 -243 110 -243 267c0 152 110 246 257 251zM563 718v-171c0 -23 -4 -48 -33 -48
c-24 0 -33 19 -36 39c-11 74 -73 150 -151 167v58c63 -1 130 -39 141 -39c26 0 24 36 50 36c31 0 29 -34 29 -42zM41 31v193c0 21 4 49 32 49c20 0 34 -16 37 -33c14 -80 70 -179 158 -197v-58c-87 2 -106 37 -142 37c-32 0 -29 -33 -54 -33c-31 0 -31 37 -31 42z" />
    <glyph glyph-name="T" unicode="T" horiz-adv-x="666" 
d="M211 112v636h245v-636c0 -37 -1 -43 34 -54c13 -4 22 -13 22 -27c0 -29 -33 -31 -37 -31h-283c-4 0 -37 2 -37 31c0 14 9 23 22 27c35 11 34 17 34 54zM645 748v-233c0 -4 -3 -29 -33 -29c-28 0 -33 26 -36 48c-9 53 -23 119 -75 156v58h144zM22 515v233h144v-58
c-52 -37 -66 -103 -75 -156c-3 -22 -8 -48 -36 -48c-30 0 -33 25 -33 29z" />
    <glyph glyph-name="U" unicode="U" horiz-adv-x="760" 
d="M590 215v375c-16 125 -80 86 -80 129c0 31 41 29 52 29h114c11 0 52 2 52 -29c0 -43 -64 -4 -80 -129v-377c-8 -165 -127 -225 -192 -226v59c92 28 128 80 134 169zM411 44v-59c-79 0 -140 1 -209 39c-90 50 -102 88 -102 138v474c0 37 1 43 -34 54c-13 4 -22 13 -22 27
c0 29 33 31 37 31h283c4 0 37 -2 37 -31c0 -14 -9 -23 -22 -27c-35 -11 -34 -17 -34 -54v-481c0 -10 -9 -89 66 -111z" />
    <glyph glyph-name="V" unicode="V" horiz-adv-x="677" 
d="M457 192l-52 -192h-144l-192 643c-8 29 -5 32 -32 44c-12 6 -20 15 -20 29c0 33 42 32 65 32h219c23 0 71 6 71 -30c0 -39 -44 -22 -44 -63c0 -12 2 -17 5 -29zM477 268l-28 103l59 221c5 16 7 22 7 39c0 28 -12 45 -38 54c-17 6 -31 12 -31 32c0 31 36 31 57 31h110
c22 0 59 4 59 -28c0 -22 -14 -25 -31 -33c-26 -12 -35 -17 -51 -41c-13 -21 -21 -44 -27 -67l-84 -311h-2z" />
    <glyph glyph-name="W" unicode="W" horiz-adv-x="921" 
d="M427 265l-66 -265h-119l-178 651c-5 19 -7 26 -25 34c-15 7 -24 12 -24 30c0 33 41 33 64 33h232c22 0 57 3 57 -29c0 -34 -45 -25 -45 -62c0 -9 2 -15 5 -25zM479 748h113l131 -499l-63 -249h-119l-130 482zM743 335l-28 108l38 156c3 14 7 26 7 41c0 52 -63 44 -63 81
c0 23 21 27 39 27h129c19 0 41 -2 41 -28c0 -15 -8 -19 -21 -25c-50 -22 -63 -57 -76 -107l-64 -254z" />
    <glyph glyph-name="X" unicode="X" horiz-adv-x="682" 
d="M349 641l265 -539c9 -18 13 -29 32 -39c14 -7 25 -13 25 -31c0 -32 -39 -32 -62 -32h-233c-24 0 -69 -5 -69 32c0 25 34 24 34 48c0 18 -6 25 -13 41l-259 520c-12 25 -14 32 -38 46c-12 7 -20 11 -20 27c0 36 39 34 65 34h231c25 0 64 0 64 -34c0 -27 -31 -19 -31 -45
c0 -12 4 -18 9 -28zM466 497l-30 61l15 29c11 18 23 34 23 55c0 24 -12 36 -32 46c-13 7 -24 13 -24 30c0 7 3 15 8 20c11 11 24 10 38 10h134c16 0 48 -1 48 -25c0 -21 -17 -28 -33 -36c-33 -19 -52 -41 -72 -72zM208 269l31 -62l-18 -30c-11 -18 -36 -53 -36 -76
c0 -48 59 -30 59 -70c0 -11 -8 -22 -17 -27c-10 -5 -32 -4 -42 -4h-117c-19 0 -50 1 -50 27c0 19 13 25 28 31c35 14 51 32 71 63z" />
    <glyph glyph-name="Y" unicode="Y" horiz-adv-x="671" 
d="M473 398l-32 71l52 116c8 17 15 33 15 53c0 60 -68 38 -68 79c0 36 41 31 65 31h111c23 0 51 -2 51 -32c0 -17 -11 -24 -25 -30c-41 -17 -52 -32 -71 -73zM207 112v178l-151 358c-7 18 -12 31 -29 42c-13 7 -23 12 -23 29c0 31 32 29 53 29h247c22 0 55 2 55 -30
c0 -15 -11 -23 -22 -30c-11 -6 -19 -10 -19 -24c0 -13 5 -26 10 -38l124 -283v-231c0 -37 -1 -43 34 -54c13 -4 22 -13 22 -27c0 -29 -33 -31 -37 -31h-283c-4 0 -37 2 -37 31c0 14 9 23 22 27c35 11 34 17 34 54z" />
    <glyph glyph-name="Z" unicode="Z" horiz-adv-x="587" 
d="M565 748v-63l-303 -685h-240v54l305 694h238zM41 550v198h241l-25 -58c-82 -16 -138 -65 -158 -139c-5 -17 -10 -30 -30 -30c-28 0 -28 23 -28 29zM564 204l1 -204h-258l26 58c104 22 138 53 174 145c5 17 10 30 29 30c28 0 28 -23 28 -29z" />
    <glyph glyph-name="bracketleft" unicode="[" horiz-adv-x="350" 
d="M67 763h262v-58h-112v-760h112v-58h-262v876z" />
    <glyph glyph-name="backslash" unicode="\" horiz-adv-x="348" 
d="M326 -54h-85l-218 854h86z" />
    <glyph glyph-name="bracketright" unicode="]" horiz-adv-x="350" 
d="M283 -113h-262v58h112v760h-112v58h262v-876z" />
    <glyph glyph-name="asciicircum" unicode="^" horiz-adv-x="601" 
d="M559 311h-130l-131 307l-134 -307h-125l203 434h116z" />
    <glyph glyph-name="underscore" unicode="_" horiz-adv-x="500" 
d="M0 -37h500v-152h-500v152z" />
    <glyph glyph-name="quoteleft" unicode="&#x2018;" horiz-adv-x="375" 
d="M75 539c0 64 44 129 91 168c45 38 79 53 101 56c23 3 34 -8 34 -23c0 -19 -29 -33 -43 -42c-45 -27 -73 -52 -73 -71c0 -14 22 -14 32 -15c48 -4 79 -56 79 -101c0 -59 -49 -102 -106 -102c-71 0 -115 65 -115 130z" />
    <glyph glyph-name="a" unicode="a" 
d="M221 608l26 -113l-94 -342c-16 -61 -2 -78 32 -93c16 -7 30 -13 30 -33c0 -28 -32 -27 -52 -27h-115c-20 0 -56 1 -56 30c0 24 17 23 39 34c21 11 48 34 67 105l120 439h3zM374 117l-20 77h-146l14 58h122l-101 442l13 54h221l150 -632c6 -28 7 -47 35 -59
c14 -6 25 -13 25 -31c0 -27 -36 -26 -55 -26h-249c-20 0 -49 2 -49 28c0 16 6 21 19 28c26 15 30 22 21 61z" />
    <glyph glyph-name="b" unicode="b" horiz-adv-x="751" 
d="M334 748v-748h-269c-7 0 -32 2 -32 31c0 14 9 23 22 27c35 11 34 17 34 54v524c0 37 1 43 -34 54c-13 4 -22 13 -22 27c0 29 25 31 32 31h269zM379 690v58h31c63 0 127 -1 185 -29c62 -31 98 -83 98 -154c0 -110 -92 -161 -189 -176v-2c111 -18 199 -67 199 -192
c0 -71 -31 -127 -94 -162c-64 -36 -127 -33 -198 -33h-32v58c67 3 75 41 75 77v129c0 46 -11 89 -75 94v58c73 6 75 49 75 86v100c0 42 -15 82 -75 88z" />
    <glyph glyph-name="c" unicode="c" horiz-adv-x="656" 
d="M391 705v58c37 -1 114 -40 140 -40c15 0 21 6 27 19s13 21 27 21c32 0 32 -31 32 -36v-232c0 -5 0 -36 -32 -36c-21 0 -33 17 -37 36c-17 81 -64 185 -157 210zM555 185c6 17 12 32 33 32c19 0 30 -16 30 -34c-2 -82 -123 -202 -227 -198v58c77 17 142 68 164 142z
M346 43v-58c-220 4 -324 171 -324 376c0 231 130 395 324 402v-58c-48 -10 -64 -51 -64 -93v-474c0 -42 16 -83 64 -95z" />
    <glyph glyph-name="d" unicode="d" horiz-adv-x="727" 
d="M372 690v58c170 2 312 -116 324 -374c11 -235 -158 -374 -324 -374v58c61 8 64 65 64 103v426c0 38 -3 95 -64 103zM327 748v-748h-254c-22 0 -47 2 -47 31c0 14 9 23 22 27c35 11 34 17 34 54v524c0 15 2 42 -17 48c-20 7 -39 10 -39 35c0 26 25 29 45 29h256z" />
    <glyph glyph-name="e" unicode="e" horiz-adv-x="658" 
d="M37 717c0 29 33 31 37 31h264v-748h-264c-4 0 -37 2 -37 31c0 14 9 23 22 27c35 11 34 17 34 54v524c0 37 1 43 -34 54c-13 4 -22 13 -22 27zM383 690v58h223v-203c0 -5 -1 -24 -31 -24c-17 0 -22 10 -27 25c-26 81 -77 130 -165 144zM383 0v58c81 10 143 65 170 145
c7 15 13 31 31 31c32 0 29 -30 29 -34v-200h-230zM383 352v62c42 11 61 50 70 88c5 17 11 33 32 33c31 0 26 -36 26 -44v-216c0 -8 5 -44 -26 -44c-21 0 -27 16 -32 33c-9 38 -28 77 -70 88z" />
    <glyph glyph-name="f" unicode="f" horiz-adv-x="635" 
d="M101 112v524c0 37 1 43 -34 54c-13 4 -22 13 -22 27c0 29 33 31 37 31h264v-636c0 -37 -1 -43 34 -54c13 -4 22 -13 22 -27c0 -29 -33 -31 -37 -31h-283c-4 0 -37 2 -37 31c0 14 9 23 22 27c35 11 34 17 34 54zM391 690v58h223v-203c0 -5 -1 -24 -31 -24
c-17 0 -22 10 -27 25c-26 81 -77 130 -165 144zM391 352v62c42 11 61 50 70 88c5 17 11 33 32 33c31 0 26 -36 26 -44v-216c0 -8 5 -44 -26 -44c-21 0 -27 16 -32 33c-9 38 -28 77 -70 88z" />
    <glyph glyph-name="g" unicode="g" 
d="M282 614v-479c0 -36 8 -78 48 -92v-58c-174 5 -308 175 -308 389c0 215 134 385 308 389v-58c-40 -14 -48 -55 -48 -91zM375 705v58c105 -9 159 -37 170 -37c30 0 27 37 59 37c30 0 28 -27 28 -32v-223c0 -5 0 -36 -31 -36c-26 0 -33 19 -38 40
c-31 128 -107 189 -188 193zM375 -15v58c44 13 46 47 46 64v180c0 22 -1 27 -41 34c-16 4 -26 13 -26 30c0 27 35 28 40 28h239c5 0 35 3 35 -30c0 -17 -9 -24 -18 -30c-21 -13 -18 -25 -18 -30v-198c-70 -63 -162 -104 -257 -106z" />
    <glyph glyph-name="h" unicode="h" horiz-adv-x="847" 
d="M357 636v-524c0 -37 -1 -43 34 -54c13 -4 22 -13 22 -27c0 -29 -33 -31 -37 -31h-283c-4 0 -37 2 -37 31c0 14 9 23 22 27c35 11 34 17 34 54v524c0 37 1 43 -34 54c-13 4 -22 13 -22 27c0 29 33 31 37 31h283c4 0 37 -2 37 -31c0 -14 -9 -23 -22 -27
c-35 -11 -34 -17 -34 -54zM490 112v239h-88v58h88v227c0 37 1 43 -34 54c-13 4 -22 13 -22 27c0 29 33 31 37 31h283c4 0 37 -2 37 -31c0 -14 -9 -23 -22 -27c-35 -11 -34 -17 -34 -54v-524c0 -37 -1 -43 34 -54c13 -4 22 -13 22 -27c0 -29 -33 -31 -37 -31h-283
c-4 0 -37 2 -37 31c0 14 9 23 22 27c35 11 34 17 34 54z" />
    <glyph glyph-name="i" unicode="i" horiz-adv-x="447" 
d="M346 636v-524c0 -37 -1 -43 34 -54c13 -4 22 -13 22 -27c0 -29 -33 -31 -37 -31h-283c-4 0 -37 2 -37 31c0 14 9 23 22 27c35 11 34 17 34 54v524c0 37 1 43 -34 54c-13 4 -22 13 -22 27c0 29 33 31 37 31h283c4 0 37 -2 37 -31c0 -14 -9 -23 -22 -27
c-35 -11 -34 -17 -34 -54z" />
    <glyph glyph-name="j" unicode="j" horiz-adv-x="604" 
d="M189 47v-59c-94 10 -188 72 -188 175c0 66 51 121 117 121c58 0 109 -48 109 -107c0 -46 -27 -83 -69 -100c-2 -1 -10 -5 -10 -8c0 -10 32 -20 41 -22zM518 636v-433c0 -63 -11 -118 -61 -161c-48 -41 -126 -57 -188 -57l-35 1v59c39 18 39 57 39 92v499
c0 37 1 43 -34 54c-13 4 -22 13 -22 27c0 29 33 31 37 31h283c4 0 37 -2 37 -31c0 -14 -9 -23 -22 -27c-35 -11 -34 -17 -34 -54z" />
    <glyph glyph-name="k" unicode="k" horiz-adv-x="823" 
d="M573 531l161 -422c9 -22 12 -39 35 -50c15 -7 24 -13 24 -32c0 -29 -33 -27 -53 -27h-251c-23 0 -53 0 -53 31c0 33 41 27 41 49c0 8 -5 23 -8 30l-62 186c-6 19 -13 40 -13 61s11 34 23 51l116 165c14 19 26 39 26 63c0 27 -14 41 -38 51c-16 7 -31 11 -31 31
c0 31 28 30 49 30h171c24 0 53 -1 53 -33c0 -23 -19 -30 -37 -37c-69 -26 -92 -64 -134 -121zM357 636v-524c0 -37 -1 -43 34 -54c13 -4 22 -13 22 -27c0 -29 -33 -31 -37 -31h-283c-4 0 -37 2 -37 31c0 14 9 23 22 27c35 11 34 17 34 54v524c0 37 1 43 -34 54
c-13 4 -22 13 -22 27c0 29 33 31 37 31h283c4 0 37 -2 37 -31c0 -14 -9 -23 -22 -27c-35 -11 -34 -17 -34 -54z" />
    <glyph glyph-name="l" unicode="l" horiz-adv-x="597" 
d="M341 636v-636h-264c-4 0 -37 2 -37 31c0 14 9 23 22 27c35 11 34 17 34 54v524c0 37 1 43 -34 54c-13 4 -22 13 -22 27c0 29 33 31 37 31h283c4 0 37 -2 37 -31c0 -14 -9 -23 -22 -27c-35 -11 -34 -17 -34 -54zM386 0v58c81 11 127 81 148 174c5 22 17 28 38 28
c23 0 25 -19 25 -38v-222h-211z" />
    <glyph glyph-name="m" unicode="m" horiz-adv-x="879" 
d="M125 158v337h2l56 -165v-172c16 -125 80 -86 80 -129c0 -31 -41 -29 -52 -29h-114c-11 0 -52 -2 -52 29c0 43 64 4 80 129zM538 112v636h264c4 0 37 -2 37 -31c0 -14 -9 -23 -22 -27c-35 -11 -34 -17 -34 -54v-524c0 -37 -1 -43 34 -54c13 -4 22 -13 22 -27
c0 -29 -33 -31 -37 -31h-283c-4 0 -37 2 -37 31c0 14 9 23 22 27c35 11 34 17 34 54zM41 717c0 31 30 31 42 31h254l107 -307h2l45 166h2v-182l-127 -425h-29l-209 619c-5 15 -10 30 -18 43c-9 15 -13 27 -30 28c-12 1 -39 3 -39 27z" />
    <glyph glyph-name="n" unicode="n" horiz-adv-x="753" 
d="M115 158v402h2l56 -100v-302c16 -125 80 -86 80 -129c0 -31 -41 -29 -52 -29h-114c-11 0 -52 -2 -52 29c0 43 64 4 80 129zM578 425v142c0 143 -82 105 -82 151c0 28 33 30 43 30h136c10 0 43 -2 43 -30c0 -46 -82 -8 -82 -151v-243h-2zM345 748l291 -506v-242h-149
l-366 631c-16 28 -21 43 -54 54c-17 6 -30 10 -30 32c0 30 30 30 51 31h257z" />
    <glyph glyph-name="o" unicode="o" horiz-adv-x="711" 
d="M333 763v-58c-47 -17 -51 -47 -51 -72v-518c0 -25 4 -55 51 -72v-58c-212 19 -311 190 -311 389s99 370 311 389zM378 -15v58c47 17 51 47 51 72v518c0 25 -4 55 -51 72v58c212 -19 311 -190 311 -389s-99 -370 -311 -389z" />
    <glyph glyph-name="p" unicode="p" horiz-adv-x="714" 
d="M378 690v58c95 0 151 -10 198 -37c74 -44 103 -110 103 -194s-29 -150 -103 -194c-47 -27 -103 -37 -198 -37v58c59 11 62 52 62 101v151c0 45 -9 86 -62 94zM88 112v524c0 37 1 43 -34 54c-13 4 -22 13 -22 27c0 29 33 31 37 31h264v-636c0 -37 -1 -43 34 -54
c13 -4 22 -13 22 -27c0 -29 -33 -31 -37 -31h-283c-4 0 -37 2 -37 31c0 14 9 23 22 27c35 11 34 17 34 54z" />
    <glyph glyph-name="q" unicode="q" horiz-adv-x="718" 
d="M333 763v-58c-47 -17 -51 -47 -51 -72v-518c0 -25 4 -55 51 -72v-58c-212 19 -311 190 -311 389s99 370 311 389zM431 148v485c0 25 -4 55 -51 72v58h1c212 -19 312 -190 310 -389c-1 -120 -34 -221 -123 -308c15 -16 35 -22 56 -22c27 0 44 11 55 11c10 0 18 -13 18 -21
c0 -19 -14 -31 -28 -40c-29 -20 -59 -32 -95 -32c-42 0 -81 13 -110 45c-20 -14 -42 -22 -86 -22v59c12 6 24 12 31 22c-13 17 -24 30 -46 37c-18 1 -35 2 -35 26c0 25 29 32 49 32c19 0 38 -3 54 -13z" />
    <glyph glyph-name="r" unicode="r" horiz-adv-x="784" 
d="M106 112v524c0 37 1 43 -34 54c-13 4 -22 13 -22 27c0 29 33 31 37 31h264v-636c0 -37 -1 -43 34 -54c13 -4 22 -13 22 -27c0 -29 -33 -31 -37 -31h-283c-4 0 -37 2 -37 31c0 14 9 23 22 27c35 11 34 17 34 54zM396 689v59h5c65 0 133 2 193 -27c67 -33 101 -88 102 -164
c2 -115 -74 -165 -176 -189v-2c89 -13 174 -39 176 -145v-88c0 -9 -3 -29 10 -29c16 0 19 29 43 29c13 0 29 -15 29 -29c0 -29 -33 -66 -55 -83c-34 -28 -70 -36 -113 -36s-82 11 -113 42c-35 36 -40 80 -40 127v68c0 46 -1 102 -61 108v59c54 5 61 38 61 87v121
c0 50 -11 74 -61 92z" />
    <glyph glyph-name="s" unicode="s" horiz-adv-x="631" 
d="M298 763v-58c-38 -13 -71 -41 -71 -82c0 -49 27 -79 146 -125c177 -68 217 -162 217 -254c0 -155 -129 -256 -277 -259v58c48 15 89 37 91 92c2 63 -72 89 -120 110c-126 53 -243 110 -243 267c0 152 110 246 257 251zM563 718v-171c0 -23 -4 -48 -33 -48
c-24 0 -33 19 -36 39c-11 74 -73 150 -151 167v58c63 -1 130 -39 141 -39c26 0 24 36 50 36c31 0 29 -34 29 -42zM41 31v193c0 21 4 49 32 49c20 0 34 -16 37 -33c14 -80 70 -179 158 -197v-58c-87 2 -106 37 -142 37c-32 0 -29 -33 -54 -33c-31 0 -31 37 -31 42z" />
    <glyph glyph-name="t" unicode="t" horiz-adv-x="666" 
d="M211 112v636h245v-636c0 -37 -1 -43 34 -54c13 -4 22 -13 22 -27c0 -29 -33 -31 -37 -31h-283c-4 0 -37 2 -37 31c0 14 9 23 22 27c35 11 34 17 34 54zM645 748v-233c0 -4 -3 -29 -33 -29c-28 0 -33 26 -36 48c-9 53 -23 119 -75 156v58h144zM22 515v233h144v-58
c-52 -37 -66 -103 -75 -156c-3 -22 -8 -48 -36 -48c-30 0 -33 25 -33 29z" />
    <glyph glyph-name="u" unicode="u" horiz-adv-x="760" 
d="M590 215v375c-16 125 -80 86 -80 129c0 31 41 29 52 29h114c11 0 52 2 52 -29c0 -43 -64 -4 -80 -129v-377c-8 -165 -127 -225 -192 -226v59c92 28 128 80 134 169zM411 44v-59c-79 0 -140 1 -209 39c-90 50 -102 88 -102 138v474c0 37 1 43 -34 54c-13 4 -22 13 -22 27
c0 29 33 31 37 31h283c4 0 37 -2 37 -31c0 -14 -9 -23 -22 -27c-35 -11 -34 -17 -34 -54v-481c0 -10 -9 -89 66 -111z" />
    <glyph glyph-name="v" unicode="v" horiz-adv-x="677" 
d="M457 192l-52 -192h-144l-192 643c-8 29 -5 32 -32 44c-12 6 -20 15 -20 29c0 33 42 32 65 32h219c23 0 71 6 71 -30c0 -39 -44 -22 -44 -63c0 -12 2 -17 5 -29zM477 268l-28 103l59 221c5 16 7 22 7 39c0 28 -12 45 -38 54c-17 6 -31 12 -31 32c0 31 36 31 57 31h110
c22 0 59 4 59 -28c0 -22 -14 -25 -31 -33c-26 -12 -35 -17 -51 -41c-13 -21 -21 -44 -27 -67l-84 -311h-2z" />
    <glyph glyph-name="w" unicode="w" horiz-adv-x="921" 
d="M427 265l-66 -265h-119l-178 651c-5 19 -7 26 -25 34c-15 7 -24 12 -24 30c0 33 41 33 64 33h232c22 0 57 3 57 -29c0 -34 -45 -25 -45 -62c0 -9 2 -15 5 -25zM479 748h113l131 -499l-63 -249h-119l-130 482zM743 335l-28 108l38 156c3 14 7 26 7 41c0 52 -63 44 -63 81
c0 23 21 27 39 27h129c19 0 41 -2 41 -28c0 -15 -8 -19 -21 -25c-50 -22 -63 -57 -76 -107l-64 -254z" />
    <glyph glyph-name="x" unicode="x" horiz-adv-x="682" 
d="M349 641l265 -539c9 -18 13 -29 32 -39c14 -7 25 -13 25 -31c0 -32 -39 -32 -62 -32h-233c-24 0 -69 -5 -69 32c0 25 34 24 34 48c0 18 -6 25 -13 41l-259 520c-12 25 -14 32 -38 46c-12 7 -20 11 -20 27c0 36 39 34 65 34h231c25 0 64 0 64 -34c0 -27 -31 -19 -31 -45
c0 -12 4 -18 9 -28zM466 497l-30 61l15 29c11 18 23 34 23 55c0 24 -12 36 -32 46c-13 7 -24 13 -24 30c0 7 3 15 8 20c11 11 24 10 38 10h134c16 0 48 -1 48 -25c0 -21 -17 -28 -33 -36c-33 -19 -52 -41 -72 -72zM208 269l31 -62l-18 -30c-11 -18 -36 -53 -36 -76
c0 -48 59 -30 59 -70c0 -11 -8 -22 -17 -27c-10 -5 -32 -4 -42 -4h-117c-19 0 -50 1 -50 27c0 19 13 25 28 31c35 14 51 32 71 63z" />
    <glyph glyph-name="y" unicode="y" horiz-adv-x="671" 
d="M473 398l-32 71l52 116c8 17 15 33 15 53c0 60 -68 38 -68 79c0 36 41 31 65 31h111c23 0 51 -2 51 -32c0 -17 -11 -24 -25 -30c-41 -17 -52 -32 -71 -73zM207 112v178l-151 358c-7 18 -12 31 -29 42c-13 7 -23 12 -23 29c0 31 32 29 53 29h247c22 0 55 2 55 -30
c0 -15 -11 -23 -22 -30c-11 -6 -19 -10 -19 -24c0 -13 5 -26 10 -38l124 -283v-231c0 -37 -1 -43 34 -54c13 -4 22 -13 22 -27c0 -29 -33 -31 -37 -31h-283c-4 0 -37 2 -37 31c0 14 9 23 22 27c35 11 34 17 34 54z" />
    <glyph glyph-name="z" unicode="z" horiz-adv-x="587" 
d="M565 748v-63l-303 -685h-240v54l305 694h238zM41 550v198h241l-25 -58c-82 -16 -138 -65 -158 -139c-5 -17 -10 -30 -30 -30c-28 0 -28 23 -28 29zM564 204l1 -204h-258l26 58c104 22 138 53 174 145c5 17 10 30 29 30c28 0 28 -23 28 -29z" />
    <glyph glyph-name="braceleft" unicode="{" horiz-adv-x="350" 
d="M260 165v-134c0 -80 14 -116 82 -141v-3c-49 0 -87 0 -117 4c-64 6 -102 24 -102 164v136c0 77 -16 116 -62 133v3c46 17 62 56 62 133v136c0 140 38 158 102 164c30 3 68 3 117 3v-2c-68 -25 -82 -61 -82 -141v-134c0 -90 -10 -141 -67 -159v-3c57 -18 67 -69 67 -159z
" />
    <glyph glyph-name="bar" unicode="|" horiz-adv-x="315" 
d="M218 -298h-121v1197h121v-1197z" />
    <glyph glyph-name="braceright" unicode="}" horiz-adv-x="350" 
d="M90 485v134c0 80 -14 116 -82 141v3c49 0 87 0 117 -4c64 -6 102 -24 102 -164v-136c0 -77 16 -116 62 -133v-3c-46 -17 -62 -56 -62 -133v-136c0 -140 -38 -158 -102 -164c-30 -3 -68 -3 -117 -3v2c68 25 82 61 82 141v134c0 90 10 141 67 159v3c-57 18 -67 69 -67 159z
" />
    <glyph glyph-name="asciitilde" unicode="~" horiz-adv-x="586" 
d="M482 403l73 -68c-43 -74 -106 -121 -161 -121c-44 0 -74 12 -115 40c-28 19 -50 36 -83 36c-46 0 -70 -39 -97 -75l-73 68c32 62 102 119 175 119c51 0 80 -17 106 -34c41 -27 58 -40 82 -40c38 0 64 34 93 75z" />
    <glyph glyph-name="exclamdown" unicode="&#xa1;" horiz-adv-x="378" 
d="M297 447c0 -58 -46 -108 -108 -108s-108 50 -108 108s46 108 108 108s108 -50 108 -108zM189 -223c-78 0 -113 67 -113 138c0 41 16 90 29 130c23 69 45 139 48 212c1 21 6 41 36 41s35 -20 36 -41c3 -73 25 -143 48 -212c13 -40 29 -89 29 -130
c0 -71 -35 -138 -113 -138z" />
    <glyph glyph-name="cent" unicode="&#xa2;" horiz-adv-x="600" 
d="M270 50h58v-108h-58v108zM270 563v-370c0 -33 23 -72 89 -73c59 -1 108 52 126 108c4 14 8 26 25 26c15 0 24 -12 24 -27c-2 -65 -91 -155 -188 -153c-199 4 -279 134 -279 294c0 179 101 309 271 314c62 2 104 -29 128 -29c11 0 16 4 21 14c4 10 10 16 21 16
c25 0 25 -24 25 -28v-182c0 -3 0 -28 -25 -28c-17 0 -22 14 -26 28c-17 63 -53 144 -125 164c-66 18 -87 -41 -87 -74zM270 707v114h58v-114h-58z" />
    <glyph glyph-name="sterling" unicode="&#xa3;" horiz-adv-x="644" 
d="M200 184l-102 -36l-2 2c21 31 39 69 39 109c0 33 -9 88 -21 112h-100v58h85c-28 133 5 217 70 272c56 48 134 62 206 62c192 0 255 -101 255 -174c0 -51 -42 -86 -91 -86c-43 0 -77 33 -77 76c0 34 22 55 47 74c-19 37 -62 50 -101 52c-62 3 -95 -55 -95 -110
c0 -44 8 -83 25 -166h171v-58h-171c-3 -32 -8 -66 -21 -97c-23 -59 -61 -71 -117 -90zM74 109l60 22c50 19 149 46 202 46c102 0 130 -64 188 -64c21 0 28 10 39 25c8 11 13 23 29 23c14 0 17 -10 17 -23c0 -52 -68 -170 -206 -170c-123 0 -205 93 -291 93
c-31 0 -56 -17 -75 -17c-11 0 -23 10 -23 22c0 25 42 37 60 43z" />
    <glyph glyph-name="fraction" unicode="&#x2044;" horiz-adv-x="211" 
d="M372 749l-482 -800l-48 36l481 795z" />
    <glyph glyph-name="yen" unicode="&#xa5;" horiz-adv-x="671" 
d="M473 398l-32 71l52 116c8 17 15 33 15 53c0 60 -68 38 -68 79c0 36 41 31 65 31h111c23 0 51 -2 51 -32c0 -17 -11 -24 -25 -30c-41 -17 -52 -32 -71 -73zM207 112v70h-76v58h76v50l-151 358c-7 18 -12 31 -29 42c-13 7 -23 12 -23 29c0 31 32 29 53 29h247
c22 0 55 2 55 -30c0 -15 -11 -23 -22 -30c-11 -6 -19 -10 -19 -24c0 -13 5 -26 10 -38l124 -283v-103h76v-58h-76v-70c0 -37 -1 -43 34 -54c13 -4 22 -13 22 -27c0 -29 -33 -31 -37 -31h-283c-4 0 -37 2 -37 31c0 14 9 23 22 27c35 11 34 17 34 54z" />
    <glyph glyph-name="florin" unicode="&#x192;" horiz-adv-x="720" 
d="M563 698v58c73 -6 179 -61 187 -152c5 -55 -31 -99 -87 -99c-48 0 -90 40 -95 87c-4 56 40 74 39 85c-1 14 -27 18 -44 21zM175 -18l44 352h-112l8 58h111l15 116c14 97 18 157 56 199c28 34 83 70 221 56v-58c-37 -3 -63 -33 -74 -197l-15 -116h127l-7 -58h-127
l-44 -350c-6 -50 -12 -110 -47 -152c-19 -23 -63 -60 -211 -45v58c38 -7 48 84 55 137zM74 -150v-58c-72 6 -179 61 -187 152c-5 55 31 99 87 99c48 0 91 -40 95 -87c5 -56 -40 -74 -39 -85c1 -14 27 -18 44 -21z" />
    <glyph glyph-name="section" unicode="&#xa7;" horiz-adv-x="629" 
d="M587 269v-1c0 -169 -157 -367 -325 -409c-40 0 -97 12 -133 41c-18 15 -25 35 -25 47c0 15 27 61 62 81c10 6 20 10 32 4c17 -13 58 -80 123 -80c25 0 46 12 46 35c0 25 -18 27 -77 72l-120 81c-77 57 -123 126 -123 248c0 115 77 228 133 280c64 61 107 94 186 109
c55 0 110 -20 136 -49c10 -11 19 -26 19 -38c0 -34 -46 -74 -65 -83c-6 -3 -17 -6 -29 4c-21 18 -62 81 -113 81c-22 0 -46 -6 -46 -40c0 -22 28 -38 48 -53l168 -115c56 -41 102 -102 103 -215zM138 480v-1c0 -52 31 -111 117 -171c40 -26 118 -76 146 -96
c31 -27 68 -70 70 -122l3 1c14 18 19 39 19 61c0 62 -37 123 -112 171c-37 22 -103 67 -141 94c-43 37 -74 104 -72 148l-4 2c-12 -20 -26 -53 -26 -87z" />
    <glyph glyph-name="currency" unicode="&#xa4;" horiz-adv-x="634" 
d="M575 139l-76 -71l-69 88c-32 -25 -73 -34 -113 -34c-41 0 -78 7 -112 35l-68 -89l-77 71l76 85c-26 36 -44 88 -44 147c0 56 15 111 45 146l-76 77l76 72l67 -82c31 26 70 37 113 37c40 0 80 -6 114 -36l69 83l74 -74l-76 -78c32 -34 46 -89 46 -145s-18 -111 -46 -147z
M319 505h-2c-60 0 -101 -60 -101 -134c0 -78 41 -133 103 -133c60 0 102 56 102 133c0 74 -42 134 -102 134z" />
    <glyph glyph-name="quotesingle" unicode="'" horiz-adv-x="222" 
d="M111 763c33 0 52 -18 52 -60c0 -28 -14 -150 -21 -221c-2 -22 -17 -35 -31 -35s-29 13 -31 35c-7 71 -21 193 -21 221c0 42 19 60 52 60z" />
    <glyph glyph-name="quotedblleft" unicode="&#x201c;" horiz-adv-x="637" 
d="M75 539c0 64 44 129 91 168c45 38 79 53 101 56c23 3 34 -8 34 -23c0 -19 -29 -33 -43 -42c-45 -27 -73 -52 -73 -71c0 -14 22 -14 32 -15c48 -4 79 -56 79 -101c0 -59 -49 -102 -106 -102c-71 0 -115 65 -115 130zM337 539c0 64 44 129 91 168c45 38 79 53 101 56
c23 3 34 -8 34 -23c0 -19 -29 -33 -43 -42c-45 -27 -73 -52 -73 -71c0 -14 22 -14 32 -15c48 -4 79 -56 79 -101c0 -59 -49 -102 -106 -102c-71 0 -115 65 -115 130z" />
    <glyph glyph-name="guillemotleft" unicode="&#xab;" horiz-adv-x="607" 
d="M225 590c15 0 82 -52 82 -71c0 -30 -112 -125 -112 -148s112 -118 112 -148c0 -19 -67 -71 -82 -71c-17 0 -24 21 -32 33l-103 154c-10 13 -14 20 -14 32s4 19 14 32l103 154c8 12 15 33 32 33zM449 590c15 0 82 -52 82 -71c0 -30 -112 -125 -112 -148s112 -118 112 -148
c0 -19 -67 -71 -82 -71c-17 0 -24 21 -32 33l-103 154c-10 13 -14 20 -14 32s4 19 14 32l103 154c8 12 15 33 32 33z" />
    <glyph glyph-name="guilsinglleft" unicode="&#x2039;" horiz-adv-x="340" 
d="M203 590c15 0 82 -52 82 -71c0 -30 -112 -125 -112 -148s112 -118 112 -148c0 -19 -67 -71 -82 -71c-17 0 -24 21 -32 33l-103 154c-10 13 -14 20 -14 32s4 19 14 32l103 154c8 12 15 33 32 33z" />
    <glyph glyph-name="guilsinglright" unicode="&#x203a;" horiz-adv-x="340" 
d="M136 590c17 0 24 -21 32 -33l103 -154c10 -13 14 -20 14 -32s-4 -19 -14 -32l-103 -154c-8 -12 -15 -33 -32 -33c-15 0 -82 52 -82 71c0 30 112 125 112 148s-112 118 -112 148c0 19 67 71 82 71z" />
    <glyph glyph-name="fi" unicode="&#xfb01;" horiz-adv-x="1082" 
d="M391 690v58h223v-203c0 -5 -1 -24 -31 -24c-17 0 -22 10 -27 25c-26 81 -77 130 -165 144zM101 112v524c0 37 1 43 -34 54c-13 4 -22 13 -22 27c0 29 33 31 37 31h264v-636c0 -37 -1 -43 34 -54c13 -4 22 -13 22 -27c0 -29 -33 -31 -37 -31h-283c-4 0 -37 2 -37 31
c0 14 9 23 22 27c35 11 34 17 34 54zM981 636v-524c0 -37 -1 -43 34 -54c13 -4 22 -13 22 -27c0 -29 -33 -31 -37 -31h-283c-4 0 -37 2 -37 31c0 14 9 23 22 27c35 11 34 17 34 54v524c0 37 1 43 -34 54c-13 4 -22 13 -22 27c0 29 33 31 37 31h283c4 0 37 -2 37 -31
c0 -14 -9 -23 -22 -27c-35 -11 -34 -17 -34 -54zM391 352v62c42 11 61 50 70 88c5 17 11 33 32 33c31 0 26 -36 26 -44v-216c0 -8 5 -44 -26 -44c-21 0 -27 16 -32 33c-9 38 -28 77 -70 88z" />
    <glyph glyph-name="fl" unicode="&#xfb02;" horiz-adv-x="1232" 
d="M101 112v524c0 37 1 43 -34 54c-13 4 -22 13 -22 27c0 29 33 31 37 31h264v-636c0 -37 -1 -43 34 -54c13 -4 22 -13 22 -27c0 -29 -33 -31 -37 -31h-283c-4 0 -37 2 -37 31c0 14 9 23 22 27c35 11 34 17 34 54zM391 690v58h223v-203c0 -5 -1 -24 -31 -24
c-17 0 -22 10 -27 25c-26 81 -77 130 -165 144zM976 636v-636h-264c-4 0 -37 2 -37 31c0 14 9 23 22 27c35 11 34 17 34 54v524c0 37 1 43 -34 54c-13 4 -22 13 -22 27c0 29 33 31 37 31h283c4 0 37 -2 37 -31c0 -14 -9 -23 -22 -27c-35 -11 -34 -17 -34 -54zM1021 0v58
c81 11 127 81 148 174c5 22 17 28 38 28c23 0 25 -19 25 -38v-222h-211zM391 352v62c42 11 61 50 70 88c5 17 11 33 32 33c31 0 26 -36 26 -44v-216c0 -8 5 -44 -26 -44c-21 0 -27 16 -32 33c-9 38 -28 77 -70 88z" />
    <glyph glyph-name="endash" unicode="&#x2013;" horiz-adv-x="500" 
d="M0 447h500v-152h-500v152z" />
    <glyph glyph-name="dagger" unicode="&#x2020;" horiz-adv-x="579" 
d="M324 -128h-72c3 43 3 74 3 130c0 164 -32 248 -54 293c33 56 62 101 61 162c-64 -2 -107 -38 -141 -74c-25 8 -69 52 -88 96c19 43 63 89 89 97c32 -37 80 -74 140 -76c-3 85 -36 115 -75 160c17 37 62 85 101 105c43 -20 85 -69 101 -106c-40 -45 -72 -70 -74 -159
c65 1 104 38 139 76c25 -8 70 -52 89 -98c-20 -42 -64 -88 -89 -95c-30 35 -70 72 -139 74c-2 -60 32 -109 62 -162c-20 -46 -57 -130 -57 -293c0 -56 0 -87 4 -130z" />
    <glyph glyph-name="daggerdbl" unicode="&#x2021;" horiz-adv-x="578" 
d="M541 161c-17 -37 -64 -88 -90 -97c-29 29 -61 73 -136 74c1 -81 36 -117 73 -164c-15 -35 -62 -86 -102 -100c-39 14 -85 64 -101 100c40 44 76 81 76 164c-70 -1 -109 -43 -138 -74c-27 9 -74 60 -90 97c16 36 62 86 90 95c30 -37 68 -73 138 -75c-1 90 -38 122 -75 154
c37 37 74 65 75 144c-71 -1 -106 -39 -138 -73c-27 9 -74 60 -90 94c16 37 62 89 90 96c32 -37 61 -70 138 -74c0 70 -33 100 -75 143c16 35 62 87 101 100c38 -13 87 -65 101 -100c-41 -46 -73 -69 -74 -143c72 2 106 37 137 74c27 -7 75 -59 90 -96
c-15 -34 -64 -85 -90 -94c-30 31 -63 72 -136 73c0 -78 36 -107 73 -144c-37 -31 -72 -62 -74 -150c1 0 1 -2 1 -4c67 0 105 40 136 75c27 -9 73 -59 90 -95z" />
    <glyph glyph-name="periodcentered" unicode="&#xb7;" horiz-adv-x="364" 
d="M290 275c0 -58 -46 -108 -108 -108s-108 50 -108 108s46 108 108 108s108 -50 108 -108z" />
    <glyph glyph-name="paragraph" unicode="&#xb6;" horiz-adv-x="623" 
d="M597 637l-42 -41l-78 -13v-536c0 -100 -30 -176 -98 -234c-52 -44 -122 -61 -136 -61c-41 0 -81 22 -100 40c-14 13 -22 31 -16 48c7 25 30 51 54 62c10 7 22 3 31 -4c18 -20 61 -51 98 -51c52 0 90 19 90 181v133l-99 -42c-6 -2 -11 -5 -25 -5c-103 0 -228 97 -228 259
c0 88 38 167 95 211c53 45 106 69 187 69h262z" />
    <glyph glyph-name="bullet" unicode="&#x2022;" horiz-adv-x="394" 
d="M384 374c0 -101 -80 -187 -187 -187s-187 86 -187 187c0 100 80 187 187 187s187 -87 187 -187z" />
    <glyph glyph-name="quotesinglbase" unicode="&#x201a;" horiz-adv-x="375" 
d="M301 83c0 -64 -44 -129 -91 -168c-45 -38 -79 -53 -101 -56c-23 -3 -34 8 -34 23c0 19 29 33 43 42c45 27 73 52 73 71c0 14 -22 14 -32 15c-48 4 -79 56 -79 101c0 59 49 102 106 102c71 0 115 -65 115 -130z" />
    <glyph glyph-name="quotedblbase" unicode="&#x201e;" horiz-adv-x="637" 
d="M562 83c0 -64 -44 -129 -91 -168c-45 -38 -79 -53 -101 -56c-23 -3 -34 8 -34 23c0 19 29 33 43 42c45 27 73 52 73 71c0 14 -22 14 -32 15c-48 4 -79 56 -79 101c0 59 49 102 106 102c71 0 115 -65 115 -130zM300 83c0 -64 -44 -129 -91 -168c-45 -38 -79 -53 -101 -56
c-23 -3 -34 8 -34 23c0 19 29 33 43 42c45 27 73 52 73 71c0 14 -22 14 -32 15c-48 4 -79 56 -79 101c0 59 49 102 106 102c71 0 115 -65 115 -130z" />
    <glyph glyph-name="quotedblright" unicode="&#x201d;" horiz-adv-x="637" 
d="M562 633c0 -64 -44 -129 -91 -168c-45 -38 -79 -53 -101 -56c-23 -3 -34 8 -34 23c0 19 29 33 43 42c45 27 73 52 73 71c0 14 -22 14 -32 15c-48 4 -79 56 -79 101c0 59 49 102 106 102c71 0 115 -65 115 -130zM300 633c0 -64 -44 -129 -91 -168
c-45 -38 -79 -53 -101 -56c-23 -3 -34 8 -34 23c0 19 29 33 43 42c45 27 73 52 73 71c0 14 -22 14 -32 15c-48 4 -79 56 -79 101c0 59 49 102 106 102c71 0 115 -65 115 -130z" />
    <glyph glyph-name="guillemotright" unicode="&#xbb;" horiz-adv-x="607" 
d="M382 590c17 0 24 -21 32 -33l103 -154c10 -13 14 -20 14 -32s-4 -19 -14 -32l-103 -154c-8 -12 -15 -33 -32 -33c-15 0 -82 52 -82 71c0 30 112 125 112 148s-112 118 -112 148c0 19 67 71 82 71zM158 590c17 0 24 -21 32 -33l103 -154c10 -13 14 -20 14 -32
s-4 -19 -14 -32l-103 -154c-8 -12 -15 -33 -32 -33c-15 0 -82 52 -82 71c0 30 112 125 112 148s-112 118 -112 148c0 19 67 71 82 71z" />
    <glyph glyph-name="ellipsis" unicode="&#x2026;" horiz-adv-x="1000" 
d="M275 93c0 -58 -46 -108 -108 -108s-108 50 -108 108s46 108 108 108s108 -50 108 -108zM608 93c0 -58 -46 -108 -108 -108s-108 50 -108 108s46 108 108 108s108 -50 108 -108zM941 93c0 -58 -46 -108 -108 -108s-108 50 -108 108s46 108 108 108s108 -50 108 -108z" />
    <glyph glyph-name="perthousand" unicode="&#x2030;" horiz-adv-x="1315" 
d="M240 760h2c119 0 191 -94 191 -208c0 -91 -52 -209 -193 -209c-134 0 -193 112 -193 209c0 96 57 208 193 208zM241 715h-1c-27 0 -38 -44 -38 -162c0 -92 10 -166 41 -166c30 0 35 67 35 166c0 18 1 162 -37 162zM665 401h1c120 0 190 -93 190 -207
c0 -91 -52 -209 -191 -209c-134 0 -193 112 -193 209c0 96 57 207 193 207zM665 357h-1c-26 0 -38 -43 -38 -162c0 -92 11 -166 41 -166c31 0 36 67 36 165c0 19 1 163 -38 163zM1073 401h1c120 0 191 -93 191 -207c0 -91 -52 -209 -192 -209c-135 0 -193 112 -193 209
c0 95 56 207 193 207zM1073 357h-1c-26 0 -38 -43 -38 -162c0 -91 10 -166 42 -166c29 0 35 67 35 165c0 19 1 163 -38 163zM727 747l-510 -798l-48 40l507 792z" />
    <glyph glyph-name="questiondown" unicode="&#xbf;" horiz-adv-x="606" 
d="M325 -226v58c13 4 26 7 26 24c0 9 -2 13 -5 22c-5 12 -7 19 -7 34c0 49 43 87 92 87c54 0 101 -37 101 -94s-58 -131 -207 -131zM277 -162v-58c-111 11 -202 105 -202 218c0 128 96 220 237 238c28 4 36 5 37 37c0 18 7 33 28 33c30 0 30 -21 30 -45v-168
c0 -33 3 -36 -34 -36c-78 -2 -130 -57 -130 -135c0 -30 8 -63 34 -84zM471 447c0 -58 -46 -108 -108 -108s-108 50 -108 108s46 108 108 108s108 -50 108 -108z" />
    <glyph glyph-name="grave" unicode="`" horiz-adv-x="364" 
d="M243 950l51 -156h-114l-102 156h165z" />
    <glyph glyph-name="acute" unicode="&#xb4;" horiz-adv-x="364" 
d="M167 950h165l-103 -156h-113z" />
    <glyph glyph-name="circumflex" unicode="&#x2c6;" horiz-adv-x="520" 
d="M430 794h-136l-34 68l-34 -68h-135l107 156h125z" />
    <glyph glyph-name="tilde" unicode="&#x2dc;" horiz-adv-x="540" 
d="M370 935h87c-9 -59 -50 -136 -116 -136c-30 0 -60 31 -90 36c-51 8 -61 14 -78 -21h-89c9 60 59 123 123 133c23 0 51 -11 75 -21c72 -30 72 -17 88 9z" />
    <glyph glyph-name="macron" unicode="&#xaf;" horiz-adv-x="340" 
d="M334 930v-93h-328v93h328z" />
    <glyph glyph-name="breve" unicode="&#x2d8;" horiz-adv-x="340" 
d="M250 930h84c0 -251 -328 -248 -328 0h84c0 -119 160 -119 160 0z" />
    <glyph glyph-name="dotaccent" unicode="&#x2d9;" horiz-adv-x="375" 
d="M296 897c0 -58 -46 -108 -108 -108s-108 50 -108 108s46 108 108 108s108 -50 108 -108z" />
    <glyph glyph-name="dieresis" unicode="&#xa8;" horiz-adv-x="375" 
d="M141 897c0 -58 -46 -108 -108 -108s-108 50 -108 108s46 108 108 108s108 -50 108 -108zM449 897c0 -58 -46 -108 -108 -108s-108 50 -108 108s46 108 108 108s108 -50 108 -108z" />
    <glyph glyph-name="ring" unicode="&#x2da;" horiz-adv-x="420" 
d="M326 904c0 -62 -51 -115 -116 -115s-116 53 -116 115s51 115 116 115s116 -53 116 -115zM246 904c0 21 -18 35 -37 35s-35 -15 -35 -35s16 -35 35 -35s37 14 37 35z" />
    <glyph glyph-name="cedilla" unicode="&#xb8;" horiz-adv-x="340" 
d="M139 -94h-19c-16 0 -32 8 -32 31v63h81v-38h23c24 0 32 -13 32 -32v-109c0 -27 -13 -57 -39 -57h-113v85h67v57z" />
    <glyph glyph-name="hungarumlaut" unicode="&#x2dd;" horiz-adv-x="460" 
d="M135 950h165l-103 -156h-113zM366 950h165l-103 -156h-113z" />
    <glyph glyph-name="ogonek" unicode="&#x2db;" horiz-adv-x="340" 
d="M122 0h102c-80 -118 -78 -133 -1 -119v-92h-94c-31 0 -108 42 -7 211z" />
    <glyph glyph-name="caron" unicode="&#x2c7;" horiz-adv-x="341" 
d="M1 945h136l34 -68l34 68h135l-107 -156h-125z" />
    <glyph glyph-name="emdash" unicode="&#x2014;" horiz-adv-x="1000" 
d="M0 447h1000v-152h-1000v152z" />
    <glyph glyph-name="AE" unicode="&#xc6;" horiz-adv-x="987" 
d="M720 0v58c81 10 143 65 170 145c7 15 13 31 31 31c32 0 29 -30 29 -34v-200h-230zM232 192l40 58h158v386c0 37 1 43 -34 54c-13 4 -22 13 -22 27c0 29 33 31 37 31h264v-748h-264c-4 0 -37 2 -37 31c0 14 9 23 22 27c35 11 34 17 34 54v80h-198zM720 690v58h223v-203
c0 -5 -1 -24 -31 -24c-17 0 -22 10 -27 25c-26 81 -77 130 -165 144zM75 114l316 515h2v-102l-235 -384c-7 -12 -19 -30 -19 -44c0 -25 20 -34 40 -42c14 -5 28 -11 28 -29c0 -26 -21 -28 -42 -28h-137c-19 0 -42 2 -42 27c0 17 9 23 24 29c41 16 43 22 65 58zM720 352v62
c42 11 61 50 70 88c5 17 11 33 32 33c31 0 26 -36 26 -44v-216c0 -8 5 -44 -26 -44c-21 0 -27 16 -32 33c-9 38 -28 77 -70 88z" />
    <glyph glyph-name="ordfeminine" unicode="&#xaa;" horiz-adv-x="384" 
d="M158 763v-27c-13 0 -30 0 -31 -22c0 0 25 -15 19 -47c-4 -28 -31 -47 -59 -43c-33 7 -51 36 -46 68c6 37 57 71 86 71h31zM321 618v-116c0 -7 -3 -22 11 -28c10 -4 13 8 31 8c11 0 23 -11 23 -22c0 -23 -26 -52 -43 -65c-26 -12 -54 -18 -88 -18c-41 0 -67 27 -67 96v290
c24 0 53 -5 87 -27c46 -29 46 -71 46 -118zM159 404v-27c-44 0 -74 -3 -106 17c-34 21 -48 52 -48 91s14 70 48 91c32 19 62 17 106 17v-27c-13 -2 -21 -8 -25 -17c-3 -8 -4 -18 -4 -30v-71c0 -21 5 -40 29 -44z" />
    <glyph glyph-name="Lslash" unicode="&#x141;" horiz-adv-x="597" 
d="M341 636v-163l53 33v-50l-53 -33v-423h-264c-4 0 -37 2 -37 31c0 14 9 23 22 27c35 11 34 17 34 54v158l-56 -35v50l56 35v316c0 37 1 43 -34 54c-13 4 -22 13 -22 27c0 29 33 31 37 31h283c4 0 37 -2 37 -31c0 -14 -9 -23 -22 -27c-35 -11 -34 -17 -34 -54zM386 0v58
c81 11 127 81 148 174c5 22 17 28 38 28c23 0 25 -19 25 -38v-222h-211z" />
    <glyph glyph-name="Oslash" unicode="&#xd8;" horiz-adv-x="711" 
d="M577 676l64 72l37 -31l-68 -77c53 -70 79 -165 79 -266c0 -199 -99 -370 -311 -389v58c47 17 51 47 51 72v321l-45 -51v73l45 51v124c0 25 -4 55 -51 72v58c83 -7 149 -38 199 -87zM134 72l-64 -72l-37 31l68 77c-53 70 -79 165 -79 266c0 199 99 370 311 389v-58
c-47 -17 -51 -47 -51 -72v-292l55 62v-71l-55 -62v-155c0 -25 4 -55 51 -72v-58c-83 7 -149 38 -199 87z" />
    <glyph glyph-name="OE" unicode="&#x152;" horiz-adv-x="989" 
d="M677 748v-748h-224c-11 -4 -23 -8 -36 -10c-12 -3 -24 -5 -36 -5v58c47 17 51 47 51 72v518c0 25 -4 55 -51 72v58c24 0 49 -7 72 -15h224zM333 763v-58c-47 -17 -51 -47 -51 -72v-518c0 -25 4 -55 51 -72v-58c-212 19 -311 190 -311 389s99 370 311 389zM945 748v-203
c0 -5 -1 -24 -31 -24c-17 0 -22 10 -27 25c-26 81 -77 130 -165 144v58h223zM722 0v58c81 10 143 65 170 145c7 15 13 31 31 31c32 0 29 -30 29 -34v-200h-230zM722 352v62c42 11 61 50 70 88c5 17 11 33 32 33c31 0 26 -36 26 -44v-216c0 -8 5 -44 -26 -44
c-21 0 -27 16 -32 33c-9 38 -28 77 -70 88z" />
    <glyph glyph-name="ordmasculine" unicode="&#xba;" horiz-adv-x="372" 
d="M167 765v-28c-24 -10 -25 -25 -25 -36v-258c0 -13 1 -28 25 -36v-28c-106 9 -155 94 -155 193s49 184 155 193zM205 377v28c24 10 25 25 25 36v258c0 13 -1 28 -25 36v28c106 -9 155 -94 155 -193s-49 -184 -155 -193z" />
    <glyph glyph-name="ae" unicode="&#xe6;" horiz-adv-x="987" 
d="M720 0v58c81 10 143 65 170 145c7 15 13 31 31 31c32 0 29 -30 29 -34v-200h-230zM232 192l40 58h158v386c0 37 1 43 -34 54c-13 4 -22 13 -22 27c0 29 33 31 37 31h264v-748h-264c-4 0 -37 2 -37 31c0 14 9 23 22 27c35 11 34 17 34 54v80h-198zM720 690v58h223v-203
c0 -5 -1 -24 -31 -24c-17 0 -22 10 -27 25c-26 81 -77 130 -165 144zM75 114l316 515h2v-102l-235 -384c-7 -12 -19 -30 -19 -44c0 -25 20 -34 40 -42c14 -5 28 -11 28 -29c0 -26 -21 -28 -42 -28h-137c-19 0 -42 2 -42 27c0 17 9 23 24 29c41 16 43 22 65 58zM720 352v62
c42 11 61 50 70 88c5 17 11 33 32 33c31 0 26 -36 26 -44v-216c0 -8 5 -44 -26 -44c-21 0 -27 16 -32 33c-9 38 -28 77 -70 88z" />
    <glyph glyph-name="dotlessi" unicode="&#x131;" horiz-adv-x="447" 
d="M346 636v-524c0 -37 -1 -43 34 -54c13 -4 22 -13 22 -27c0 -29 -33 -31 -37 -31h-283c-4 0 -37 2 -37 31c0 14 9 23 22 27c35 11 34 17 34 54v524c0 37 1 43 -34 54c-13 4 -22 13 -22 27c0 29 33 31 37 31h283c4 0 37 -2 37 -31c0 -14 -9 -23 -22 -27
c-35 -11 -34 -17 -34 -54z" />
    <glyph glyph-name="lslash" unicode="&#x142;" horiz-adv-x="597" 
d="M341 636v-163l53 33v-50l-53 -33v-423h-264c-4 0 -37 2 -37 31c0 14 9 23 22 27c35 11 34 17 34 54v158l-56 -35v50l56 35v316c0 37 1 43 -34 54c-13 4 -22 13 -22 27c0 29 33 31 37 31h283c4 0 37 -2 37 -31c0 -14 -9 -23 -22 -27c-35 -11 -34 -17 -34 -54zM386 0v58
c81 11 127 81 148 174c5 22 17 28 38 28c23 0 25 -19 25 -38v-222h-211z" />
    <glyph glyph-name="oslash" unicode="&#xf8;" horiz-adv-x="711" 
d="M577 676l64 72l37 -31l-68 -77c53 -70 79 -165 79 -266c0 -199 -99 -370 -311 -389v58c47 17 51 47 51 72v321l-45 -51v73l45 51v124c0 25 -4 55 -51 72v58c83 -7 149 -38 199 -87zM134 72l-64 -72l-37 31l68 77c-53 70 -79 165 -79 266c0 199 99 370 311 389v-58
c-47 -17 -51 -47 -51 -72v-292l55 62v-71l-55 -62v-155c0 -25 4 -55 51 -72v-58c-83 7 -149 38 -199 87z" />
    <glyph glyph-name="oe" unicode="&#x153;" horiz-adv-x="989" 
d="M677 748v-748h-224c-11 -4 -23 -8 -36 -10c-12 -3 -24 -5 -36 -5v58c47 17 51 47 51 72v518c0 25 -4 55 -51 72v58c24 0 49 -7 72 -15h224zM333 763v-58c-47 -17 -51 -47 -51 -72v-518c0 -25 4 -55 51 -72v-58c-212 19 -311 190 -311 389s99 370 311 389zM945 748v-203
c0 -5 -1 -24 -31 -24c-17 0 -22 10 -27 25c-26 81 -77 130 -165 144v58h223zM722 0v58c81 10 143 65 170 145c7 15 13 31 31 31c32 0 29 -30 29 -34v-200h-230zM722 352v62c42 11 61 50 70 88c5 17 11 33 32 33c31 0 26 -36 26 -44v-216c0 -8 5 -44 -26 -44
c-21 0 -27 16 -32 33c-9 38 -28 77 -70 88z" />
    <glyph glyph-name="germandbls" unicode="&#xdf;" horiz-adv-x="1262" 
d="M298 763v-58c-38 -13 -71 -41 -71 -82c0 -49 27 -79 146 -125c177 -68 217 -162 217 -254c0 -155 -129 -256 -277 -259v58c48 15 89 37 91 92c2 63 -72 89 -120 110c-126 53 -243 110 -243 267c0 152 110 246 257 251zM41 31v193c0 21 4 49 32 49c20 0 34 -16 37 -33
c14 -80 70 -179 158 -197v-58c-87 2 -106 37 -142 37c-32 0 -29 -33 -54 -33c-31 0 -31 37 -31 42zM672 31v193c0 21 4 49 32 49c20 0 34 -16 37 -33c14 -80 70 -179 158 -197v-58c-87 2 -106 37 -142 37c-32 0 -29 -33 -54 -33c-31 0 -31 37 -31 42zM929 763v-58
c-38 -13 -71 -41 -71 -82c0 -49 27 -79 146 -125c177 -68 217 -162 217 -254c0 -155 -129 -256 -277 -259v58c48 15 89 37 91 92c2 63 -72 89 -120 110c-126 53 -243 110 -243 267c0 152 110 246 257 251zM563 718v-171c0 -23 -4 -48 -33 -48c-24 0 -33 19 -36 39
c-11 74 -73 150 -151 167v58c63 -1 130 -39 141 -39c26 0 24 36 50 36c31 0 29 -34 29 -42zM1194 718v-171c0 -23 -4 -48 -33 -48c-24 0 -33 19 -36 39c-11 74 -73 150 -151 167v58c63 -1 130 -39 141 -39c26 0 24 36 50 36c31 0 29 -34 29 -42z" />
    <glyph glyph-name="onesuperior" unicode="&#xb9;" horiz-adv-x="408" 
d="M273 763v-388c0 -17 1 -19 27 -26c10 -1 17 -7 17 -17c0 -18 -26 -18 -32 -18h-161c-6 0 -32 0 -32 18c0 10 7 16 17 17c26 7 27 9 27 26v302c0 38 -5 40 -21 42c-11 1 -24 3 -24 16c0 21 25 20 32 21z" />
    <glyph glyph-name="logicalnot" unicode="&#xac;" horiz-adv-x="586" 
d="M538 131h-120v210h-370v118h490v-328z" />
    <glyph glyph-name="mu" unicode="&#xb5;" horiz-adv-x="708" 
d="M603 551v-433c0 -37 21 -54 42 -65c11 -6 20 -11 20 -28c0 -11 -10 -21 -30 -27c-16 -5 -40 -9 -56 -9c-51 0 -85 18 -108 64h-2c-13 -33 -47 -64 -94 -64c-23 0 -45 8 -57 22v77c9 -2 15 -2 20 -2c56 0 76 37 76 108v357h189zM281 551v-606c0 -9 5 -21 14 -24
s23 -12 23 -24c0 -13 -7 -20 -48 -33s-114 -29 -143 -29c-19 0 -35 18 -35 65v651h189z" />
    <glyph glyph-name="trademark" unicode="&#x2122;" horiz-adv-x="876" 
d="M27 748h79v-32c-28 -20 -36 -57 -41 -86c-2 -12 -4 -26 -20 -26s-18 14 -18 16v128zM125 748h135v-350c0 -21 0 -24 19 -30c7 -2 12 -7 12 -15c0 -16 -18 -17 -20 -17h-156c-2 0 -21 1 -21 17c0 8 5 13 12 15c20 6 19 9 19 30v350zM573 336l-115 341c-3 8 -6 16 -10 24
c-5 8 -8 9 -17 11c-10 3 -21 6 -21 19c0 17 16 17 28 17h135l58 -169h2l25 91h1v-100l-70 -234h-16zM683 748h146c2 0 20 -1 20 -17c0 -8 -5 -13 -12 -15c-19 -6 -19 -9 -19 -30v-288c0 -21 0 -24 19 -30c7 -2 12 -7 12 -15c0 -16 -18 -17 -20 -17h-156c-2 0 -20 1 -20 17
c0 8 5 13 12 15c19 6 18 9 18 30v350zM280 748h79v-128c0 -2 -2 -16 -18 -16s-18 14 -20 26c-5 29 -13 66 -41 86v32zM458 609l30 -91v-84c0 -27 3 -47 27 -62c8 -5 18 -10 18 -20c0 -17 -18 -16 -29 -16h-61c-12 0 -30 0 -30 16c0 21 43 7 43 82v175h2z" />
    <glyph glyph-name="Eth" unicode="&#xd0;" horiz-adv-x="727" 
d="M372 690v58c170 2 312 -116 324 -374c11 -235 -158 -374 -324 -374v58c61 8 64 65 64 103v426c0 38 -3 95 -64 103zM327 748v-270h45v-58h-45v-420h-254c-22 0 -47 2 -47 31c0 14 9 23 22 27c35 11 34 17 34 54v308h-56v58h56v158c0 15 2 42 -17 48c-20 7 -39 10 -39 35
c0 26 25 29 45 29h256z" />
    <glyph glyph-name="onehalf" unicode="&#xbd;" horiz-adv-x="871" 
d="M329 334h-293v44c60 3 74 16 74 78v158c0 50 -1 57 -38 61l-37 4v42c53 6 154 19 219 40v-305c0 -64 12 -72 75 -78v-44zM681 749l-484 -800l-47 35l481 796zM805 168l36 -12c-13 -46 -34 -116 -44 -156h-317v39c77 66 170 122 170 215c0 45 -27 73 -66 73
c-34 0 -62 -19 -93 -56l-29 30l39 52c31 39 88 75 154 75c75 0 148 -37 149 -124c1 -45 -24 -100 -125 -158l-71 -39v-2h110c44 0 61 11 87 63z" />
    <glyph glyph-name="plusminus" unicode="&#xb1;" horiz-adv-x="586" 
d="M535 348h-182v-202h-121v202h-184v118h184v193h121v-193h182v-118zM538 -16h-487v117h487v-117z" />
    <glyph glyph-name="Thorn" unicode="&#xde;" horiz-adv-x="702" 
d="M381 561v58c244 0 286 -114 286 -219s-42 -219 -286 -219v58c56 10 59 49 59 96v137c0 43 -9 82 -59 89zM32 717c0 29 33 31 37 31h264v-636c0 -37 -1 -43 34 -54c13 -4 22 -13 22 -27c0 -29 -33 -31 -37 -31h-283c-4 0 -37 2 -37 31c0 14 9 23 22 27c35 11 34 17 34 54
v524c0 37 1 43 -34 54c-13 4 -22 13 -22 27z" />
    <glyph glyph-name="onequarter" unicode="&#xbc;" horiz-adv-x="871" 
d="M820 111h-73v-7c0 -49 10 -59 67 -63v-41h-277v41c63 3 65 10 65 63v7h-182v38c67 99 176 246 211 279h116v-255h73v-62zM602 173v138h-3c-26 -47 -71 -90 -102 -138h105zM343 334h-293v44c61 4 73 16 73 78v158c0 50 1 57 -37 61l-38 4v42c53 6 155 19 221 40v-305
c0 -64 10 -72 74 -78v-44zM699 749l-484 -801l-46 35l481 797z" />
    <glyph glyph-name="divide" unicode="&#xf7;" horiz-adv-x="586" 
d="M296 428h-2c-40 0 -83 41 -83 90s43 92 85 92c47 0 85 -43 85 -92s-38 -90 -85 -90zM538 244h-490v118h490v-118zM295 181h2c41 0 82 -41 82 -90s-41 -93 -84 -93c-48 0 -86 44 -86 93s38 90 86 90z" />
    <glyph glyph-name="brokenbar" unicode="&#xa6;" horiz-adv-x="316" 
d="M218 389h-121v418h121v-418zM218 -209h-121v418h121v-418z" />
    <glyph glyph-name="degree" unicode="&#xb0;" horiz-adv-x="430" 
d="M213 775h1c104 0 172 -85 172 -185c0 -118 -79 -185 -173 -185s-172 67 -172 185c0 113 78 185 172 185zM213 701h-1c-48 0 -80 -46 -80 -110c0 -66 33 -112 81 -112c51 0 80 46 80 108s-24 114 -80 114z" />
    <glyph glyph-name="thorn" unicode="&#xfe;" horiz-adv-x="702" 
d="M381 561v58c244 0 286 -114 286 -219s-42 -219 -286 -219v58c56 10 59 49 59 96v137c0 43 -9 82 -59 89zM32 717c0 29 33 31 37 31h264v-636c0 -37 -1 -43 34 -54c13 -4 22 -13 22 -27c0 -29 -33 -31 -37 -31h-283c-4 0 -37 2 -37 31c0 14 9 23 22 27c35 11 34 17 34 54
v524c0 37 1 43 -34 54c-13 4 -22 13 -22 27z" />
    <glyph glyph-name="threequarters" unicode="&#xbe;" horiz-adv-x="871" 
d="M823 111h-74v-7c0 -49 11 -59 67 -63v-41h-277v41c63 3 65 10 65 63v7h-182v38c66 100 176 246 211 279h116v-255h74v-62zM604 173v138h-2c-28 -47 -72 -90 -102 -138h104zM293 580l-1 -2c69 -10 114 -40 114 -96c0 -106 -168 -160 -249 -160c-43 0 -79 16 -99 31
c-14 12 -22 34 -15 52c10 22 28 42 41 51c8 4 21 3 31 -5c26 -25 49 -73 96 -73c38 0 52 27 52 59c0 68 -39 83 -76 84c-20 2 -44 -1 -58 -4l-7 43c78 19 108 41 108 73c0 21 -16 40 -55 40c-35 0 -63 -19 -98 -58l-27 33l46 57c26 24 68 55 133 55h2c96 0 146 -48 146 -97
c0 -20 -13 -42 -28 -53c-16 -12 -27 -19 -56 -30zM708 749l-483 -801l-48 35l482 797z" />
    <glyph glyph-name="twosuperior" unicode="&#xb2;" horiz-adv-x="408" 
d="M189 728v35c88 2 179 -40 177 -131c-2 -71 -53 -112 -120 -136l-95 -41l-6 -5c-23 0 -46 -9 -64 -17l-2 2c65 84 140 66 142 196c0 8 2 82 -32 97zM95 326c-23 0 -34 -21 -47 -21c-12 0 -17 9 -17 19c0 26 15 55 36 72c25 20 56 27 87 27s62 -6 92 -10c21 -3 43 -7 65 -7
c47 0 22 44 51 44c16 0 18 -14 18 -25c0 -27 -18 -64 -35 -85c-21 -25 -59 -44 -93 -44c-54 0 -114 30 -157 30zM159 762v-35c-8 -1 -22 -6 -22 -14c0 -11 40 -14 40 -62c0 -33 -33 -61 -70 -61c-43 0 -71 31 -71 69c0 61 65 96 123 103z" />
    <glyph glyph-name="registered" unicode="&#xae;" horiz-adv-x="939" 
d="M470 -15c-215 0 -389 176 -389 389s174 389 389 389c213 0 389 -176 389 -389s-176 -389 -389 -389zM470 46c183 0 328 147 328 328s-145 328 -328 328c-182 0 -327 -147 -328 -328s146 -328 328 -328zM305 217v317c0 23 1 26 -20 33c-8 3 -14 8 -14 17c0 17 20 18 23 18
h160v-385c0 -22 -1 -26 21 -32c8 -3 13 -8 13 -17c0 -17 -20 -18 -23 -18h-171c-3 0 -23 1 -23 18c0 9 6 14 14 17c21 6 20 10 20 32zM477 350v35c33 3 36 23 36 53v74c0 29 -6 44 -36 55v35h3c128 0 179 -38 179 -115c0 -70 -45 -99 -107 -114v-2c54 -7 105 -23 105 -87
v-54c0 -5 -1 -17 7 -17c10 0 12 17 26 17c8 0 18 -8 18 -17c0 -28 -43 -72 -102 -72c-49 0 -93 24 -93 102v63c0 6 0 40 -36 44z" />
    <glyph glyph-name="minus" unicode="&#x2212;" horiz-adv-x="586" 
d="M538 244h-490v118h490v-118z" />
    <glyph glyph-name="eth" unicode="&#xf0;" horiz-adv-x="727" 
d="M372 690v58c170 2 312 -116 324 -374c11 -235 -158 -374 -324 -374v58c61 8 64 65 64 103v426c0 38 -3 95 -64 103zM327 748v-270h45v-58h-45v-420h-254c-22 0 -47 2 -47 31c0 14 9 23 22 27c35 11 34 17 34 54v308h-56v58h56v158c0 15 2 42 -17 48c-20 7 -39 10 -39 35
c0 26 25 29 45 29h256z" />
    <glyph glyph-name="multiply" unicode="&#xd7;" horiz-adv-x="586" 
d="M542 103l-86 -80l-166 184l-166 -184l-86 80l175 190l-171 188l86 82l168 -183l162 184l85 -81l-173 -189z" />
    <glyph glyph-name="threesuperior" unicode="&#xb3;" horiz-adv-x="408" 
d="M166 761v-35c-10 -2 -27 -7 -27 -18c0 -13 33 -14 33 -54c0 -30 -28 -59 -62 -59c-38 0 -64 26 -64 60c0 62 61 98 120 106zM167 536c0 16 13 17 27 18c41 4 42 43 42 49v69c0 27 -9 49 -40 56v35c129 5 178 -69 178 -119c0 -59 -43 -96 -102 -109v-2
c71 -18 109 -47 109 -110c0 -54 -36 -130 -185 -127v35c30 7 40 26 40 54v81c0 27 -5 51 -42 53c-13 1 -27 2 -27 17zM166 331v-35c-61 5 -137 35 -137 101c0 37 29 66 70 66c32 0 65 -28 65 -58c0 -42 -36 -51 -36 -61s29 -12 38 -13z" />
    <glyph glyph-name="copyright" unicode="&#xa9;" horiz-adv-x="939" 
d="M470 -15c-216 0 -389 176 -389 389s173 389 389 389c213 0 389 -176 389 -389s-176 -389 -389 -389zM470 46c183 0 328 147 328 328s-145 328 -328 328c-182 0 -327 -147 -328 -328s146 -328 328 -328zM450 165v-36c-137 3 -202 107 -202 234c0 143 81 245 202 250v-36
c-30 -6 -40 -32 -40 -58v-295c0 -26 10 -51 40 -59zM478 576v36c23 0 71 -24 87 -24c9 0 13 4 17 12c3 8 8 13 16 13c20 0 20 -19 20 -23v-144c0 -3 0 -23 -20 -23c-13 0 -17 12 -20 23c-14 51 -43 115 -100 130zM478 130v37c48 8 88 41 102 86c4 11 7 20 20 20
c12 0 19 -9 19 -21c-1 -51 -77 -126 -141 -122z" />
    <glyph glyph-name="Aacute" unicode="&#xc1;" 
d="M221 608l26 -113l-94 -342c-16 -61 -2 -78 32 -93c16 -7 30 -13 30 -33c0 -28 -32 -27 -52 -27h-115c-20 0 -56 1 -56 30c0 24 17 23 39 34c21 11 48 34 67 105l120 439h3zM374 117l-20 77h-146l14 58h122l-101 442l13 54h221l150 -632c6 -28 7 -47 35 -59
c14 -6 25 -13 25 -31c0 -27 -36 -26 -55 -26h-249c-20 0 -49 2 -49 28c0 16 6 21 19 28c26 15 30 22 21 61zM333 950h165l-103 -156h-113z" />
    <glyph glyph-name="Acircumflex" unicode="&#xc2;" 
d="M221 608l26 -113l-94 -342c-16 -61 -2 -78 32 -93c16 -7 30 -13 30 -33c0 -28 -32 -27 -52 -27h-115c-20 0 -56 1 -56 30c0 24 17 23 39 34c21 11 48 34 67 105l120 439h3zM374 117l-20 77h-146l14 58h122l-101 442l13 54h221l150 -632c6 -28 7 -47 35 -59
c14 -6 25 -13 25 -31c0 -27 -36 -26 -55 -26h-249c-20 0 -49 2 -49 28c0 16 6 21 19 28c26 15 30 22 21 61zM518 794h-136l-34 68l-34 -68h-135l107 156h125z" />
    <glyph glyph-name="Adieresis" unicode="&#xc4;" 
d="M221 608l26 -113l-94 -342c-16 -61 -2 -78 32 -93c16 -7 30 -13 30 -33c0 -28 -32 -27 -52 -27h-115c-20 0 -56 1 -56 30c0 24 17 23 39 34c21 11 48 34 67 105l120 439h3zM374 117l-20 77h-146l14 58h122l-101 442l13 54h221l150 -632c6 -28 7 -47 35 -59
c14 -6 25 -13 25 -31c0 -27 -36 -26 -55 -26h-249c-20 0 -49 2 -49 28c0 16 6 21 19 28c26 15 30 22 21 61zM301 897c0 -58 -46 -108 -108 -108s-108 50 -108 108s46 108 108 108s108 -50 108 -108zM609 897c0 -58 -46 -108 -108 -108s-108 50 -108 108s46 108 108 108
s108 -50 108 -108z" />
    <glyph glyph-name="Agrave" unicode="&#xc0;" 
d="M221 608l26 -113l-94 -342c-16 -61 -2 -78 32 -93c16 -7 30 -13 30 -33c0 -28 -32 -27 -52 -27h-115c-20 0 -56 1 -56 30c0 24 17 23 39 34c21 11 48 34 67 105l120 439h3zM374 117l-20 77h-146l14 58h122l-101 442l13 54h221l150 -632c6 -28 7 -47 35 -59
c14 -6 25 -13 25 -31c0 -27 -36 -26 -55 -26h-249c-20 0 -49 2 -49 28c0 16 6 21 19 28c26 15 30 22 21 61zM409 950l51 -156h-114l-102 156h165z" />
    <glyph glyph-name="Aring" unicode="&#xc5;" 
d="M464 904c0 -62 -51 -115 -116 -115s-116 53 -116 115s51 115 116 115s116 -53 116 -115zM384 904c0 21 -18 35 -37 35s-35 -15 -35 -35s16 -35 35 -35s37 14 37 35zM221 608l26 -113l-94 -342c-16 -61 -2 -78 32 -93c16 -7 30 -13 30 -33c0 -28 -32 -27 -52 -27h-115
c-20 0 -56 1 -56 30c0 24 17 23 39 34c21 11 48 34 67 105l120 439h3zM374 117l-20 77h-146l14 58h122l-101 442l13 54h221l150 -632c6 -28 7 -47 35 -59c14 -6 25 -13 25 -31c0 -27 -36 -26 -55 -26h-249c-20 0 -49 2 -49 28c0 16 6 21 19 28c26 15 30 22 21 61z" />
    <glyph glyph-name="Atilde" unicode="&#xc3;" 
d="M221 608l26 -113l-94 -342c-16 -61 -2 -78 32 -93c16 -7 30 -13 30 -33c0 -28 -32 -27 -52 -27h-115c-20 0 -56 1 -56 30c0 24 17 23 39 34c21 11 48 34 67 105l120 439h3zM374 117l-20 77h-146l14 58h122l-101 442l13 54h221l150 -632c6 -28 7 -47 35 -59
c14 -6 25 -13 25 -31c0 -27 -36 -26 -55 -26h-249c-20 0 -49 2 -49 28c0 16 6 21 19 28c26 15 30 22 21 61zM448 935h87c-9 -59 -50 -136 -116 -136c-30 0 -60 31 -90 36c-51 8 -61 14 -78 -21h-89c9 60 59 123 123 133c23 0 51 -11 75 -21c72 -30 72 -17 88 9z" />
    <glyph glyph-name="Ccedilla" unicode="&#xc7;" horiz-adv-x="656" 
d="M391 705v58c37 -1 114 -40 140 -40c15 0 21 6 27 19s13 21 27 21c32 0 32 -31 32 -36v-232c0 -5 0 -36 -32 -36c-21 0 -33 17 -37 36c-17 81 -64 185 -157 210zM555 185c5 17 12 32 33 32c19 0 30 -16 30 -34c-2 -82 -123 -202 -227 -198v58c77 17 141 68 164 142z
M316 -94h-19c-16 0 -32 8 -32 31v58c-82 20 -143 67 -183 131s-60 146 -60 235c0 231 130 395 324 402v-58c-48 -10 -64 -51 -64 -93v-474c0 -42 16 -83 64 -95v-81h23c24 0 32 -13 32 -32v-109c0 -27 -13 -57 -39 -57h-113v85h67v57z" />
    <glyph glyph-name="Eacute" unicode="&#xc9;" horiz-adv-x="658" 
d="M37 717c0 29 33 31 37 31h264v-748h-264c-4 0 -37 2 -37 31c0 14 9 23 22 27c35 11 34 17 34 54v524c0 37 1 43 -34 54c-13 4 -22 13 -22 27zM383 690v58h223v-203c0 -5 -1 -24 -31 -24c-17 0 -22 10 -27 25c-26 81 -77 130 -165 144zM383 0v58c81 10 143 65 170 145
c7 15 13 31 31 31c32 0 29 -30 29 -34v-200h-230zM383 352v62c42 11 61 50 70 88c5 17 11 33 32 33c31 0 26 -36 26 -44v-216c0 -8 5 -44 -26 -44c-21 0 -27 16 -32 33c-9 38 -28 77 -70 88zM314 950h165l-103 -156h-113z" />
    <glyph glyph-name="Ecircumflex" unicode="&#xca;" horiz-adv-x="658" 
d="M37 717c0 29 33 31 37 31h264v-748h-264c-4 0 -37 2 -37 31c0 14 9 23 22 27c35 11 34 17 34 54v524c0 37 1 43 -34 54c-13 4 -22 13 -22 27zM383 690v58h223v-203c0 -5 -1 -24 -31 -24c-17 0 -22 10 -27 25c-26 81 -77 130 -165 144zM383 0v58c81 10 143 65 170 145
c7 15 13 31 31 31c32 0 29 -30 29 -34v-200h-230zM383 352v62c42 11 61 50 70 88c5 17 11 33 32 33c31 0 26 -36 26 -44v-216c0 -8 5 -44 -26 -44c-21 0 -27 16 -32 33c-9 38 -28 77 -70 88zM499 794h-136l-34 68l-34 -68h-135l107 156h125z" />
    <glyph glyph-name="Edieresis" unicode="&#xcb;" horiz-adv-x="658" 
d="M37 717c0 29 33 31 37 31h264v-748h-264c-4 0 -37 2 -37 31c0 14 9 23 22 27c35 11 34 17 34 54v524c0 37 1 43 -34 54c-13 4 -22 13 -22 27zM383 690v58h223v-203c0 -5 -1 -24 -31 -24c-17 0 -22 10 -27 25c-26 81 -77 130 -165 144zM383 0v58c81 10 143 65 170 145
c7 15 13 31 31 31c32 0 29 -30 29 -34v-200h-230zM383 352v62c42 11 61 50 70 88c5 17 11 33 32 33c31 0 26 -36 26 -44v-216c0 -8 5 -44 -26 -44c-21 0 -27 16 -32 33c-9 38 -28 77 -70 88zM283 897c0 -58 -46 -108 -108 -108s-108 50 -108 108s46 108 108 108
s108 -50 108 -108zM591 897c0 -58 -46 -108 -108 -108s-108 50 -108 108s46 108 108 108s108 -50 108 -108z" />
    <glyph glyph-name="Egrave" unicode="&#xc8;" horiz-adv-x="658" 
d="M37 717c0 29 33 31 37 31h264v-748h-264c-4 0 -37 2 -37 31c0 14 9 23 22 27c35 11 34 17 34 54v524c0 37 1 43 -34 54c-13 4 -22 13 -22 27zM383 690v58h223v-203c0 -5 -1 -24 -31 -24c-17 0 -22 10 -27 25c-26 81 -77 130 -165 144zM383 0v58c81 10 143 65 170 145
c7 15 13 31 31 31c32 0 29 -30 29 -34v-200h-230zM383 352v62c42 11 61 50 70 88c5 17 11 33 32 33c31 0 26 -36 26 -44v-216c0 -8 5 -44 -26 -44c-21 0 -27 16 -32 33c-9 38 -28 77 -70 88zM390 950l51 -156h-114l-102 156h165z" />
    <glyph glyph-name="Iacute" unicode="&#xcd;" horiz-adv-x="447" 
d="M346 636v-524c0 -37 -1 -43 34 -54c13 -4 22 -13 22 -27c0 -29 -33 -31 -37 -31h-283c-4 0 -37 2 -37 31c0 14 9 23 22 27c35 11 34 17 34 54v524c0 37 1 43 -34 54c-13 4 -22 13 -22 27c0 29 33 31 37 31h283c4 0 37 -2 37 -31c0 -14 -9 -23 -22 -27
c-35 -11 -34 -17 -34 -54zM209 950h165l-103 -156h-113z" />
    <glyph glyph-name="Icircumflex" unicode="&#xce;" horiz-adv-x="447" 
d="M346 636v-524c0 -37 -1 -43 34 -54c13 -4 22 -13 22 -27c0 -29 -33 -31 -37 -31h-283c-4 0 -37 2 -37 31c0 14 9 23 22 27c35 11 34 17 34 54v524c0 37 1 43 -34 54c-13 4 -22 13 -22 27c0 29 33 31 37 31h283c4 0 37 -2 37 -31c0 -14 -9 -23 -22 -27
c-35 -11 -34 -17 -34 -54zM394 794h-136l-34 68l-34 -68h-135l107 156h125z" />
    <glyph glyph-name="Idieresis" unicode="&#xcf;" horiz-adv-x="447" 
d="M346 636v-524c0 -37 -1 -43 34 -54c13 -4 22 -13 22 -27c0 -29 -33 -31 -37 -31h-283c-4 0 -37 2 -37 31c0 14 9 23 22 27c35 11 34 17 34 54v524c0 37 1 43 -34 54c-13 4 -22 13 -22 27c0 29 33 31 37 31h283c4 0 37 -2 37 -31c0 -14 -9 -23 -22 -27
c-35 -11 -34 -17 -34 -54zM177 897c0 -58 -46 -108 -108 -108s-108 50 -108 108s46 108 108 108s108 -50 108 -108zM485 897c0 -58 -46 -108 -108 -108s-108 50 -108 108s46 108 108 108s108 -50 108 -108z" />
    <glyph glyph-name="Igrave" unicode="&#xcc;" horiz-adv-x="447" 
d="M346 636v-524c0 -37 -1 -43 34 -54c13 -4 22 -13 22 -27c0 -29 -33 -31 -37 -31h-283c-4 0 -37 2 -37 31c0 14 9 23 22 27c35 11 34 17 34 54v524c0 37 1 43 -34 54c-13 4 -22 13 -22 27c0 29 33 31 37 31h283c4 0 37 -2 37 -31c0 -14 -9 -23 -22 -27
c-35 -11 -34 -17 -34 -54zM285 950l51 -156h-114l-102 156h165z" />
    <glyph glyph-name="Ntilde" unicode="&#xd1;" horiz-adv-x="753" 
d="M115 158v402h2l56 -100v-302c16 -125 80 -86 80 -129c0 -31 -41 -29 -52 -29h-114c-11 0 -52 -2 -52 29c0 43 64 4 80 129zM578 425v142c0 143 -82 105 -82 151c0 28 33 30 43 30h136c10 0 43 -2 43 -30c0 -46 -82 -8 -82 -151v-243h-2zM345 748l291 -506v-242h-149
l-366 631c-16 28 -21 43 -54 54c-17 6 -30 10 -30 32c0 30 30 30 51 31h257zM477 935h87c-9 -59 -50 -136 -116 -136c-30 0 -60 31 -90 36c-51 8 -61 14 -78 -21h-89c9 60 59 123 123 133c23 0 51 -11 75 -21c72 -30 72 -17 88 9z" />
    <glyph glyph-name="Oacute" unicode="&#xd3;" horiz-adv-x="711" 
d="M333 763v-58c-47 -17 -51 -47 -51 -72v-518c0 -25 4 -55 51 -72v-58c-212 19 -311 190 -311 389s99 370 311 389zM378 -15v58c47 17 51 47 51 72v518c0 25 -4 55 -51 72v58c212 -19 311 -190 311 -389s-99 -370 -311 -389zM341 950h165l-103 -156h-113z" />
    <glyph glyph-name="Ocircumflex" unicode="&#xd4;" horiz-adv-x="711" 
d="M333 763v-58c-47 -17 -51 -47 -51 -72v-518c0 -25 4 -55 51 -72v-58c-212 19 -311 190 -311 389s99 370 311 389zM378 -15v58c47 17 51 47 51 72v518c0 25 -4 55 -51 72v58c212 -19 311 -190 311 -389s-99 -370 -311 -389zM526 794h-136l-34 68l-34 -68h-135l107 156h125
z" />
    <glyph glyph-name="Odieresis" unicode="&#xd6;" horiz-adv-x="711" 
d="M333 763v-58c-47 -17 -51 -47 -51 -72v-518c0 -25 4 -55 51 -72v-58c-212 19 -311 190 -311 389s99 370 311 389zM378 -15v58c47 17 51 47 51 72v518c0 25 -4 55 -51 72v58c212 -19 311 -190 311 -389s-99 -370 -311 -389zM309 897c0 -58 -46 -108 -108 -108
s-108 50 -108 108s46 108 108 108s108 -50 108 -108zM617 897c0 -58 -46 -108 -108 -108s-108 50 -108 108s46 108 108 108s108 -50 108 -108z" />
    <glyph glyph-name="Ograve" unicode="&#xd2;" horiz-adv-x="711" 
d="M333 763v-58c-47 -17 -51 -47 -51 -72v-518c0 -25 4 -55 51 -72v-58c-212 19 -311 190 -311 389s99 370 311 389zM378 -15v58c47 17 51 47 51 72v518c0 25 -4 55 -51 72v58c212 -19 311 -190 311 -389s-99 -370 -311 -389zM417 950l51 -156h-114l-102 156h165z" />
    <glyph glyph-name="Otilde" unicode="&#xd5;" horiz-adv-x="711" 
d="M333 763v-58c-47 -17 -51 -47 -51 -72v-518c0 -25 4 -55 51 -72v-58c-212 19 -311 190 -311 389s99 370 311 389zM378 -15v58c47 17 51 47 51 72v518c0 25 -4 55 -51 72v58c212 -19 311 -190 311 -389s-99 -370 -311 -389zM456 935h87c-9 -59 -50 -136 -116 -136
c-30 0 -60 31 -90 36c-51 8 -61 14 -78 -21h-89c9 60 59 123 123 133c23 0 51 -11 75 -21c72 -30 72 -17 88 9z" />
    <glyph glyph-name="Scaron" unicode="&#x160;" horiz-adv-x="631" 
d="M298 763v-58c-38 -13 -71 -41 -71 -82c0 -49 27 -79 146 -125c177 -68 217 -162 217 -254c0 -155 -129 -256 -277 -259v58c48 15 89 37 91 92c2 63 -72 89 -120 110c-126 53 -243 110 -243 267c0 152 110 246 257 251zM563 718v-171c0 -23 -4 -48 -33 -48
c-24 0 -33 19 -36 39c-11 74 -73 150 -151 167v58c63 -1 130 -39 141 -39c26 0 24 36 50 36c31 0 29 -34 29 -42zM41 31v193c0 21 4 49 32 49c20 0 34 -16 37 -33c14 -80 70 -179 158 -197v-58c-87 2 -106 37 -142 37c-32 0 -29 -33 -54 -33c-31 0 -31 37 -31 42zM146 945
h136l34 -68l34 68h135l-107 -156h-125z" />
    <glyph glyph-name="Uacute" unicode="&#xda;" horiz-adv-x="760" 
d="M590 215v375c-16 125 -80 86 -80 129c0 31 41 29 52 29h114c11 0 52 2 52 -29c0 -43 -64 -4 -80 -129v-377c-8 -165 -127 -225 -192 -226v59c92 28 128 80 134 169zM411 44v-59c-79 0 -140 1 -209 39c-90 50 -102 88 -102 138v474c0 37 1 43 -34 54c-13 4 -22 13 -22 27
c0 29 33 31 37 31h283c4 0 37 -2 37 -31c0 -14 -9 -23 -22 -27c-35 -11 -34 -17 -34 -54v-481c0 -10 -9 -89 66 -111zM365 950h165l-103 -156h-113z" />
    <glyph glyph-name="Ucircumflex" unicode="&#xdb;" horiz-adv-x="760" 
d="M590 215v375c-16 125 -80 86 -80 129c0 31 41 29 52 29h114c11 0 52 2 52 -29c0 -43 -64 -4 -80 -129v-377c-8 -165 -127 -225 -192 -226v59c92 28 128 80 134 169zM411 44v-59c-79 0 -140 1 -209 39c-90 50 -102 88 -102 138v474c0 37 1 43 -34 54c-13 4 -22 13 -22 27
c0 29 33 31 37 31h283c4 0 37 -2 37 -31c0 -14 -9 -23 -22 -27c-35 -11 -34 -17 -34 -54v-481c0 -10 -9 -89 66 -111zM550 794h-136l-34 68l-34 -68h-135l107 156h125z" />
    <glyph glyph-name="Udieresis" unicode="&#xdc;" horiz-adv-x="760" 
d="M590 215v375c-16 125 -80 86 -80 129c0 31 41 29 52 29h114c11 0 52 2 52 -29c0 -43 -64 -4 -80 -129v-377c-8 -165 -127 -225 -192 -226v59c92 28 128 80 134 169zM411 44v-59c-79 0 -140 1 -209 39c-90 50 -102 88 -102 138v474c0 37 1 43 -34 54c-13 4 -22 13 -22 27
c0 29 33 31 37 31h283c4 0 37 -2 37 -31c0 -14 -9 -23 -22 -27c-35 -11 -34 -17 -34 -54v-481c0 -10 -9 -89 66 -111zM334 897c0 -58 -46 -108 -108 -108s-108 50 -108 108s46 108 108 108s108 -50 108 -108zM642 897c0 -58 -46 -108 -108 -108s-108 50 -108 108
s46 108 108 108s108 -50 108 -108z" />
    <glyph glyph-name="Ugrave" unicode="&#xd9;" horiz-adv-x="760" 
d="M590 215v375c-16 125 -80 86 -80 129c0 31 41 29 52 29h114c11 0 52 2 52 -29c0 -43 -64 -4 -80 -129v-377c-8 -165 -127 -225 -192 -226v59c92 28 128 80 134 169zM411 44v-59c-79 0 -140 1 -209 39c-90 50 -102 88 -102 138v474c0 37 1 43 -34 54c-13 4 -22 13 -22 27
c0 29 33 31 37 31h283c4 0 37 -2 37 -31c0 -14 -9 -23 -22 -27c-35 -11 -34 -17 -34 -54v-481c0 -10 -9 -89 66 -111zM441 950l51 -156h-114l-102 156h165z" />
    <glyph glyph-name="Yacute" unicode="&#xdd;" horiz-adv-x="671" 
d="M473 398l-32 71l52 116c8 17 15 33 15 53c0 60 -68 38 -68 79c0 36 41 31 65 31h111c23 0 51 -2 51 -32c0 -17 -11 -24 -25 -30c-41 -17 -52 -32 -71 -73zM207 112v178l-151 358c-7 18 -12 31 -29 42c-13 7 -23 12 -23 29c0 31 32 29 53 29h247c22 0 55 2 55 -30
c0 -15 -11 -23 -22 -30c-11 -6 -19 -10 -19 -24c0 -13 5 -26 10 -38l124 -283v-231c0 -37 -1 -43 34 -54c13 -4 22 -13 22 -27c0 -29 -33 -31 -37 -31h-283c-4 0 -37 2 -37 31c0 14 9 23 22 27c35 11 34 17 34 54zM321 950h165l-103 -156h-113z" />
    <glyph glyph-name="Ydieresis" unicode="&#x178;" horiz-adv-x="671" 
d="M473 398l-32 71l52 116c8 17 15 33 15 53c0 60 -68 38 -68 79c0 36 41 31 65 31h111c23 0 51 -2 51 -32c0 -17 -11 -24 -25 -30c-41 -17 -52 -32 -71 -73zM207 112v178l-151 358c-7 18 -12 31 -29 42c-13 7 -23 12 -23 29c0 31 32 29 53 29h247c22 0 55 2 55 -30
c0 -15 -11 -23 -22 -30c-11 -6 -19 -10 -19 -24c0 -13 5 -26 10 -38l124 -283v-231c0 -37 -1 -43 34 -54c13 -4 22 -13 22 -27c0 -29 -33 -31 -37 -31h-283c-4 0 -37 2 -37 31c0 14 9 23 22 27c35 11 34 17 34 54zM289 897c0 -58 -46 -108 -108 -108s-108 50 -108 108
s46 108 108 108s108 -50 108 -108zM597 897c0 -58 -46 -108 -108 -108s-108 50 -108 108s46 108 108 108s108 -50 108 -108z" />
    <glyph glyph-name="Zcaron" unicode="&#x17d;" horiz-adv-x="587" 
d="M565 748v-63l-303 -685h-240v54l305 694h238zM41 550v198h241l-25 -58c-82 -16 -138 -65 -158 -139c-5 -17 -10 -30 -30 -30c-28 0 -28 23 -28 29zM564 204l1 -204h-258l26 58c104 22 138 53 174 145c5 17 10 30 29 30c28 0 28 -23 28 -29zM124 945h136l34 -68l34 68h135
l-107 -156h-125z" />
    <glyph glyph-name="aacute" unicode="&#xe1;" 
d="M221 608l26 -113l-94 -342c-16 -61 -2 -78 32 -93c16 -7 30 -13 30 -33c0 -28 -32 -27 -52 -27h-115c-20 0 -56 1 -56 30c0 24 17 23 39 34c21 11 48 34 67 105l120 439h3zM374 117l-20 77h-146l14 58h122l-101 442l13 54h221l150 -632c6 -28 7 -47 35 -59
c14 -6 25 -13 25 -31c0 -27 -36 -26 -55 -26h-249c-20 0 -49 2 -49 28c0 16 6 21 19 28c26 15 30 22 21 61zM333 950h165l-103 -156h-113z" />
    <glyph glyph-name="acircumflex" unicode="&#xe2;" 
d="M221 608l26 -113l-94 -342c-16 -61 -2 -78 32 -93c16 -7 30 -13 30 -33c0 -28 -32 -27 -52 -27h-115c-20 0 -56 1 -56 30c0 24 17 23 39 34c21 11 48 34 67 105l120 439h3zM374 117l-20 77h-146l14 58h122l-101 442l13 54h221l150 -632c6 -28 7 -47 35 -59
c14 -6 25 -13 25 -31c0 -27 -36 -26 -55 -26h-249c-20 0 -49 2 -49 28c0 16 6 21 19 28c26 15 30 22 21 61zM518 794h-136l-34 68l-34 -68h-135l107 156h125z" />
    <glyph glyph-name="adieresis" unicode="&#xe4;" 
d="M221 608l26 -113l-94 -342c-16 -61 -2 -78 32 -93c16 -7 30 -13 30 -33c0 -28 -32 -27 -52 -27h-115c-20 0 -56 1 -56 30c0 24 17 23 39 34c21 11 48 34 67 105l120 439h3zM374 117l-20 77h-146l14 58h122l-101 442l13 54h221l150 -632c6 -28 7 -47 35 -59
c14 -6 25 -13 25 -31c0 -27 -36 -26 -55 -26h-249c-20 0 -49 2 -49 28c0 16 6 21 19 28c26 15 30 22 21 61zM301 897c0 -58 -46 -108 -108 -108s-108 50 -108 108s46 108 108 108s108 -50 108 -108zM609 897c0 -58 -46 -108 -108 -108s-108 50 -108 108s46 108 108 108
s108 -50 108 -108z" />
    <glyph glyph-name="agrave" unicode="&#xe0;" 
d="M221 608l26 -113l-94 -342c-16 -61 -2 -78 32 -93c16 -7 30 -13 30 -33c0 -28 -32 -27 -52 -27h-115c-20 0 -56 1 -56 30c0 24 17 23 39 34c21 11 48 34 67 105l120 439h3zM374 117l-20 77h-146l14 58h122l-101 442l13 54h221l150 -632c6 -28 7 -47 35 -59
c14 -6 25 -13 25 -31c0 -27 -36 -26 -55 -26h-249c-20 0 -49 2 -49 28c0 16 6 21 19 28c26 15 30 22 21 61zM409 950l51 -156h-114l-102 156h165z" />
    <glyph glyph-name="aring" unicode="&#xe5;" 
d="M464 904c0 -62 -51 -115 -116 -115s-116 53 -116 115s51 115 116 115s116 -53 116 -115zM384 904c0 21 -18 35 -37 35s-35 -15 -35 -35s16 -35 35 -35s37 14 37 35zM221 608l26 -113l-94 -342c-16 -61 -2 -78 32 -93c16 -7 30 -13 30 -33c0 -28 -32 -27 -52 -27h-115
c-20 0 -56 1 -56 30c0 24 17 23 39 34c21 11 48 34 67 105l120 439h3zM374 117l-20 77h-146l14 58h122l-101 442l13 54h221l150 -632c6 -28 7 -47 35 -59c14 -6 25 -13 25 -31c0 -27 -36 -26 -55 -26h-249c-20 0 -49 2 -49 28c0 16 6 21 19 28c26 15 30 22 21 61z" />
    <glyph glyph-name="atilde" unicode="&#xe3;" 
d="M221 608l26 -113l-94 -342c-16 -61 -2 -78 32 -93c16 -7 30 -13 30 -33c0 -28 -32 -27 -52 -27h-115c-20 0 -56 1 -56 30c0 24 17 23 39 34c21 11 48 34 67 105l120 439h3zM374 117l-20 77h-146l14 58h122l-101 442l13 54h221l150 -632c6 -28 7 -47 35 -59
c14 -6 25 -13 25 -31c0 -27 -36 -26 -55 -26h-249c-20 0 -49 2 -49 28c0 16 6 21 19 28c26 15 30 22 21 61zM448 935h87c-9 -59 -50 -136 -116 -136c-30 0 -60 31 -90 36c-51 8 -61 14 -78 -21h-89c9 60 59 123 123 133c23 0 51 -11 75 -21c72 -30 72 -17 88 9z" />
    <glyph glyph-name="ccedilla" unicode="&#xe7;" horiz-adv-x="656" 
d="M391 705v58c37 -1 114 -40 140 -40c15 0 21 6 27 19s13 21 27 21c32 0 32 -31 32 -36v-232c0 -5 0 -36 -32 -36c-21 0 -33 17 -37 36c-17 81 -64 185 -157 210zM555 185c5 17 12 32 33 32c19 0 30 -16 30 -34c-2 -82 -123 -202 -227 -198v58c77 17 141 68 164 142z
M316 -94h-19c-16 0 -32 8 -32 31v58c-82 20 -143 67 -183 131s-60 146 -60 235c0 231 130 395 324 402v-58c-48 -10 -64 -51 -64 -93v-474c0 -42 16 -83 64 -95v-81h23c24 0 32 -13 32 -32v-109c0 -27 -13 -57 -39 -57h-113v85h67v57z" />
    <glyph glyph-name="eacute" unicode="&#xe9;" horiz-adv-x="658" 
d="M37 717c0 29 33 31 37 31h264v-748h-264c-4 0 -37 2 -37 31c0 14 9 23 22 27c35 11 34 17 34 54v524c0 37 1 43 -34 54c-13 4 -22 13 -22 27zM383 690v58h223v-203c0 -5 -1 -24 -31 -24c-17 0 -22 10 -27 25c-26 81 -77 130 -165 144zM383 0v58c81 10 143 65 170 145
c7 15 13 31 31 31c32 0 29 -30 29 -34v-200h-230zM383 352v62c42 11 61 50 70 88c5 17 11 33 32 33c31 0 26 -36 26 -44v-216c0 -8 5 -44 -26 -44c-21 0 -27 16 -32 33c-9 38 -28 77 -70 88zM314 950h165l-103 -156h-113z" />
    <glyph glyph-name="ecircumflex" unicode="&#xea;" horiz-adv-x="658" 
d="M37 717c0 29 33 31 37 31h264v-748h-264c-4 0 -37 2 -37 31c0 14 9 23 22 27c35 11 34 17 34 54v524c0 37 1 43 -34 54c-13 4 -22 13 -22 27zM383 690v58h223v-203c0 -5 -1 -24 -31 -24c-17 0 -22 10 -27 25c-26 81 -77 130 -165 144zM383 0v58c81 10 143 65 170 145
c7 15 13 31 31 31c32 0 29 -30 29 -34v-200h-230zM383 352v62c42 11 61 50 70 88c5 17 11 33 32 33c31 0 26 -36 26 -44v-216c0 -8 5 -44 -26 -44c-21 0 -27 16 -32 33c-9 38 -28 77 -70 88zM499 794h-136l-34 68l-34 -68h-135l107 156h125z" />
    <glyph glyph-name="edieresis" unicode="&#xeb;" horiz-adv-x="658" 
d="M37 717c0 29 33 31 37 31h264v-748h-264c-4 0 -37 2 -37 31c0 14 9 23 22 27c35 11 34 17 34 54v524c0 37 1 43 -34 54c-13 4 -22 13 -22 27zM383 690v58h223v-203c0 -5 -1 -24 -31 -24c-17 0 -22 10 -27 25c-26 81 -77 130 -165 144zM383 0v58c81 10 143 65 170 145
c7 15 13 31 31 31c32 0 29 -30 29 -34v-200h-230zM383 352v62c42 11 61 50 70 88c5 17 11 33 32 33c31 0 26 -36 26 -44v-216c0 -8 5 -44 -26 -44c-21 0 -27 16 -32 33c-9 38 -28 77 -70 88zM283 897c0 -58 -46 -108 -108 -108s-108 50 -108 108s46 108 108 108
s108 -50 108 -108zM591 897c0 -58 -46 -108 -108 -108s-108 50 -108 108s46 108 108 108s108 -50 108 -108z" />
    <glyph glyph-name="egrave" unicode="&#xe8;" horiz-adv-x="658" 
d="M37 717c0 29 33 31 37 31h264v-748h-264c-4 0 -37 2 -37 31c0 14 9 23 22 27c35 11 34 17 34 54v524c0 37 1 43 -34 54c-13 4 -22 13 -22 27zM383 690v58h223v-203c0 -5 -1 -24 -31 -24c-17 0 -22 10 -27 25c-26 81 -77 130 -165 144zM383 0v58c81 10 143 65 170 145
c7 15 13 31 31 31c32 0 29 -30 29 -34v-200h-230zM383 352v62c42 11 61 50 70 88c5 17 11 33 32 33c31 0 26 -36 26 -44v-216c0 -8 5 -44 -26 -44c-21 0 -27 16 -32 33c-9 38 -28 77 -70 88zM390 950l51 -156h-114l-102 156h165z" />
    <glyph glyph-name="iacute" unicode="&#xed;" horiz-adv-x="447" 
d="M346 636v-524c0 -37 -1 -43 34 -54c13 -4 22 -13 22 -27c0 -29 -33 -31 -37 -31h-283c-4 0 -37 2 -37 31c0 14 9 23 22 27c35 11 34 17 34 54v524c0 37 1 43 -34 54c-13 4 -22 13 -22 27c0 29 33 31 37 31h283c4 0 37 -2 37 -31c0 -14 -9 -23 -22 -27
c-35 -11 -34 -17 -34 -54zM209 950h165l-103 -156h-113z" />
    <glyph glyph-name="icircumflex" unicode="&#xee;" horiz-adv-x="447" 
d="M346 636v-524c0 -37 -1 -43 34 -54c13 -4 22 -13 22 -27c0 -29 -33 -31 -37 -31h-283c-4 0 -37 2 -37 31c0 14 9 23 22 27c35 11 34 17 34 54v524c0 37 1 43 -34 54c-13 4 -22 13 -22 27c0 29 33 31 37 31h283c4 0 37 -2 37 -31c0 -14 -9 -23 -22 -27
c-35 -11 -34 -17 -34 -54zM394 794h-136l-34 68l-34 -68h-135l107 156h125z" />
    <glyph glyph-name="idieresis" unicode="&#xef;" horiz-adv-x="447" 
d="M346 636v-524c0 -37 -1 -43 34 -54c13 -4 22 -13 22 -27c0 -29 -33 -31 -37 -31h-283c-4 0 -37 2 -37 31c0 14 9 23 22 27c35 11 34 17 34 54v524c0 37 1 43 -34 54c-13 4 -22 13 -22 27c0 29 33 31 37 31h283c4 0 37 -2 37 -31c0 -14 -9 -23 -22 -27
c-35 -11 -34 -17 -34 -54zM177 897c0 -58 -46 -108 -108 -108s-108 50 -108 108s46 108 108 108s108 -50 108 -108zM485 897c0 -58 -46 -108 -108 -108s-108 50 -108 108s46 108 108 108s108 -50 108 -108z" />
    <glyph glyph-name="igrave" unicode="&#xec;" horiz-adv-x="447" 
d="M346 636v-524c0 -37 -1 -43 34 -54c13 -4 22 -13 22 -27c0 -29 -33 -31 -37 -31h-283c-4 0 -37 2 -37 31c0 14 9 23 22 27c35 11 34 17 34 54v524c0 37 1 43 -34 54c-13 4 -22 13 -22 27c0 29 33 31 37 31h283c4 0 37 -2 37 -31c0 -14 -9 -23 -22 -27
c-35 -11 -34 -17 -34 -54zM285 950l51 -156h-114l-102 156h165z" />
    <glyph glyph-name="ntilde" unicode="&#xf1;" horiz-adv-x="753" 
d="M115 158v402h2l56 -100v-302c16 -125 80 -86 80 -129c0 -31 -41 -29 -52 -29h-114c-11 0 -52 -2 -52 29c0 43 64 4 80 129zM578 425v142c0 143 -82 105 -82 151c0 28 33 30 43 30h136c10 0 43 -2 43 -30c0 -46 -82 -8 -82 -151v-243h-2zM345 748l291 -506v-242h-149
l-366 631c-16 28 -21 43 -54 54c-17 6 -30 10 -30 32c0 30 30 30 51 31h257zM477 935h87c-9 -59 -50 -136 -116 -136c-30 0 -60 31 -90 36c-51 8 -61 14 -78 -21h-89c9 60 59 123 123 133c23 0 51 -11 75 -21c72 -30 72 -17 88 9z" />
    <glyph glyph-name="oacute" unicode="&#xf3;" horiz-adv-x="711" 
d="M333 763v-58c-47 -17 -51 -47 -51 -72v-518c0 -25 4 -55 51 -72v-58c-212 19 -311 190 -311 389s99 370 311 389zM378 -15v58c47 17 51 47 51 72v518c0 25 -4 55 -51 72v58c212 -19 311 -190 311 -389s-99 -370 -311 -389zM341 950h165l-103 -156h-113z" />
    <glyph glyph-name="ocircumflex" unicode="&#xf4;" horiz-adv-x="711" 
d="M333 763v-58c-47 -17 -51 -47 -51 -72v-518c0 -25 4 -55 51 -72v-58c-212 19 -311 190 -311 389s99 370 311 389zM378 -15v58c47 17 51 47 51 72v518c0 25 -4 55 -51 72v58c212 -19 311 -190 311 -389s-99 -370 -311 -389zM526 794h-136l-34 68l-34 -68h-135l107 156h125
z" />
    <glyph glyph-name="odieresis" unicode="&#xf6;" horiz-adv-x="711" 
d="M333 763v-58c-47 -17 -51 -47 -51 -72v-518c0 -25 4 -55 51 -72v-58c-212 19 -311 190 -311 389s99 370 311 389zM378 -15v58c47 17 51 47 51 72v518c0 25 -4 55 -51 72v58c212 -19 311 -190 311 -389s-99 -370 -311 -389zM309 897c0 -58 -46 -108 -108 -108
s-108 50 -108 108s46 108 108 108s108 -50 108 -108zM617 897c0 -58 -46 -108 -108 -108s-108 50 -108 108s46 108 108 108s108 -50 108 -108z" />
    <glyph glyph-name="ograve" unicode="&#xf2;" horiz-adv-x="711" 
d="M333 763v-58c-47 -17 -51 -47 -51 -72v-518c0 -25 4 -55 51 -72v-58c-212 19 -311 190 -311 389s99 370 311 389zM378 -15v58c47 17 51 47 51 72v518c0 25 -4 55 -51 72v58c212 -19 311 -190 311 -389s-99 -370 -311 -389zM417 950l51 -156h-114l-102 156h165z" />
    <glyph glyph-name="otilde" unicode="&#xf5;" horiz-adv-x="711" 
d="M333 763v-58c-47 -17 -51 -47 -51 -72v-518c0 -25 4 -55 51 -72v-58c-212 19 -311 190 -311 389s99 370 311 389zM378 -15v58c47 17 51 47 51 72v518c0 25 -4 55 -51 72v58c212 -19 311 -190 311 -389s-99 -370 -311 -389zM456 935h87c-9 -59 -50 -136 -116 -136
c-30 0 -60 31 -90 36c-51 8 -61 14 -78 -21h-89c9 60 59 123 123 133c23 0 51 -11 75 -21c72 -30 72 -17 88 9z" />
    <glyph glyph-name="scaron" unicode="&#x161;" horiz-adv-x="631" 
d="M298 763v-58c-38 -13 -71 -41 -71 -82c0 -49 27 -79 146 -125c177 -68 217 -162 217 -254c0 -155 -129 -256 -277 -259v58c48 15 89 37 91 92c2 63 -72 89 -120 110c-126 53 -243 110 -243 267c0 152 110 246 257 251zM563 718v-171c0 -23 -4 -48 -33 -48
c-24 0 -33 19 -36 39c-11 74 -73 150 -151 167v58c63 -1 130 -39 141 -39c26 0 24 36 50 36c31 0 29 -34 29 -42zM41 31v193c0 21 4 49 32 49c20 0 34 -16 37 -33c14 -80 70 -179 158 -197v-58c-87 2 -106 37 -142 37c-32 0 -29 -33 -54 -33c-31 0 -31 37 -31 42zM146 945
h136l34 -68l34 68h135l-107 -156h-125z" />
    <glyph glyph-name="uacute" unicode="&#xfa;" horiz-adv-x="760" 
d="M590 215v375c-16 125 -80 86 -80 129c0 31 41 29 52 29h114c11 0 52 2 52 -29c0 -43 -64 -4 -80 -129v-377c-8 -165 -127 -225 -192 -226v59c92 28 128 80 134 169zM411 44v-59c-79 0 -140 1 -209 39c-90 50 -102 88 -102 138v474c0 37 1 43 -34 54c-13 4 -22 13 -22 27
c0 29 33 31 37 31h283c4 0 37 -2 37 -31c0 -14 -9 -23 -22 -27c-35 -11 -34 -17 -34 -54v-481c0 -10 -9 -89 66 -111zM365 950h165l-103 -156h-113z" />
    <glyph glyph-name="ucircumflex" unicode="&#xfb;" horiz-adv-x="760" 
d="M590 215v375c-16 125 -80 86 -80 129c0 31 41 29 52 29h114c11 0 52 2 52 -29c0 -43 -64 -4 -80 -129v-377c-8 -165 -127 -225 -192 -226v59c92 28 128 80 134 169zM411 44v-59c-79 0 -140 1 -209 39c-90 50 -102 88 -102 138v474c0 37 1 43 -34 54c-13 4 -22 13 -22 27
c0 29 33 31 37 31h283c4 0 37 -2 37 -31c0 -14 -9 -23 -22 -27c-35 -11 -34 -17 -34 -54v-481c0 -10 -9 -89 66 -111zM550 794h-136l-34 68l-34 -68h-135l107 156h125z" />
    <glyph glyph-name="udieresis" unicode="&#xfc;" horiz-adv-x="760" 
d="M590 215v375c-16 125 -80 86 -80 129c0 31 41 29 52 29h114c11 0 52 2 52 -29c0 -43 -64 -4 -80 -129v-377c-8 -165 -127 -225 -192 -226v59c92 28 128 80 134 169zM411 44v-59c-79 0 -140 1 -209 39c-90 50 -102 88 -102 138v474c0 37 1 43 -34 54c-13 4 -22 13 -22 27
c0 29 33 31 37 31h283c4 0 37 -2 37 -31c0 -14 -9 -23 -22 -27c-35 -11 -34 -17 -34 -54v-481c0 -10 -9 -89 66 -111zM334 897c0 -58 -46 -108 -108 -108s-108 50 -108 108s46 108 108 108s108 -50 108 -108zM642 897c0 -58 -46 -108 -108 -108s-108 50 -108 108
s46 108 108 108s108 -50 108 -108z" />
    <glyph glyph-name="ugrave" unicode="&#xf9;" horiz-adv-x="760" 
d="M590 215v375c-16 125 -80 86 -80 129c0 31 41 29 52 29h114c11 0 52 2 52 -29c0 -43 -64 -4 -80 -129v-377c-8 -165 -127 -225 -192 -226v59c92 28 128 80 134 169zM411 44v-59c-79 0 -140 1 -209 39c-90 50 -102 88 -102 138v474c0 37 1 43 -34 54c-13 4 -22 13 -22 27
c0 29 33 31 37 31h283c4 0 37 -2 37 -31c0 -14 -9 -23 -22 -27c-35 -11 -34 -17 -34 -54v-481c0 -10 -9 -89 66 -111zM441 950l51 -156h-114l-102 156h165z" />
    <glyph glyph-name="yacute" unicode="&#xfd;" horiz-adv-x="671" 
d="M473 398l-32 71l52 116c8 17 15 33 15 53c0 60 -68 38 -68 79c0 36 41 31 65 31h111c23 0 51 -2 51 -32c0 -17 -11 -24 -25 -30c-41 -17 -52 -32 -71 -73zM207 112v178l-151 358c-7 18 -12 31 -29 42c-13 7 -23 12 -23 29c0 31 32 29 53 29h247c22 0 55 2 55 -30
c0 -15 -11 -23 -22 -30c-11 -6 -19 -10 -19 -24c0 -13 5 -26 10 -38l124 -283v-231c0 -37 -1 -43 34 -54c13 -4 22 -13 22 -27c0 -29 -33 -31 -37 -31h-283c-4 0 -37 2 -37 31c0 14 9 23 22 27c35 11 34 17 34 54zM321 950h165l-103 -156h-113z" />
    <glyph glyph-name="ydieresis" unicode="&#xff;" horiz-adv-x="671" 
d="M473 398l-32 71l52 116c8 17 15 33 15 53c0 60 -68 38 -68 79c0 36 41 31 65 31h111c23 0 51 -2 51 -32c0 -17 -11 -24 -25 -30c-41 -17 -52 -32 -71 -73zM207 112v178l-151 358c-7 18 -12 31 -29 42c-13 7 -23 12 -23 29c0 31 32 29 53 29h247c22 0 55 2 55 -30
c0 -15 -11 -23 -22 -30c-11 -6 -19 -10 -19 -24c0 -13 5 -26 10 -38l124 -283v-231c0 -37 -1 -43 34 -54c13 -4 22 -13 22 -27c0 -29 -33 -31 -37 -31h-283c-4 0 -37 2 -37 31c0 14 9 23 22 27c35 11 34 17 34 54zM289 897c0 -58 -46 -108 -108 -108s-108 50 -108 108
s46 108 108 108s108 -50 108 -108zM597 897c0 -58 -46 -108 -108 -108s-108 50 -108 108s46 108 108 108s108 -50 108 -108z" />
    <glyph glyph-name="zcaron" unicode="&#x17e;" horiz-adv-x="587" 
d="M565 748v-63l-303 -685h-240v54l305 694h238zM41 550v198h241l-25 -58c-82 -16 -138 -65 -158 -139c-5 -17 -10 -30 -30 -30c-28 0 -28 23 -28 29zM564 204l1 -204h-258l26 58c104 22 138 53 174 145c5 17 10 30 29 30c28 0 28 -23 28 -29zM124 945h136l34 -68l34 68h135
l-107 -156h-125z" />
    <glyph glyph-name="Delta" unicode="&#x2206;" horiz-adv-x="758" 
d="M720 0h-683v54l291 687l86 19l306 -706v-54zM480 87l-176 420l-171 -420h347z" />
    <glyph glyph-name="Omega" unicode="&#x2126;" horiz-adv-x="824" 
d="M788 216l-34 -216h-304l-14 29c41 114 99 271 99 395c-1 210 -45 284 -126 284c-79 0 -121 -56 -121 -286c0 -122 51 -272 96 -393l-12 -29h-308l-28 216h47c24 -59 40 -71 92 -71h90c-86 57 -199 132 -199 287c0 201 146 328 348 328c201 0 343 -125 343 -323
c0 -144 -112 -219 -210 -292h111c42 0 60 12 82 71h48z" />
    <glyph glyph-name="pi" unicode="&#x3c0;" horiz-adv-x="680" 
d="M617 532l40 -8c-3 -52 -29 -141 -46 -163c-18 -7 -40 -9 -65 -9c-7 -74 -7 -94 -6 -167c1 -74 20 -90 39 -90c16 0 27 6 43 13l14 -39c-28 -40 -93 -84 -152 -84c-70 0 -135 34 -135 158c0 101 5 139 10 212c-50 -1 -65 2 -104 2v-2c0 -255 -52 -322 -72 -348
c-36 -15 -67 -20 -93 -22l-11 31c77 116 106 246 106 343c-58 1 -85 -3 -139 -32l-21 43c39 55 80 131 217 129c93 -2 209 -2 309 -2c38 0 52 8 66 35z" />
    <glyph glyph-name="Euro" unicode="&#x20ac;" horiz-adv-x="630" 
d="M580 596h-31c-12 71 -51 100 -109 100c-83 0 -119 -89 -130 -238h214l-26 -61h-189c0 -11 -1 -23 -1 -33c0 -11 0 -24 1 -32h161l-25 -61h-135c7 -143 54 -220 132 -220c53 0 95 29 107 96h31l-8 -112c-32 -30 -78 -49 -183 -49c-186 0 -272 102 -294 285h-77l25 61h43
c-1 11 -2 25 -2 35c0 8 1 20 1 30h-67l25 61h47c23 193 108 305 299 305c109 0 156 -24 183 -50z" />
    <glyph glyph-name="estimated" unicode="&#x212e;" horiz-adv-x="937" 
d="M899 363h-698c-4 0 -6 -2 -6 -5v-211c0 -10 3 -18 9 -25c68 -70 161 -115 264 -115c112 0 211 51 278 129h63c-77 -91 -203 -150 -342 -150c-238 0 -431 173 -431 387c0 215 193 388 431 388c239 0 432 -173 432 -388v-10zM741 390v213c0 9 -4 18 -11 25
c-67 67 -159 110 -262 110c-102 0 -195 -44 -263 -113c-7 -7 -10 -16 -10 -27v-208c0 -2 2 -7 6 -7h535c4 0 5 5 5 7z" />
    <glyph glyph-name="partialdiff" unicode="&#x2202;" horiz-adv-x="647" 
d="M309 473h1c44 0 89 -17 116 -51c7 34 14 86 17 127c3 51 4 107 -23 155c-21 32 -50 41 -98 41c-68 0 -133 -50 -174 -85c-24 1 -73 90 -57 128c40 20 85 41 171 41c123 0 214 -63 270 -160c49 -87 65 -189 65 -262c0 -95 -19 -185 -60 -256c-50 -97 -140 -165 -270 -165
c-134 0 -224 82 -224 217c0 81 34 148 73 190c48 51 115 80 193 80zM355 408h-2c-20 0 -49 -5 -76 -58c-31 -62 -48 -162 -48 -246c0 -53 13 -69 46 -69c35 0 64 64 84 112c25 62 41 124 53 215c-10 22 -29 46 -57 46z" />
    <glyph glyph-name="product" unicode="&#x220f;" horiz-adv-x="848" 
d="M818 764v-46c-96 -9 -105 -23 -105 -132v-494c0 -113 9 -124 105 -134v-47h-381v47c72 8 76 17 76 133v570c0 40 -6 45 -45 45h-94c-37 0 -40 -4 -40 -42v-573c0 -111 0 -126 68 -133v-47h-375v47c96 8 106 24 106 133v495c0 111 -10 124 -109 132v46h794z" />
    <glyph glyph-name="summation" unicode="&#x2211;" horiz-adv-x="655" 
d="M632 174l-59 -276h-546v47l234 311l-230 459v49h541c2 -20 8 -130 14 -215l-48 -10c-13 42 -28 85 -46 119c-21 39 -40 51 -121 51h-107l160 -316l-244 -333h232c104 0 118 6 172 126z" />
    <glyph glyph-name="uni2219" unicode="&#x2219;" horiz-adv-x="364" 
d="M290 275c0 -58 -46 -108 -108 -108s-108 50 -108 108s46 108 108 108s108 -50 108 -108z" />
    <glyph glyph-name="radical" unicode="&#x221a;" horiz-adv-x="646" 
d="M643 928l-209 -1127l-44 -16l-230 579l-99 -41l-18 55l245 103l133 -366h2l150 825z" />
    <glyph glyph-name="infinity" unicode="&#x221e;" horiz-adv-x="842" 
d="M794 308v-1c0 -132 -92 -206 -185 -206c-54 0 -119 10 -187 115c-54 -72 -109 -115 -194 -115c-92 0 -182 75 -182 200c0 122 85 202 193 202c79 0 134 -32 187 -108c32 38 85 109 187 108c96 -1 181 -75 181 -195zM241 207h1c50 0 86 39 122 88c-39 60 -63 104 -124 104
c-51 0 -87 -36 -87 -99c0 -50 41 -93 88 -93zM603 399h-1c-56 0 -93 -54 -123 -94c57 -83 83 -98 131 -98c50 0 77 55 77 92c0 52 -30 100 -84 100z" />
    <glyph glyph-name="integral" unicode="&#x222b;" horiz-adv-x="492" 
d="M182 -44l-26 417c-25 440 143 519 230 519c47 0 104 -27 104 -78c0 -59 -45 -87 -86 -87c-52 0 -47 93 -69 93c-18 0 -18 -23 -11 -142l22 -379c21 -358 -101 -545 -242 -545c-52 0 -100 35 -101 81c-1 55 56 91 99 91c45 0 42 -101 65 -101c22 0 20 49 15 131z" />
    <glyph glyph-name="approxequal" unicode="&#x2248;" horiz-adv-x="586" 
d="M482 516l73 -68c-43 -75 -106 -121 -161 -121c-44 0 -74 11 -115 39c-28 20 -50 35 -83 35c-46 0 -70 -38 -97 -74l-73 68c32 62 102 119 175 119c51 0 80 -16 106 -33c41 -27 58 -40 82 -40c38 0 64 34 93 75zM482 294l73 -69c-43 -73 -104 -121 -163 -121
c-43 0 -75 14 -113 39c-31 22 -52 36 -83 36c-47 0 -70 -39 -97 -74l-73 68c32 62 103 119 175 119c52 0 80 -17 105 -33c30 -19 52 -41 82 -41c40 0 62 34 94 76z" />
    <glyph glyph-name="notequal" unicode="&#x2260;" horiz-adv-x="586" 
d="M451 562l-34 -80h121v-114h-163l-53 -129h216v-114h-260l-48 -117l-90 35l34 82h-126v114h169l53 129h-222v114h264l49 115z" />
    <glyph glyph-name="lessequal" unicode="&#x2264;" horiz-adv-x="586" 
d="M536 119l-484 236v124l483 235v-129l-372 -167v-2l373 -167v-130zM540 -33h-490v117h490v-117z" />
    <glyph glyph-name="greaterequal" unicode="&#x2265;" horiz-adv-x="586" 
d="M55 714l483 -236v-124l-483 -235v130l373 167v3l-373 166v129zM536 -33h-485v117h485v-117z" />
    <glyph glyph-name="lozenge" unicode="&#x25ca;" horiz-adv-x="660" 
d="M611 362l-211 -442h-143l-209 442l213 445h140zM482 362l-150 331h-4l-151 -331l152 -334h3z" />
    <glyph glyph-name="uni02C9" unicode="&#x2c9;" horiz-adv-x="340" 
d="M334 930v-93h-328v93h328z" />
    <glyph glyph-name="uni00AD" unicode="&#xad;" horiz-adv-x="500" 
d="M75 447h350v-152h-350v152z" />
    <glyph glyph-name="uni03A9" unicode="&#x3a9;" horiz-adv-x="824" 
d="M788 216l-34 -216h-304l-14 29c41 114 99 271 99 395c-1 210 -45 284 -126 284c-79 0 -121 -56 -121 -286c0 -122 51 -272 96 -393l-12 -29h-308l-28 216h47c24 -59 40 -71 92 -71h90c-86 57 -199 132 -199 287c0 201 146 328 348 328c201 0 343 -125 343 -323
c0 -144 -112 -219 -210 -292h111c42 0 60 12 82 71h48z" />
    <glyph glyph-name="uni00A0" unicode="&#xa0;" horiz-adv-x="340" 
 />
    <glyph glyph-name="afii61289" unicode="&#x2113;" horiz-adv-x="544" 
d="M492 183l34 -31c-54 -101 -130 -166 -237 -166c-75 0 -117 19 -144 45c-28 34 -47 60 -47 171v50l-59 -33l-18 45l77 48v159c0 132 18 192 62 253c47 62 105 89 159 89c94 0 138 -72 138 -163c0 -120 -51 -191 -170 -295v-72c0 -130 14 -186 83 -186c53 0 92 45 122 86z
M287 526v-94c39 43 68 109 68 215c0 69 -8 117 -37 117c-31 0 -31 -36 -31 -238z" />
    <glyph glyph-name="uni03BC" unicode="&#x3bc;" horiz-adv-x="708" 
d="M603 551v-433c0 -37 21 -54 42 -65c11 -6 20 -11 20 -28c0 -11 -10 -21 -30 -27c-16 -5 -40 -9 -56 -9c-51 0 -85 18 -108 64h-2c-13 -33 -47 -64 -94 -64c-23 0 -45 8 -57 22v77c9 -2 15 -2 20 -2c56 0 76 37 76 108v357h189zM281 551v-606c0 -9 5 -21 14 -24
s23 -12 23 -24c0 -13 -7 -20 -48 -33s-114 -29 -143 -29c-19 0 -35 18 -35 65v651h189z" />
    <glyph glyph-name="uni2215" unicode="&#x2215;" horiz-adv-x="211" 
d="M372 749l-482 -800l-48 36l481 795z" />
    </font>
</defs>
</svg>
